<svg width="250" height="362" viewBox="0 0 250 362" fill="none" xmlns="http://www.w3.org/2000/svg">
<path d="M24 4.5C13.9069 4.5 6 9.1125 6 15V33C6 38.8875 13.9069 43.5 24 43.5C34.0931 43.5 42 38.8875 42 33V15C42 9.1125 34.0931 4.5 24 4.5ZM39 24C39 25.8037 37.5225 27.6431 34.9481 29.0475C32.0494 30.6281 28.1606 31.5 24 31.5C19.8394 31.5 15.9506 30.6281 13.0519 29.0475C10.4775 27.6431 9 25.8037 9 24V20.88C12.1988 23.6925 17.6681 25.5 24 25.5C30.3319 25.5 35.8013 23.685 39 20.88V24ZM13.0519 9.9525C15.9506 8.37188 19.8394 7.5 24 7.5C28.1606 7.5 32.0494 8.37188 34.9481 9.9525C37.5225 11.3569 39 13.1962 39 15C39 16.8038 37.5225 18.6431 34.9481 20.0475C32.0494 21.6281 28.1606 22.5 24 22.5C19.8394 22.5 15.9506 21.6281 13.0519 20.0475C10.4775 18.6431 9 16.8038 9 15C9 13.1962 10.4775 11.3569 13.0519 9.9525ZM34.9481 38.0475C32.0494 39.6281 28.1606 40.5 24 40.5C19.8394 40.5 15.9506 39.6281 13.0519 38.0475C10.4775 36.6431 9 34.8037 9 33V29.88C12.1988 32.6925 17.6681 34.5 24 34.5C30.3319 34.5 35.8013 32.685 39 29.88V33C39 34.8037 37.5225 36.6431 34.9481 38.0475Z" fill="url(#paint0_linear_200_5405)"/>
<path d="M59.6761 31H55.4382V17.9091H59.8104C61.093 17.9091 62.1946 18.1712 63.1151 18.6953C64.0355 19.2152 64.7408 19.9631 65.2308 20.9389C65.7251 21.9105 65.9723 23.076 65.9723 24.4354C65.9723 25.799 65.723 26.9709 65.2244 27.951C64.7301 28.9311 64.0142 29.6854 63.0767 30.2138C62.1392 30.7379 61.0057 31 59.6761 31ZM57.4134 29.2741H59.5675C60.5646 29.2741 61.3935 29.0866 62.054 28.7116C62.7145 28.3324 63.2088 27.7848 63.5369 27.0689C63.8651 26.3487 64.0291 25.4709 64.0291 24.4354C64.0291 23.4084 63.8651 22.5369 63.5369 21.821C63.2131 21.1051 62.7294 20.5618 62.0859 20.1911C61.4425 19.8203 60.6435 19.6349 59.6889 19.6349H57.4134V29.2741ZM71.1323 31.2173C70.5101 31.2173 69.9476 31.1023 69.4448 30.8722C68.9419 30.6378 68.5435 30.299 68.2495 29.8558C67.9597 29.4126 67.8148 28.8693 67.8148 28.2259C67.8148 27.6719 67.9213 27.2159 68.1344 26.858C68.3475 26.5 68.6351 26.2166 68.9973 26.0078C69.3596 25.799 69.7644 25.6413 70.2118 25.5348C70.6593 25.4283 71.1152 25.3473 71.5797 25.2919C72.1678 25.2237 72.6451 25.1683 73.0115 25.1257C73.378 25.0788 73.6444 25.0043 73.8105 24.902C73.9767 24.7997 74.0598 24.6335 74.0598 24.4034V24.3587C74.0598 23.8004 73.9022 23.3679 73.5868 23.0611C73.2757 22.7543 72.8113 22.6009 72.1934 22.6009C71.5499 22.6009 71.0428 22.7436 70.6721 23.0291C70.3056 23.3104 70.052 23.6236 69.9114 23.9688L68.1152 23.5597C68.3283 22.9631 68.6394 22.4815 69.0485 22.1151C69.4618 21.7443 69.937 21.4759 70.4739 21.3097C71.0108 21.1392 71.5755 21.054 72.1678 21.054C72.5598 21.054 72.9753 21.1009 73.4142 21.1946C73.8574 21.2841 74.2708 21.4503 74.6543 21.6932C75.0421 21.9361 75.3596 22.2834 75.6067 22.7351C75.8539 23.1825 75.9775 23.7642 75.9775 24.4801V31H74.111V29.6577H74.0343C73.9107 29.9048 73.7253 30.1477 73.4782 30.3864C73.231 30.625 72.9135 30.8232 72.5257 30.9808C72.138 31.1385 71.6735 31.2173 71.1323 31.2173ZM71.5478 29.6832C72.0762 29.6832 72.5279 29.5788 72.9029 29.37C73.2821 29.1612 73.5698 28.8885 73.7658 28.5518C73.9661 28.2109 74.0662 27.8466 74.0662 27.4588V26.1932C73.998 26.2614 73.8659 26.3253 73.6699 26.3849C73.4782 26.4403 73.2587 26.4893 73.0115 26.532C72.7644 26.5703 72.5236 26.6065 72.2892 26.6406C72.0549 26.6705 71.8588 26.696 71.7012 26.7173C71.3304 26.7642 70.9917 26.843 70.6848 26.9538C70.3823 27.0646 70.1394 27.2244 69.9561 27.4332C69.7772 27.6378 69.6877 27.9105 69.6877 28.2514C69.6877 28.7244 69.8624 29.0824 70.2118 29.3253C70.5613 29.5639 71.0066 29.6832 71.5478 29.6832ZM83.1062 21.1818V22.7159H77.7433V21.1818H83.1062ZM79.1815 18.8295H81.0927V28.1172C81.0927 28.4879 81.1481 28.767 81.2589 28.9545C81.3697 29.1378 81.5124 29.2635 81.6871 29.3317C81.8661 29.3956 82.06 29.4276 82.2688 29.4276C82.4222 29.4276 82.5565 29.4169 82.6715 29.3956C82.7866 29.3743 82.8761 29.3572 82.94 29.3445L83.2852 30.9233C83.1744 30.9659 83.0167 31.0085 82.8121 31.0511C82.6076 31.098 82.3519 31.1236 82.0451 31.1278C81.5423 31.1364 81.0735 31.0469 80.6388 30.8594C80.2042 30.6719 79.8526 30.3821 79.5842 29.9901C79.3157 29.598 79.1815 29.1058 79.1815 28.5135V18.8295ZM88.0776 31.2173C87.4554 31.2173 86.8929 31.1023 86.3901 30.8722C85.8873 30.6378 85.4888 30.299 85.1948 29.8558C84.905 29.4126 84.7601 28.8693 84.7601 28.2259C84.7601 27.6719 84.8667 27.2159 85.0797 26.858C85.2928 26.5 85.5804 26.2166 85.9426 26.0078C86.3049 25.799 86.7097 25.6413 87.1571 25.5348C87.6046 25.4283 88.0605 25.3473 88.525 25.2919C89.1131 25.2237 89.5904 25.1683 89.9569 25.1257C90.3233 25.0788 90.5897 25.0043 90.7559 24.902C90.9221 24.7997 91.0051 24.6335 91.0051 24.4034V24.3587C91.0051 23.8004 90.8475 23.3679 90.5321 23.0611C90.2211 22.7543 89.7566 22.6009 89.1387 22.6009C88.4952 22.6009 87.9881 22.7436 87.6174 23.0291C87.2509 23.3104 86.9973 23.6236 86.8567 23.9688L85.0605 23.5597C85.2736 22.9631 85.5847 22.4815 85.9938 22.1151C86.4071 21.7443 86.8823 21.4759 87.4192 21.3097C87.9561 21.1392 88.5208 21.054 89.1131 21.054C89.5051 21.054 89.9206 21.1009 90.3596 21.1946C90.8027 21.2841 91.2161 21.4503 91.5996 21.6932C91.9874 21.9361 92.3049 22.2834 92.552 22.7351C92.7992 23.1825 92.9228 23.7642 92.9228 24.4801V31H91.0563V29.6577H90.9796C90.856 29.9048 90.6706 30.1477 90.4235 30.3864C90.1763 30.625 89.8588 30.8232 89.4711 30.9808C89.0833 31.1385 88.6188 31.2173 88.0776 31.2173ZM88.4931 29.6832C89.0215 29.6832 89.4732 29.5788 89.8482 29.37C90.2275 29.1612 90.5151 28.8885 90.7111 28.5518C90.9114 28.2109 91.0115 27.8466 91.0115 27.4588V26.1932C90.9434 26.2614 90.8113 26.3253 90.6152 26.3849C90.4235 26.4403 90.204 26.4893 89.9569 26.532C89.7097 26.5703 89.4689 26.6065 89.2346 26.6406C89.0002 26.6705 88.8042 26.696 88.6465 26.7173C88.2757 26.7642 87.937 26.843 87.6301 26.9538C87.3276 27.0646 87.0847 27.2244 86.9015 27.4332C86.7225 27.6378 86.633 27.9105 86.633 28.2514C86.633 28.7244 86.8077 29.0824 87.1571 29.3253C87.5066 29.5639 87.9519 29.6832 88.4931 29.6832ZM101.53 17.9091L105.173 28.571H105.32L108.964 17.9091H111.099L106.388 31H104.106L99.3947 17.9091H101.53ZM112.836 31V21.1818H114.747V31H112.836ZM113.801 19.6669C113.468 19.6669 113.183 19.5561 112.944 19.3345C112.71 19.1087 112.593 18.8402 112.593 18.5291C112.593 18.2138 112.71 17.9453 112.944 17.7237C113.183 17.4979 113.468 17.3849 113.801 17.3849C114.133 17.3849 114.417 17.4979 114.651 17.7237C114.89 17.9453 115.009 18.2138 115.009 18.5291C115.009 18.8402 114.89 19.1087 114.651 19.3345C114.417 19.5561 114.133 19.6669 113.801 19.6669ZM124.675 23.5788L122.943 23.8857C122.871 23.6641 122.756 23.4531 122.598 23.2528C122.444 23.0526 122.236 22.8885 121.971 22.7607C121.707 22.6328 121.377 22.5689 120.981 22.5689C120.439 22.5689 119.988 22.6903 119.626 22.9332C119.263 23.1719 119.082 23.4808 119.082 23.8601C119.082 24.1882 119.204 24.4524 119.447 24.6527C119.689 24.853 120.081 25.017 120.623 25.1449L122.182 25.5028C123.086 25.7116 123.759 26.0334 124.202 26.468C124.645 26.9027 124.867 27.4673 124.867 28.1619C124.867 28.75 124.697 29.2741 124.356 29.7344C124.019 30.1903 123.548 30.5483 122.943 30.8082C122.342 31.0682 121.645 31.1982 120.853 31.1982C119.753 31.1982 118.856 30.9638 118.162 30.495C117.467 30.022 117.041 29.3509 116.883 28.4815L118.731 28.2003C118.846 28.6818 119.082 29.0462 119.44 29.2933C119.798 29.5362 120.265 29.6577 120.84 29.6577C121.466 29.6577 121.967 29.5277 122.342 29.2678C122.717 29.0036 122.905 28.6818 122.905 28.3026C122.905 27.9957 122.79 27.7379 122.559 27.5291C122.334 27.3203 121.986 27.1626 121.518 27.0561L119.856 26.6918C118.939 26.483 118.262 26.1506 117.823 25.6946C117.388 25.2386 117.171 24.6612 117.171 23.9624C117.171 23.3828 117.333 22.8757 117.657 22.4411C117.981 22.0064 118.428 21.6676 118.999 21.4247C119.57 21.1776 120.224 21.054 120.961 21.054C122.023 21.054 122.858 21.2841 123.467 21.7443C124.077 22.2003 124.479 22.8118 124.675 23.5788ZM133.188 26.9283V21.1818H135.105V31H133.226V29.2997H133.124C132.898 29.8239 132.536 30.2607 132.037 30.6101C131.543 30.9553 130.927 31.1278 130.19 31.1278C129.559 31.1278 129.001 30.9893 128.515 30.7124C128.034 30.4311 127.654 30.0156 127.377 29.4659C127.105 28.9162 126.968 28.2365 126.968 27.4268V21.1818H128.88V27.1967C128.88 27.8658 129.065 28.3984 129.436 28.7947C129.806 29.1911 130.288 29.3892 130.88 29.3892C131.238 29.3892 131.594 29.2997 131.948 29.1207C132.306 28.9418 132.602 28.6712 132.836 28.3089C133.075 27.9467 133.192 27.4865 133.188 26.9283ZM140.531 31.2173C139.909 31.2173 139.346 31.1023 138.843 30.8722C138.34 30.6378 137.942 30.299 137.648 29.8558C137.358 29.4126 137.213 28.8693 137.213 28.2259C137.213 27.6719 137.32 27.2159 137.533 26.858C137.746 26.5 138.034 26.2166 138.396 26.0078C138.758 25.799 139.163 25.6413 139.61 25.5348C140.058 25.4283 140.514 25.3473 140.978 25.2919C141.566 25.2237 142.044 25.1683 142.41 25.1257C142.776 25.0788 143.043 25.0043 143.209 24.902C143.375 24.7997 143.458 24.6335 143.458 24.4034V24.3587C143.458 23.8004 143.301 23.3679 142.985 23.0611C142.674 22.7543 142.21 22.6009 141.592 22.6009C140.948 22.6009 140.441 22.7436 140.07 23.0291C139.704 23.3104 139.45 23.6236 139.31 23.9688L137.514 23.5597C137.727 22.9631 138.038 22.4815 138.447 22.1151C138.86 21.7443 139.335 21.4759 139.872 21.3097C140.409 21.1392 140.974 21.054 141.566 21.054C141.958 21.054 142.374 21.1009 142.813 21.1946C143.256 21.2841 143.669 21.4503 144.053 21.6932C144.441 21.9361 144.758 22.2834 145.005 22.7351C145.252 23.1825 145.376 23.7642 145.376 24.4801V31H143.509V29.6577H143.433C143.309 29.9048 143.124 30.1477 142.877 30.3864C142.629 30.625 142.312 30.8232 141.924 30.9808C141.536 31.1385 141.072 31.2173 140.531 31.2173ZM140.946 29.6832C141.475 29.6832 141.926 29.5788 142.301 29.37C142.681 29.1612 142.968 28.8885 143.164 28.5518C143.365 28.2109 143.465 27.8466 143.465 27.4588V26.1932C143.396 26.2614 143.264 26.3253 143.068 26.3849C142.877 26.4403 142.657 26.4893 142.41 26.532C142.163 26.5703 141.922 26.6065 141.688 26.6406C141.453 26.6705 141.257 26.696 141.1 26.7173C140.729 26.7642 140.39 26.843 140.083 26.9538C139.781 27.0646 139.538 27.2244 139.355 27.4332C139.176 27.6378 139.086 27.9105 139.086 28.2514C139.086 28.7244 139.261 29.0824 139.61 29.3253C139.96 29.5639 140.405 29.6832 140.946 29.6832ZM149.833 17.9091V31H147.922V17.9091H149.833ZM152.404 31V21.1818H154.315V31H152.404ZM153.369 19.6669C153.037 19.6669 152.751 19.5561 152.513 19.3345C152.278 19.1087 152.161 18.8402 152.161 18.5291C152.161 18.2138 152.278 17.9453 152.513 17.7237C152.751 17.4979 153.037 17.3849 153.369 17.3849C153.702 17.3849 153.985 17.4979 154.219 17.7237C154.458 17.9453 154.577 18.2138 154.577 18.5291C154.577 18.8402 154.458 19.1087 154.219 19.3345C153.985 19.5561 153.702 19.6669 153.369 19.6669ZM164.244 23.5788L162.511 23.8857C162.439 23.6641 162.324 23.4531 162.166 23.2528C162.013 23.0526 161.804 22.8885 161.54 22.7607C161.276 22.6328 160.945 22.5689 160.549 22.5689C160.008 22.5689 159.556 22.6903 159.194 22.9332C158.832 23.1719 158.651 23.4808 158.651 23.8601C158.651 24.1882 158.772 24.4524 159.015 24.6527C159.258 24.853 159.65 25.017 160.191 25.1449L161.751 25.5028C162.654 25.7116 163.327 26.0334 163.771 26.468C164.214 26.9027 164.435 27.4673 164.435 28.1619C164.435 28.75 164.265 29.2741 163.924 29.7344C163.587 30.1903 163.116 30.5483 162.511 30.8082C161.911 31.0682 161.214 31.1982 160.421 31.1982C159.322 31.1982 158.425 30.9638 157.73 30.495C157.036 30.022 156.609 29.3509 156.452 28.4815L158.299 28.2003C158.414 28.6818 158.651 29.0462 159.009 29.2933C159.366 29.5362 159.833 29.6577 160.408 29.6577C161.035 29.6577 161.536 29.5277 161.911 29.2678C162.286 29.0036 162.473 28.6818 162.473 28.3026C162.473 27.9957 162.358 27.7379 162.128 27.5291C161.902 27.3203 161.555 27.1626 161.086 27.0561L159.424 26.6918C158.508 26.483 157.83 26.1506 157.391 25.6946C156.957 25.2386 156.739 24.6612 156.739 23.9624C156.739 23.3828 156.901 22.8757 157.225 22.4411C157.549 22.0064 157.996 21.6676 158.567 21.4247C159.138 21.1776 159.793 21.054 160.53 21.054C161.591 21.054 162.426 21.2841 163.036 21.7443C163.645 22.2003 164.048 22.8118 164.244 23.5788ZM169.394 31.2173C168.772 31.2173 168.209 31.1023 167.706 30.8722C167.204 30.6378 166.805 30.299 166.511 29.8558C166.221 29.4126 166.077 28.8693 166.077 28.2259C166.077 27.6719 166.183 27.2159 166.396 26.858C166.609 26.5 166.897 26.2166 167.259 26.0078C167.621 25.799 168.026 25.6413 168.474 25.5348C168.921 25.4283 169.377 25.3473 169.841 25.2919C170.43 25.2237 170.907 25.1683 171.273 25.1257C171.64 25.0788 171.906 25.0043 172.072 24.902C172.238 24.7997 172.322 24.6335 172.322 24.4034V24.3587C172.322 23.8004 172.164 23.3679 171.849 23.0611C171.537 22.7543 171.073 22.6009 170.455 22.6009C169.812 22.6009 169.305 22.7436 168.934 23.0291C168.567 23.3104 168.314 23.6236 168.173 23.9688L166.377 23.5597C166.59 22.9631 166.901 22.4815 167.31 22.1151C167.724 21.7443 168.199 21.4759 168.736 21.3097C169.273 21.1392 169.837 21.054 170.43 21.054C170.822 21.054 171.237 21.1009 171.676 21.1946C172.119 21.2841 172.532 21.4503 172.916 21.6932C173.304 21.9361 173.621 22.2834 173.868 22.7351C174.116 23.1825 174.239 23.7642 174.239 24.4801V31H172.373V29.6577H172.296C172.172 29.9048 171.987 30.1477 171.74 30.3864C171.493 30.625 171.175 30.8232 170.787 30.9808C170.4 31.1385 169.935 31.2173 169.394 31.2173ZM169.809 29.6832C170.338 29.6832 170.79 29.5788 171.165 29.37C171.544 29.1612 171.831 28.8885 172.028 28.5518C172.228 28.2109 172.328 27.8466 172.328 27.4588V26.1932C172.26 26.2614 172.128 26.3253 171.932 26.3849C171.74 26.4403 171.52 26.4893 171.273 26.532C171.026 26.5703 170.785 26.6065 170.551 26.6406C170.317 26.6705 170.121 26.696 169.963 26.7173C169.592 26.7642 169.253 26.843 168.947 26.9538C168.644 27.0646 168.401 27.2244 168.218 27.4332C168.039 27.6378 167.949 27.9105 167.949 28.2514C167.949 28.7244 168.124 29.0824 168.474 29.3253C168.823 29.5639 169.268 29.6832 169.809 29.6832ZM181.368 21.1818V22.7159H176.005V21.1818H181.368ZM177.443 18.8295H179.354V28.1172C179.354 28.4879 179.41 28.767 179.521 28.9545C179.631 29.1378 179.774 29.2635 179.949 29.3317C180.128 29.3956 180.322 29.4276 180.531 29.4276C180.684 29.4276 180.818 29.4169 180.933 29.3956C181.048 29.3743 181.138 29.3572 181.202 29.3445L181.547 30.9233C181.436 30.9659 181.278 31.0085 181.074 31.0511C180.869 31.098 180.614 31.1236 180.307 31.1278C179.804 31.1364 179.335 31.0469 178.901 30.8594C178.466 30.6719 178.114 30.3821 177.846 29.9901C177.577 29.598 177.443 29.1058 177.443 28.5135V18.8295ZM183.482 31V21.1818H185.393V31H183.482ZM184.447 19.6669C184.115 19.6669 183.829 19.5561 183.591 19.3345C183.356 19.1087 183.239 18.8402 183.239 18.5291C183.239 18.2138 183.356 17.9453 183.591 17.7237C183.829 17.4979 184.115 17.3849 184.447 17.3849C184.78 17.3849 185.063 17.4979 185.297 17.7237C185.536 17.9453 185.655 18.2138 185.655 18.5291C185.655 18.8402 185.536 19.1087 185.297 19.3345C185.063 19.5561 184.78 19.6669 184.447 19.6669ZM192.1 31.1982C191.18 31.1982 190.376 30.9872 189.69 30.5653C189.004 30.1435 188.472 29.5533 188.092 28.7947C187.713 28.0362 187.523 27.1499 187.523 26.1357C187.523 25.1172 187.713 24.2266 188.092 23.4638C188.472 22.701 189.004 22.1087 189.69 21.6868C190.376 21.2649 191.18 21.054 192.1 21.054C193.021 21.054 193.824 21.2649 194.51 21.6868C195.196 22.1087 195.729 22.701 196.108 23.4638C196.487 24.2266 196.677 25.1172 196.677 26.1357C196.677 27.1499 196.487 28.0362 196.108 28.7947C195.729 29.5533 195.196 30.1435 194.51 30.5653C193.824 30.9872 193.021 31.1982 192.1 31.1982ZM192.107 29.5938C192.703 29.5938 193.197 29.4361 193.589 29.1207C193.982 28.8054 194.271 28.3857 194.459 27.8615C194.651 27.3374 194.746 26.7599 194.746 26.1293C194.746 25.5028 194.651 24.9276 194.459 24.4034C194.271 23.875 193.982 23.451 193.589 23.1314C193.197 22.8118 192.703 22.652 192.107 22.652C191.506 22.652 191.007 22.8118 190.611 23.1314C190.219 23.451 189.927 23.875 189.735 24.4034C189.548 24.9276 189.454 25.5028 189.454 26.1293C189.454 26.7599 189.548 27.3374 189.735 27.8615C189.927 28.3857 190.219 28.8054 190.611 29.1207C191.007 29.4361 191.506 29.5938 192.107 29.5938ZM200.721 25.1705V31H198.81V21.1818H200.645V22.7798H200.766C200.992 22.2599 201.346 21.8423 201.827 21.527C202.313 21.2116 202.925 21.054 203.662 21.054C204.331 21.054 204.917 21.1946 205.42 21.4759C205.922 21.7528 206.312 22.1662 206.589 22.7159C206.866 23.2656 207.005 23.9453 207.005 24.755V31H205.094V24.9851C205.094 24.2734 204.908 23.7173 204.537 23.3168C204.167 22.9119 203.657 22.7095 203.01 22.7095C202.567 22.7095 202.172 22.8054 201.827 22.9972C201.486 23.1889 201.216 23.4702 201.015 23.8409C200.819 24.2074 200.721 24.6506 200.721 25.1705Z" fill="#333333"/>
<path d="M1.72159 99V81.5455H4.88352V96.3494H12.571V99H1.72159ZM20.8892 99.2557C19.6108 99.2557 18.5028 98.9744 17.5653 98.4119C16.6278 97.8494 15.9006 97.0625 15.3835 96.0511C14.8722 95.0398 14.6165 93.858 14.6165 92.5057C14.6165 91.1534 14.8722 89.9687 15.3835 88.9517C15.9006 87.9347 16.6278 87.1449 17.5653 86.5824C18.5028 86.0199 19.6108 85.7386 20.8892 85.7386C22.1676 85.7386 23.2756 86.0199 24.2131 86.5824C25.1506 87.1449 25.875 87.9347 26.3864 88.9517C26.9034 89.9687 27.1619 91.1534 27.1619 92.5057C27.1619 93.858 26.9034 95.0398 26.3864 96.0511C25.875 97.0625 25.1506 97.8494 24.2131 98.4119C23.2756 98.9744 22.1676 99.2557 20.8892 99.2557ZM20.9062 96.7841C21.5994 96.7841 22.179 96.5937 22.6449 96.2131C23.1108 95.8267 23.4574 95.3097 23.6847 94.6619C23.9176 94.0142 24.0341 93.2926 24.0341 92.4972C24.0341 91.696 23.9176 90.9716 23.6847 90.3239C23.4574 89.6705 23.1108 89.1506 22.6449 88.7642C22.179 88.3778 21.5994 88.1847 20.9062 88.1847C20.196 88.1847 19.6051 88.3778 19.1335 88.7642C18.6676 89.1506 18.3182 89.6705 18.0852 90.3239C17.858 90.9716 17.7443 91.696 17.7443 92.4972C17.7443 93.2926 17.858 94.0142 18.0852 94.6619C18.3182 95.3097 18.6676 95.8267 19.1335 96.2131C19.6051 96.5937 20.196 96.7841 20.9062 96.7841ZM35.4737 104.182C34.3658 104.182 33.4141 104.031 32.6186 103.73C31.8232 103.435 31.1839 103.037 30.701 102.537C30.218 102.037 29.8828 101.483 29.6953 100.875L32.4737 100.202C32.5987 100.457 32.7805 100.71 33.0192 100.96C33.2578 101.216 33.5788 101.426 33.9822 101.591C34.3913 101.761 34.9055 101.847 35.5249 101.847C36.3999 101.847 37.1243 101.634 37.6982 101.207C38.272 100.787 38.5589 100.094 38.5589 99.1278V96.6477H38.4055C38.2464 96.9659 38.0135 97.2926 37.7067 97.6278C37.4055 97.9631 37.005 98.2443 36.505 98.4716C36.0107 98.6989 35.3885 98.8125 34.6385 98.8125C33.6328 98.8125 32.7209 98.5767 31.9027 98.1051C31.0902 97.6278 30.4425 96.9176 29.9595 95.9744C29.4822 95.0256 29.2436 93.8381 29.2436 92.4119C29.2436 90.9744 29.4822 89.7614 29.9595 88.7727C30.4425 87.7784 31.093 87.0256 31.9112 86.5142C32.7294 85.9972 33.6413 85.7386 34.647 85.7386C35.4141 85.7386 36.0447 85.8693 36.5391 86.1307C37.0391 86.3864 37.4368 86.696 37.7322 87.0597C38.0277 87.4176 38.2521 87.7557 38.4055 88.0739H38.576V85.9091H41.6186V99.2131C41.6186 100.332 41.3516 101.259 40.8175 101.991C40.2834 102.724 39.5533 103.273 38.6271 103.636C37.701 104 36.6499 104.182 35.4737 104.182ZM35.4993 96.392C36.1527 96.392 36.7095 96.233 37.1697 95.9148C37.63 95.5966 37.9794 95.1392 38.218 94.5426C38.4567 93.946 38.576 93.2301 38.576 92.3949C38.576 91.571 38.4567 90.8494 38.218 90.2301C37.9851 89.6108 37.6385 89.1307 37.1783 88.7898C36.7237 88.4432 36.1641 88.2699 35.4993 88.2699C34.8118 88.2699 34.2379 88.4489 33.7777 88.8068C33.3175 89.1648 32.9709 89.6562 32.7379 90.2812C32.505 90.9006 32.3885 91.6051 32.3885 92.3949C32.3885 93.196 32.505 93.8977 32.7379 94.5C32.9766 95.0966 33.326 95.5625 33.7862 95.8977C34.2521 96.2273 34.8232 96.392 35.4993 96.392ZM44.7805 99V85.9091H47.8658V99H44.7805ZM46.3317 84.0511C45.843 84.0511 45.4226 83.8892 45.0703 83.5653C44.718 83.2358 44.5419 82.8409 44.5419 82.3807C44.5419 81.9148 44.718 81.5199 45.0703 81.196C45.4226 80.8665 45.843 80.7017 46.3317 80.7017C46.826 80.7017 47.2464 80.8665 47.593 81.196C47.9453 81.5199 48.1214 81.9148 48.1214 82.3807C48.1214 82.8409 47.9453 83.2358 47.593 83.5653C47.2464 83.8892 46.826 84.0511 46.3317 84.0511ZM54.1236 91.3295V99H51.0384V85.9091H53.9872V88.1335H54.1406C54.4418 87.4006 54.9219 86.8182 55.581 86.3864C56.2457 85.9545 57.0668 85.7386 58.044 85.7386C58.9474 85.7386 59.7344 85.9318 60.4048 86.3182C61.081 86.7045 61.6037 87.2642 61.973 87.9972C62.348 88.7301 62.5327 89.6193 62.527 90.6648V99H59.4418V91.142C59.4418 90.267 59.2145 89.5824 58.7599 89.0881C58.3111 88.5937 57.6889 88.3466 56.8935 88.3466C56.3537 88.3466 55.8736 88.4659 55.4531 88.7045C55.0384 88.9375 54.7116 89.2756 54.473 89.7188C54.2401 90.1619 54.1236 90.6989 54.1236 91.3295Z" fill="#0B46AB"/>
<path d="M1.23295 127V116.818H2.46591V121.352H7.89489V116.818H9.12784V127H7.89489V122.446H2.46591V127H1.23295ZM14.5394 127.159C13.85 127.159 13.2451 126.995 12.7248 126.667C12.2077 126.339 11.8034 125.88 11.5117 125.29C11.2234 124.7 11.0792 124.01 11.0792 123.222C11.0792 122.426 11.2234 121.732 11.5117 121.138C11.8034 120.545 12.2077 120.085 12.7248 119.756C13.2451 119.428 13.85 119.264 14.5394 119.264C15.2288 119.264 15.832 119.428 16.3491 119.756C16.8694 120.085 17.2738 120.545 17.5621 121.138C17.8538 121.732 17.9996 122.426 17.9996 123.222C17.9996 124.01 17.8538 124.7 17.5621 125.29C17.2738 125.88 16.8694 126.339 16.3491 126.667C15.832 126.995 15.2288 127.159 14.5394 127.159ZM14.5394 126.105C15.0631 126.105 15.494 125.971 15.832 125.702C16.1701 125.434 16.4203 125.081 16.5827 124.643C16.7451 124.206 16.8263 123.732 16.8263 123.222C16.8263 122.711 16.7451 122.236 16.5827 121.795C16.4203 121.354 16.1701 120.998 15.832 120.726C15.494 120.454 15.0631 120.318 14.5394 120.318C14.0157 120.318 13.5849 120.454 13.2468 120.726C12.9087 120.998 12.6585 121.354 12.4961 121.795C12.3337 122.236 12.2525 122.711 12.2525 123.222C12.2525 123.732 12.3337 124.206 12.4961 124.643C12.6585 125.081 12.9087 125.434 13.2468 125.702C13.5849 125.971 14.0157 126.105 14.5394 126.105ZM21.261 127L18.9343 119.364H20.1673L21.8178 125.21H21.8974L23.5281 119.364H24.7809L26.3917 125.19H26.4712L28.1218 119.364H29.3548L27.0281 127H25.8746L24.2042 121.134H24.0849L22.4144 127H21.261ZM37.7269 127.159C37.0906 127.159 36.5288 126.998 36.0415 126.677C35.5543 126.352 35.1732 125.895 34.8981 125.305C34.623 124.711 34.4854 124.01 34.4854 123.202C34.4854 122.4 34.623 121.704 34.8981 121.114C35.1732 120.524 35.556 120.068 36.0465 119.746C36.5371 119.425 37.1038 119.264 37.7468 119.264C38.244 119.264 38.6367 119.347 38.9251 119.513C39.2167 119.675 39.4388 119.861 39.5913 120.07C39.747 120.275 39.868 120.444 39.9542 120.577H40.0536V116.818H41.2269V127H40.0934V125.827H39.9542C39.868 125.966 39.7454 126.142 39.5863 126.354C39.4272 126.562 39.2002 126.75 38.9052 126.915C38.6102 127.078 38.2174 127.159 37.7269 127.159ZM37.886 126.105C38.3567 126.105 38.7544 125.982 39.0792 125.737C39.404 125.489 39.6509 125.146 39.82 124.708C39.989 124.267 40.0735 123.759 40.0735 123.182C40.0735 122.612 39.9906 122.113 39.8249 121.685C39.6592 121.254 39.4139 120.92 39.0891 120.681C38.7643 120.439 38.3633 120.318 37.886 120.318C37.3888 120.318 36.9746 120.446 36.6431 120.701C36.315 120.953 36.0681 121.296 35.9023 121.73C35.7399 122.161 35.6587 122.645 35.6587 123.182C35.6587 123.725 35.7416 124.219 35.9073 124.663C36.0763 125.104 36.3249 125.455 36.6531 125.717C36.9845 125.976 37.3955 126.105 37.886 126.105ZM46.641 127.159C45.9516 127.159 45.3467 126.995 44.8263 126.667C44.3093 126.339 43.9049 125.88 43.6133 125.29C43.3249 124.7 43.1808 124.01 43.1808 123.222C43.1808 122.426 43.3249 121.732 43.6133 121.138C43.9049 120.545 44.3093 120.085 44.8263 119.756C45.3467 119.428 45.9516 119.264 46.641 119.264C47.3304 119.264 47.9336 119.428 48.4506 119.756C48.971 120.085 49.3754 120.545 49.6637 121.138C49.9554 121.732 50.1012 122.426 50.1012 123.222C50.1012 124.01 49.9554 124.7 49.6637 125.29C49.3754 125.88 48.971 126.339 48.4506 126.667C47.9336 126.995 47.3304 127.159 46.641 127.159ZM46.641 126.105C47.1647 126.105 47.5955 125.971 47.9336 125.702C48.2717 125.434 48.5219 125.081 48.6843 124.643C48.8467 124.206 48.9279 123.732 48.9279 123.222C48.9279 122.711 48.8467 122.236 48.6843 121.795C48.5219 121.354 48.2717 120.998 47.9336 120.726C47.5955 120.454 47.1647 120.318 46.641 120.318C46.1173 120.318 45.6864 120.454 45.3484 120.726C45.0103 120.998 44.7601 121.354 44.5977 121.795C44.4353 122.236 44.354 122.711 44.354 123.222C44.354 123.732 44.4353 124.206 44.5977 124.643C44.7601 125.081 45.0103 125.434 45.3484 125.702C45.6864 125.971 46.1173 126.105 46.641 126.105ZM57.2218 116.818V127H55.9888V116.818H57.2218ZM66.5547 130.023C65.9879 130.023 65.5007 129.95 65.093 129.804C64.6854 129.661 64.3456 129.473 64.0739 129.237C63.8054 129.005 63.5916 128.757 63.4325 128.491L64.3672 127.835C64.4732 127.974 64.6075 128.134 64.7699 128.312C64.9323 128.495 65.1544 128.652 65.4361 128.785C65.7211 128.921 66.094 128.989 66.5547 128.989C67.1712 128.989 67.6799 128.839 68.081 128.541C68.482 128.243 68.6825 127.776 68.6825 127.139V125.588H68.5831C68.4969 125.727 68.3743 125.9 68.2152 126.105C68.0594 126.307 67.834 126.488 67.5391 126.647C67.2474 126.803 66.853 126.881 66.3558 126.881C65.7393 126.881 65.1858 126.735 64.6953 126.443C64.2081 126.152 63.822 125.727 63.5369 125.17C63.2552 124.614 63.1143 123.937 63.1143 123.142C63.1143 122.36 63.2519 121.679 63.527 121.099C63.8021 120.515 64.1849 120.065 64.6754 119.746C65.166 119.425 65.7327 119.264 66.3757 119.264C66.8729 119.264 67.2673 119.347 67.5589 119.513C67.8539 119.675 68.0793 119.861 68.2351 120.07C68.3942 120.275 68.5168 120.444 68.603 120.577H68.7223V119.364H69.8558V127.219C69.8558 127.875 69.7067 128.409 69.4084 128.82C69.1134 129.234 68.7157 129.537 68.2152 129.729C67.718 129.925 67.1645 130.023 66.5547 130.023ZM66.5149 125.827C66.9856 125.827 67.3833 125.719 67.7081 125.504C68.0329 125.288 68.2798 124.978 68.4489 124.574C68.6179 124.17 68.7024 123.686 68.7024 123.122C68.7024 122.572 68.6196 122.086 68.4538 121.665C68.2881 121.245 68.0429 120.915 67.718 120.676C67.3932 120.437 66.9922 120.318 66.5149 120.318C66.0178 120.318 65.6035 120.444 65.272 120.696C64.9439 120.948 64.697 121.286 64.5312 121.71C64.3688 122.134 64.2876 122.605 64.2876 123.122C64.2876 123.652 64.3705 124.121 64.5362 124.529C64.7053 124.933 64.9538 125.252 65.282 125.484C65.6134 125.712 66.0244 125.827 66.5149 125.827ZM75.2053 127.159C74.4695 127.159 73.8348 126.997 73.3011 126.672C72.7708 126.344 72.3615 125.886 72.0732 125.3C71.7881 124.71 71.6456 124.024 71.6456 123.241C71.6456 122.459 71.7881 121.77 72.0732 121.173C72.3615 120.573 72.7625 120.106 73.2763 119.771C73.7933 119.433 74.3965 119.264 75.0859 119.264C75.4837 119.264 75.8764 119.33 76.2642 119.463C76.652 119.596 77.005 119.811 77.3232 120.109C77.6413 120.404 77.8949 120.795 78.0838 121.283C78.2727 121.77 78.3672 122.37 78.3672 123.082V123.58H72.4808V122.565H77.174C77.174 122.134 77.0878 121.75 76.9155 121.412C76.7464 121.074 76.5045 120.807 76.1896 120.612C75.8781 120.416 75.5102 120.318 75.0859 120.318C74.6186 120.318 74.2143 120.434 73.8729 120.666C73.5348 120.895 73.2746 121.193 73.0923 121.561C72.91 121.929 72.8189 122.323 72.8189 122.744V123.42C72.8189 123.997 72.9183 124.486 73.1172 124.887C73.3194 125.285 73.5994 125.588 73.9574 125.797C74.3153 126.002 74.7313 126.105 75.2053 126.105C75.5135 126.105 75.7919 126.062 76.0405 125.976C76.2924 125.886 76.5095 125.754 76.6918 125.578C76.8741 125.399 77.0149 125.177 77.1143 124.912L78.2479 125.23C78.1286 125.615 77.928 125.953 77.6463 126.244C77.3646 126.533 77.0166 126.758 76.6023 126.92C76.188 127.08 75.7223 127.159 75.2053 127.159ZM83.473 119.364V120.358H79.5156V119.364H83.473ZM80.669 117.534H81.8423V124.812C81.8423 125.144 81.8904 125.393 81.9865 125.558C82.0859 125.721 82.2119 125.83 82.3643 125.886C82.5201 125.939 82.6842 125.966 82.8565 125.966C82.9858 125.966 83.0919 125.959 83.1747 125.946C83.2576 125.929 83.3239 125.916 83.3736 125.906L83.6122 126.96C83.5327 126.99 83.4216 127.02 83.2791 127.05C83.1366 127.083 82.956 127.099 82.7372 127.099C82.4058 127.099 82.081 127.028 81.7628 126.886C81.4479 126.743 81.1861 126.526 80.9773 126.234C80.7718 125.943 80.669 125.575 80.669 125.131V117.534ZM94.5845 121.074L93.5305 121.372C93.4643 121.196 93.3665 121.026 93.2372 120.86C93.1113 120.691 92.9389 120.552 92.7202 120.442C92.5014 120.333 92.2214 120.278 91.88 120.278C91.4126 120.278 91.0232 120.386 90.7116 120.602C90.4034 120.814 90.2493 121.084 90.2493 121.412C90.2493 121.704 90.3554 121.934 90.5675 122.103C90.7796 122.272 91.111 122.413 91.5618 122.526L92.6953 122.804C93.3781 122.97 93.8868 123.223 94.2216 123.565C94.5563 123.903 94.7237 124.339 94.7237 124.872C94.7237 125.31 94.5978 125.701 94.3459 126.045C94.0973 126.39 93.7493 126.662 93.3018 126.861C92.8544 127.06 92.334 127.159 91.7408 127.159C90.9619 127.159 90.3172 126.99 89.8068 126.652C89.2964 126.314 88.9732 125.82 88.8374 125.17L89.951 124.892C90.0571 125.303 90.2576 125.611 90.5526 125.817C90.8509 126.022 91.2403 126.125 91.7209 126.125C92.2678 126.125 92.7019 126.009 93.0234 125.777C93.3482 125.542 93.5107 125.26 93.5107 124.932C93.5107 124.667 93.4179 124.445 93.2322 124.266C93.0466 124.083 92.7616 123.947 92.3771 123.858L91.1044 123.56C90.4051 123.394 89.8913 123.137 89.5632 122.789C89.2384 122.438 89.076 121.999 89.076 121.472C89.076 121.041 89.197 120.66 89.4389 120.328C89.6842 119.997 90.0173 119.737 90.4382 119.548C90.8625 119.359 91.343 119.264 91.88 119.264C92.6357 119.264 93.2289 119.43 93.6598 119.761C94.094 120.093 94.4022 120.53 94.5845 121.074ZM99.8109 119.364V120.358H95.8535V119.364H99.8109ZM97.0069 117.534H98.1802V124.812C98.1802 125.144 98.2283 125.393 98.3244 125.558C98.4238 125.721 98.5498 125.83 98.7022 125.886C98.858 125.939 99.0221 125.966 99.1944 125.966C99.3237 125.966 99.4297 125.959 99.5126 125.946C99.5955 125.929 99.6618 125.916 99.7115 125.906L99.9501 126.96C99.8706 126.99 99.7595 127.02 99.617 127.05C99.4745 127.083 99.2939 127.099 99.0751 127.099C98.7437 127.099 98.4189 127.028 98.1007 126.886C97.7858 126.743 97.524 126.526 97.3152 126.234C97.1097 125.943 97.0069 125.575 97.0069 125.131V117.534ZM103.823 127.179C103.339 127.179 102.9 127.088 102.506 126.906C102.111 126.72 101.798 126.453 101.566 126.105C101.334 125.754 101.218 125.33 101.218 124.832C101.218 124.395 101.304 124.04 101.476 123.768C101.649 123.493 101.879 123.278 102.167 123.122C102.456 122.966 102.774 122.85 103.122 122.774C103.473 122.695 103.826 122.632 104.181 122.585C104.645 122.526 105.021 122.481 105.309 122.451C105.601 122.418 105.813 122.363 105.946 122.287C106.082 122.211 106.15 122.078 106.15 121.889V121.849C106.15 121.359 106.015 120.978 105.747 120.706C105.482 120.434 105.079 120.298 104.539 120.298C103.979 120.298 103.54 120.421 103.221 120.666C102.903 120.911 102.68 121.173 102.55 121.452L101.437 121.054C101.635 120.59 101.901 120.229 102.232 119.97C102.567 119.708 102.931 119.526 103.326 119.423C103.724 119.317 104.115 119.264 104.499 119.264C104.744 119.264 105.026 119.294 105.344 119.354C105.666 119.41 105.976 119.528 106.274 119.707C106.576 119.886 106.826 120.156 107.025 120.517C107.224 120.878 107.323 121.362 107.323 121.969V127H106.15V125.966H106.09C106.01 126.132 105.878 126.309 105.692 126.498C105.507 126.687 105.26 126.848 104.952 126.98C104.643 127.113 104.267 127.179 103.823 127.179ZM104.002 126.125C104.466 126.125 104.857 126.034 105.175 125.852C105.497 125.669 105.739 125.434 105.901 125.146C106.067 124.857 106.15 124.554 106.15 124.236V123.162C106.1 123.222 105.991 123.276 105.822 123.326C105.656 123.372 105.464 123.414 105.245 123.45C105.029 123.483 104.819 123.513 104.613 123.54C104.411 123.563 104.247 123.583 104.121 123.599C103.816 123.639 103.531 123.704 103.266 123.793C103.004 123.879 102.792 124.01 102.63 124.186C102.471 124.358 102.391 124.594 102.391 124.892C102.391 125.3 102.542 125.608 102.844 125.817C103.148 126.022 103.535 126.125 104.002 126.125ZM109.464 127V119.364H110.598V120.517H110.678C110.817 120.139 111.069 119.833 111.433 119.597C111.798 119.362 112.209 119.244 112.666 119.244C112.752 119.244 112.86 119.246 112.989 119.249C113.119 119.253 113.216 119.258 113.283 119.264V120.457C113.243 120.447 113.152 120.433 113.009 120.413C112.87 120.389 112.723 120.378 112.567 120.378C112.196 120.378 111.864 120.456 111.572 120.612C111.284 120.764 111.055 120.976 110.886 121.248C110.721 121.516 110.638 121.823 110.638 122.168V127H109.464ZM118.473 119.364V120.358H114.516V119.364H118.473ZM115.669 117.534H116.842V124.812C116.842 125.144 116.89 125.393 116.987 125.558C117.086 125.721 117.212 125.83 117.364 125.886C117.52 125.939 117.684 125.966 117.857 125.966C117.986 125.966 118.092 125.959 118.175 125.946C118.258 125.929 118.324 125.916 118.374 125.906L118.612 126.96C118.533 126.99 118.422 127.02 118.279 127.05C118.137 127.083 117.956 127.099 117.737 127.099C117.406 127.099 117.081 127.028 116.763 126.886C116.448 126.743 116.186 126.526 115.977 126.234C115.772 125.943 115.669 125.575 115.669 125.131V117.534ZM123.358 127.159C122.622 127.159 121.987 126.997 121.453 126.672C120.923 126.344 120.514 125.886 120.225 125.3C119.94 124.71 119.798 124.024 119.798 123.241C119.798 122.459 119.94 121.77 120.225 121.173C120.514 120.573 120.915 120.106 121.429 119.771C121.946 119.433 122.549 119.264 123.238 119.264C123.636 119.264 124.029 119.33 124.417 119.463C124.804 119.596 125.157 119.811 125.475 120.109C125.794 120.404 126.047 120.795 126.236 121.283C126.425 121.77 126.52 122.37 126.52 123.082V123.58H120.633V122.565H125.326C125.326 122.134 125.24 121.75 125.068 121.412C124.899 121.074 124.657 120.807 124.342 120.612C124.03 120.416 123.663 120.318 123.238 120.318C122.771 120.318 122.367 120.434 122.025 120.666C121.687 120.895 121.427 121.193 121.245 121.561C121.062 121.929 120.971 122.323 120.971 122.744V123.42C120.971 123.997 121.071 124.486 121.27 124.887C121.472 125.285 121.752 125.588 122.11 125.797C122.468 126.002 122.884 126.105 123.358 126.105C123.666 126.105 123.944 126.062 124.193 125.976C124.445 125.886 124.662 125.754 124.844 125.578C125.026 125.399 125.167 125.177 125.267 124.912L126.4 125.23C126.281 125.615 126.08 125.953 125.799 126.244C125.517 126.533 125.169 126.758 124.755 126.92C124.34 127.08 123.875 127.159 123.358 127.159ZM131.188 127.159C130.551 127.159 129.99 126.998 129.502 126.677C129.015 126.352 128.634 125.895 128.359 125.305C128.084 124.711 127.946 124.01 127.946 123.202C127.946 122.4 128.084 121.704 128.359 121.114C128.634 120.524 129.017 120.068 129.507 119.746C129.998 119.425 130.565 119.264 131.208 119.264C131.705 119.264 132.098 119.347 132.386 119.513C132.678 119.675 132.9 119.861 133.052 120.07C133.208 120.275 133.329 120.444 133.415 120.577H133.515V116.818H134.688V127H133.554V125.827H133.415C133.329 125.966 133.206 126.142 133.047 126.354C132.888 126.562 132.661 126.75 132.366 126.915C132.071 127.078 131.678 127.159 131.188 127.159ZM131.347 126.105C131.818 126.105 132.215 125.982 132.54 125.737C132.865 125.489 133.112 125.146 133.281 124.708C133.45 124.267 133.534 123.759 133.534 123.182C133.534 122.612 133.452 122.113 133.286 121.685C133.12 121.254 132.875 120.92 132.55 120.681C132.225 120.439 131.824 120.318 131.347 120.318C130.85 120.318 130.435 120.446 130.104 120.701C129.776 120.953 129.529 121.296 129.363 121.73C129.201 122.161 129.12 122.645 129.12 123.182C129.12 123.725 129.203 124.219 129.368 124.663C129.537 125.104 129.786 125.455 130.114 125.717C130.445 125.976 130.856 126.105 131.347 126.105ZM142.468 124.136V124.077C142.475 123.444 142.541 122.94 142.667 122.565C142.793 122.191 142.972 121.888 143.204 121.656C143.436 121.424 143.715 121.21 144.039 121.014C144.235 120.895 144.411 120.754 144.566 120.592C144.722 120.426 144.845 120.235 144.934 120.02C145.027 119.804 145.074 119.566 145.074 119.304C145.074 118.979 144.997 118.697 144.845 118.459C144.692 118.22 144.489 118.036 144.233 117.907C143.978 117.778 143.695 117.713 143.383 117.713C143.111 117.713 142.85 117.769 142.598 117.882C142.346 117.995 142.135 118.172 141.966 118.414C141.797 118.656 141.699 118.973 141.673 119.364H140.42C140.447 118.8 140.592 118.318 140.858 117.917C141.126 117.516 141.479 117.209 141.917 116.997C142.357 116.785 142.846 116.679 143.383 116.679C143.967 116.679 144.474 116.795 144.904 117.027C145.339 117.259 145.673 117.577 145.909 117.982C146.147 118.386 146.267 118.847 146.267 119.364C146.267 119.728 146.21 120.058 146.098 120.353C145.988 120.648 145.829 120.911 145.62 121.143C145.415 121.375 145.166 121.581 144.875 121.76C144.583 121.942 144.349 122.134 144.174 122.337C143.998 122.536 143.87 122.772 143.791 123.048C143.711 123.323 143.668 123.666 143.662 124.077V124.136H142.468ZM143.105 127.08C142.859 127.08 142.649 126.992 142.473 126.816C142.298 126.64 142.21 126.43 142.21 126.185C142.21 125.939 142.298 125.729 142.473 125.553C142.649 125.378 142.859 125.29 143.105 125.29C143.35 125.29 143.56 125.378 143.736 125.553C143.912 125.729 144 125.939 144 126.185C144 126.347 143.958 126.496 143.875 126.632C143.796 126.768 143.688 126.877 143.552 126.96C143.42 127.04 143.27 127.08 143.105 127.08Z" fill="#A7A5AF"/>
<path d="M6.78409 165.273H7.84091V171.051C7.84091 171.648 7.70028 172.18 7.41903 172.649C7.14063 173.115 6.74716 173.483 6.23864 173.753C5.73011 174.02 5.13352 174.153 4.44886 174.153C3.7642 174.153 3.16761 174.02 2.65909 173.753C2.15057 173.483 1.75568 173.115 1.47443 172.649C1.19602 172.18 1.05682 171.648 1.05682 171.051V165.273H2.11364V170.966C2.11364 171.392 2.20739 171.771 2.39489 172.104C2.58239 172.433 2.84943 172.693 3.19602 172.884C3.54545 173.071 3.96307 173.165 4.44886 173.165C4.93466 173.165 5.35227 173.071 5.7017 172.884C6.05114 172.693 6.31818 172.433 6.50284 172.104C6.69034 171.771 6.78409 171.392 6.78409 170.966V165.273ZM14.4513 168.92L13.5479 169.176C13.4911 169.026 13.4073 168.879 13.2965 168.737C13.1886 168.592 13.0408 168.473 12.8533 168.379C12.6658 168.286 12.4258 168.239 12.1332 168.239C11.7326 168.239 11.3988 168.331 11.1317 168.516C10.8675 168.697 10.7354 168.929 10.7354 169.21C10.7354 169.46 10.8263 169.658 11.0082 169.803C11.19 169.947 11.4741 170.068 11.8604 170.165L12.832 170.403C13.4173 170.545 13.8533 170.763 14.1403 171.055C14.4272 171.345 14.5707 171.719 14.5707 172.176C14.5707 172.551 14.4627 172.886 14.2468 173.182C14.0337 173.477 13.7354 173.71 13.3519 173.881C12.9684 174.051 12.5224 174.136 12.0138 174.136C11.3462 174.136 10.7937 173.991 10.3562 173.702C9.91868 173.412 9.64169 172.989 9.52521 172.432L10.4798 172.193C10.5707 172.545 10.7425 172.81 10.9954 172.986C11.2511 173.162 11.5849 173.25 11.9968 173.25C12.4656 173.25 12.8377 173.151 13.1133 172.952C13.3917 172.75 13.5309 172.509 13.5309 172.227C13.5309 172 13.4513 171.81 13.2923 171.656C13.1332 171.5 12.8888 171.384 12.5593 171.307L11.4684 171.051C10.869 170.909 10.4286 170.689 10.1474 170.391C9.86896 170.089 9.72976 169.713 9.72976 169.261C9.72976 168.892 9.83345 168.565 10.0408 168.281C10.2511 167.997 10.5366 167.774 10.8974 167.612C11.261 167.45 11.6729 167.369 12.1332 167.369C12.7809 167.369 13.2894 167.511 13.6587 167.795C14.0309 168.08 14.2951 168.455 14.4513 168.92ZM18.8288 174.136C18.1982 174.136 17.6541 173.997 17.1967 173.719C16.7422 173.438 16.3913 173.045 16.1442 172.543C15.8999 172.037 15.7777 171.449 15.7777 170.778C15.7777 170.108 15.8999 169.517 16.1442 169.006C16.3913 168.491 16.7351 168.091 17.1754 167.804C17.6186 167.514 18.1357 167.369 18.7266 167.369C19.0675 167.369 19.4041 167.426 19.7365 167.54C20.0689 167.653 20.3714 167.838 20.6442 168.094C20.9169 168.347 21.1342 168.682 21.2962 169.099C21.4581 169.517 21.5391 170.031 21.5391 170.642V171.068H16.4936V170.199H20.5163C20.5163 169.83 20.4425 169.5 20.2947 169.21C20.1499 168.92 19.9425 168.692 19.6726 168.524C19.4055 168.357 19.0902 168.273 18.7266 168.273C18.326 168.273 17.9794 168.372 17.6868 168.571C17.397 168.767 17.174 169.023 17.0178 169.338C16.8615 169.653 16.7834 169.991 16.7834 170.352V170.932C16.7834 171.426 16.8686 171.845 17.0391 172.189C17.2124 172.53 17.4524 172.79 17.7592 172.969C18.0661 173.145 18.4226 173.233 18.8288 173.233C19.093 173.233 19.3317 173.196 19.5447 173.122C19.7607 173.045 19.9467 172.932 20.103 172.781C20.2592 172.628 20.38 172.437 20.4652 172.21L21.4368 172.483C21.3345 172.812 21.1626 173.102 20.9212 173.352C20.6797 173.599 20.3814 173.793 20.0263 173.932C19.6712 174.068 19.272 174.136 18.8288 174.136ZM23.0689 174V167.455H24.0405V168.443H24.1087C24.228 168.119 24.4439 167.857 24.7564 167.655C25.0689 167.453 25.4212 167.352 25.8132 167.352C25.8871 167.352 25.9794 167.354 26.0902 167.357C26.201 167.359 26.2848 167.364 26.3416 167.369V168.392C26.3075 168.384 26.2294 168.371 26.1072 168.354C25.9879 168.334 25.8615 168.324 25.728 168.324C25.4098 168.324 25.1257 168.391 24.8757 168.524C24.6286 168.655 24.4325 168.837 24.2876 169.07C24.1456 169.3 24.0746 169.562 24.0746 169.858V174H23.0689ZM37.9656 165.273V174H36.9428L32.1871 167.148H32.1019V174H31.0451V165.273H32.0678L36.8406 172.142H36.9258V165.273H37.9656ZM41.87 174.153C41.4553 174.153 41.0788 174.075 40.7408 173.919C40.4027 173.76 40.1342 173.531 39.9354 173.233C39.7365 172.932 39.6371 172.568 39.6371 172.142C39.6371 171.767 39.7109 171.463 39.8587 171.23C40.0064 170.994 40.2038 170.81 40.451 170.676C40.6982 170.543 40.9709 170.443 41.2692 170.378C41.5703 170.31 41.8729 170.256 42.1768 170.216C42.5746 170.165 42.897 170.126 43.1442 170.101C43.3942 170.072 43.576 170.026 43.6896 169.96C43.8061 169.895 43.8643 169.781 43.8643 169.619V169.585C43.8643 169.165 43.7493 168.838 43.5192 168.605C43.2919 168.372 42.9467 168.256 42.4837 168.256C42.0036 168.256 41.6271 168.361 41.3544 168.571C41.0817 168.781 40.8899 169.006 40.7791 169.244L39.8246 168.903C39.995 168.506 40.2223 168.196 40.5064 167.974C40.7933 167.75 41.1058 167.594 41.4439 167.506C41.7848 167.415 42.12 167.369 42.4496 167.369C42.6598 167.369 42.9013 167.395 43.174 167.446C43.4496 167.494 43.7152 167.595 43.9709 167.749C44.2294 167.902 44.4439 168.134 44.6143 168.443C44.7848 168.753 44.87 169.168 44.87 169.688V174H43.8643V173.114H43.8132C43.745 173.256 43.6314 173.408 43.4723 173.57C43.3132 173.732 43.1016 173.869 42.8374 173.983C42.5732 174.097 42.2507 174.153 41.87 174.153ZM42.0234 173.25C42.4212 173.25 42.7564 173.172 43.0291 173.016C43.3047 172.859 43.5121 172.658 43.6513 172.411C43.7933 172.163 43.8643 171.903 43.8643 171.631V170.71C43.8217 170.761 43.728 170.808 43.5831 170.851C43.4411 170.891 43.2763 170.926 43.0888 170.957C42.9041 170.986 42.7237 171.011 42.5476 171.034C42.3743 171.054 42.2337 171.071 42.1257 171.085C41.8643 171.119 41.62 171.175 41.3928 171.251C41.1683 171.325 40.9865 171.437 40.8473 171.588C40.7109 171.736 40.6428 171.937 40.6428 172.193C40.6428 172.543 40.772 172.807 41.0305 172.986C41.2919 173.162 41.6229 173.25 42.0234 173.25ZM46.7056 174V167.455H47.6772V168.477H47.7624C47.8988 168.128 48.119 167.857 48.4229 167.663C48.7269 167.467 49.092 167.369 49.5181 167.369C49.9499 167.369 50.3093 167.467 50.5962 167.663C50.886 167.857 51.1119 168.128 51.2738 168.477H51.342C51.5096 168.139 51.761 167.871 52.0962 167.672C52.4315 167.47 52.8335 167.369 53.3022 167.369C53.8874 167.369 54.3661 167.553 54.7383 167.919C55.1104 168.283 55.2965 168.849 55.2965 169.619V174H54.2908V169.619C54.2908 169.136 54.1587 168.791 53.8945 168.584C53.6303 168.376 53.3192 168.273 52.9613 168.273C52.5011 168.273 52.1445 168.412 51.8917 168.69C51.6388 168.966 51.5124 169.315 51.5124 169.739V174H50.4897V169.517C50.4897 169.145 50.369 168.845 50.1275 168.618C49.886 168.388 49.5749 168.273 49.1942 168.273C48.9329 168.273 48.6886 168.342 48.4613 168.482C48.2369 168.621 48.055 168.814 47.9158 169.061C47.7795 169.305 47.7113 169.588 47.7113 169.909V174H46.7056ZM59.8796 174.136C59.2489 174.136 58.7049 173.997 58.2475 173.719C57.793 173.438 57.4421 173.045 57.195 172.543C56.9506 172.037 56.8285 171.449 56.8285 170.778C56.8285 170.108 56.9506 169.517 57.195 169.006C57.4421 168.491 57.7859 168.091 58.2262 167.804C58.6694 167.514 59.1864 167.369 59.7773 167.369C60.1183 167.369 60.4549 167.426 60.7873 167.54C61.1197 167.653 61.4222 167.838 61.695 168.094C61.9677 168.347 62.185 168.682 62.3469 169.099C62.5089 169.517 62.5898 170.031 62.5898 170.642V171.068H57.5444V170.199H61.5671C61.5671 169.83 61.4933 169.5 61.3455 169.21C61.2006 168.92 60.9933 168.692 60.7234 168.524C60.4563 168.357 60.141 168.273 59.7773 168.273C59.3768 168.273 59.0302 168.372 58.7376 168.571C58.4478 168.767 58.2248 169.023 58.0685 169.338C57.9123 169.653 57.8342 169.991 57.8342 170.352V170.932C57.8342 171.426 57.9194 171.845 58.0898 172.189C58.2631 172.53 58.5032 172.79 58.81 172.969C59.1168 173.145 59.4734 173.233 59.8796 173.233C60.1438 173.233 60.3825 173.196 60.5955 173.122C60.8114 173.045 60.9975 172.932 61.1538 172.781C61.31 172.628 61.4308 172.437 61.516 172.21L62.4876 172.483C62.3853 172.812 62.2134 173.102 61.9719 173.352C61.7305 173.599 61.4322 173.793 61.0771 173.932C60.7219 174.068 60.3228 174.136 59.8796 174.136Z" fill="#0C0734"/>
<rect x="0.5" y="181.5" width="249" height="34" rx="3.5" stroke="black" stroke-opacity="0.2"/>
<path d="M10.5795 195.21V194.273H17.125V195.21H14.3807V203H13.3239V195.21H10.5795ZM20.4148 203.136C19.7841 203.136 19.2401 202.997 18.7827 202.719C18.3281 202.438 17.9773 202.045 17.7301 201.543C17.4858 201.037 17.3636 200.449 17.3636 199.778C17.3636 199.108 17.4858 198.517 17.7301 198.006C17.9773 197.491 18.321 197.091 18.7614 196.804C19.2045 196.514 19.7216 196.369 20.3125 196.369C20.6534 196.369 20.9901 196.426 21.3224 196.54C21.6548 196.653 21.9574 196.838 22.2301 197.094C22.5028 197.347 22.7202 197.682 22.8821 198.099C23.044 198.517 23.125 199.031 23.125 199.642V200.068H18.0795V199.199H22.1023C22.1023 198.83 22.0284 198.5 21.8807 198.21C21.7358 197.92 21.5284 197.692 21.2585 197.524C20.9915 197.357 20.6761 197.273 20.3125 197.273C19.9119 197.273 19.5653 197.372 19.2727 197.571C18.983 197.767 18.7599 198.023 18.6037 198.338C18.4474 198.653 18.3693 198.991 18.3693 199.352V199.932C18.3693 200.426 18.4545 200.845 18.625 201.189C18.7983 201.53 19.0384 201.79 19.3452 201.969C19.652 202.145 20.0085 202.233 20.4148 202.233C20.679 202.233 20.9176 202.196 21.1307 202.122C21.3466 202.045 21.5327 201.932 21.6889 201.781C21.8452 201.628 21.9659 201.437 22.0511 201.21L23.0227 201.483C22.9205 201.812 22.7486 202.102 22.5071 202.352C22.2656 202.599 21.9673 202.793 21.6122 202.932C21.2571 203.068 20.858 203.136 20.4148 203.136ZM29.2912 197.92L28.3878 198.176C28.331 198.026 28.2472 197.879 28.1364 197.737C28.0284 197.592 27.8807 197.473 27.6932 197.379C27.5057 197.286 27.2656 197.239 26.973 197.239C26.5724 197.239 26.2386 197.331 25.9716 197.516C25.7074 197.697 25.5753 197.929 25.5753 198.21C25.5753 198.46 25.6662 198.658 25.848 198.803C26.0298 198.947 26.3139 199.068 26.7003 199.165L27.6719 199.403C28.2571 199.545 28.6932 199.763 28.9801 200.055C29.267 200.345 29.4105 200.719 29.4105 201.176C29.4105 201.551 29.3026 201.886 29.0866 202.182C28.8736 202.477 28.5753 202.71 28.1918 202.881C27.8082 203.051 27.3622 203.136 26.8537 203.136C26.1861 203.136 25.6335 202.991 25.196 202.702C24.7585 202.412 24.4815 201.989 24.3651 201.432L25.3196 201.193C25.4105 201.545 25.5824 201.81 25.8352 201.986C26.0909 202.162 26.4247 202.25 26.8366 202.25C27.3054 202.25 27.6776 202.151 27.9531 201.952C28.2315 201.75 28.3707 201.509 28.3707 201.227C28.3707 201 28.2912 200.81 28.1321 200.656C27.973 200.5 27.7287 200.384 27.3991 200.307L26.3082 200.051C25.7088 199.909 25.2685 199.689 24.9872 199.391C24.7088 199.089 24.5696 198.713 24.5696 198.261C24.5696 197.892 24.6733 197.565 24.8807 197.281C25.0909 196.997 25.3764 196.774 25.7372 196.612C26.1009 196.45 26.5128 196.369 26.973 196.369C27.6207 196.369 28.1293 196.511 28.4986 196.795C28.8707 197.08 29.1349 197.455 29.2912 197.92ZM33.771 196.455V197.307H30.3789V196.455H33.771ZM31.3675 194.886H32.3732V201.125C32.3732 201.409 32.4144 201.622 32.4968 201.764C32.582 201.903 32.69 201.997 32.8207 202.045C32.9542 202.091 33.0948 202.114 33.2425 202.114C33.3533 202.114 33.4442 202.108 33.5153 202.097C33.5863 202.082 33.6431 202.071 33.6857 202.062L33.8903 202.966C33.8221 202.991 33.7269 203.017 33.6048 203.043C33.4826 203.071 33.3278 203.085 33.1403 203.085C32.8562 203.085 32.5778 203.024 32.305 202.902C32.0352 202.78 31.8107 202.594 31.6317 202.344C31.4556 202.094 31.3675 201.778 31.3675 201.398V194.886Z" fill="#151231"/>
<path d="M1.05682 252V243.273H4.00568C4.69034 243.273 5.25 243.396 5.68466 243.643C6.12216 243.888 6.44602 244.219 6.65625 244.636C6.86648 245.054 6.97159 245.52 6.97159 246.034C6.97159 246.548 6.86648 247.016 6.65625 247.436C6.44886 247.857 6.12784 248.192 5.69318 248.442C5.25852 248.689 4.7017 248.812 4.02273 248.812H1.90909V247.875H3.98864C4.45739 247.875 4.83381 247.794 5.1179 247.632C5.40199 247.47 5.60795 247.251 5.7358 246.976C5.86648 246.697 5.93182 246.384 5.93182 246.034C5.93182 245.685 5.86648 245.372 5.7358 245.097C5.60795 244.821 5.40057 244.605 5.11364 244.449C4.8267 244.29 4.44602 244.21 3.97159 244.21H2.11364V252H1.05682ZM10.4638 252.153C10.049 252.153 9.67259 252.075 9.33452 251.919C8.99645 251.76 8.72798 251.531 8.52912 251.233C8.33026 250.932 8.23082 250.568 8.23082 250.142C8.23082 249.767 8.30469 249.463 8.45241 249.23C8.60014 248.994 8.79759 248.81 9.04474 248.676C9.2919 248.543 9.56463 248.443 9.86293 248.378C10.1641 248.31 10.4666 248.256 10.7706 248.216C11.1683 248.165 11.4908 248.126 11.7379 248.101C11.9879 248.072 12.1697 248.026 12.2834 247.96C12.3999 247.895 12.4581 247.781 12.4581 247.619V247.585C12.4581 247.165 12.343 246.838 12.1129 246.605C11.8857 246.372 11.5405 246.256 11.0774 246.256C10.5973 246.256 10.2209 246.361 9.94815 246.571C9.67543 246.781 9.48366 247.006 9.37287 247.244L8.41832 246.903C8.58878 246.506 8.81605 246.196 9.10014 245.974C9.38707 245.75 9.69957 245.594 10.0376 245.506C10.3786 245.415 10.7138 245.369 11.0433 245.369C11.2536 245.369 11.495 245.395 11.7678 245.446C12.0433 245.494 12.3089 245.595 12.5646 245.749C12.8232 245.902 13.0376 246.134 13.2081 246.443C13.3786 246.753 13.4638 247.168 13.4638 247.688V252H12.4581V251.114H12.407C12.3388 251.256 12.2251 251.408 12.0661 251.57C11.907 251.732 11.6953 251.869 11.4311 251.983C11.1669 252.097 10.8445 252.153 10.4638 252.153ZM10.6172 251.25C11.0149 251.25 11.3501 251.172 11.6229 251.016C11.8984 250.859 12.1058 250.658 12.245 250.411C12.3871 250.163 12.4581 249.903 12.4581 249.631V248.71C12.4155 248.761 12.3217 248.808 12.1768 248.851C12.0348 248.891 11.87 248.926 11.6825 248.957C11.4979 248.986 11.3175 249.011 11.1413 249.034C10.968 249.054 10.8274 249.071 10.7195 249.085C10.4581 249.119 10.2138 249.175 9.98651 249.251C9.76207 249.325 9.58026 249.437 9.44105 249.588C9.30469 249.736 9.23651 249.937 9.23651 250.193C9.23651 250.543 9.36577 250.807 9.62429 250.986C9.88565 251.162 10.2166 251.25 10.6172 251.25ZM19.9357 246.92L19.0323 247.176C18.9755 247.026 18.8917 246.879 18.7809 246.737C18.6729 246.592 18.5252 246.473 18.3377 246.379C18.1502 246.286 17.9102 246.239 17.6175 246.239C17.217 246.239 16.8832 246.331 16.6161 246.516C16.3519 246.697 16.2198 246.929 16.2198 247.21C16.2198 247.46 16.3107 247.658 16.4925 247.803C16.6744 247.947 16.9585 248.068 17.3448 248.165L18.3164 248.403C18.9016 248.545 19.3377 248.763 19.6246 249.055C19.9116 249.345 20.055 249.719 20.055 250.176C20.055 250.551 19.9471 250.886 19.7312 251.182C19.5181 251.477 19.2198 251.71 18.8363 251.881C18.4528 252.051 18.0067 252.136 17.4982 252.136C16.8306 252.136 16.2781 251.991 15.8406 251.702C15.4031 251.412 15.1261 250.989 15.0096 250.432L15.9641 250.193C16.055 250.545 16.2269 250.81 16.4798 250.986C16.7354 251.162 17.0692 251.25 17.4812 251.25C17.9499 251.25 18.3221 251.151 18.5977 250.952C18.8761 250.75 19.0153 250.509 19.0153 250.227C19.0153 250 18.9357 249.81 18.7766 249.656C18.6175 249.5 18.3732 249.384 18.0437 249.307L16.9528 249.051C16.3533 248.909 15.913 248.689 15.6317 248.391C15.3533 248.089 15.2141 247.713 15.2141 247.261C15.2141 246.892 15.3178 246.565 15.5252 246.281C15.7354 245.997 16.021 245.774 16.3817 245.612C16.7454 245.45 17.1573 245.369 17.6175 245.369C18.2653 245.369 18.7738 245.511 19.1431 245.795C19.5153 246.08 19.7795 246.455 19.9357 246.92ZM26.2053 246.92L25.3018 247.176C25.245 247.026 25.1612 246.879 25.0504 246.737C24.9425 246.592 24.7947 246.473 24.6072 246.379C24.4197 246.286 24.1797 246.239 23.8871 246.239C23.4865 246.239 23.1527 246.331 22.8857 246.516C22.6214 246.697 22.4893 246.929 22.4893 247.21C22.4893 247.46 22.5803 247.658 22.7621 247.803C22.9439 247.947 23.228 248.068 23.6143 248.165L24.5859 248.403C25.1712 248.545 25.6072 248.763 25.8942 249.055C26.1811 249.345 26.3246 249.719 26.3246 250.176C26.3246 250.551 26.2166 250.886 26.0007 251.182C25.7876 251.477 25.4893 251.71 25.1058 251.881C24.7223 252.051 24.2763 252.136 23.7678 252.136C23.1001 252.136 22.5476 251.991 22.1101 251.702C21.6726 251.412 21.3956 250.989 21.2791 250.432L22.2337 250.193C22.3246 250.545 22.4964 250.81 22.7493 250.986C23.005 251.162 23.3388 251.25 23.7507 251.25C24.2195 251.25 24.5916 251.151 24.8672 250.952C25.1456 250.75 25.2848 250.509 25.2848 250.227C25.2848 250 25.2053 249.81 25.0462 249.656C24.8871 249.5 24.6428 249.384 24.3132 249.307L23.2223 249.051C22.6229 248.909 22.1825 248.689 21.9013 248.391C21.6229 248.089 21.4837 247.713 21.4837 247.261C21.4837 246.892 21.5874 246.565 21.7947 246.281C22.005 245.997 22.2905 245.774 22.6513 245.612C23.0149 245.45 23.4268 245.369 23.8871 245.369C24.5348 245.369 25.0433 245.511 25.4126 245.795C25.7848 246.08 26.049 246.455 26.2053 246.92ZM29.3214 252L27.3271 245.455H28.3839L29.7987 250.466H29.8668L31.2646 245.455H32.3384L33.7191 250.449H33.7873L35.2021 245.455H36.2589L34.2646 252H33.2759L31.8441 246.972H31.7418L30.31 252H29.3214ZM40.0249 252.136C39.4339 252.136 38.9155 251.996 38.4695 251.714C38.0263 251.433 37.6797 251.04 37.4297 250.534C37.1825 250.028 37.0589 249.437 37.0589 248.761C37.0589 248.08 37.1825 247.484 37.4297 246.976C37.6797 246.467 38.0263 246.072 38.4695 245.791C38.9155 245.51 39.4339 245.369 40.0249 245.369C40.6158 245.369 41.1328 245.51 41.576 245.791C42.022 246.072 42.3686 246.467 42.6158 246.976C42.8658 247.484 42.9908 248.08 42.9908 248.761C42.9908 249.437 42.8658 250.028 42.6158 250.534C42.3686 251.04 42.022 251.433 41.576 251.714C41.1328 251.996 40.6158 252.136 40.0249 252.136ZM40.0249 251.233C40.4737 251.233 40.843 251.118 41.1328 250.888C41.4226 250.658 41.6371 250.355 41.7763 249.98C41.9155 249.605 41.9851 249.199 41.9851 248.761C41.9851 248.324 41.9155 247.916 41.7763 247.538C41.6371 247.161 41.4226 246.855 41.1328 246.622C40.843 246.389 40.4737 246.273 40.0249 246.273C39.576 246.273 39.2067 246.389 38.9169 246.622C38.6271 246.855 38.4126 247.161 38.2734 247.538C38.1342 247.916 38.0646 248.324 38.0646 248.761C38.0646 249.199 38.1342 249.605 38.2734 249.98C38.4126 250.355 38.6271 250.658 38.9169 250.888C39.2067 251.118 39.576 251.233 40.0249 251.233ZM44.5259 252V245.455H45.4975V246.443H45.5657C45.685 246.119 45.9009 245.857 46.2134 245.655C46.5259 245.453 46.8782 245.352 47.2702 245.352C47.3441 245.352 47.4364 245.354 47.5472 245.357C47.658 245.359 47.7418 245.364 47.7987 245.369V246.392C47.7646 246.384 47.6864 246.371 47.5643 246.354C47.445 246.334 47.3185 246.324 47.185 246.324C46.8668 246.324 46.5827 246.391 46.3327 246.524C46.0856 246.655 45.8896 246.837 45.7447 247.07C45.6026 247.3 45.5316 247.562 45.5316 247.858V252H44.5259ZM51.2631 252.136C50.7177 252.136 50.2362 251.999 49.8185 251.723C49.4009 251.445 49.0742 251.053 48.8384 250.547C48.6026 250.038 48.4847 249.438 48.4847 248.744C48.4847 248.057 48.6026 247.46 48.8384 246.955C49.0742 246.449 49.4023 246.058 49.8228 245.783C50.2433 245.507 50.729 245.369 51.2802 245.369C51.7063 245.369 52.043 245.44 52.2901 245.582C52.5401 245.722 52.7305 245.881 52.8612 246.06C52.9947 246.236 53.0984 246.381 53.1722 246.494H53.2575V243.273H54.2631V252H53.2915V250.994H53.1722C53.0984 251.114 52.9933 251.264 52.8569 251.446C52.7205 251.625 52.5259 251.786 52.2731 251.928C52.0202 252.067 51.6836 252.136 51.2631 252.136ZM51.3995 251.233C51.8029 251.233 52.1438 251.128 52.4222 250.918C52.7006 250.705 52.9123 250.411 53.0572 250.036C53.2021 249.658 53.2745 249.222 53.2745 248.727C53.2745 248.239 53.2035 247.811 53.0614 247.445C52.9194 247.075 52.7092 246.788 52.4308 246.584C52.1523 246.376 51.8086 246.273 51.3995 246.273C50.9734 246.273 50.6183 246.382 50.3342 246.601C50.0529 246.817 49.8413 247.111 49.6992 247.483C49.56 247.852 49.4904 248.267 49.4904 248.727C49.4904 249.193 49.5614 249.616 49.7035 249.997C49.8484 250.375 50.0614 250.676 50.3427 250.901C50.6268 251.122 50.979 251.233 51.3995 251.233Z" fill="#0C0734"/>
<rect x="0.5" y="259.5" width="249" height="35" rx="3.5" stroke="#1976D2"/>
<path d="M10.5795 273.71V272.773H17.125V273.71H14.3807V281.5H13.3239V273.71H10.5795ZM20.4148 281.636C19.7841 281.636 19.2401 281.497 18.7827 281.219C18.3281 280.938 17.9773 280.545 17.7301 280.043C17.4858 279.537 17.3636 278.949 17.3636 278.278C17.3636 277.608 17.4858 277.017 17.7301 276.506C17.9773 275.991 18.321 275.591 18.7614 275.304C19.2045 275.014 19.7216 274.869 20.3125 274.869C20.6534 274.869 20.9901 274.926 21.3224 275.04C21.6548 275.153 21.9574 275.338 22.2301 275.594C22.5028 275.847 22.7202 276.182 22.8821 276.599C23.044 277.017 23.125 277.531 23.125 278.142V278.568H18.0795V277.699H22.1023C22.1023 277.33 22.0284 277 21.8807 276.71C21.7358 276.42 21.5284 276.192 21.2585 276.024C20.9915 275.857 20.6761 275.773 20.3125 275.773C19.9119 275.773 19.5653 275.872 19.2727 276.071C18.983 276.267 18.7599 276.523 18.6037 276.838C18.4474 277.153 18.3693 277.491 18.3693 277.852V278.432C18.3693 278.926 18.4545 279.345 18.625 279.689C18.7983 280.03 19.0384 280.29 19.3452 280.469C19.652 280.645 20.0085 280.733 20.4148 280.733C20.679 280.733 20.9176 280.696 21.1307 280.622C21.3466 280.545 21.5327 280.432 21.6889 280.281C21.8452 280.128 21.9659 279.937 22.0511 279.71L23.0227 279.983C22.9205 280.312 22.7486 280.602 22.5071 280.852C22.2656 281.099 21.9673 281.293 21.6122 281.432C21.2571 281.568 20.858 281.636 20.4148 281.636ZM29.2912 276.42L28.3878 276.676C28.331 276.526 28.2472 276.379 28.1364 276.237C28.0284 276.092 27.8807 275.973 27.6932 275.879C27.5057 275.786 27.2656 275.739 26.973 275.739C26.5724 275.739 26.2386 275.831 25.9716 276.016C25.7074 276.197 25.5753 276.429 25.5753 276.71C25.5753 276.96 25.6662 277.158 25.848 277.303C26.0298 277.447 26.3139 277.568 26.7003 277.665L27.6719 277.903C28.2571 278.045 28.6932 278.263 28.9801 278.555C29.267 278.845 29.4105 279.219 29.4105 279.676C29.4105 280.051 29.3026 280.386 29.0866 280.682C28.8736 280.977 28.5753 281.21 28.1918 281.381C27.8082 281.551 27.3622 281.636 26.8537 281.636C26.1861 281.636 25.6335 281.491 25.196 281.202C24.7585 280.912 24.4815 280.489 24.3651 279.932L25.3196 279.693C25.4105 280.045 25.5824 280.31 25.8352 280.486C26.0909 280.662 26.4247 280.75 26.8366 280.75C27.3054 280.75 27.6776 280.651 27.9531 280.452C28.2315 280.25 28.3707 280.009 28.3707 279.727C28.3707 279.5 28.2912 279.31 28.1321 279.156C27.973 279 27.7287 278.884 27.3991 278.807L26.3082 278.551C25.7088 278.409 25.2685 278.189 24.9872 277.891C24.7088 277.589 24.5696 277.213 24.5696 276.761C24.5696 276.392 24.6733 276.065 24.8807 275.781C25.0909 275.497 25.3764 275.274 25.7372 275.112C26.1009 274.95 26.5128 274.869 26.973 274.869C27.6207 274.869 28.1293 275.011 28.4986 275.295C28.8707 275.58 29.1349 275.955 29.2912 276.42ZM33.771 274.955V275.807H30.3789V274.955H33.771ZM31.3675 273.386H32.3732V279.625C32.3732 279.909 32.4144 280.122 32.4968 280.264C32.582 280.403 32.69 280.497 32.8207 280.545C32.9542 280.591 33.0948 280.614 33.2425 280.614C33.3533 280.614 33.4442 280.608 33.5153 280.597C33.5863 280.582 33.6431 280.571 33.6857 280.562L33.8903 281.466C33.8221 281.491 33.7269 281.517 33.6048 281.543C33.4826 281.571 33.3278 281.585 33.1403 281.585C32.8562 281.585 32.5778 281.524 32.305 281.402C32.0352 281.28 31.8107 281.094 31.6317 280.844C31.4556 280.594 31.3675 280.278 31.3675 279.898V273.386ZM38.3349 272.773V281.5H37.2781V273.881H37.2269L35.0962 275.295V274.222L37.2781 272.773H38.3349ZM40.8448 281.5V280.733L43.7255 277.58C44.0636 277.21 44.342 276.889 44.5607 276.616C44.7795 276.341 44.9414 276.082 45.0465 275.841C45.1545 275.597 45.2085 275.341 45.2085 275.074C45.2085 274.767 45.1346 274.501 44.9869 274.277C44.842 274.053 44.6431 273.879 44.3903 273.757C44.1374 273.635 43.8533 273.574 43.538 273.574C43.2028 273.574 42.9102 273.643 42.6602 273.783C42.413 273.919 42.2212 274.111 42.0849 274.358C41.9513 274.605 41.8846 274.895 41.8846 275.227H40.8789C40.8789 274.716 40.9968 274.267 41.2326 273.881C41.4684 273.494 41.7894 273.193 42.1957 272.977C42.6048 272.761 43.0636 272.653 43.5721 272.653C44.0835 272.653 44.5366 272.761 44.9315 272.977C45.3263 273.193 45.636 273.484 45.8604 273.851C46.0849 274.217 46.1971 274.625 46.1971 275.074C46.1971 275.395 46.1388 275.709 46.0224 276.016C45.9087 276.32 45.7099 276.659 45.4258 277.034C45.1445 277.406 44.7539 277.861 44.2539 278.398L42.2937 280.494V280.562H46.3505V281.5H40.8448ZM51.0593 281.619C50.4968 281.619 49.9954 281.523 49.555 281.33C49.1175 281.136 48.7695 280.868 48.511 280.524C48.2553 280.178 48.1161 279.776 48.0934 279.318H49.1673C49.19 279.599 49.2866 279.842 49.457 280.047C49.6275 280.249 49.8505 280.405 50.1261 280.516C50.4016 280.626 50.707 280.682 51.0423 280.682C51.4173 280.682 51.7496 280.616 52.0394 280.486C52.3292 280.355 52.5565 280.173 52.7212 279.94C52.886 279.707 52.9684 279.438 52.9684 279.131C52.9684 278.81 52.8888 278.527 52.7298 278.283C52.5707 278.036 52.3377 277.842 52.0309 277.703C51.7241 277.564 51.3491 277.494 50.9059 277.494H50.207V276.557H50.9059C51.2525 276.557 51.5565 276.494 51.8178 276.369C52.082 276.244 52.288 276.068 52.4357 275.841C52.5863 275.614 52.6616 275.347 52.6616 275.04C52.6616 274.744 52.5962 274.487 52.4656 274.268C52.3349 274.05 52.1502 273.879 51.9116 273.757C51.6758 273.635 51.3974 273.574 51.0763 273.574C50.7752 273.574 50.4911 273.629 50.2241 273.74C49.9599 273.848 49.744 274.006 49.5763 274.213C49.4087 274.418 49.3178 274.665 49.3036 274.955H48.2809C48.2979 274.497 48.4357 274.097 48.6942 273.753C48.9528 273.406 49.2908 273.136 49.7085 272.943C50.1289 272.75 50.5906 272.653 51.0934 272.653C51.6332 272.653 52.0962 272.763 52.4826 272.982C52.869 273.197 53.1658 273.483 53.3732 273.838C53.5806 274.193 53.6843 274.577 53.6843 274.989C53.6843 275.48 53.555 275.899 53.2965 276.246C53.0408 276.592 52.6928 276.832 52.2525 276.966V277.034C52.8036 277.125 53.234 277.359 53.5437 277.737C53.8533 278.112 54.0082 278.577 54.0082 279.131C54.0082 279.605 53.8789 280.031 53.6204 280.409C53.3647 280.784 53.0153 281.08 52.5721 281.295C52.1289 281.511 51.6246 281.619 51.0593 281.619ZM55.5465 279.71V278.841L59.3817 272.773H60.0124V274.119H59.5863L56.6886 278.705V278.773H61.8533V279.71H55.5465ZM59.6545 281.5V279.446V279.041V272.773H60.6602V281.5H59.6545ZM66.1776 281.619C65.6776 281.619 65.2273 281.52 64.8267 281.321C64.4261 281.122 64.1051 280.849 63.8636 280.503C63.6222 280.156 63.4901 279.761 63.4673 279.318H64.4901C64.5298 279.713 64.7088 280.04 65.027 280.298C65.348 280.554 65.7315 280.682 66.1776 280.682C66.5355 280.682 66.8537 280.598 67.1321 280.43C67.4134 280.263 67.6335 280.033 67.7926 279.74C67.9545 279.445 68.0355 279.111 68.0355 278.739C68.0355 278.358 67.9517 278.018 67.7841 277.72C67.6193 277.419 67.392 277.182 67.1023 277.009C66.8125 276.835 66.4815 276.747 66.1094 276.744C65.8423 276.741 65.5682 276.783 65.2869 276.868C65.0057 276.95 64.7741 277.057 64.5923 277.188L63.6037 277.068L64.1321 272.773H68.6662V273.71H65.0185L64.7116 276.284H64.7628C64.9418 276.142 65.1662 276.024 65.4361 275.93C65.706 275.837 65.9872 275.79 66.2798 275.79C66.8139 275.79 67.2898 275.918 67.7074 276.173C68.1278 276.426 68.4574 276.773 68.696 277.213C68.9375 277.653 69.0582 278.156 69.0582 278.722C69.0582 279.278 68.9332 279.776 68.6832 280.213C68.4361 280.648 68.0952 280.991 67.6605 281.244C67.2259 281.494 66.7315 281.619 66.1776 281.619ZM73.6488 281.619C73.2908 281.614 72.9329 281.545 72.5749 281.415C72.217 281.284 71.8903 281.064 71.5948 280.754C71.2994 280.442 71.0621 280.02 70.8832 279.489C70.7042 278.955 70.6147 278.284 70.6147 277.477C70.6147 276.705 70.6871 276.02 70.832 275.423C70.9769 274.824 71.1871 274.32 71.4627 273.911C71.7383 273.499 72.0707 273.186 72.4599 272.973C72.8519 272.76 73.2937 272.653 73.7852 272.653C74.2738 272.653 74.7085 272.751 75.0891 272.947C75.4727 273.141 75.7852 273.411 76.0266 273.757C76.2681 274.104 76.4244 274.503 76.4954 274.955H75.4556C75.359 274.562 75.1715 274.237 74.8931 273.979C74.6147 273.72 74.2454 273.591 73.7852 273.591C73.109 273.591 72.5763 273.885 72.1871 274.473C71.8008 275.061 71.6062 275.886 71.6033 276.949H71.6715C71.8306 276.707 72.0195 276.501 72.2383 276.331C72.4599 276.158 72.7042 276.024 72.9712 275.93C73.2383 275.837 73.521 275.79 73.8192 275.79C74.3192 275.79 74.7766 275.915 75.1914 276.165C75.6062 276.412 75.9386 276.754 76.1886 277.192C76.4386 277.626 76.5636 278.125 76.5636 278.688C76.5636 279.227 76.4428 279.722 76.2013 280.17C75.9599 280.616 75.6204 280.972 75.1829 281.236C74.7482 281.497 74.2369 281.625 73.6488 281.619ZM73.6488 280.682C74.0067 280.682 74.3278 280.592 74.6119 280.413C74.8988 280.234 75.1246 279.994 75.2894 279.693C75.457 279.392 75.5408 279.057 75.5408 278.688C75.5408 278.327 75.4599 277.999 75.2979 277.703C75.1388 277.405 74.9187 277.168 74.6374 276.991C74.359 276.815 74.0408 276.727 73.6829 276.727C73.413 276.727 73.1616 276.781 72.9286 276.889C72.6957 276.994 72.4911 277.139 72.315 277.324C72.1417 277.509 72.0053 277.72 71.9059 277.959C71.8065 278.195 71.7567 278.443 71.7567 278.705C71.7567 279.051 71.8377 279.375 71.9996 279.676C72.1644 279.977 72.3888 280.22 72.6729 280.405C72.9599 280.589 73.2852 280.682 73.6488 280.682ZM78.5121 281.5L82.4155 273.778V273.71H77.9155V272.773H83.5064V273.761L79.62 281.5H78.5121ZM87.7145 281.619C87.1293 281.619 86.6122 281.516 86.1634 281.308C85.7173 281.098 85.3693 280.81 85.1193 280.443C84.8693 280.074 84.7457 279.653 84.7486 279.182C84.7457 278.812 84.8182 278.472 84.9659 278.159C85.1136 277.844 85.3153 277.581 85.571 277.371C85.8295 277.158 86.1179 277.023 86.4361 276.966V276.915C86.0185 276.807 85.6861 276.572 85.4389 276.212C85.1918 275.848 85.0696 275.435 85.0724 274.972C85.0696 274.528 85.1818 274.132 85.4091 273.783C85.6364 273.433 85.9489 273.158 86.3466 272.956C86.7472 272.754 87.2031 272.653 87.7145 272.653C88.2202 272.653 88.6719 272.754 89.0696 272.956C89.4673 273.158 89.7798 273.433 90.0071 273.783C90.2372 274.132 90.3537 274.528 90.3565 274.972C90.3537 275.435 90.2273 275.848 89.9773 276.212C89.7301 276.572 89.402 276.807 88.9929 276.915V276.966C89.3082 277.023 89.5923 277.158 89.8452 277.371C90.098 277.581 90.2997 277.844 90.4503 278.159C90.6009 278.472 90.6776 278.812 90.6804 279.182C90.6776 279.653 90.5497 280.074 90.2969 280.443C90.0469 280.81 89.6989 281.098 89.2528 281.308C88.8097 281.516 88.2969 281.619 87.7145 281.619ZM87.7145 280.682C88.1094 280.682 88.4503 280.618 88.7372 280.49C89.0241 280.362 89.2457 280.182 89.402 279.949C89.5582 279.716 89.6378 279.443 89.6406 279.131C89.6378 278.801 89.5526 278.51 89.3849 278.257C89.2173 278.004 88.9886 277.805 88.6989 277.661C88.4119 277.516 88.0838 277.443 87.7145 277.443C87.3423 277.443 87.0099 277.516 86.7173 277.661C86.4276 277.805 86.1989 278.004 86.0312 278.257C85.8665 278.51 85.7855 278.801 85.7884 279.131C85.7855 279.443 85.8608 279.716 86.0142 279.949C86.1705 280.182 86.3935 280.362 86.6832 280.49C86.973 280.618 87.3168 280.682 87.7145 280.682ZM87.7145 276.54C88.027 276.54 88.304 276.477 88.5455 276.352C88.7898 276.227 88.9815 276.053 89.1207 275.828C89.2599 275.604 89.331 275.341 89.3338 275.04C89.331 274.744 89.2614 274.487 89.125 274.268C88.9886 274.047 88.7997 273.876 88.5582 273.757C88.3168 273.635 88.0355 273.574 87.7145 273.574C87.3878 273.574 87.1023 273.635 86.858 273.757C86.6136 273.876 86.4247 274.047 86.2912 274.268C86.1577 274.487 86.0923 274.744 86.0952 275.04C86.0923 275.341 86.1591 275.604 86.2955 275.828C86.4347 276.053 86.6264 276.227 86.8707 276.352C87.1151 276.477 87.3963 276.54 87.7145 276.54Z" fill="#151231"/>
<path d="M233.457 276.798C233.435 276.748 232.906 275.574 231.729 274.397C230.161 272.829 228.18 272 226 272C223.82 272 221.839 272.829 220.271 274.397C219.094 275.574 218.562 276.75 218.543 276.798C218.515 276.861 218.5 276.931 218.5 277.001C218.5 277.071 218.515 277.14 218.543 277.204C218.565 277.253 219.094 278.427 220.271 279.604C221.839 281.171 223.82 282 226 282C228.18 282 230.161 281.171 231.729 279.604C232.906 278.427 233.435 277.253 233.457 277.204C233.485 277.14 233.5 277.071 233.5 277.001C233.5 276.931 233.485 276.861 233.457 276.798ZM226 281C224.076 281 222.396 280.301 221.004 278.922C220.434 278.354 219.948 277.707 219.562 277C219.948 276.293 220.433 275.646 221.004 275.078C222.396 273.699 224.076 273 226 273C227.924 273 229.604 273.699 230.996 275.078C231.568 275.646 232.054 276.293 232.441 277C231.99 277.841 230.027 281 226 281ZM226 274C225.407 274 224.827 274.176 224.333 274.506C223.84 274.835 223.455 275.304 223.228 275.852C223.001 276.4 222.942 277.003 223.058 277.585C223.173 278.167 223.459 278.702 223.879 279.121C224.298 279.541 224.833 279.827 225.415 279.942C225.997 280.058 226.6 279.999 227.148 279.772C227.696 279.545 228.165 279.16 228.494 278.667C228.824 278.173 229 277.593 229 277C228.999 276.205 228.683 275.442 228.12 274.88C227.558 274.317 226.795 274.001 226 274ZM226 279C225.604 279 225.218 278.883 224.889 278.663C224.56 278.443 224.304 278.131 224.152 277.765C224.001 277.4 223.961 276.998 224.038 276.61C224.116 276.222 224.306 275.865 224.586 275.586C224.865 275.306 225.222 275.116 225.61 275.038C225.998 274.961 226.4 275.001 226.765 275.152C227.131 275.304 227.443 275.56 227.663 275.889C227.883 276.218 228 276.604 228 277C228 277.53 227.789 278.039 227.414 278.414C227.039 278.789 226.53 279 226 279Z" fill="black"/>
<rect y="327" width="243" height="35" rx="4" fill="#1976D2"/>
<path d="M103.959 349V340.273H105.276V347.866H109.23V349H103.959ZM117.973 344.636C117.973 345.568 117.803 346.369 117.462 347.04C117.121 347.707 116.654 348.222 116.06 348.582C115.469 348.94 114.797 349.119 114.044 349.119C113.289 349.119 112.614 348.94 112.02 348.582C111.429 348.222 110.963 347.706 110.623 347.036C110.282 346.365 110.111 345.565 110.111 344.636C110.111 343.705 110.282 342.905 110.623 342.237C110.963 341.567 111.429 341.053 112.02 340.695C112.614 340.334 113.289 340.153 114.044 340.153C114.797 340.153 115.469 340.334 116.06 340.695C116.654 341.053 117.121 341.567 117.462 342.237C117.803 342.905 117.973 343.705 117.973 344.636ZM116.669 344.636C116.669 343.926 116.554 343.328 116.324 342.842C116.097 342.354 115.784 341.984 115.387 341.734C114.992 341.482 114.544 341.355 114.044 341.355C113.542 341.355 113.093 341.482 112.698 341.734C112.303 341.984 111.99 342.354 111.76 342.842C111.533 343.328 111.419 343.926 111.419 344.636C111.419 345.347 111.533 345.946 111.76 346.435C111.99 346.92 112.303 347.29 112.698 347.543C113.093 347.793 113.542 347.918 114.044 347.918C114.544 347.918 114.992 347.793 115.387 347.543C115.784 347.29 116.097 346.92 116.324 346.435C116.554 345.946 116.669 345.347 116.669 344.636ZM125.521 343.03C125.439 342.771 125.328 342.54 125.189 342.335C125.053 342.128 124.889 341.952 124.699 341.807C124.509 341.659 124.291 341.547 124.047 341.47C123.805 341.393 123.54 341.355 123.25 341.355C122.759 341.355 122.315 341.482 121.92 341.734C121.526 341.987 121.213 342.358 120.983 342.847C120.756 343.332 120.642 343.928 120.642 344.632C120.642 345.339 120.757 345.937 120.987 346.426C121.217 346.915 121.533 347.286 121.933 347.538C122.334 347.791 122.79 347.918 123.301 347.918C123.776 347.918 124.189 347.821 124.541 347.628C124.896 347.435 125.17 347.162 125.364 346.81C125.56 346.455 125.658 346.037 125.658 345.557L125.999 345.621H123.501V344.534H126.932V345.527C126.932 346.26 126.776 346.896 126.463 347.436C126.153 347.973 125.724 348.388 125.176 348.68C124.631 348.973 124.006 349.119 123.301 349.119C122.511 349.119 121.818 348.938 121.222 348.574C120.628 348.21 120.165 347.695 119.832 347.027C119.5 346.357 119.334 345.561 119.334 344.641C119.334 343.945 119.43 343.32 119.624 342.766C119.817 342.212 120.088 341.741 120.438 341.355C120.79 340.966 121.203 340.669 121.678 340.464C122.155 340.257 122.676 340.153 123.241 340.153C123.713 340.153 124.152 340.223 124.558 340.362C124.967 340.501 125.331 340.699 125.649 340.955C125.97 341.21 126.236 341.514 126.446 341.866C126.656 342.216 126.798 342.604 126.872 343.03H125.521ZM129.92 340.273V349H128.603V340.273H129.92ZM138.882 340.273V349H137.672L133.235 342.599H133.154V349H131.838V340.273H133.056L137.497 346.682H137.578V340.273H138.882Z" fill="white"/>
<defs>
<linearGradient id="paint0_linear_200_5405" x1="24" y1="4.5" x2="24" y2="43.5" gradientUnits="userSpaceOnUse">
<stop stop-color="#7003FF"/>
<stop offset="0.461538" stop-color="#035696"/>
<stop offset="1" stop-color="#99021B"/>
</linearGradient>
</defs>
</svg>
