<svg width="1440" height="1024" viewBox="0 0 1440 1024" fill="none" xmlns="http://www.w3.org/2000/svg">
<rect width="1440" height="1024" fill="#1976D2"/>
<g filter="url(#filter0_d_200_5403)">
<rect x="142" y="155" width="1156" height="715" rx="20" fill="white" shape-rendering="crispEdges"/>
<path d="M367 326.5C356.907 326.5 349 331.113 349 337V355C349 360.888 356.907 365.5 367 365.5C377.093 365.5 385 360.888 385 355V337C385 331.113 377.093 326.5 367 326.5ZM382 346C382 347.804 380.522 349.643 377.948 351.048C375.049 352.628 371.161 353.5 367 353.5C362.839 353.5 358.951 352.628 356.052 351.048C353.477 349.643 352 347.804 352 346V342.88C355.199 345.693 360.668 347.5 367 347.5C373.332 347.5 378.801 345.685 382 342.88V346ZM356.052 331.953C358.951 330.372 362.839 329.5 367 329.5C371.161 329.5 375.049 330.372 377.948 331.953C380.522 333.357 382 335.196 382 337C382 338.804 380.522 340.643 377.948 342.047C375.049 343.628 371.161 344.5 367 344.5C362.839 344.5 358.951 343.628 356.052 342.047C353.477 340.643 352 338.804 352 337C352 335.196 353.477 333.357 356.052 331.953ZM377.948 360.048C375.049 361.628 371.161 362.5 367 362.5C362.839 362.5 358.951 361.628 356.052 360.048C353.477 358.643 352 356.804 352 355V351.88C355.199 354.693 360.668 356.5 367 356.5C373.332 356.5 378.801 354.685 382 351.88V355C382 356.804 380.522 358.643 377.948 360.048Z" fill="url(#paint0_linear_200_5403)"/>
<path d="M402.676 353H398.438V339.909H402.81C404.093 339.909 405.195 340.171 406.115 340.695C407.036 341.215 407.741 341.963 408.231 342.939C408.725 343.911 408.972 345.076 408.972 346.435C408.972 347.799 408.723 348.971 408.224 349.951C407.73 350.931 407.014 351.685 406.077 352.214C405.139 352.738 404.006 353 402.676 353ZM400.413 351.274H402.567C403.565 351.274 404.393 351.087 405.054 350.712C405.714 350.332 406.209 349.785 406.537 349.069C406.865 348.349 407.029 347.471 407.029 346.435C407.029 345.408 406.865 344.537 406.537 343.821C406.213 343.105 405.729 342.562 405.086 342.191C404.442 341.82 403.643 341.635 402.689 341.635H400.413V351.274ZM414.132 353.217C413.51 353.217 412.948 353.102 412.445 352.872C411.942 352.638 411.544 352.299 411.249 351.856C410.96 351.413 410.815 350.869 410.815 350.226C410.815 349.672 410.921 349.216 411.134 348.858C411.347 348.5 411.635 348.217 411.997 348.008C412.36 347.799 412.764 347.641 413.212 347.535C413.659 347.428 414.115 347.347 414.58 347.292C415.168 347.224 415.645 347.168 416.012 347.126C416.378 347.079 416.644 347.004 416.811 346.902C416.977 346.8 417.06 346.634 417.06 346.403V346.359C417.06 345.8 416.902 345.368 416.587 345.061C416.276 344.754 415.811 344.601 415.193 344.601C414.55 344.601 414.043 344.744 413.672 345.029C413.306 345.31 413.052 345.624 412.911 345.969L411.115 345.56C411.328 344.963 411.639 344.482 412.048 344.115C412.462 343.744 412.937 343.476 413.474 343.31C414.011 343.139 414.575 343.054 415.168 343.054C415.56 343.054 415.975 343.101 416.414 343.195C416.857 343.284 417.271 343.45 417.654 343.693C418.042 343.936 418.36 344.283 418.607 344.735C418.854 345.183 418.977 345.764 418.977 346.48V353H417.111V351.658H417.034C416.911 351.905 416.725 352.148 416.478 352.386C416.231 352.625 415.914 352.823 415.526 352.981C415.138 353.138 414.673 353.217 414.132 353.217ZM414.548 351.683C415.076 351.683 415.528 351.579 415.903 351.37C416.282 351.161 416.57 350.888 416.766 350.552C416.966 350.211 417.066 349.847 417.066 349.459V348.193C416.998 348.261 416.866 348.325 416.67 348.385C416.478 348.44 416.259 348.489 416.012 348.532C415.764 348.57 415.524 348.607 415.289 348.641C415.055 348.67 414.859 348.696 414.701 348.717C414.33 348.764 413.992 348.843 413.685 348.954C413.382 349.065 413.139 349.224 412.956 349.433C412.777 349.638 412.688 349.911 412.688 350.251C412.688 350.724 412.862 351.082 413.212 351.325C413.561 351.564 414.007 351.683 414.548 351.683ZM426.106 343.182V344.716H420.743V343.182H426.106ZM422.181 340.83H424.093V350.117C424.093 350.488 424.148 350.767 424.259 350.955C424.37 351.138 424.512 351.263 424.687 351.332C424.866 351.396 425.06 351.428 425.269 351.428C425.422 351.428 425.556 351.417 425.672 351.396C425.787 351.374 425.876 351.357 425.94 351.344L426.285 352.923C426.174 352.966 426.017 353.009 425.812 353.051C425.608 353.098 425.352 353.124 425.045 353.128C424.542 353.136 424.074 353.047 423.639 352.859C423.204 352.672 422.853 352.382 422.584 351.99C422.316 351.598 422.181 351.106 422.181 350.513V340.83ZM431.078 353.217C430.455 353.217 429.893 353.102 429.39 352.872C428.887 352.638 428.489 352.299 428.195 351.856C427.905 351.413 427.76 350.869 427.76 350.226C427.76 349.672 427.867 349.216 428.08 348.858C428.293 348.5 428.58 348.217 428.943 348.008C429.305 347.799 429.71 347.641 430.157 347.535C430.605 347.428 431.061 347.347 431.525 347.292C432.113 347.224 432.59 347.168 432.957 347.126C433.323 347.079 433.59 347.004 433.756 346.902C433.922 346.8 434.005 346.634 434.005 346.403V346.359C434.005 345.8 433.847 345.368 433.532 345.061C433.221 344.754 432.757 344.601 432.139 344.601C431.495 344.601 430.988 344.744 430.617 345.029C430.251 345.31 429.997 345.624 429.857 345.969L428.061 345.56C428.274 344.963 428.585 344.482 428.994 344.115C429.407 343.744 429.882 343.476 430.419 343.31C430.956 343.139 431.521 343.054 432.113 343.054C432.505 343.054 432.921 343.101 433.36 343.195C433.803 343.284 434.216 343.45 434.6 343.693C434.987 343.936 435.305 344.283 435.552 344.735C435.799 345.183 435.923 345.764 435.923 346.48V353H434.056V351.658H433.98C433.856 351.905 433.671 352.148 433.423 352.386C433.176 352.625 432.859 352.823 432.471 352.981C432.083 353.138 431.619 353.217 431.078 353.217ZM431.493 351.683C432.021 351.683 432.473 351.579 432.848 351.37C433.227 351.161 433.515 350.888 433.711 350.552C433.911 350.211 434.012 349.847 434.012 349.459V348.193C433.943 348.261 433.811 348.325 433.615 348.385C433.423 348.44 433.204 348.489 432.957 348.532C432.71 348.57 432.469 348.607 432.235 348.641C432 348.67 431.804 348.696 431.646 348.717C431.276 348.764 430.937 348.843 430.63 348.954C430.328 349.065 430.085 349.224 429.901 349.433C429.722 349.638 429.633 349.911 429.633 350.251C429.633 350.724 429.808 351.082 430.157 351.325C430.507 351.564 430.952 351.683 431.493 351.683ZM444.53 339.909L448.173 350.571H448.32L451.964 339.909H454.099L449.388 353H447.106L442.395 339.909H444.53ZM455.836 353V343.182H457.747V353H455.836ZM456.801 341.667C456.468 341.667 456.183 341.556 455.944 341.335C455.71 341.109 455.593 340.84 455.593 340.529C455.593 340.214 455.71 339.945 455.944 339.724C456.183 339.498 456.468 339.385 456.801 339.385C457.133 339.385 457.417 339.498 457.651 339.724C457.89 339.945 458.009 340.214 458.009 340.529C458.009 340.84 457.89 341.109 457.651 341.335C457.417 341.556 457.133 341.667 456.801 341.667ZM467.675 345.579L465.943 345.886C465.871 345.664 465.756 345.453 465.598 345.253C465.444 345.053 465.236 344.888 464.971 344.761C464.707 344.633 464.377 344.569 463.981 344.569C463.439 344.569 462.988 344.69 462.626 344.933C462.263 345.172 462.082 345.481 462.082 345.86C462.082 346.188 462.204 346.452 462.447 346.653C462.689 346.853 463.081 347.017 463.623 347.145L465.182 347.503C466.086 347.712 466.759 348.033 467.202 348.468C467.645 348.903 467.867 349.467 467.867 350.162C467.867 350.75 467.697 351.274 467.356 351.734C467.019 352.19 466.548 352.548 465.943 352.808C465.342 353.068 464.645 353.198 463.853 353.198C462.753 353.198 461.856 352.964 461.162 352.495C460.467 352.022 460.041 351.351 459.883 350.482L461.731 350.2C461.846 350.682 462.082 351.046 462.44 351.293C462.798 351.536 463.265 351.658 463.84 351.658C464.466 351.658 464.967 351.528 465.342 351.268C465.717 351.004 465.905 350.682 465.905 350.303C465.905 349.996 465.79 349.738 465.559 349.529C465.334 349.32 464.986 349.163 464.518 349.056L462.856 348.692C461.939 348.483 461.262 348.151 460.823 347.695C460.388 347.239 460.171 346.661 460.171 345.962C460.171 345.383 460.333 344.876 460.657 344.441C460.981 344.006 461.428 343.668 461.999 343.425C462.57 343.178 463.224 343.054 463.961 343.054C465.023 343.054 465.858 343.284 466.467 343.744C467.077 344.2 467.479 344.812 467.675 345.579ZM476.188 348.928V343.182H478.105V353H476.226V351.3H476.124C475.898 351.824 475.536 352.261 475.037 352.61C474.543 352.955 473.927 353.128 473.19 353.128C472.559 353.128 472.001 352.989 471.515 352.712C471.034 352.431 470.654 352.016 470.377 351.466C470.105 350.916 469.968 350.237 469.968 349.427V343.182H471.88V349.197C471.88 349.866 472.065 350.398 472.436 350.795C472.806 351.191 473.288 351.389 473.88 351.389C474.238 351.389 474.594 351.3 474.948 351.121C475.306 350.942 475.602 350.671 475.836 350.309C476.075 349.947 476.192 349.487 476.188 348.928ZM483.531 353.217C482.909 353.217 482.346 353.102 481.843 352.872C481.34 352.638 480.942 352.299 480.648 351.856C480.358 351.413 480.213 350.869 480.213 350.226C480.213 349.672 480.32 349.216 480.533 348.858C480.746 348.5 481.034 348.217 481.396 348.008C481.758 347.799 482.163 347.641 482.61 347.535C483.058 347.428 483.514 347.347 483.978 347.292C484.566 347.224 485.044 347.168 485.41 347.126C485.776 347.079 486.043 347.004 486.209 346.902C486.375 346.8 486.458 346.634 486.458 346.403V346.359C486.458 345.8 486.301 345.368 485.985 345.061C485.674 344.754 485.21 344.601 484.592 344.601C483.948 344.601 483.441 344.744 483.07 345.029C482.704 345.31 482.45 345.624 482.31 345.969L480.514 345.56C480.727 344.963 481.038 344.482 481.447 344.115C481.86 343.744 482.335 343.476 482.872 343.31C483.409 343.139 483.974 343.054 484.566 343.054C484.958 343.054 485.374 343.101 485.813 343.195C486.256 343.284 486.669 343.45 487.053 343.693C487.441 343.936 487.758 344.283 488.005 344.735C488.252 345.183 488.376 345.764 488.376 346.48V353H486.509V351.658H486.433C486.309 351.905 486.124 352.148 485.877 352.386C485.629 352.625 485.312 352.823 484.924 352.981C484.536 353.138 484.072 353.217 483.531 353.217ZM483.946 351.683C484.475 351.683 484.926 351.579 485.301 351.37C485.681 351.161 485.968 350.888 486.164 350.552C486.365 350.211 486.465 349.847 486.465 349.459V348.193C486.396 348.261 486.264 348.325 486.068 348.385C485.877 348.44 485.657 348.489 485.41 348.532C485.163 348.57 484.922 348.607 484.688 348.641C484.453 348.67 484.257 348.696 484.1 348.717C483.729 348.764 483.39 348.843 483.083 348.954C482.781 349.065 482.538 349.224 482.355 349.433C482.176 349.638 482.086 349.911 482.086 350.251C482.086 350.724 482.261 351.082 482.61 351.325C482.96 351.564 483.405 351.683 483.946 351.683ZM492.833 339.909V353H490.922V339.909H492.833ZM495.404 353V343.182H497.315V353H495.404ZM496.369 341.667C496.037 341.667 495.751 341.556 495.513 341.335C495.278 341.109 495.161 340.84 495.161 340.529C495.161 340.214 495.278 339.945 495.513 339.724C495.751 339.498 496.037 339.385 496.369 339.385C496.702 339.385 496.985 339.498 497.219 339.724C497.458 339.945 497.577 340.214 497.577 340.529C497.577 340.84 497.458 341.109 497.219 341.335C496.985 341.556 496.702 341.667 496.369 341.667ZM507.244 345.579L505.511 345.886C505.439 345.664 505.324 345.453 505.166 345.253C505.013 345.053 504.804 344.888 504.54 344.761C504.276 344.633 503.945 344.569 503.549 344.569C503.008 344.569 502.556 344.69 502.194 344.933C501.832 345.172 501.651 345.481 501.651 345.86C501.651 346.188 501.772 346.452 502.015 346.653C502.258 346.853 502.65 347.017 503.191 347.145L504.751 347.503C505.654 347.712 506.327 348.033 506.771 348.468C507.214 348.903 507.435 349.467 507.435 350.162C507.435 350.75 507.265 351.274 506.924 351.734C506.587 352.19 506.116 352.548 505.511 352.808C504.911 353.068 504.214 353.198 503.421 353.198C502.322 353.198 501.425 352.964 500.73 352.495C500.036 352.022 499.609 351.351 499.452 350.482L501.299 350.2C501.414 350.682 501.651 351.046 502.009 351.293C502.366 351.536 502.833 351.658 503.408 351.658C504.035 351.658 504.536 351.528 504.911 351.268C505.286 351.004 505.473 350.682 505.473 350.303C505.473 349.996 505.358 349.738 505.128 349.529C504.902 349.32 504.555 349.163 504.086 349.056L502.424 348.692C501.508 348.483 500.83 348.151 500.391 347.695C499.957 347.239 499.739 346.661 499.739 345.962C499.739 345.383 499.901 344.876 500.225 344.441C500.549 344.006 500.996 343.668 501.567 343.425C502.138 343.178 502.793 343.054 503.53 343.054C504.591 343.054 505.426 343.284 506.036 343.744C506.645 344.2 507.048 344.812 507.244 345.579ZM512.394 353.217C511.772 353.217 511.209 353.102 510.706 352.872C510.204 352.638 509.805 352.299 509.511 351.856C509.221 351.413 509.077 350.869 509.077 350.226C509.077 349.672 509.183 349.216 509.396 348.858C509.609 348.5 509.897 348.217 510.259 348.008C510.621 347.799 511.026 347.641 511.474 347.535C511.921 347.428 512.377 347.347 512.841 347.292C513.43 347.224 513.907 347.168 514.273 347.126C514.64 347.079 514.906 347.004 515.072 346.902C515.238 346.8 515.322 346.634 515.322 346.403V346.359C515.322 345.8 515.164 345.368 514.849 345.061C514.537 344.754 514.073 344.601 513.455 344.601C512.812 344.601 512.305 344.744 511.934 345.029C511.567 345.31 511.314 345.624 511.173 345.969L509.377 345.56C509.59 344.963 509.901 344.482 510.31 344.115C510.724 343.744 511.199 343.476 511.736 343.31C512.273 343.139 512.837 343.054 513.43 343.054C513.822 343.054 514.237 343.101 514.676 343.195C515.119 343.284 515.532 343.45 515.916 343.693C516.304 343.936 516.621 344.283 516.868 344.735C517.116 345.183 517.239 345.764 517.239 346.48V353H515.373V351.658H515.296C515.172 351.905 514.987 352.148 514.74 352.386C514.493 352.625 514.175 352.823 513.787 352.981C513.4 353.138 512.935 353.217 512.394 353.217ZM512.809 351.683C513.338 351.683 513.79 351.579 514.165 351.37C514.544 351.161 514.831 350.888 515.028 350.552C515.228 350.211 515.328 349.847 515.328 349.459V348.193C515.26 348.261 515.128 348.325 514.932 348.385C514.74 348.44 514.52 348.489 514.273 348.532C514.026 348.57 513.785 348.607 513.551 348.641C513.317 348.67 513.121 348.696 512.963 348.717C512.592 348.764 512.253 348.843 511.947 348.954C511.644 349.065 511.401 349.224 511.218 349.433C511.039 349.638 510.949 349.911 510.949 350.251C510.949 350.724 511.124 351.082 511.474 351.325C511.823 351.564 512.268 351.683 512.809 351.683ZM524.368 343.182V344.716H519.005V343.182H524.368ZM520.443 340.83H522.354V350.117C522.354 350.488 522.41 350.767 522.521 350.955C522.631 351.138 522.774 351.263 522.949 351.332C523.128 351.396 523.322 351.428 523.531 351.428C523.684 351.428 523.818 351.417 523.933 351.396C524.048 351.374 524.138 351.357 524.202 351.344L524.547 352.923C524.436 352.966 524.278 353.009 524.074 353.051C523.869 353.098 523.614 353.124 523.307 353.128C522.804 353.136 522.335 353.047 521.901 352.859C521.466 352.672 521.114 352.382 520.846 351.99C520.577 351.598 520.443 351.106 520.443 350.513V340.83ZM526.482 353V343.182H528.393V353H526.482ZM527.447 341.667C527.115 341.667 526.829 341.556 526.591 341.335C526.356 341.109 526.239 340.84 526.239 340.529C526.239 340.214 526.356 339.945 526.591 339.724C526.829 339.498 527.115 339.385 527.447 339.385C527.78 339.385 528.063 339.498 528.297 339.724C528.536 339.945 528.655 340.214 528.655 340.529C528.655 340.84 528.536 341.109 528.297 341.335C528.063 341.556 527.78 341.667 527.447 341.667ZM535.1 353.198C534.18 353.198 533.376 352.987 532.69 352.565C532.004 352.143 531.472 351.553 531.092 350.795C530.713 350.036 530.523 349.15 530.523 348.136C530.523 347.117 530.713 346.227 531.092 345.464C531.472 344.701 532.004 344.109 532.69 343.687C533.376 343.265 534.18 343.054 535.1 343.054C536.021 343.054 536.824 343.265 537.51 343.687C538.196 344.109 538.729 344.701 539.108 345.464C539.487 346.227 539.677 347.117 539.677 348.136C539.677 349.15 539.487 350.036 539.108 350.795C538.729 351.553 538.196 352.143 537.51 352.565C536.824 352.987 536.021 353.198 535.1 353.198ZM535.107 351.594C535.703 351.594 536.197 351.436 536.589 351.121C536.982 350.805 537.271 350.386 537.459 349.862C537.651 349.337 537.746 348.76 537.746 348.129C537.746 347.503 537.651 346.928 537.459 346.403C537.271 345.875 536.982 345.451 536.589 345.131C536.197 344.812 535.703 344.652 535.107 344.652C534.506 344.652 534.007 344.812 533.611 345.131C533.219 345.451 532.927 345.875 532.735 346.403C532.548 346.928 532.454 347.503 532.454 348.129C532.454 348.76 532.548 349.337 532.735 349.862C532.927 350.386 533.219 350.805 533.611 351.121C534.007 351.436 534.506 351.594 535.107 351.594ZM543.721 347.17V353H541.81V343.182H543.645V344.78H543.766C543.992 344.26 544.346 343.842 544.827 343.527C545.313 343.212 545.925 343.054 546.662 343.054C547.331 343.054 547.917 343.195 548.42 343.476C548.922 343.753 549.312 344.166 549.589 344.716C549.866 345.266 550.005 345.945 550.005 346.755V353H548.094V346.985C548.094 346.273 547.908 345.717 547.537 345.317C547.167 344.912 546.657 344.71 546.01 344.71C545.567 344.71 545.172 344.805 544.827 344.997C544.486 345.189 544.216 345.47 544.015 345.841C543.819 346.207 543.721 346.651 543.721 347.17Z" fill="#333333"/>
<path d="M344.722 421V403.545H347.884V418.349H355.571V421H344.722ZM363.889 421.256C362.611 421.256 361.503 420.974 360.565 420.412C359.628 419.849 358.901 419.062 358.384 418.051C357.872 417.04 357.616 415.858 357.616 414.506C357.616 413.153 357.872 411.969 358.384 410.952C358.901 409.935 359.628 409.145 360.565 408.582C361.503 408.02 362.611 407.739 363.889 407.739C365.168 407.739 366.276 408.02 367.213 408.582C368.151 409.145 368.875 409.935 369.386 410.952C369.903 411.969 370.162 413.153 370.162 414.506C370.162 415.858 369.903 417.04 369.386 418.051C368.875 419.062 368.151 419.849 367.213 420.412C366.276 420.974 365.168 421.256 363.889 421.256ZM363.906 418.784C364.599 418.784 365.179 418.594 365.645 418.213C366.111 417.827 366.457 417.31 366.685 416.662C366.918 416.014 367.034 415.293 367.034 414.497C367.034 413.696 366.918 412.972 366.685 412.324C366.457 411.67 366.111 411.151 365.645 410.764C365.179 410.378 364.599 410.185 363.906 410.185C363.196 410.185 362.605 410.378 362.134 410.764C361.668 411.151 361.318 411.67 361.085 412.324C360.858 412.972 360.744 413.696 360.744 414.497C360.744 415.293 360.858 416.014 361.085 416.662C361.318 417.31 361.668 417.827 362.134 418.213C362.605 418.594 363.196 418.784 363.906 418.784ZM378.474 426.182C377.366 426.182 376.414 426.031 375.619 425.73C374.823 425.435 374.184 425.037 373.701 424.537C373.218 424.037 372.883 423.483 372.695 422.875L375.474 422.202C375.599 422.457 375.781 422.71 376.019 422.96C376.258 423.216 376.579 423.426 376.982 423.591C377.391 423.761 377.906 423.847 378.525 423.847C379.4 423.847 380.124 423.634 380.698 423.207C381.272 422.787 381.559 422.094 381.559 421.128V418.648H381.406C381.246 418.966 381.013 419.293 380.707 419.628C380.406 419.963 380.005 420.244 379.505 420.472C379.011 420.699 378.388 420.812 377.638 420.812C376.633 420.812 375.721 420.577 374.903 420.105C374.09 419.628 373.442 418.918 372.96 417.974C372.482 417.026 372.244 415.838 372.244 414.412C372.244 412.974 372.482 411.761 372.96 410.773C373.442 409.778 374.093 409.026 374.911 408.514C375.729 407.997 376.641 407.739 377.647 407.739C378.414 407.739 379.045 407.869 379.539 408.131C380.039 408.386 380.437 408.696 380.732 409.06C381.028 409.418 381.252 409.756 381.406 410.074H381.576V407.909H384.619V421.213C384.619 422.332 384.352 423.259 383.817 423.991C383.283 424.724 382.553 425.273 381.627 425.636C380.701 426 379.65 426.182 378.474 426.182ZM378.499 418.392C379.153 418.392 379.71 418.233 380.17 417.915C380.63 417.597 380.979 417.139 381.218 416.543C381.457 415.946 381.576 415.23 381.576 414.395C381.576 413.571 381.457 412.849 381.218 412.23C380.985 411.611 380.638 411.131 380.178 410.79C379.724 410.443 379.164 410.27 378.499 410.27C377.812 410.27 377.238 410.449 376.778 410.807C376.317 411.165 375.971 411.656 375.738 412.281C375.505 412.901 375.388 413.605 375.388 414.395C375.388 415.196 375.505 415.898 375.738 416.5C375.977 417.097 376.326 417.562 376.786 417.898C377.252 418.227 377.823 418.392 378.499 418.392ZM387.781 421V407.909H390.866V421H387.781ZM389.332 406.051C388.843 406.051 388.423 405.889 388.07 405.565C387.718 405.236 387.542 404.841 387.542 404.381C387.542 403.915 387.718 403.52 388.07 403.196C388.423 402.866 388.843 402.702 389.332 402.702C389.826 402.702 390.246 402.866 390.593 403.196C390.945 403.52 391.121 403.915 391.121 404.381C391.121 404.841 390.945 405.236 390.593 405.565C390.246 405.889 389.826 406.051 389.332 406.051ZM397.124 413.33V421H394.038V407.909H396.987V410.134H397.141C397.442 409.401 397.922 408.818 398.581 408.386C399.246 407.955 400.067 407.739 401.044 407.739C401.947 407.739 402.734 407.932 403.405 408.318C404.081 408.705 404.604 409.264 404.973 409.997C405.348 410.73 405.533 411.619 405.527 412.665V421H402.442V413.142C402.442 412.267 402.214 411.582 401.76 411.088C401.311 410.594 400.689 410.347 399.893 410.347C399.354 410.347 398.874 410.466 398.453 410.705C398.038 410.937 397.712 411.276 397.473 411.719C397.24 412.162 397.124 412.699 397.124 413.33Z" fill="#0B46AB"/>
<path d="M344.233 449V438.818H345.466V443.352H350.895V438.818H352.128V449H350.895V444.446H345.466V449H344.233ZM357.539 449.159C356.85 449.159 356.245 448.995 355.725 448.667C355.208 448.339 354.803 447.88 354.512 447.29C354.223 446.7 354.079 446.01 354.079 445.222C354.079 444.426 354.223 443.732 354.512 443.138C354.803 442.545 355.208 442.085 355.725 441.756C356.245 441.428 356.85 441.264 357.539 441.264C358.229 441.264 358.832 441.428 359.349 441.756C359.869 442.085 360.274 442.545 360.562 443.138C360.854 443.732 361 444.426 361 445.222C361 446.01 360.854 446.7 360.562 447.29C360.274 447.88 359.869 448.339 359.349 448.667C358.832 448.995 358.229 449.159 357.539 449.159ZM357.539 448.105C358.063 448.105 358.494 447.971 358.832 447.702C359.17 447.434 359.42 447.081 359.583 446.643C359.745 446.206 359.826 445.732 359.826 445.222C359.826 444.711 359.745 444.236 359.583 443.795C359.42 443.354 359.17 442.998 358.832 442.726C358.494 442.454 358.063 442.318 357.539 442.318C357.016 442.318 356.585 442.454 356.247 442.726C355.909 442.998 355.658 443.354 355.496 443.795C355.334 444.236 355.252 444.711 355.252 445.222C355.252 445.732 355.334 446.206 355.496 446.643C355.658 447.081 355.909 447.434 356.247 447.702C356.585 447.971 357.016 448.105 357.539 448.105ZM364.261 449L361.934 441.364H363.167L364.818 447.21H364.897L366.528 441.364H367.781L369.392 447.19H369.471L371.122 441.364H372.355L370.028 449H368.875L367.204 443.134H367.085L365.414 449H364.261ZM380.727 449.159C380.091 449.159 379.529 448.998 379.042 448.677C378.554 448.352 378.173 447.895 377.898 447.305C377.623 446.711 377.485 446.01 377.485 445.202C377.485 444.4 377.623 443.704 377.898 443.114C378.173 442.524 378.556 442.068 379.047 441.746C379.537 441.425 380.104 441.264 380.747 441.264C381.244 441.264 381.637 441.347 381.925 441.513C382.217 441.675 382.439 441.861 382.591 442.07C382.747 442.275 382.868 442.444 382.954 442.577H383.054V438.818H384.227V449H383.093V447.827H382.954C382.868 447.966 382.745 448.142 382.586 448.354C382.427 448.562 382.2 448.75 381.905 448.915C381.61 449.078 381.217 449.159 380.727 449.159ZM380.886 448.105C381.357 448.105 381.754 447.982 382.079 447.737C382.404 447.489 382.651 447.146 382.82 446.708C382.989 446.267 383.074 445.759 383.074 445.182C383.074 444.612 382.991 444.113 382.825 443.685C382.659 443.254 382.414 442.92 382.089 442.681C381.764 442.439 381.363 442.318 380.886 442.318C380.389 442.318 379.975 442.446 379.643 442.701C379.315 442.953 379.068 443.296 378.902 443.73C378.74 444.161 378.659 444.645 378.659 445.182C378.659 445.725 378.742 446.219 378.907 446.663C379.076 447.104 379.325 447.455 379.653 447.717C379.984 447.976 380.395 448.105 380.886 448.105ZM389.641 449.159C388.952 449.159 388.347 448.995 387.826 448.667C387.309 448.339 386.905 447.88 386.613 447.29C386.325 446.7 386.181 446.01 386.181 445.222C386.181 444.426 386.325 443.732 386.613 443.138C386.905 442.545 387.309 442.085 387.826 441.756C388.347 441.428 388.952 441.264 389.641 441.264C390.33 441.264 390.934 441.428 391.451 441.756C391.971 442.085 392.375 442.545 392.664 443.138C392.955 443.732 393.101 444.426 393.101 445.222C393.101 446.01 392.955 446.7 392.664 447.29C392.375 447.88 391.971 448.339 391.451 448.667C390.934 448.995 390.33 449.159 389.641 449.159ZM389.641 448.105C390.165 448.105 390.596 447.971 390.934 447.702C391.272 447.434 391.522 447.081 391.684 446.643C391.847 446.206 391.928 445.732 391.928 445.222C391.928 444.711 391.847 444.236 391.684 443.795C391.522 443.354 391.272 442.998 390.934 442.726C390.596 442.454 390.165 442.318 389.641 442.318C389.117 442.318 388.686 442.454 388.348 442.726C388.01 442.998 387.76 443.354 387.598 443.795C387.435 444.236 387.354 444.711 387.354 445.222C387.354 445.732 387.435 446.206 387.598 446.643C387.76 447.081 388.01 447.434 388.348 447.702C388.686 447.971 389.117 448.105 389.641 448.105ZM400.222 438.818V449H398.989V438.818H400.222ZM409.555 452.023C408.988 452.023 408.501 451.95 408.093 451.804C407.685 451.661 407.346 451.473 407.074 451.237C406.805 451.005 406.592 450.757 406.433 450.491L407.367 449.835C407.473 449.974 407.607 450.134 407.77 450.312C407.932 450.495 408.154 450.652 408.436 450.785C408.721 450.921 409.094 450.989 409.555 450.989C410.171 450.989 410.68 450.839 411.081 450.541C411.482 450.243 411.683 449.776 411.683 449.139V447.588H411.583C411.497 447.727 411.374 447.9 411.215 448.105C411.059 448.307 410.834 448.488 410.539 448.647C410.247 448.803 409.853 448.881 409.356 448.881C408.739 448.881 408.186 448.735 407.695 448.443C407.208 448.152 406.822 447.727 406.537 447.17C406.255 446.614 406.114 445.937 406.114 445.142C406.114 444.36 406.252 443.679 406.527 443.099C406.802 442.515 407.185 442.065 407.675 441.746C408.166 441.425 408.733 441.264 409.376 441.264C409.873 441.264 410.267 441.347 410.559 441.513C410.854 441.675 411.079 441.861 411.235 442.07C411.394 442.275 411.517 442.444 411.603 442.577H411.722V441.364H412.856V449.219C412.856 449.875 412.707 450.409 412.408 450.82C412.113 451.234 411.716 451.537 411.215 451.729C410.718 451.925 410.165 452.023 409.555 452.023ZM409.515 447.827C409.986 447.827 410.383 447.719 410.708 447.504C411.033 447.288 411.28 446.978 411.449 446.574C411.618 446.17 411.702 445.686 411.702 445.122C411.702 444.572 411.62 444.086 411.454 443.665C411.288 443.245 411.043 442.915 410.718 442.676C410.393 442.437 409.992 442.318 409.515 442.318C409.018 442.318 408.603 442.444 408.272 442.696C407.944 442.948 407.697 443.286 407.531 443.71C407.369 444.134 407.288 444.605 407.288 445.122C407.288 445.652 407.371 446.121 407.536 446.529C407.705 446.933 407.954 447.252 408.282 447.484C408.613 447.712 409.024 447.827 409.515 447.827ZM418.205 449.159C417.469 449.159 416.835 448.997 416.301 448.672C415.771 448.344 415.362 447.886 415.073 447.3C414.788 446.71 414.646 446.024 414.646 445.241C414.646 444.459 414.788 443.77 415.073 443.173C415.362 442.573 415.763 442.106 416.276 441.771C416.793 441.433 417.397 441.264 418.086 441.264C418.484 441.264 418.876 441.33 419.264 441.463C419.652 441.596 420.005 441.811 420.323 442.109C420.641 442.404 420.895 442.795 421.084 443.283C421.273 443.77 421.367 444.37 421.367 445.082V445.58H415.481V444.565H420.174C420.174 444.134 420.088 443.75 419.915 443.412C419.746 443.074 419.504 442.807 419.19 442.612C418.878 442.416 418.51 442.318 418.086 442.318C417.619 442.318 417.214 442.434 416.873 442.666C416.535 442.895 416.275 443.193 416.092 443.561C415.91 443.929 415.819 444.323 415.819 444.744V445.42C415.819 445.997 415.918 446.486 416.117 446.887C416.319 447.285 416.599 447.588 416.957 447.797C417.315 448.002 417.731 448.105 418.205 448.105C418.513 448.105 418.792 448.062 419.04 447.976C419.292 447.886 419.509 447.754 419.692 447.578C419.874 447.399 420.015 447.177 420.114 446.912L421.248 447.23C421.129 447.615 420.928 447.953 420.646 448.244C420.365 448.533 420.017 448.758 419.602 448.92C419.188 449.08 418.722 449.159 418.205 449.159ZM426.473 441.364V442.358H422.516V441.364H426.473ZM423.669 439.534H424.842V446.812C424.842 447.144 424.89 447.393 424.987 447.558C425.086 447.721 425.212 447.83 425.364 447.886C425.52 447.939 425.684 447.966 425.857 447.966C425.986 447.966 426.092 447.959 426.175 447.946C426.258 447.929 426.324 447.916 426.374 447.906L426.612 448.96C426.533 448.99 426.422 449.02 426.279 449.05C426.137 449.083 425.956 449.099 425.737 449.099C425.406 449.099 425.081 449.028 424.763 448.886C424.448 448.743 424.186 448.526 423.977 448.234C423.772 447.943 423.669 447.575 423.669 447.131V439.534ZM437.585 443.074L436.531 443.372C436.464 443.196 436.366 443.026 436.237 442.86C436.111 442.691 435.939 442.552 435.72 442.442C435.501 442.333 435.221 442.278 434.88 442.278C434.413 442.278 434.023 442.386 433.712 442.602C433.403 442.814 433.249 443.084 433.249 443.412C433.249 443.704 433.355 443.934 433.567 444.103C433.78 444.272 434.111 444.413 434.562 444.526L435.695 444.804C436.378 444.97 436.887 445.223 437.222 445.565C437.556 445.903 437.724 446.339 437.724 446.872C437.724 447.31 437.598 447.701 437.346 448.045C437.097 448.39 436.749 448.662 436.302 448.861C435.854 449.06 435.334 449.159 434.741 449.159C433.962 449.159 433.317 448.99 432.807 448.652C432.296 448.314 431.973 447.82 431.837 447.17L432.951 446.892C433.057 447.303 433.258 447.611 433.553 447.817C433.851 448.022 434.24 448.125 434.721 448.125C435.268 448.125 435.702 448.009 436.023 447.777C436.348 447.542 436.511 447.26 436.511 446.932C436.511 446.667 436.418 446.445 436.232 446.266C436.047 446.083 435.762 445.947 435.377 445.858L434.104 445.56C433.405 445.394 432.891 445.137 432.563 444.789C432.238 444.438 432.076 443.999 432.076 443.472C432.076 443.041 432.197 442.66 432.439 442.328C432.684 441.997 433.017 441.737 433.438 441.548C433.862 441.359 434.343 441.264 434.88 441.264C435.636 441.264 436.229 441.43 436.66 441.761C437.094 442.093 437.402 442.53 437.585 443.074ZM442.811 441.364V442.358H438.854V441.364H442.811ZM440.007 439.534H441.18V446.812C441.18 447.144 441.228 447.393 441.324 447.558C441.424 447.721 441.55 447.83 441.702 447.886C441.858 447.939 442.022 447.966 442.194 447.966C442.324 447.966 442.43 447.959 442.513 447.946C442.595 447.929 442.662 447.916 442.711 447.906L442.95 448.96C442.871 448.99 442.76 449.02 442.617 449.05C442.474 449.083 442.294 449.099 442.075 449.099C441.744 449.099 441.419 449.028 441.101 448.886C440.786 448.743 440.524 448.526 440.315 448.234C440.11 447.943 440.007 447.575 440.007 447.131V439.534ZM446.823 449.179C446.339 449.179 445.9 449.088 445.506 448.906C445.111 448.72 444.798 448.453 444.566 448.105C444.334 447.754 444.218 447.33 444.218 446.832C444.218 446.395 444.304 446.04 444.476 445.768C444.649 445.493 444.879 445.278 445.167 445.122C445.456 444.966 445.774 444.85 446.122 444.774C446.473 444.695 446.826 444.632 447.181 444.585C447.645 444.526 448.021 444.481 448.309 444.451C448.601 444.418 448.813 444.363 448.946 444.287C449.082 444.211 449.15 444.078 449.15 443.889V443.849C449.15 443.359 449.015 442.978 448.747 442.706C448.482 442.434 448.079 442.298 447.539 442.298C446.979 442.298 446.54 442.421 446.221 442.666C445.903 442.911 445.68 443.173 445.55 443.452L444.437 443.054C444.635 442.59 444.901 442.229 445.232 441.97C445.567 441.708 445.931 441.526 446.326 441.423C446.724 441.317 447.115 441.264 447.499 441.264C447.744 441.264 448.026 441.294 448.344 441.354C448.666 441.41 448.976 441.528 449.274 441.707C449.576 441.886 449.826 442.156 450.025 442.517C450.224 442.878 450.323 443.362 450.323 443.969V449H449.15V447.966H449.09C449.01 448.132 448.878 448.309 448.692 448.498C448.507 448.687 448.26 448.848 447.952 448.98C447.643 449.113 447.267 449.179 446.823 449.179ZM447.002 448.125C447.466 448.125 447.857 448.034 448.175 447.852C448.497 447.669 448.739 447.434 448.901 447.146C449.067 446.857 449.15 446.554 449.15 446.236V445.162C449.1 445.222 448.991 445.276 448.822 445.326C448.656 445.372 448.464 445.414 448.245 445.45C448.029 445.483 447.819 445.513 447.613 445.54C447.411 445.563 447.247 445.583 447.121 445.599C446.816 445.639 446.531 445.704 446.266 445.793C446.004 445.879 445.792 446.01 445.63 446.186C445.471 446.358 445.391 446.594 445.391 446.892C445.391 447.3 445.542 447.608 445.844 447.817C446.148 448.022 446.535 448.125 447.002 448.125ZM452.464 449V441.364H453.598V442.517H453.678C453.817 442.139 454.069 441.833 454.433 441.597C454.798 441.362 455.209 441.244 455.666 441.244C455.752 441.244 455.86 441.246 455.989 441.249C456.119 441.253 456.216 441.258 456.283 441.264V442.457C456.243 442.447 456.152 442.433 456.009 442.413C455.87 442.389 455.723 442.378 455.567 442.378C455.196 442.378 454.864 442.456 454.572 442.612C454.284 442.764 454.055 442.976 453.886 443.248C453.721 443.516 453.638 443.823 453.638 444.168V449H452.464ZM461.473 441.364V442.358H457.516V441.364H461.473ZM458.669 439.534H459.842V446.812C459.842 447.144 459.89 447.393 459.987 447.558C460.086 447.721 460.212 447.83 460.364 447.886C460.52 447.939 460.684 447.966 460.857 447.966C460.986 447.966 461.092 447.959 461.175 447.946C461.258 447.929 461.324 447.916 461.374 447.906L461.612 448.96C461.533 448.99 461.422 449.02 461.279 449.05C461.137 449.083 460.956 449.099 460.737 449.099C460.406 449.099 460.081 449.028 459.763 448.886C459.448 448.743 459.186 448.526 458.977 448.234C458.772 447.943 458.669 447.575 458.669 447.131V439.534ZM466.358 449.159C465.622 449.159 464.987 448.997 464.453 448.672C463.923 448.344 463.514 447.886 463.225 447.3C462.94 446.71 462.798 446.024 462.798 445.241C462.798 444.459 462.94 443.77 463.225 443.173C463.514 442.573 463.915 442.106 464.429 441.771C464.946 441.433 465.549 441.264 466.238 441.264C466.636 441.264 467.029 441.33 467.417 441.463C467.804 441.596 468.157 441.811 468.475 442.109C468.794 442.404 469.047 442.795 469.236 443.283C469.425 443.77 469.52 444.37 469.52 445.082V445.58H463.633V444.565H468.326C468.326 444.134 468.24 443.75 468.068 443.412C467.899 443.074 467.657 442.807 467.342 442.612C467.03 442.416 466.663 442.318 466.238 442.318C465.771 442.318 465.367 442.434 465.025 442.666C464.687 442.895 464.427 443.193 464.245 443.561C464.062 443.929 463.971 444.323 463.971 444.744V445.42C463.971 445.997 464.071 446.486 464.27 446.887C464.472 447.285 464.752 447.588 465.11 447.797C465.468 448.002 465.884 448.105 466.358 448.105C466.666 448.105 466.944 448.062 467.193 447.976C467.445 447.886 467.662 447.754 467.844 447.578C468.026 447.399 468.167 447.177 468.267 446.912L469.4 447.23C469.281 447.615 469.08 447.953 468.799 448.244C468.517 448.533 468.169 448.758 467.755 448.92C467.34 449.08 466.875 449.159 466.358 449.159ZM474.188 449.159C473.551 449.159 472.99 448.998 472.502 448.677C472.015 448.352 471.634 447.895 471.359 447.305C471.084 446.711 470.946 446.01 470.946 445.202C470.946 444.4 471.084 443.704 471.359 443.114C471.634 442.524 472.017 442.068 472.507 441.746C472.998 441.425 473.565 441.264 474.208 441.264C474.705 441.264 475.098 441.347 475.386 441.513C475.678 441.675 475.9 441.861 476.052 442.07C476.208 442.275 476.329 442.444 476.415 442.577H476.515V438.818H477.688V449H476.554V447.827H476.415C476.329 447.966 476.206 448.142 476.047 448.354C475.888 448.562 475.661 448.75 475.366 448.915C475.071 449.078 474.678 449.159 474.188 449.159ZM474.347 448.105C474.818 448.105 475.215 447.982 475.54 447.737C475.865 447.489 476.112 447.146 476.281 446.708C476.45 446.267 476.534 445.759 476.534 445.182C476.534 444.612 476.452 444.113 476.286 443.685C476.12 443.254 475.875 442.92 475.55 442.681C475.225 442.439 474.824 442.318 474.347 442.318C473.85 442.318 473.435 442.446 473.104 442.701C472.776 442.953 472.529 443.296 472.363 443.73C472.201 444.161 472.12 444.645 472.12 445.182C472.12 445.725 472.203 446.219 472.368 446.663C472.537 447.104 472.786 447.455 473.114 447.717C473.445 447.976 473.856 448.105 474.347 448.105ZM485.468 446.136V446.077C485.475 445.444 485.541 444.94 485.667 444.565C485.793 444.191 485.972 443.888 486.204 443.656C486.436 443.424 486.715 443.21 487.039 443.014C487.235 442.895 487.411 442.754 487.566 442.592C487.722 442.426 487.845 442.235 487.934 442.02C488.027 441.804 488.074 441.566 488.074 441.304C488.074 440.979 487.997 440.697 487.845 440.459C487.692 440.22 487.489 440.036 487.233 439.907C486.978 439.778 486.695 439.713 486.383 439.713C486.111 439.713 485.85 439.769 485.598 439.882C485.346 439.995 485.135 440.172 484.966 440.414C484.797 440.656 484.699 440.973 484.673 441.364H483.42C483.447 440.8 483.592 440.318 483.858 439.917C484.126 439.516 484.479 439.209 484.917 438.997C485.357 438.785 485.846 438.679 486.383 438.679C486.967 438.679 487.474 438.795 487.904 439.027C488.339 439.259 488.673 439.577 488.909 439.982C489.147 440.386 489.267 440.847 489.267 441.364C489.267 441.728 489.21 442.058 489.098 442.353C488.988 442.648 488.829 442.911 488.62 443.143C488.415 443.375 488.166 443.581 487.875 443.76C487.583 443.942 487.349 444.134 487.174 444.337C486.998 444.536 486.87 444.772 486.791 445.048C486.711 445.323 486.668 445.666 486.662 446.077V446.136H485.468ZM486.105 449.08C485.859 449.08 485.649 448.992 485.473 448.816C485.298 448.64 485.21 448.43 485.21 448.185C485.21 447.939 485.298 447.729 485.473 447.553C485.649 447.378 485.859 447.29 486.105 447.29C486.35 447.29 486.56 447.378 486.736 447.553C486.912 447.729 487 447.939 487 448.185C487 448.347 486.958 448.496 486.875 448.632C486.796 448.768 486.688 448.877 486.552 448.96C486.42 449.04 486.27 449.08 486.105 449.08Z" fill="#A7A5AF"/>
<path d="M349.784 487.273H350.841V493.051C350.841 493.648 350.7 494.18 350.419 494.649C350.141 495.115 349.747 495.483 349.239 495.753C348.73 496.02 348.134 496.153 347.449 496.153C346.764 496.153 346.168 496.02 345.659 495.753C345.151 495.483 344.756 495.115 344.474 494.649C344.196 494.18 344.057 493.648 344.057 493.051V487.273H345.114V492.966C345.114 493.392 345.207 493.771 345.395 494.104C345.582 494.433 345.849 494.693 346.196 494.884C346.545 495.071 346.963 495.165 347.449 495.165C347.935 495.165 348.352 495.071 348.702 494.884C349.051 494.693 349.318 494.433 349.503 494.104C349.69 493.771 349.784 493.392 349.784 492.966V487.273ZM357.451 490.92L356.548 491.176C356.491 491.026 356.407 490.879 356.297 490.737C356.189 490.592 356.041 490.473 355.853 490.379C355.666 490.286 355.426 490.239 355.133 490.239C354.733 490.239 354.399 490.331 354.132 490.516C353.868 490.697 353.735 490.929 353.735 491.21C353.735 491.46 353.826 491.658 354.008 491.803C354.19 491.947 354.474 492.068 354.86 492.165L355.832 492.403C356.417 492.545 356.853 492.763 357.14 493.055C357.427 493.345 357.571 493.719 357.571 494.176C357.571 494.551 357.463 494.886 357.247 495.182C357.034 495.477 356.735 495.71 356.352 495.881C355.968 496.051 355.522 496.136 355.014 496.136C354.346 496.136 353.794 495.991 353.356 495.702C352.919 495.412 352.642 494.989 352.525 494.432L353.48 494.193C353.571 494.545 353.743 494.81 353.995 494.986C354.251 495.162 354.585 495.25 354.997 495.25C355.466 495.25 355.838 495.151 356.113 494.952C356.392 494.75 356.531 494.509 356.531 494.227C356.531 494 356.451 493.81 356.292 493.656C356.133 493.5 355.889 493.384 355.559 493.307L354.468 493.051C353.869 492.909 353.429 492.689 353.147 492.391C352.869 492.089 352.73 491.713 352.73 491.261C352.73 490.892 352.833 490.565 353.041 490.281C353.251 489.997 353.537 489.774 353.897 489.612C354.261 489.45 354.673 489.369 355.133 489.369C355.781 489.369 356.289 489.511 356.659 489.795C357.031 490.08 357.295 490.455 357.451 490.92ZM361.829 496.136C361.198 496.136 360.654 495.997 360.197 495.719C359.742 495.438 359.391 495.045 359.144 494.543C358.9 494.037 358.778 493.449 358.778 492.778C358.778 492.108 358.9 491.517 359.144 491.006C359.391 490.491 359.735 490.091 360.175 489.804C360.619 489.514 361.136 489.369 361.727 489.369C362.067 489.369 362.404 489.426 362.737 489.54C363.069 489.653 363.371 489.838 363.644 490.094C363.917 490.347 364.134 490.682 364.296 491.099C364.458 491.517 364.539 492.031 364.539 492.642V493.068H359.494V492.199H363.516C363.516 491.83 363.442 491.5 363.295 491.21C363.15 490.92 362.942 490.692 362.673 490.524C362.406 490.357 362.09 490.273 361.727 490.273C361.326 490.273 360.979 490.372 360.687 490.571C360.397 490.767 360.174 491.023 360.018 491.338C359.862 491.653 359.783 491.991 359.783 492.352V492.932C359.783 493.426 359.869 493.845 360.039 494.189C360.212 494.53 360.452 494.79 360.759 494.969C361.066 495.145 361.423 495.233 361.829 495.233C362.093 495.233 362.332 495.196 362.545 495.122C362.761 495.045 362.947 494.932 363.103 494.781C363.259 494.628 363.38 494.437 363.465 494.21L364.437 494.483C364.335 494.812 364.163 495.102 363.921 495.352C363.68 495.599 363.381 495.793 363.026 495.932C362.671 496.068 362.272 496.136 361.829 496.136ZM366.069 496V489.455H367.04V490.443H367.109C367.228 490.119 367.444 489.857 367.756 489.655C368.069 489.453 368.421 489.352 368.813 489.352C368.887 489.352 368.979 489.354 369.09 489.357C369.201 489.359 369.285 489.364 369.342 489.369V490.392C369.308 490.384 369.229 490.371 369.107 490.354C368.988 490.334 368.862 490.324 368.728 490.324C368.41 490.324 368.126 490.391 367.876 490.524C367.629 490.655 367.433 490.837 367.288 491.07C367.146 491.3 367.075 491.562 367.075 491.858V496H366.069ZM380.966 487.273V496H379.943L375.187 489.148H375.102V496H374.045V487.273H375.068L379.841 494.142H379.926V487.273H380.966ZM384.87 496.153C384.455 496.153 384.079 496.075 383.741 495.919C383.403 495.76 383.134 495.531 382.935 495.233C382.737 494.932 382.637 494.568 382.637 494.142C382.637 493.767 382.711 493.463 382.859 493.23C383.006 492.994 383.204 492.81 383.451 492.676C383.698 492.543 383.971 492.443 384.269 492.378C384.57 492.31 384.873 492.256 385.177 492.216C385.575 492.165 385.897 492.126 386.144 492.101C386.394 492.072 386.576 492.026 386.69 491.96C386.806 491.895 386.864 491.781 386.864 491.619V491.585C386.864 491.165 386.749 490.838 386.519 490.605C386.292 490.372 385.947 490.256 385.484 490.256C385.004 490.256 384.627 490.361 384.354 490.571C384.082 490.781 383.89 491.006 383.779 491.244L382.825 490.903C382.995 490.506 383.222 490.196 383.506 489.974C383.793 489.75 384.106 489.594 384.444 489.506C384.785 489.415 385.12 489.369 385.45 489.369C385.66 489.369 385.901 489.395 386.174 489.446C386.45 489.494 386.715 489.595 386.971 489.749C387.229 489.902 387.444 490.134 387.614 490.443C387.785 490.753 387.87 491.168 387.87 491.688V496H386.864V495.114H386.813C386.745 495.256 386.631 495.408 386.472 495.57C386.313 495.732 386.102 495.869 385.837 495.983C385.573 496.097 385.251 496.153 384.87 496.153ZM385.023 495.25C385.421 495.25 385.756 495.172 386.029 495.016C386.305 494.859 386.512 494.658 386.651 494.411C386.793 494.163 386.864 493.903 386.864 493.631V492.71C386.822 492.761 386.728 492.808 386.583 492.851C386.441 492.891 386.276 492.926 386.089 492.957C385.904 492.986 385.724 493.011 385.548 493.034C385.374 493.054 385.234 493.071 385.126 493.085C384.864 493.119 384.62 493.175 384.393 493.251C384.168 493.325 383.987 493.437 383.847 493.588C383.711 493.736 383.643 493.937 383.643 494.193C383.643 494.543 383.772 494.807 384.031 494.986C384.292 495.162 384.623 495.25 385.023 495.25ZM389.706 496V489.455H390.677V490.477H390.762C390.899 490.128 391.119 489.857 391.423 489.663C391.727 489.467 392.092 489.369 392.518 489.369C392.95 489.369 393.309 489.467 393.596 489.663C393.886 489.857 394.112 490.128 394.274 490.477H394.342C394.51 490.139 394.761 489.871 395.096 489.672C395.431 489.47 395.833 489.369 396.302 489.369C396.887 489.369 397.366 489.553 397.738 489.919C398.11 490.283 398.297 490.849 398.297 491.619V496H397.291V491.619C397.291 491.136 397.159 490.791 396.895 490.584C396.63 490.376 396.319 490.273 395.961 490.273C395.501 490.273 395.145 490.412 394.892 490.69C394.639 490.966 394.512 491.315 394.512 491.739V496H393.49V491.517C393.49 491.145 393.369 490.845 393.127 490.618C392.886 490.388 392.575 490.273 392.194 490.273C391.933 490.273 391.689 490.342 391.461 490.482C391.237 490.621 391.055 490.814 390.916 491.061C390.779 491.305 390.711 491.588 390.711 491.909V496H389.706ZM402.88 496.136C402.249 496.136 401.705 495.997 401.248 495.719C400.793 495.438 400.442 495.045 400.195 494.543C399.951 494.037 399.828 493.449 399.828 492.778C399.828 492.108 399.951 491.517 400.195 491.006C400.442 490.491 400.786 490.091 401.226 489.804C401.669 489.514 402.186 489.369 402.777 489.369C403.118 489.369 403.455 489.426 403.787 489.54C404.12 489.653 404.422 489.838 404.695 490.094C404.968 490.347 405.185 490.682 405.347 491.099C405.509 491.517 405.59 492.031 405.59 492.642V493.068H400.544V492.199H404.567C404.567 491.83 404.493 491.5 404.346 491.21C404.201 490.92 403.993 490.692 403.723 490.524C403.456 490.357 403.141 490.273 402.777 490.273C402.377 490.273 402.03 490.372 401.738 490.571C401.448 490.767 401.225 491.023 401.069 491.338C400.912 491.653 400.834 491.991 400.834 492.352V492.932C400.834 493.426 400.919 493.845 401.09 494.189C401.263 494.53 401.503 494.79 401.81 494.969C402.117 495.145 402.473 495.233 402.88 495.233C403.144 495.233 403.382 495.196 403.596 495.122C403.811 495.045 403.998 494.932 404.154 494.781C404.31 494.628 404.431 494.437 404.516 494.21L405.488 494.483C405.385 494.812 405.213 495.102 404.972 495.352C404.73 495.599 404.432 495.793 404.077 495.932C403.722 496.068 403.323 496.136 402.88 496.136Z" fill="#0C0734"/>
<rect x="343.5" y="503.5" width="249" height="34" rx="3.5" stroke="black" stroke-opacity="0.2"/>
<path d="M353.58 517.21V516.273H360.125V517.21H357.381V525H356.324V517.21H353.58ZM363.415 525.136C362.784 525.136 362.24 524.997 361.783 524.719C361.328 524.438 360.977 524.045 360.73 523.543C360.486 523.037 360.364 522.449 360.364 521.778C360.364 521.108 360.486 520.517 360.73 520.006C360.977 519.491 361.321 519.091 361.761 518.804C362.205 518.514 362.722 518.369 363.312 518.369C363.653 518.369 363.99 518.426 364.322 518.54C364.655 518.653 364.957 518.838 365.23 519.094C365.503 519.347 365.72 519.682 365.882 520.099C366.044 520.517 366.125 521.031 366.125 521.642V522.068H361.08V521.199H365.102C365.102 520.83 365.028 520.5 364.881 520.21C364.736 519.92 364.528 519.692 364.259 519.524C363.991 519.357 363.676 519.273 363.312 519.273C362.912 519.273 362.565 519.372 362.273 519.571C361.983 519.767 361.76 520.023 361.604 520.338C361.447 520.653 361.369 520.991 361.369 521.352V521.932C361.369 522.426 361.455 522.845 361.625 523.189C361.798 523.53 362.038 523.79 362.345 523.969C362.652 524.145 363.009 524.233 363.415 524.233C363.679 524.233 363.918 524.196 364.131 524.122C364.347 524.045 364.533 523.932 364.689 523.781C364.845 523.628 364.966 523.437 365.051 523.21L366.023 523.483C365.92 523.812 365.749 524.102 365.507 524.352C365.266 524.599 364.967 524.793 364.612 524.932C364.257 525.068 363.858 525.136 363.415 525.136ZM372.291 519.92L371.388 520.176C371.331 520.026 371.247 519.879 371.136 519.737C371.028 519.592 370.881 519.473 370.693 519.379C370.506 519.286 370.266 519.239 369.973 519.239C369.572 519.239 369.239 519.331 368.972 519.516C368.707 519.697 368.575 519.929 368.575 520.21C368.575 520.46 368.666 520.658 368.848 520.803C369.03 520.947 369.314 521.068 369.7 521.165L370.672 521.403C371.257 521.545 371.693 521.763 371.98 522.055C372.267 522.345 372.411 522.719 372.411 523.176C372.411 523.551 372.303 523.886 372.087 524.182C371.874 524.477 371.575 524.71 371.192 524.881C370.808 525.051 370.362 525.136 369.854 525.136C369.186 525.136 368.634 524.991 368.196 524.702C367.759 524.412 367.482 523.989 367.365 523.432L368.32 523.193C368.411 523.545 368.582 523.81 368.835 523.986C369.091 524.162 369.425 524.25 369.837 524.25C370.305 524.25 370.678 524.151 370.953 523.952C371.232 523.75 371.371 523.509 371.371 523.227C371.371 523 371.291 522.81 371.132 522.656C370.973 522.5 370.729 522.384 370.399 522.307L369.308 522.051C368.709 521.909 368.268 521.689 367.987 521.391C367.709 521.089 367.57 520.713 367.57 520.261C367.57 519.892 367.673 519.565 367.881 519.281C368.091 518.997 368.376 518.774 368.737 518.612C369.101 518.45 369.513 518.369 369.973 518.369C370.621 518.369 371.129 518.511 371.499 518.795C371.871 519.08 372.135 519.455 372.291 519.92ZM376.771 518.455V519.307H373.379V518.455H376.771ZM374.368 516.886H375.373V523.125C375.373 523.409 375.414 523.622 375.497 523.764C375.582 523.903 375.69 523.997 375.821 524.045C375.954 524.091 376.095 524.114 376.243 524.114C376.353 524.114 376.444 524.108 376.515 524.097C376.586 524.082 376.643 524.071 376.686 524.062L376.89 524.966C376.822 524.991 376.727 525.017 376.605 525.043C376.483 525.071 376.328 525.085 376.14 525.085C375.856 525.085 375.578 525.024 375.305 524.902C375.035 524.78 374.811 524.594 374.632 524.344C374.456 524.094 374.368 523.778 374.368 523.398V516.886Z" fill="#151231"/>
<path d="M344.057 574V565.273H347.006C347.69 565.273 348.25 565.396 348.685 565.643C349.122 565.888 349.446 566.219 349.656 566.636C349.866 567.054 349.972 567.52 349.972 568.034C349.972 568.548 349.866 569.016 349.656 569.436C349.449 569.857 349.128 570.192 348.693 570.442C348.259 570.689 347.702 570.812 347.023 570.812H344.909V569.875H346.989C347.457 569.875 347.834 569.794 348.118 569.632C348.402 569.47 348.608 569.251 348.736 568.976C348.866 568.697 348.932 568.384 348.932 568.034C348.932 567.685 348.866 567.372 348.736 567.097C348.608 566.821 348.401 566.605 348.114 566.449C347.827 566.29 347.446 566.21 346.972 566.21H345.114V574H344.057ZM353.464 574.153C353.049 574.153 352.673 574.075 352.335 573.919C351.996 573.76 351.728 573.531 351.529 573.233C351.33 572.932 351.231 572.568 351.231 572.142C351.231 571.767 351.305 571.463 351.452 571.23C351.6 570.994 351.798 570.81 352.045 570.676C352.292 570.543 352.565 570.443 352.863 570.378C353.164 570.31 353.467 570.256 353.771 570.216C354.168 570.165 354.491 570.126 354.738 570.101C354.988 570.072 355.17 570.026 355.283 569.96C355.4 569.895 355.458 569.781 355.458 569.619V569.585C355.458 569.165 355.343 568.838 355.113 568.605C354.886 568.372 354.54 568.256 354.077 568.256C353.597 568.256 353.221 568.361 352.948 568.571C352.675 568.781 352.484 569.006 352.373 569.244L351.418 568.903C351.589 568.506 351.816 568.196 352.1 567.974C352.387 567.75 352.7 567.594 353.038 567.506C353.379 567.415 353.714 567.369 354.043 567.369C354.254 567.369 354.495 567.395 354.768 567.446C355.043 567.494 355.309 567.595 355.565 567.749C355.823 567.902 356.038 568.134 356.208 568.443C356.379 568.753 356.464 569.168 356.464 569.688V574H355.458V573.114H355.407C355.339 573.256 355.225 573.408 355.066 573.57C354.907 573.732 354.695 573.869 354.431 573.983C354.167 574.097 353.844 574.153 353.464 574.153ZM353.617 573.25C354.015 573.25 354.35 573.172 354.623 573.016C354.898 572.859 355.106 572.658 355.245 572.411C355.387 572.163 355.458 571.903 355.458 571.631V570.71C355.415 570.761 355.322 570.808 355.177 570.851C355.035 570.891 354.87 570.926 354.683 570.957C354.498 570.986 354.317 571.011 354.141 571.034C353.968 571.054 353.827 571.071 353.719 571.085C353.458 571.119 353.214 571.175 352.987 571.251C352.762 571.325 352.58 571.437 352.441 571.588C352.305 571.736 352.237 571.937 352.237 572.193C352.237 572.543 352.366 572.807 352.624 572.986C352.886 573.162 353.217 573.25 353.617 573.25ZM362.936 568.92L362.032 569.176C361.975 569.026 361.892 568.879 361.781 568.737C361.673 568.592 361.525 568.473 361.338 568.379C361.15 568.286 360.91 568.239 360.618 568.239C360.217 568.239 359.883 568.331 359.616 568.516C359.352 568.697 359.22 568.929 359.22 569.21C359.22 569.46 359.311 569.658 359.493 569.803C359.674 569.947 359.958 570.068 360.345 570.165L361.316 570.403C361.902 570.545 362.338 570.763 362.625 571.055C362.912 571.345 363.055 571.719 363.055 572.176C363.055 572.551 362.947 572.886 362.731 573.182C362.518 573.477 362.22 573.71 361.836 573.881C361.453 574.051 361.007 574.136 360.498 574.136C359.831 574.136 359.278 573.991 358.841 573.702C358.403 573.412 358.126 572.989 358.01 572.432L358.964 572.193C359.055 572.545 359.227 572.81 359.48 572.986C359.735 573.162 360.069 573.25 360.481 573.25C360.95 573.25 361.322 573.151 361.598 572.952C361.876 572.75 362.015 572.509 362.015 572.227C362.015 572 361.936 571.81 361.777 571.656C361.618 571.5 361.373 571.384 361.044 571.307L359.953 571.051C359.353 570.909 358.913 570.689 358.632 570.391C358.353 570.089 358.214 569.713 358.214 569.261C358.214 568.892 358.318 568.565 358.525 568.281C358.735 567.997 359.021 567.774 359.382 567.612C359.745 567.45 360.157 567.369 360.618 567.369C361.265 567.369 361.774 567.511 362.143 567.795C362.515 568.08 362.779 568.455 362.936 568.92ZM369.205 568.92L368.302 569.176C368.245 569.026 368.161 568.879 368.05 568.737C367.942 568.592 367.795 568.473 367.607 568.379C367.42 568.286 367.18 568.239 366.887 568.239C366.487 568.239 366.153 568.331 365.886 568.516C365.621 568.697 365.489 568.929 365.489 569.21C365.489 569.46 365.58 569.658 365.762 569.803C365.944 569.947 366.228 570.068 366.614 570.165L367.586 570.403C368.171 570.545 368.607 570.763 368.894 571.055C369.181 571.345 369.325 571.719 369.325 572.176C369.325 572.551 369.217 572.886 369.001 573.182C368.788 573.477 368.489 573.71 368.106 573.881C367.722 574.051 367.276 574.136 366.768 574.136C366.1 574.136 365.548 573.991 365.11 573.702C364.673 573.412 364.396 572.989 364.279 572.432L365.234 572.193C365.325 572.545 365.496 572.81 365.749 572.986C366.005 573.162 366.339 573.25 366.751 573.25C367.219 573.25 367.592 573.151 367.867 572.952C368.146 572.75 368.285 572.509 368.285 572.227C368.285 572 368.205 571.81 368.046 571.656C367.887 571.5 367.643 571.384 367.313 571.307L366.222 571.051C365.623 570.909 365.183 570.689 364.901 570.391C364.623 570.089 364.484 569.713 364.484 569.261C364.484 568.892 364.587 568.565 364.795 568.281C365.005 567.997 365.29 567.774 365.651 567.612C366.015 567.45 366.427 567.369 366.887 567.369C367.535 567.369 368.043 567.511 368.413 567.795C368.785 568.08 369.049 568.455 369.205 568.92ZM372.321 574L370.327 567.455H371.384L372.799 572.466H372.867L374.265 567.455H375.338L376.719 572.449H376.787L378.202 567.455H379.259L377.265 574H376.276L374.844 568.972H374.742L373.31 574H372.321ZM383.025 574.136C382.434 574.136 381.915 573.996 381.469 573.714C381.026 573.433 380.68 573.04 380.43 572.534C380.183 572.028 380.059 571.437 380.059 570.761C380.059 570.08 380.183 569.484 380.43 568.976C380.68 568.467 381.026 568.072 381.469 567.791C381.915 567.51 382.434 567.369 383.025 567.369C383.616 567.369 384.133 567.51 384.576 567.791C385.022 568.072 385.369 568.467 385.616 568.976C385.866 569.484 385.991 570.08 385.991 570.761C385.991 571.437 385.866 572.028 385.616 572.534C385.369 573.04 385.022 573.433 384.576 573.714C384.133 573.996 383.616 574.136 383.025 574.136ZM383.025 573.233C383.474 573.233 383.843 573.118 384.133 572.888C384.423 572.658 384.637 572.355 384.776 571.98C384.915 571.605 384.985 571.199 384.985 570.761C384.985 570.324 384.915 569.916 384.776 569.538C384.637 569.161 384.423 568.855 384.133 568.622C383.843 568.389 383.474 568.273 383.025 568.273C382.576 568.273 382.207 568.389 381.917 568.622C381.627 568.855 381.413 569.161 381.273 569.538C381.134 569.916 381.065 570.324 381.065 570.761C381.065 571.199 381.134 571.605 381.273 571.98C381.413 572.355 381.627 572.658 381.917 572.888C382.207 573.118 382.576 573.233 383.025 573.233ZM387.526 574V567.455H388.498V568.443H388.566C388.685 568.119 388.901 567.857 389.213 567.655C389.526 567.453 389.878 567.352 390.27 567.352C390.344 567.352 390.436 567.354 390.547 567.357C390.658 567.359 390.742 567.364 390.799 567.369V568.392C390.765 568.384 390.686 568.371 390.564 568.354C390.445 568.334 390.319 568.324 390.185 568.324C389.867 568.324 389.583 568.391 389.333 568.524C389.086 568.655 388.89 568.837 388.745 569.07C388.603 569.3 388.532 569.562 388.532 569.858V574H387.526ZM394.263 574.136C393.718 574.136 393.236 573.999 392.819 573.723C392.401 573.445 392.074 573.053 391.838 572.547C391.603 572.038 391.485 571.438 391.485 570.744C391.485 570.057 391.603 569.46 391.838 568.955C392.074 568.449 392.402 568.058 392.823 567.783C393.243 567.507 393.729 567.369 394.28 567.369C394.706 567.369 395.043 567.44 395.29 567.582C395.54 567.722 395.73 567.881 395.861 568.06C395.995 568.236 396.098 568.381 396.172 568.494H396.257V565.273H397.263V574H396.292V572.994H396.172C396.098 573.114 395.993 573.264 395.857 573.446C395.721 573.625 395.526 573.786 395.273 573.928C395.02 574.067 394.684 574.136 394.263 574.136ZM394.4 573.233C394.803 573.233 395.144 573.128 395.422 572.918C395.701 572.705 395.912 572.411 396.057 572.036C396.202 571.658 396.275 571.222 396.275 570.727C396.275 570.239 396.203 569.811 396.061 569.445C395.919 569.075 395.709 568.788 395.431 568.584C395.152 568.376 394.809 568.273 394.4 568.273C393.973 568.273 393.618 568.382 393.334 568.601C393.053 568.817 392.841 569.111 392.699 569.483C392.56 569.852 392.49 570.267 392.49 570.727C392.49 571.193 392.561 571.616 392.703 571.997C392.848 572.375 393.061 572.676 393.343 572.901C393.627 573.122 393.979 573.233 394.4 573.233Z" fill="#0C0734"/>
<rect x="343.5" y="581.5" width="249" height="35" rx="3.5" stroke="#1976D2"/>
<path d="M353.58 595.71V594.773H360.125V595.71H357.381V603.5H356.324V595.71H353.58ZM363.415 603.636C362.784 603.636 362.24 603.497 361.783 603.219C361.328 602.938 360.977 602.545 360.73 602.043C360.486 601.537 360.364 600.949 360.364 600.278C360.364 599.608 360.486 599.017 360.73 598.506C360.977 597.991 361.321 597.591 361.761 597.304C362.205 597.014 362.722 596.869 363.312 596.869C363.653 596.869 363.99 596.926 364.322 597.04C364.655 597.153 364.957 597.338 365.23 597.594C365.503 597.847 365.72 598.182 365.882 598.599C366.044 599.017 366.125 599.531 366.125 600.142V600.568H361.08V599.699H365.102C365.102 599.33 365.028 599 364.881 598.71C364.736 598.42 364.528 598.192 364.259 598.024C363.991 597.857 363.676 597.773 363.312 597.773C362.912 597.773 362.565 597.872 362.273 598.071C361.983 598.267 361.76 598.523 361.604 598.838C361.447 599.153 361.369 599.491 361.369 599.852V600.432C361.369 600.926 361.455 601.345 361.625 601.689C361.798 602.03 362.038 602.29 362.345 602.469C362.652 602.645 363.009 602.733 363.415 602.733C363.679 602.733 363.918 602.696 364.131 602.622C364.347 602.545 364.533 602.432 364.689 602.281C364.845 602.128 364.966 601.937 365.051 601.71L366.023 601.983C365.92 602.312 365.749 602.602 365.507 602.852C365.266 603.099 364.967 603.293 364.612 603.432C364.257 603.568 363.858 603.636 363.415 603.636ZM372.291 598.42L371.388 598.676C371.331 598.526 371.247 598.379 371.136 598.237C371.028 598.092 370.881 597.973 370.693 597.879C370.506 597.786 370.266 597.739 369.973 597.739C369.572 597.739 369.239 597.831 368.972 598.016C368.707 598.197 368.575 598.429 368.575 598.71C368.575 598.96 368.666 599.158 368.848 599.303C369.03 599.447 369.314 599.568 369.7 599.665L370.672 599.903C371.257 600.045 371.693 600.263 371.98 600.555C372.267 600.845 372.411 601.219 372.411 601.676C372.411 602.051 372.303 602.386 372.087 602.682C371.874 602.977 371.575 603.21 371.192 603.381C370.808 603.551 370.362 603.636 369.854 603.636C369.186 603.636 368.634 603.491 368.196 603.202C367.759 602.912 367.482 602.489 367.365 601.932L368.32 601.693C368.411 602.045 368.582 602.31 368.835 602.486C369.091 602.662 369.425 602.75 369.837 602.75C370.305 602.75 370.678 602.651 370.953 602.452C371.232 602.25 371.371 602.009 371.371 601.727C371.371 601.5 371.291 601.31 371.132 601.156C370.973 601 370.729 600.884 370.399 600.807L369.308 600.551C368.709 600.409 368.268 600.189 367.987 599.891C367.709 599.589 367.57 599.213 367.57 598.761C367.57 598.392 367.673 598.065 367.881 597.781C368.091 597.497 368.376 597.274 368.737 597.112C369.101 596.95 369.513 596.869 369.973 596.869C370.621 596.869 371.129 597.011 371.499 597.295C371.871 597.58 372.135 597.955 372.291 598.42ZM376.771 596.955V597.807H373.379V596.955H376.771ZM374.368 595.386H375.373V601.625C375.373 601.909 375.414 602.122 375.497 602.264C375.582 602.403 375.69 602.497 375.821 602.545C375.954 602.591 376.095 602.614 376.243 602.614C376.353 602.614 376.444 602.608 376.515 602.597C376.586 602.582 376.643 602.571 376.686 602.562L376.89 603.466C376.822 603.491 376.727 603.517 376.605 603.543C376.483 603.571 376.328 603.585 376.14 603.585C375.856 603.585 375.578 603.524 375.305 603.402C375.035 603.28 374.811 603.094 374.632 602.844C374.456 602.594 374.368 602.278 374.368 601.898V595.386ZM381.335 594.773V603.5H380.278V595.881H380.227L378.096 597.295V596.222L380.278 594.773H381.335ZM383.845 603.5V602.733L386.725 599.58C387.064 599.21 387.342 598.889 387.561 598.616C387.779 598.341 387.941 598.082 388.047 597.841C388.154 597.597 388.208 597.341 388.208 597.074C388.208 596.767 388.135 596.501 387.987 596.277C387.842 596.053 387.643 595.879 387.39 595.757C387.137 595.635 386.853 595.574 386.538 595.574C386.203 595.574 385.91 595.643 385.66 595.783C385.413 595.919 385.221 596.111 385.085 596.358C384.951 596.605 384.885 596.895 384.885 597.227H383.879C383.879 596.716 383.997 596.267 384.233 595.881C384.468 595.494 384.789 595.193 385.196 594.977C385.605 594.761 386.064 594.653 386.572 594.653C387.083 594.653 387.537 594.761 387.931 594.977C388.326 595.193 388.636 595.484 388.86 595.851C389.085 596.217 389.197 596.625 389.197 597.074C389.197 597.395 389.139 597.709 389.022 598.016C388.909 598.32 388.71 598.659 388.426 599.034C388.145 599.406 387.754 599.861 387.254 600.398L385.294 602.494V602.562H389.35V603.5H383.845ZM394.059 603.619C393.497 603.619 392.995 603.523 392.555 603.33C392.118 603.136 391.77 602.868 391.511 602.524C391.255 602.178 391.116 601.776 391.093 601.318H392.167C392.19 601.599 392.287 601.842 392.457 602.047C392.627 602.249 392.85 602.405 393.126 602.516C393.402 602.626 393.707 602.682 394.042 602.682C394.417 602.682 394.75 602.616 395.039 602.486C395.329 602.355 395.556 602.173 395.721 601.94C395.886 601.707 395.968 601.438 395.968 601.131C395.968 600.81 395.889 600.527 395.73 600.283C395.571 600.036 395.338 599.842 395.031 599.703C394.724 599.564 394.349 599.494 393.906 599.494H393.207V598.557H393.906C394.252 598.557 394.556 598.494 394.818 598.369C395.082 598.244 395.288 598.068 395.436 597.841C395.586 597.614 395.662 597.347 395.662 597.04C395.662 596.744 395.596 596.487 395.466 596.268C395.335 596.05 395.15 595.879 394.912 595.757C394.676 595.635 394.397 595.574 394.076 595.574C393.775 595.574 393.491 595.629 393.224 595.74C392.96 595.848 392.744 596.006 392.576 596.213C392.409 596.418 392.318 596.665 392.304 596.955H391.281C391.298 596.497 391.436 596.097 391.694 595.753C391.953 595.406 392.291 595.136 392.708 594.943C393.129 594.75 393.591 594.653 394.093 594.653C394.633 594.653 395.096 594.763 395.483 594.982C395.869 595.197 396.166 595.483 396.373 595.838C396.581 596.193 396.684 596.577 396.684 596.989C396.684 597.48 396.555 597.899 396.297 598.246C396.041 598.592 395.693 598.832 395.252 598.966V599.034C395.804 599.125 396.234 599.359 396.544 599.737C396.853 600.112 397.008 600.577 397.008 601.131C397.008 601.605 396.879 602.031 396.62 602.409C396.365 602.784 396.015 603.08 395.572 603.295C395.129 603.511 394.625 603.619 394.059 603.619ZM398.547 601.71V600.841L402.382 594.773H403.012V596.119H402.586L399.689 600.705V600.773H404.853V601.71H398.547ZM402.654 603.5V601.446V601.041V594.773H403.66V603.5H402.654ZM409.178 603.619C408.678 603.619 408.227 603.52 407.827 603.321C407.426 603.122 407.105 602.849 406.864 602.503C406.622 602.156 406.49 601.761 406.467 601.318H407.49C407.53 601.713 407.709 602.04 408.027 602.298C408.348 602.554 408.732 602.682 409.178 602.682C409.536 602.682 409.854 602.598 410.132 602.43C410.413 602.263 410.634 602.033 410.793 601.74C410.955 601.445 411.036 601.111 411.036 600.739C411.036 600.358 410.952 600.018 410.784 599.72C410.619 599.419 410.392 599.182 410.102 599.009C409.813 598.835 409.482 598.747 409.109 598.744C408.842 598.741 408.568 598.783 408.287 598.868C408.006 598.95 407.774 599.057 407.592 599.188L406.604 599.068L407.132 594.773H411.666V595.71H408.018L407.712 598.284H407.763C407.942 598.142 408.166 598.024 408.436 597.93C408.706 597.837 408.987 597.79 409.28 597.79C409.814 597.79 410.29 597.918 410.707 598.173C411.128 598.426 411.457 598.773 411.696 599.213C411.938 599.653 412.058 600.156 412.058 600.722C412.058 601.278 411.933 601.776 411.683 602.213C411.436 602.648 411.095 602.991 410.661 603.244C410.226 603.494 409.732 603.619 409.178 603.619ZM416.649 603.619C416.291 603.614 415.933 603.545 415.575 603.415C415.217 603.284 414.89 603.064 414.595 602.754C414.299 602.442 414.062 602.02 413.883 601.489C413.704 600.955 413.615 600.284 413.615 599.477C413.615 598.705 413.687 598.02 413.832 597.423C413.977 596.824 414.187 596.32 414.463 595.911C414.738 595.499 415.071 595.186 415.46 594.973C415.852 594.76 416.294 594.653 416.785 594.653C417.274 594.653 417.708 594.751 418.089 594.947C418.473 595.141 418.785 595.411 419.027 595.757C419.268 596.104 419.424 596.503 419.495 596.955H418.456C418.359 596.562 418.172 596.237 417.893 595.979C417.615 595.72 417.245 595.591 416.785 595.591C416.109 595.591 415.576 595.885 415.187 596.473C414.801 597.061 414.606 597.886 414.603 598.949H414.672C414.831 598.707 415.02 598.501 415.238 598.331C415.46 598.158 415.704 598.024 415.971 597.93C416.238 597.837 416.521 597.79 416.819 597.79C417.319 597.79 417.777 597.915 418.191 598.165C418.606 598.412 418.939 598.754 419.189 599.192C419.439 599.626 419.564 600.125 419.564 600.688C419.564 601.227 419.443 601.722 419.201 602.17C418.96 602.616 418.62 602.972 418.183 603.236C417.748 603.497 417.237 603.625 416.649 603.619ZM416.649 602.682C417.007 602.682 417.328 602.592 417.612 602.413C417.899 602.234 418.125 601.994 418.289 601.693C418.457 601.392 418.541 601.057 418.541 600.688C418.541 600.327 418.46 599.999 418.298 599.703C418.139 599.405 417.919 599.168 417.637 598.991C417.359 598.815 417.041 598.727 416.683 598.727C416.413 598.727 416.162 598.781 415.929 598.889C415.696 598.994 415.491 599.139 415.315 599.324C415.142 599.509 415.005 599.72 414.906 599.959C414.806 600.195 414.757 600.443 414.757 600.705C414.757 601.051 414.838 601.375 415 601.676C415.164 601.977 415.389 602.22 415.673 602.405C415.96 602.589 416.285 602.682 416.649 602.682ZM421.512 603.5L425.415 595.778V595.71H420.915V594.773H426.506V595.761L422.62 603.5H421.512ZM430.714 603.619C430.129 603.619 429.612 603.516 429.163 603.308C428.717 603.098 428.369 602.81 428.119 602.443C427.869 602.074 427.746 601.653 427.749 601.182C427.746 600.812 427.818 600.472 427.966 600.159C428.114 599.844 428.315 599.581 428.571 599.371C428.83 599.158 429.118 599.023 429.436 598.966V598.915C429.018 598.807 428.686 598.572 428.439 598.212C428.192 597.848 428.07 597.435 428.072 596.972C428.07 596.528 428.182 596.132 428.409 595.783C428.636 595.433 428.949 595.158 429.347 594.956C429.747 594.754 430.203 594.653 430.714 594.653C431.22 594.653 431.672 594.754 432.07 594.956C432.467 595.158 432.78 595.433 433.007 595.783C433.237 596.132 433.354 596.528 433.357 596.972C433.354 597.435 433.227 597.848 432.977 598.212C432.73 598.572 432.402 598.807 431.993 598.915V598.966C432.308 599.023 432.592 599.158 432.845 599.371C433.098 599.581 433.3 599.844 433.45 600.159C433.601 600.472 433.678 600.812 433.68 601.182C433.678 601.653 433.55 602.074 433.297 602.443C433.047 602.81 432.699 603.098 432.253 603.308C431.81 603.516 431.297 603.619 430.714 603.619ZM430.714 602.682C431.109 602.682 431.45 602.618 431.737 602.49C432.024 602.362 432.246 602.182 432.402 601.949C432.558 601.716 432.638 601.443 432.641 601.131C432.638 600.801 432.553 600.51 432.385 600.257C432.217 600.004 431.989 599.805 431.699 599.661C431.412 599.516 431.084 599.443 430.714 599.443C430.342 599.443 430.01 599.516 429.717 599.661C429.428 599.805 429.199 600.004 429.031 600.257C428.866 600.51 428.786 600.801 428.788 601.131C428.786 601.443 428.861 601.716 429.014 601.949C429.17 602.182 429.393 602.362 429.683 602.49C429.973 602.618 430.317 602.682 430.714 602.682ZM430.714 598.54C431.027 598.54 431.304 598.477 431.545 598.352C431.79 598.227 431.982 598.053 432.121 597.828C432.26 597.604 432.331 597.341 432.334 597.04C432.331 596.744 432.261 596.487 432.125 596.268C431.989 596.047 431.8 595.876 431.558 595.757C431.317 595.635 431.036 595.574 430.714 595.574C430.388 595.574 430.102 595.635 429.858 595.757C429.614 595.876 429.425 596.047 429.291 596.268C429.158 596.487 429.092 596.744 429.095 597.04C429.092 597.341 429.159 597.604 429.295 597.828C429.435 598.053 429.626 598.227 429.871 598.352C430.115 598.477 430.396 598.54 430.714 598.54Z" fill="#151231"/>
<path d="M576.457 598.798C576.435 598.748 575.906 597.574 574.729 596.397C573.161 594.829 571.18 594 569 594C566.82 594 564.839 594.829 563.271 596.397C562.094 597.574 561.562 598.75 561.543 598.798C561.515 598.861 561.5 598.931 561.5 599.001C561.5 599.071 561.515 599.14 561.543 599.204C561.565 599.253 562.094 600.427 563.271 601.604C564.839 603.171 566.82 604 569 604C571.18 604 573.161 603.171 574.729 601.604C575.906 600.427 576.435 599.253 576.457 599.204C576.485 599.14 576.5 599.071 576.5 599.001C576.5 598.931 576.485 598.861 576.457 598.798ZM569 603C567.076 603 565.396 602.301 564.004 600.922C563.434 600.354 562.948 599.707 562.562 599C562.948 598.293 563.433 597.646 564.004 597.078C565.396 595.699 567.076 595 569 595C570.924 595 572.604 595.699 573.996 597.078C574.568 597.646 575.054 598.293 575.441 599C574.99 599.841 573.027 603 569 603ZM569 596C568.407 596 567.827 596.176 567.333 596.506C566.84 596.835 566.455 597.304 566.228 597.852C566.001 598.4 565.942 599.003 566.058 599.585C566.173 600.167 566.459 600.702 566.879 601.121C567.298 601.541 567.833 601.827 568.415 601.942C568.997 602.058 569.6 601.999 570.148 601.772C570.696 601.545 571.165 601.16 571.494 600.667C571.824 600.173 572 599.593 572 599C571.999 598.205 571.683 597.442 571.12 596.88C570.558 596.317 569.795 596.001 569 596ZM569 601C568.604 601 568.218 600.883 567.889 600.663C567.56 600.443 567.304 600.131 567.152 599.765C567.001 599.4 566.961 598.998 567.038 598.61C567.116 598.222 567.306 597.865 567.586 597.586C567.865 597.306 568.222 597.116 568.61 597.038C568.998 596.961 569.4 597.001 569.765 597.152C570.131 597.304 570.443 597.56 570.663 597.889C570.883 598.218 571 598.604 571 599C571 599.53 570.789 600.039 570.414 600.414C570.039 600.789 569.53 601 569 601Z" fill="black"/>
<rect x="343" y="649" width="243" height="35" rx="4" fill="#1976D2"/>
<path d="M446.959 671V662.273H448.276V669.866H452.23V671H446.959ZM460.973 666.636C460.973 667.568 460.803 668.369 460.462 669.04C460.121 669.707 459.654 670.222 459.06 670.582C458.469 670.94 457.797 671.119 457.044 671.119C456.289 671.119 455.614 670.94 455.02 670.582C454.429 670.222 453.963 669.706 453.623 669.036C453.282 668.365 453.111 667.565 453.111 666.636C453.111 665.705 453.282 664.905 453.623 664.237C453.963 663.567 454.429 663.053 455.02 662.695C455.614 662.334 456.289 662.153 457.044 662.153C457.797 662.153 458.469 662.334 459.06 662.695C459.654 663.053 460.121 663.567 460.462 664.237C460.803 664.905 460.973 665.705 460.973 666.636ZM459.669 666.636C459.669 665.926 459.554 665.328 459.324 664.842C459.097 664.354 458.784 663.984 458.387 663.734C457.992 663.482 457.544 663.355 457.044 663.355C456.542 663.355 456.093 663.482 455.698 663.734C455.303 663.984 454.99 664.354 454.76 664.842C454.533 665.328 454.419 665.926 454.419 666.636C454.419 667.347 454.533 667.946 454.76 668.435C454.99 668.92 455.303 669.29 455.698 669.543C456.093 669.793 456.542 669.918 457.044 669.918C457.544 669.918 457.992 669.793 458.387 669.543C458.784 669.29 459.097 668.92 459.324 668.435C459.554 667.946 459.669 667.347 459.669 666.636ZM468.521 665.03C468.439 664.771 468.328 664.54 468.189 664.335C468.053 664.128 467.889 663.952 467.699 663.807C467.509 663.659 467.291 663.547 467.047 663.47C466.805 663.393 466.54 663.355 466.25 663.355C465.759 663.355 465.315 663.482 464.92 663.734C464.526 663.987 464.213 664.358 463.983 664.847C463.756 665.332 463.642 665.928 463.642 666.632C463.642 667.339 463.757 667.937 463.987 668.426C464.217 668.915 464.533 669.286 464.933 669.538C465.334 669.791 465.79 669.918 466.301 669.918C466.776 669.918 467.189 669.821 467.541 669.628C467.896 669.435 468.17 669.162 468.364 668.81C468.56 668.455 468.658 668.037 468.658 667.557L468.999 667.621H466.501V666.534H469.932V667.527C469.932 668.26 469.776 668.896 469.463 669.436C469.153 669.973 468.724 670.388 468.176 670.68C467.631 670.973 467.006 671.119 466.301 671.119C465.511 671.119 464.818 670.938 464.222 670.574C463.628 670.21 463.165 669.695 462.832 669.027C462.5 668.357 462.334 667.561 462.334 666.641C462.334 665.945 462.43 665.32 462.624 664.766C462.817 664.212 463.088 663.741 463.438 663.355C463.79 662.966 464.203 662.669 464.678 662.464C465.155 662.257 465.676 662.153 466.241 662.153C466.713 662.153 467.152 662.223 467.558 662.362C467.967 662.501 468.331 662.699 468.649 662.955C468.97 663.21 469.236 663.514 469.446 663.866C469.656 664.216 469.798 664.604 469.872 665.03H468.521ZM472.92 662.273V671H471.603V662.273H472.92ZM481.882 662.273V671H480.672L476.235 664.599H476.154V671H474.838V662.273H476.056L480.497 668.682H480.578V662.273H481.882Z" fill="white"/>
<path d="M639 579L644.009 567.997C649.019 556.993 659.037 534.986 669.056 538.567C679.074 542.147 689.093 571.315 699.111 553.855C709.13 536.396 719.148 472.309 729.167 437.305C739.185 402.302 749.204 396.38 759.222 399.873C769.241 403.366 779.259 416.273 789.278 450.884C799.296 485.496 809.315 541.812 819.333 542.927C829.352 544.042 839.37 489.955 849.389 489.015C859.407 488.075 869.426 540.282 879.444 537.259C889.463 534.237 899.481 475.986 909.5 452.225C919.519 428.464 929.537 439.193 939.556 450.662C949.574 462.131 959.593 474.341 969.611 486.728C979.63 499.116 989.648 511.681 999.667 531.52C1009.69 551.359 1019.7 578.471 1029.72 572.009C1039.74 565.547 1049.76 525.51 1059.78 491.886C1069.8 458.262 1079.81 431.05 1089.83 425.413C1099.85 419.775 1109.87 435.713 1119.89 434.803C1129.91 433.892 1139.93 416.134 1149.94 413.343C1159.96 410.551 1169.98 422.725 1174.99 428.812L1180 434.899" stroke="#1976D2" stroke-width="3"/>
<g clip-path="url(#clip0_200_5403)">
<path d="M1184.57 473.093L1199.6 468.081L1205.31 473.79C1206.43 474.916 1207.96 475.548 1209.55 475.548C1211.14 475.548 1212.67 474.916 1213.79 473.79C1214.92 472.665 1215.55 471.139 1215.55 469.548C1215.55 467.956 1214.92 466.43 1213.79 465.305L1208.08 459.596L1213.09 444.567C1213.18 444.302 1213.19 444.018 1213.13 443.747C1213.07 443.476 1212.93 443.228 1212.73 443.031L1208.49 438.789C1208.33 438.632 1208.14 438.512 1207.93 438.437C1207.72 438.363 1207.5 438.335 1207.28 438.357C1207.06 438.379 1206.84 438.45 1206.65 438.564C1206.46 438.678 1206.3 438.833 1206.18 439.018L1198.71 450.223L1196.2 447.713L1196.2 444.092C1196.2 443.895 1196.16 443.7 1196.08 443.518C1196.01 443.336 1195.9 443.17 1195.76 443.031L1191.52 438.789C1191.34 438.614 1191.13 438.486 1190.89 438.413C1190.66 438.341 1190.41 438.328 1190.17 438.375C1189.93 438.422 1189.7 438.527 1189.51 438.682C1189.32 438.836 1189.17 439.036 1189.07 439.262L1186.13 446.131L1179.26 449.073C1179.04 449.169 1178.84 449.319 1178.68 449.51C1178.53 449.701 1178.42 449.927 1178.37 450.169C1178.33 450.41 1178.34 450.659 1178.41 450.894C1178.49 451.129 1178.61 451.343 1178.79 451.517L1183.03 455.759C1183.17 455.899 1183.34 456.009 1183.52 456.085C1183.7 456.16 1183.89 456.199 1184.09 456.199L1187.71 456.198L1190.22 458.708L1179.02 466.179C1178.83 466.302 1178.68 466.464 1178.56 466.655C1178.45 466.845 1178.38 467.058 1178.36 467.279C1178.34 467.499 1178.36 467.722 1178.44 467.931C1178.51 468.14 1178.63 468.33 1178.79 468.487L1183.03 472.73C1183.23 472.927 1183.48 473.065 1183.75 473.13C1184.02 473.194 1184.3 473.181 1184.57 473.093ZM1182.2 467.66L1193.41 460.189C1193.59 460.066 1193.75 459.903 1193.86 459.713C1193.98 459.523 1194.05 459.31 1194.07 459.089C1194.09 458.868 1194.06 458.645 1193.99 458.436C1193.91 458.227 1193.79 458.037 1193.64 457.88L1189.4 453.638C1189.26 453.498 1189.09 453.388 1188.91 453.312C1188.73 453.237 1188.53 453.198 1188.33 453.198L1184.71 453.199L1182.48 450.962L1187.86 448.657C1188.22 448.505 1188.5 448.223 1188.65 447.869L1190.96 442.477L1193.2 444.714L1193.2 448.335C1193.2 448.532 1193.24 448.727 1193.31 448.909C1193.39 449.091 1193.5 449.256 1193.64 449.395L1197.88 453.638C1198.04 453.795 1198.23 453.915 1198.44 453.989C1198.65 454.064 1198.87 454.091 1199.09 454.069C1199.31 454.047 1199.52 453.977 1199.71 453.862C1199.9 453.748 1200.07 453.593 1200.19 453.408L1207.66 442.204L1209.95 444.498L1204.94 459.527C1204.85 459.792 1204.84 460.075 1204.91 460.346C1204.97 460.618 1205.11 460.866 1205.31 461.062L1211.67 467.426C1212.23 467.989 1212.55 468.752 1212.55 469.548C1212.55 470.343 1212.23 471.106 1211.67 471.669C1211.11 472.232 1210.34 472.548 1209.55 472.548C1208.75 472.548 1207.99 472.232 1207.43 471.669L1201.06 465.305C1200.87 465.108 1200.62 464.969 1200.35 464.905C1200.08 464.841 1199.79 464.854 1199.53 464.942L1184.5 469.953L1182.2 467.66Z" fill="#1976D2"/>
</g>
</g>
<defs>
<filter id="filter0_d_200_5403" x="132" y="149" width="1176" height="735" filterUnits="userSpaceOnUse" color-interpolation-filters="sRGB">
<feFlood flood-opacity="0" result="BackgroundImageFix"/>
<feColorMatrix in="SourceAlpha" type="matrix" values="0 0 0 0 0 0 0 0 0 0 0 0 0 0 0 0 0 0 127 0" result="hardAlpha"/>
<feOffset dy="4"/>
<feGaussianBlur stdDeviation="5"/>
<feComposite in2="hardAlpha" operator="out"/>
<feColorMatrix type="matrix" values="0 0 0 0 0 0 0 0 0 0 0 0 0 0 0 0 0 0 0.1 0"/>
<feBlend mode="normal" in2="BackgroundImageFix" result="effect1_dropShadow_200_5403"/>
<feBlend mode="normal" in="SourceGraphic" in2="effect1_dropShadow_200_5403" result="shape"/>
</filter>
<linearGradient id="paint0_linear_200_5403" x1="367" y1="326.5" x2="367" y2="365.5" gradientUnits="userSpaceOnUse">
<stop stop-color="#7003FF"/>
<stop offset="0.461538" stop-color="#035696"/>
<stop offset="1" stop-color="#99021B"/>
</linearGradient>
<clipPath id="clip0_200_5403">
<rect width="48" height="48" fill="white" transform="translate(1232.88 458.941) rotate(135)"/>
</clipPath>
</defs>
</svg>
