<svg width="544" height="183" viewBox="0 0 544 183" fill="none" xmlns="http://www.w3.org/2000/svg">
<path d="M1.36523 181.5L6.37449 170.497C11.3838 159.493 21.4023 137.486 31.4208 141.067C41.4393 144.647 51.4578 173.815 61.4764 156.355C71.4949 138.896 81.5134 74.8095 91.5319 39.8056C101.55 4.80163 111.569 -1.11968 121.587 2.37309C131.606 5.86586 141.625 18.7727 151.643 53.3843C161.662 87.9959 171.68 144.312 181.699 145.427C191.717 146.542 201.736 92.4548 211.754 91.5148C221.773 90.5748 231.791 142.782 241.81 139.76C251.828 136.737 261.847 78.4865 271.865 54.7254C281.884 30.9643 291.902 41.693 301.921 53.1621C311.939 64.6313 321.958 76.841 331.976 89.2285C341.995 101.616 352.013 114.181 362.032 134.02C372.05 153.859 382.069 180.971 392.087 174.509C402.106 168.047 412.125 128.011 422.143 94.3864C432.162 60.7622 442.18 33.55 452.199 27.9127C462.217 22.2754 472.236 38.213 482.254 37.3028C492.273 36.3925 502.291 18.6345 512.31 15.8426C522.328 13.0508 532.347 25.2251 537.356 31.3123L542.365 37.3995" stroke="#1976D2" stroke-width="3"/>
</svg>
