<svg width="300" height="1024" viewBox="0 0 300 1024" fill="none" xmlns="http://www.w3.org/2000/svg">
<mask id="path-1-inside-1_123_542" fill="white">
<path d="M0 0H300V1024H0V0Z"/>
</mask>
<path d="M0 0H300V1024H0V0Z" fill="white"/>
<path d="M300 0H299V1024H300H301V0H300Z" fill="black" fill-opacity="0.08" mask="url(#path-1-inside-1_123_542)"/>
<rect x="40" y="130" width="188" height="44" rx="4" fill="#1976D2"/>
<path d="M62 142.25C56.9534 142.25 53 144.556 53 147.5V156.5C53 159.444 56.9534 161.75 62 161.75C67.0466 161.75 71 159.444 71 156.5V147.5C71 144.556 67.0466 142.25 62 142.25ZM69.5 152C69.5 152.902 68.7612 153.822 67.4741 154.524C66.0247 155.314 64.0803 155.75 62 155.75C59.9197 155.75 57.9753 155.314 56.5259 154.524C55.2387 153.822 54.5 152.902 54.5 152V150.44C56.0994 151.846 58.8341 152.75 62 152.75C65.1659 152.75 67.9006 151.842 69.5 150.44V152ZM56.5259 144.976C57.9753 144.186 59.9197 143.75 62 143.75C64.0803 143.75 66.0247 144.186 67.4741 144.976C68.7612 145.678 69.5 146.598 69.5 147.5C69.5 148.402 68.7612 149.322 67.4741 150.024C66.0247 150.814 64.0803 151.25 62 151.25C59.9197 151.25 57.9753 150.814 56.5259 150.024C55.2387 149.322 54.5 148.402 54.5 147.5C54.5 146.598 55.2387 145.678 56.5259 144.976ZM67.4741 159.024C66.0247 159.814 64.0803 160.25 62 160.25C59.9197 160.25 57.9753 159.814 56.5259 159.024C55.2387 158.322 54.5 157.402 54.5 156.5V154.94C56.0994 156.346 58.8341 157.25 62 157.25C65.1659 157.25 67.9006 156.342 69.5 154.94V156.5C69.5 157.402 68.7612 158.322 67.4741 159.024Z" fill="white"/>
<path d="M89 157.5H85.4091V145.864H89.1591C90.2879 145.864 91.2538 146.097 92.0568 146.562C92.8598 147.025 93.4754 147.689 93.9034 148.557C94.3314 149.42 94.5455 150.455 94.5455 151.659C94.5455 152.871 94.3295 153.915 93.8977 154.79C93.4659 155.661 92.8371 156.331 92.0114 156.801C91.1856 157.267 90.1818 157.5 89 157.5ZM86.8182 156.25H88.9091C89.8712 156.25 90.6686 156.064 91.3011 155.693C91.9337 155.322 92.4053 154.794 92.7159 154.108C93.0265 153.422 93.1818 152.606 93.1818 151.659C93.1818 150.72 93.0284 149.911 92.7216 149.233C92.4148 148.551 91.9564 148.028 91.3466 147.665C90.7367 147.297 89.9773 147.114 89.0682 147.114H86.8182V156.25ZM99.2955 157.705C98.7424 157.705 98.2405 157.6 97.7898 157.392C97.339 157.18 96.9811 156.875 96.7159 156.477C96.4508 156.076 96.3182 155.591 96.3182 155.023C96.3182 154.523 96.4167 154.117 96.6136 153.807C96.8106 153.492 97.0739 153.246 97.4034 153.068C97.733 152.89 98.0966 152.758 98.4943 152.67C98.8958 152.58 99.2992 152.508 99.7045 152.455C100.235 152.386 100.665 152.335 100.994 152.301C101.328 152.263 101.57 152.201 101.722 152.114C101.877 152.027 101.955 151.875 101.955 151.659V151.614C101.955 151.053 101.801 150.617 101.494 150.307C101.191 149.996 100.731 149.841 100.114 149.841C99.4735 149.841 98.9716 149.981 98.608 150.261C98.2443 150.542 97.9886 150.841 97.8409 151.159L96.5682 150.705C96.7955 150.174 97.0985 149.761 97.4773 149.466C97.8598 149.167 98.2765 148.958 98.7273 148.841C99.1818 148.72 99.6288 148.659 100.068 148.659C100.348 148.659 100.67 148.693 101.034 148.761C101.402 148.826 101.756 148.96 102.097 149.165C102.441 149.369 102.727 149.678 102.955 150.091C103.182 150.504 103.295 151.057 103.295 151.75V157.5H101.955V156.318H101.886C101.795 156.508 101.644 156.71 101.432 156.926C101.22 157.142 100.938 157.326 100.585 157.477C100.233 157.629 99.803 157.705 99.2955 157.705ZM99.5 156.5C100.03 156.5 100.477 156.396 100.841 156.188C101.208 155.979 101.485 155.71 101.67 155.381C101.86 155.051 101.955 154.705 101.955 154.341V153.114C101.898 153.182 101.773 153.244 101.58 153.301C101.39 153.354 101.17 153.402 100.92 153.443C100.674 153.481 100.434 153.515 100.199 153.545C99.9678 153.572 99.7803 153.595 99.6364 153.614C99.2879 153.659 98.9621 153.733 98.6591 153.835C98.3598 153.934 98.1174 154.083 97.9318 154.284C97.75 154.481 97.6591 154.75 97.6591 155.091C97.6591 155.557 97.8314 155.909 98.1761 156.148C98.5246 156.383 98.9659 156.5 99.5 156.5ZM111.925 150.727L110.72 151.068C110.644 150.867 110.533 150.672 110.385 150.483C110.241 150.29 110.044 150.131 109.794 150.006C109.544 149.881 109.224 149.818 108.834 149.818C108.3 149.818 107.855 149.941 107.499 150.188C107.146 150.43 106.97 150.739 106.97 151.114C106.97 151.447 107.091 151.71 107.334 151.903C107.576 152.097 107.955 152.258 108.47 152.386L109.766 152.705C110.546 152.894 111.127 153.184 111.51 153.574C111.893 153.96 112.084 154.458 112.084 155.068C112.084 155.568 111.94 156.015 111.652 156.409C111.368 156.803 110.97 157.114 110.459 157.341C109.947 157.568 109.353 157.682 108.675 157.682C107.785 157.682 107.048 157.489 106.464 157.102C105.881 156.716 105.512 156.152 105.357 155.409L106.629 155.091C106.75 155.561 106.98 155.913 107.317 156.148C107.658 156.383 108.103 156.5 108.652 156.5C109.277 156.5 109.773 156.367 110.141 156.102C110.512 155.833 110.697 155.511 110.697 155.136C110.697 154.833 110.591 154.58 110.379 154.375C110.167 154.167 109.841 154.011 109.402 153.909L107.947 153.568C107.148 153.379 106.561 153.085 106.186 152.688C105.815 152.286 105.629 151.784 105.629 151.182C105.629 150.689 105.768 150.254 106.044 149.875C106.324 149.496 106.705 149.199 107.186 148.983C107.671 148.767 108.22 148.659 108.834 148.659C109.697 148.659 110.375 148.848 110.868 149.227C111.364 149.606 111.716 150.106 111.925 150.727ZM115.443 152.25V157.5H114.102V145.864H115.443V150.136H115.557C115.761 149.686 116.068 149.328 116.477 149.062C116.89 148.794 117.439 148.659 118.125 148.659C118.72 148.659 119.241 148.778 119.688 149.017C120.134 149.252 120.481 149.614 120.727 150.102C120.977 150.587 121.102 151.205 121.102 151.955V157.5H119.761V152.045C119.761 151.352 119.581 150.816 119.222 150.438C118.866 150.055 118.371 149.864 117.739 149.864C117.299 149.864 116.905 149.956 116.557 150.142C116.212 150.328 115.939 150.598 115.739 150.955C115.542 151.311 115.443 151.742 115.443 152.25ZM123.737 157.5V145.864H125.078V150.159H125.192C125.29 150.008 125.427 149.814 125.601 149.58C125.779 149.341 126.033 149.129 126.362 148.943C126.696 148.754 127.146 148.659 127.714 148.659C128.449 148.659 129.097 148.843 129.658 149.21C130.218 149.578 130.656 150.098 130.97 150.773C131.285 151.447 131.442 152.242 131.442 153.159C131.442 154.083 131.285 154.884 130.97 155.562C130.656 156.237 130.22 156.759 129.663 157.131C129.107 157.498 128.464 157.682 127.737 157.682C127.177 157.682 126.728 157.589 126.391 157.403C126.054 157.214 125.794 157 125.612 156.761C125.43 156.519 125.29 156.318 125.192 156.159H125.033V157.5H123.737ZM125.055 153.136C125.055 153.795 125.152 154.377 125.345 154.881C125.538 155.381 125.821 155.773 126.192 156.057C126.563 156.337 127.018 156.477 127.555 156.477C128.116 156.477 128.584 156.33 128.959 156.034C129.338 155.735 129.622 155.333 129.811 154.83C130.004 154.322 130.101 153.758 130.101 153.136C130.101 152.523 130.006 151.97 129.817 151.477C129.631 150.981 129.349 150.589 128.97 150.301C128.595 150.009 128.124 149.864 127.555 149.864C127.01 149.864 126.552 150.002 126.18 150.278C125.809 150.551 125.529 150.934 125.339 151.426C125.15 151.915 125.055 152.485 125.055 153.136ZM137.038 157.682C136.25 157.682 135.559 157.494 134.964 157.119C134.374 156.744 133.911 156.22 133.578 155.545C133.249 154.871 133.084 154.083 133.084 153.182C133.084 152.273 133.249 151.479 133.578 150.801C133.911 150.123 134.374 149.597 134.964 149.222C135.559 148.847 136.25 148.659 137.038 148.659C137.826 148.659 138.516 148.847 139.107 149.222C139.701 149.597 140.163 150.123 140.493 150.801C140.826 151.479 140.993 152.273 140.993 153.182C140.993 154.083 140.826 154.871 140.493 155.545C140.163 156.22 139.701 156.744 139.107 157.119C138.516 157.494 137.826 157.682 137.038 157.682ZM137.038 156.477C137.637 156.477 138.129 156.324 138.516 156.017C138.902 155.71 139.188 155.307 139.374 154.807C139.559 154.307 139.652 153.765 139.652 153.182C139.652 152.598 139.559 152.055 139.374 151.551C139.188 151.047 138.902 150.64 138.516 150.33C138.129 150.019 137.637 149.864 137.038 149.864C136.44 149.864 135.947 150.019 135.561 150.33C135.175 150.64 134.889 151.047 134.703 151.551C134.518 152.055 134.425 152.598 134.425 153.182C134.425 153.765 134.518 154.307 134.703 154.807C134.889 155.307 135.175 155.71 135.561 156.017C135.947 156.324 136.44 156.477 137.038 156.477ZM145.608 157.705C145.055 157.705 144.553 157.6 144.102 157.392C143.652 157.18 143.294 156.875 143.028 156.477C142.763 156.076 142.631 155.591 142.631 155.023C142.631 154.523 142.729 154.117 142.926 153.807C143.123 153.492 143.386 153.246 143.716 153.068C144.045 152.89 144.409 152.758 144.807 152.67C145.208 152.58 145.612 152.508 146.017 152.455C146.547 152.386 146.977 152.335 147.307 152.301C147.64 152.263 147.883 152.201 148.034 152.114C148.189 152.027 148.267 151.875 148.267 151.659V151.614C148.267 151.053 148.114 150.617 147.807 150.307C147.504 149.996 147.044 149.841 146.426 149.841C145.786 149.841 145.284 149.981 144.92 150.261C144.557 150.542 144.301 150.841 144.153 151.159L142.881 150.705C143.108 150.174 143.411 149.761 143.79 149.466C144.172 149.167 144.589 148.958 145.04 148.841C145.494 148.72 145.941 148.659 146.381 148.659C146.661 148.659 146.983 148.693 147.347 148.761C147.714 148.826 148.068 148.96 148.409 149.165C148.754 149.369 149.04 149.678 149.267 150.091C149.494 150.504 149.608 151.057 149.608 151.75V157.5H148.267V156.318H148.199C148.108 156.508 147.956 156.71 147.744 156.926C147.532 157.142 147.25 157.326 146.898 157.477C146.545 157.629 146.116 157.705 145.608 157.705ZM145.812 156.5C146.343 156.5 146.79 156.396 147.153 156.188C147.521 155.979 147.797 155.71 147.983 155.381C148.172 155.051 148.267 154.705 148.267 154.341V153.114C148.21 153.182 148.085 153.244 147.892 153.301C147.703 153.354 147.483 153.402 147.233 153.443C146.987 153.481 146.746 153.515 146.511 153.545C146.28 153.572 146.093 153.595 145.949 153.614C145.6 153.659 145.275 153.733 144.972 153.835C144.672 153.934 144.43 154.083 144.244 154.284C144.063 154.481 143.972 154.75 143.972 155.091C143.972 155.557 144.144 155.909 144.489 156.148C144.837 156.383 145.278 156.5 145.812 156.5ZM152.055 157.5V148.773H153.351V150.091H153.442C153.601 149.659 153.889 149.309 154.305 149.04C154.722 148.771 155.192 148.636 155.714 148.636C155.813 148.636 155.936 148.638 156.084 148.642C156.232 148.646 156.343 148.652 156.419 148.659V150.023C156.374 150.011 156.269 149.994 156.107 149.972C155.947 149.945 155.779 149.932 155.601 149.932C155.177 149.932 154.798 150.021 154.464 150.199C154.135 150.373 153.874 150.616 153.68 150.926C153.491 151.233 153.396 151.583 153.396 151.977V157.5H152.055ZM161.038 157.682C160.311 157.682 159.669 157.498 159.112 157.131C158.555 156.759 158.12 156.237 157.805 155.562C157.491 154.884 157.334 154.083 157.334 153.159C157.334 152.242 157.491 151.447 157.805 150.773C158.12 150.098 158.557 149.578 159.118 149.21C159.679 148.843 160.326 148.659 161.061 148.659C161.629 148.659 162.078 148.754 162.408 148.943C162.741 149.129 162.995 149.341 163.169 149.58C163.347 149.814 163.485 150.008 163.584 150.159H163.697V145.864H165.038V157.5H163.743V156.159H163.584C163.485 156.318 163.345 156.519 163.163 156.761C162.982 157 162.722 157.214 162.385 157.403C162.048 157.589 161.599 157.682 161.038 157.682ZM161.22 156.477C161.758 156.477 162.213 156.337 162.584 156.057C162.955 155.773 163.237 155.381 163.43 154.881C163.624 154.377 163.72 153.795 163.72 153.136C163.72 152.485 163.625 151.915 163.436 151.426C163.247 150.934 162.966 150.551 162.595 150.278C162.224 150.002 161.766 149.864 161.22 149.864C160.652 149.864 160.179 150.009 159.8 150.301C159.425 150.589 159.143 150.981 158.953 151.477C158.768 151.97 158.675 152.523 158.675 153.136C158.675 153.758 158.769 154.322 158.959 154.83C159.152 155.333 159.436 155.735 159.811 156.034C160.19 156.33 160.66 156.477 161.22 156.477Z" fill="white"/>
<path d="M72.95 217.1C72.8712 217.159 72.7816 217.202 72.6862 217.227C72.5908 217.251 72.4915 217.256 72.394 217.243C72.2965 217.229 72.2027 217.196 72.1179 217.145C72.0332 217.095 71.9591 217.029 71.9 216.95C71.448 216.342 70.8596 215.849 70.1822 215.511C69.5048 215.172 68.7574 214.997 68 215C67.8526 215 67.7083 214.957 67.5855 214.875C67.4626 214.793 67.3664 214.677 67.3091 214.542C67.2702 214.449 67.2501 214.35 67.2501 214.25C67.2501 214.15 67.2702 214.051 67.3091 213.958C67.3664 213.823 67.4626 213.707 67.5855 213.625C67.7083 213.544 67.8526 213.5 68 213.5C68.4209 213.5 68.8332 213.382 69.1903 213.159C69.5474 212.937 69.8349 212.618 70.0201 212.24C70.2054 211.863 70.2809 211.44 70.2382 211.022C70.1955 210.603 70.0363 210.205 69.7786 209.872C69.5209 209.539 69.175 209.286 68.7803 209.14C68.3856 208.994 67.9579 208.961 67.5458 209.046C67.1336 209.131 66.7535 209.33 66.4487 209.62C66.1439 209.91 65.9265 210.28 65.8213 210.688C65.7967 210.783 65.7535 210.873 65.6942 210.951C65.635 211.03 65.5608 211.096 65.4759 211.146C65.391 211.196 65.2971 211.229 65.1995 211.243C65.102 211.257 65.0026 211.251 64.9072 211.227C64.8118 211.202 64.7222 211.159 64.6435 211.1C64.5647 211.04 64.4984 210.966 64.4484 210.881C64.3983 210.796 64.3655 210.702 64.3517 210.605C64.338 210.507 64.3435 210.408 64.3682 210.313C64.5142 209.748 64.7901 209.224 65.1738 208.785C65.5576 208.345 66.0387 208.001 66.5788 207.78C67.119 207.559 67.7032 207.467 68.2851 207.512C68.867 207.556 69.4304 207.736 69.9306 208.037C70.4308 208.337 70.8539 208.751 71.1663 209.243C71.4787 209.736 71.6718 210.295 71.7301 210.876C71.7884 211.457 71.7104 212.043 71.5023 212.588C71.2942 213.133 70.9617 213.623 70.5313 214.017C71.5511 214.458 72.4377 215.159 73.1028 216.049C73.1619 216.128 73.2049 216.218 73.2292 216.314C73.2535 216.409 73.2587 216.509 73.2445 216.606C73.2303 216.704 73.197 216.798 73.1465 216.882C73.0959 216.967 73.0292 217.041 72.95 217.1ZM67.8988 222.875C67.9531 222.96 67.9895 223.056 68.0059 223.156C68.0223 223.255 68.0184 223.358 67.9943 223.456C67.9703 223.554 67.9266 223.646 67.8659 223.727C67.8052 223.808 67.7288 223.876 67.6412 223.927C67.5536 223.977 67.4567 224.01 67.3563 224.022C67.2559 224.034 67.154 224.026 67.0569 223.998C66.9597 223.97 66.8693 223.922 66.791 223.858C66.7127 223.794 66.6482 223.715 66.6013 223.625C66.1288 222.825 65.456 222.162 64.6491 221.701C63.8422 221.241 62.9291 220.999 62 220.999C61.0709 220.999 60.1579 221.241 59.351 221.701C58.5441 222.162 57.8712 222.825 57.3988 223.625C57.3519 223.715 57.2874 223.794 57.2091 223.858C57.1308 223.922 57.0403 223.97 56.9432 223.998C56.846 224.026 56.7442 224.034 56.6438 224.022C56.5434 224.01 56.4465 223.977 56.3589 223.927C56.2713 223.876 56.1949 223.808 56.1342 223.727C56.0735 223.646 56.0298 223.554 56.0058 223.456C55.9817 223.358 55.9778 223.255 55.9942 223.156C56.0106 223.056 56.047 222.96 56.1013 222.875C56.8284 221.626 57.9371 220.643 59.2644 220.07C58.5175 219.498 57.9686 218.707 57.6949 217.807C57.4211 216.907 57.4362 215.944 57.7381 215.053C58.04 214.162 58.6135 213.388 59.3779 212.84C60.1424 212.292 61.0594 211.997 62 211.997C62.9407 211.997 63.8577 212.292 64.6222 212.84C65.3866 213.388 65.9601 214.162 66.262 215.053C66.5639 215.944 66.579 216.907 66.3052 217.807C66.0315 218.707 65.4825 219.498 64.7357 220.07C66.063 220.643 67.1717 221.626 67.8988 222.875ZM62 219.5C62.5934 219.5 63.1734 219.324 63.6667 218.994C64.1601 218.665 64.5446 218.196 64.7717 217.648C64.9987 217.1 65.0582 216.497 64.9424 215.915C64.8266 215.333 64.5409 214.798 64.1214 214.379C63.7018 213.959 63.1673 213.673 62.5853 213.558C62.0034 213.442 61.4002 213.501 60.852 213.728C60.3038 213.955 59.8353 214.34 59.5056 214.833C59.176 215.327 59 215.907 59 216.5C59 217.296 59.3161 218.059 59.8787 218.621C60.4413 219.184 61.2044 219.5 62 219.5ZM56.75 214.25C56.75 214.051 56.671 213.86 56.5304 213.72C56.3897 213.579 56.199 213.5 56 213.5C55.5792 213.5 55.1668 213.382 54.8098 213.159C54.4527 212.937 54.1652 212.618 53.9799 212.24C53.7947 211.863 53.7191 211.44 53.7619 211.022C53.8046 210.603 53.9638 210.205 54.2215 209.872C54.4792 209.539 54.8251 209.286 55.2198 209.14C55.6144 208.994 56.0422 208.961 56.4543 209.046C56.8665 209.131 57.2466 209.33 57.5514 209.62C57.8562 209.91 58.0736 210.28 58.1788 210.688C58.2285 210.88 58.3528 211.045 58.5242 211.146C58.6956 211.247 58.9002 211.276 59.0929 211.227C59.2855 211.177 59.4506 211.053 59.5517 210.881C59.6528 210.71 59.6816 210.505 59.6319 210.313C59.4859 209.748 59.21 209.224 58.8262 208.785C58.4425 208.345 57.9614 208.001 57.4212 207.78C56.8811 207.559 56.2969 207.467 55.715 207.512C55.1331 207.556 54.5697 207.736 54.0695 208.037C53.5693 208.337 53.1461 208.751 52.8337 209.243C52.5213 209.736 52.3283 210.295 52.27 210.876C52.2117 211.457 52.2897 212.043 52.4978 212.588C52.7059 213.133 53.0384 213.623 53.4688 214.017C52.45 214.459 51.5645 215.159 50.9 216.049C50.7806 216.208 50.7292 216.408 50.7572 216.605C50.7853 216.802 50.8904 216.98 51.0496 217.1C51.2087 217.219 51.4088 217.27 51.6058 217.242C51.8028 217.214 51.9806 217.109 52.1 216.95C52.5521 216.342 53.1405 215.849 53.8179 215.511C54.4953 215.172 55.2427 214.997 56 215C56.199 215 56.3897 214.921 56.5304 214.78C56.671 214.64 56.75 214.449 56.75 214.25Z" fill="black"/>
<path d="M87.0455 208.864H88.4545V216.568C88.4545 217.364 88.267 218.074 87.892 218.699C87.5208 219.32 86.9962 219.811 86.3182 220.17C85.6402 220.527 84.8447 220.705 83.9318 220.705C83.0189 220.705 82.2235 220.527 81.5455 220.17C80.8674 219.811 80.3409 219.32 79.9659 218.699C79.5947 218.074 79.4091 217.364 79.4091 216.568V208.864H80.8182V216.455C80.8182 217.023 80.9432 217.528 81.1932 217.972C81.4432 218.411 81.7992 218.758 82.2614 219.011C82.7273 219.261 83.2841 219.386 83.9318 219.386C84.5795 219.386 85.1364 219.261 85.6023 219.011C86.0682 218.758 86.4242 218.411 86.6705 217.972C86.9205 217.528 87.0455 217.023 87.0455 216.455V208.864ZM97.2685 213.727L96.0639 214.068C95.9882 213.867 95.8764 213.672 95.7287 213.483C95.5848 213.29 95.3878 213.131 95.1378 213.006C94.8878 212.881 94.5677 212.818 94.1776 212.818C93.6435 212.818 93.1984 212.941 92.8423 213.188C92.4901 213.43 92.3139 213.739 92.3139 214.114C92.3139 214.447 92.4351 214.71 92.6776 214.903C92.92 215.097 93.2988 215.258 93.8139 215.386L95.1094 215.705C95.8897 215.894 96.4711 216.184 96.8537 216.574C97.2363 216.96 97.4276 217.458 97.4276 218.068C97.4276 218.568 97.2836 219.015 96.9957 219.409C96.7116 219.803 96.3139 220.114 95.8026 220.341C95.2912 220.568 94.6965 220.682 94.0185 220.682C93.1283 220.682 92.3916 220.489 91.8082 220.102C91.2249 219.716 90.8556 219.152 90.7003 218.409L91.973 218.091C92.0942 218.561 92.3234 218.913 92.6605 219.148C93.0014 219.383 93.4465 219.5 93.9957 219.5C94.6207 219.5 95.117 219.367 95.4844 219.102C95.8556 218.833 96.0412 218.511 96.0412 218.136C96.0412 217.833 95.9351 217.58 95.723 217.375C95.5109 217.167 95.1851 217.011 94.7457 216.909L93.2912 216.568C92.492 216.379 91.9048 216.085 91.5298 215.688C91.1586 215.286 90.973 214.784 90.973 214.182C90.973 213.689 91.1113 213.254 91.3878 212.875C91.6681 212.496 92.0488 212.199 92.5298 211.983C93.0147 211.767 93.5639 211.659 94.1776 211.659C95.0412 211.659 95.7192 211.848 96.2116 212.227C96.7079 212.606 97.0601 213.106 97.2685 213.727ZM103.105 220.682C102.264 220.682 101.539 220.496 100.929 220.125C100.323 219.75 99.8551 219.227 99.5256 218.557C99.1998 217.883 99.0369 217.098 99.0369 216.205C99.0369 215.311 99.1998 214.523 99.5256 213.841C99.8551 213.155 100.313 212.621 100.901 212.239C101.491 211.852 102.181 211.659 102.969 211.659C103.423 211.659 103.872 211.735 104.315 211.886C104.759 212.038 105.162 212.284 105.526 212.625C105.889 212.962 106.179 213.409 106.395 213.966C106.611 214.523 106.719 215.208 106.719 216.023V216.591H99.9915V215.432H105.355C105.355 214.939 105.257 214.5 105.06 214.114C104.866 213.727 104.59 213.422 104.23 213.199C103.874 212.975 103.454 212.864 102.969 212.864C102.435 212.864 101.973 212.996 101.582 213.261C101.196 213.523 100.899 213.864 100.69 214.284C100.482 214.705 100.378 215.155 100.378 215.636V216.409C100.378 217.068 100.491 217.627 100.719 218.085C100.95 218.54 101.27 218.886 101.679 219.125C102.088 219.36 102.563 219.477 103.105 219.477C103.457 219.477 103.776 219.428 104.06 219.33C104.348 219.227 104.596 219.076 104.804 218.875C105.012 218.67 105.173 218.417 105.287 218.114L106.582 218.477C106.446 218.917 106.217 219.303 105.895 219.636C105.573 219.966 105.175 220.223 104.702 220.409C104.228 220.591 103.696 220.682 103.105 220.682ZM108.759 220.5V211.773H110.054V213.091H110.145C110.304 212.659 110.592 212.309 111.009 212.04C111.425 211.771 111.895 211.636 112.418 211.636C112.516 211.636 112.639 211.638 112.787 211.642C112.935 211.646 113.046 211.652 113.122 211.659V213.023C113.077 213.011 112.973 212.994 112.81 212.972C112.651 212.945 112.482 212.932 112.304 212.932C111.88 212.932 111.501 213.021 111.168 213.199C110.838 213.373 110.577 213.616 110.384 213.926C110.194 214.233 110.099 214.583 110.099 214.977V220.5H108.759ZM119.393 208.864H121.075L125.03 218.523H125.166L129.121 208.864H130.803V220.5H129.484V211.659H129.371L125.734 220.5H124.462L120.825 211.659H120.712V220.5H119.393V208.864ZM136.014 220.705C135.461 220.705 134.959 220.6 134.509 220.392C134.058 220.18 133.7 219.875 133.435 219.477C133.17 219.076 133.037 218.591 133.037 218.023C133.037 217.523 133.135 217.117 133.332 216.807C133.529 216.492 133.793 216.246 134.122 216.068C134.452 215.89 134.815 215.758 135.213 215.67C135.615 215.58 136.018 215.508 136.423 215.455C136.954 215.386 137.384 215.335 137.713 215.301C138.046 215.263 138.289 215.201 138.44 215.114C138.596 215.027 138.673 214.875 138.673 214.659V214.614C138.673 214.053 138.52 213.617 138.213 213.307C137.91 212.996 137.45 212.841 136.832 212.841C136.192 212.841 135.69 212.981 135.327 213.261C134.963 213.542 134.707 213.841 134.56 214.159L133.287 213.705C133.514 213.174 133.817 212.761 134.196 212.466C134.579 212.167 134.995 211.958 135.446 211.841C135.901 211.72 136.348 211.659 136.787 211.659C137.067 211.659 137.389 211.693 137.753 211.761C138.12 211.826 138.474 211.96 138.815 212.165C139.16 212.369 139.446 212.678 139.673 213.091C139.901 213.504 140.014 214.057 140.014 214.75V220.5H138.673V219.318H138.605C138.514 219.508 138.363 219.71 138.151 219.926C137.938 220.142 137.656 220.326 137.304 220.477C136.952 220.629 136.522 220.705 136.014 220.705ZM136.219 219.5C136.749 219.5 137.196 219.396 137.56 219.188C137.927 218.979 138.204 218.71 138.389 218.381C138.579 218.051 138.673 217.705 138.673 217.341V216.114C138.616 216.182 138.491 216.244 138.298 216.301C138.109 216.354 137.889 216.402 137.639 216.443C137.393 216.481 137.152 216.515 136.918 216.545C136.687 216.572 136.499 216.595 136.355 216.614C136.007 216.659 135.681 216.733 135.378 216.835C135.079 216.934 134.836 217.083 134.651 217.284C134.469 217.481 134.378 217.75 134.378 218.091C134.378 218.557 134.55 218.909 134.895 219.148C135.243 219.383 135.685 219.5 136.219 219.5ZM143.803 215.25V220.5H142.462V211.773H143.757V213.136H143.871C144.075 212.693 144.386 212.337 144.803 212.068C145.219 211.795 145.757 211.659 146.416 211.659C147.007 211.659 147.524 211.78 147.967 212.023C148.411 212.261 148.755 212.625 149.001 213.114C149.248 213.598 149.371 214.212 149.371 214.955V220.5H148.03V215.045C148.03 214.36 147.852 213.826 147.496 213.443C147.14 213.057 146.651 212.864 146.03 212.864C145.602 212.864 145.219 212.956 144.882 213.142C144.549 213.328 144.286 213.598 144.092 213.955C143.899 214.311 143.803 214.742 143.803 215.25ZM154.389 220.705C153.836 220.705 153.334 220.6 152.884 220.392C152.433 220.18 152.075 219.875 151.81 219.477C151.545 219.076 151.412 218.591 151.412 218.023C151.412 217.523 151.51 217.117 151.707 216.807C151.904 216.492 152.168 216.246 152.497 216.068C152.827 215.89 153.19 215.758 153.588 215.67C153.99 215.58 154.393 215.508 154.798 215.455C155.329 215.386 155.759 215.335 156.088 215.301C156.421 215.263 156.664 215.201 156.815 215.114C156.971 215.027 157.048 214.875 157.048 214.659V214.614C157.048 214.053 156.895 213.617 156.588 213.307C156.285 212.996 155.825 212.841 155.207 212.841C154.567 212.841 154.065 212.981 153.702 213.261C153.338 213.542 153.082 213.841 152.935 214.159L151.662 213.705C151.889 213.174 152.192 212.761 152.571 212.466C152.954 212.167 153.37 211.958 153.821 211.841C154.276 211.72 154.723 211.659 155.162 211.659C155.442 211.659 155.764 211.693 156.128 211.761C156.495 211.826 156.849 211.96 157.19 212.165C157.535 212.369 157.821 212.678 158.048 213.091C158.276 213.504 158.389 214.057 158.389 214.75V220.5H157.048V219.318H156.98C156.889 219.508 156.738 219.71 156.526 219.926C156.313 220.142 156.031 220.326 155.679 220.477C155.327 220.629 154.897 220.705 154.389 220.705ZM154.594 219.5C155.124 219.5 155.571 219.396 155.935 219.188C156.302 218.979 156.579 218.71 156.764 218.381C156.954 218.051 157.048 217.705 157.048 217.341V216.114C156.991 216.182 156.866 216.244 156.673 216.301C156.484 216.354 156.264 216.402 156.014 216.443C155.768 216.481 155.527 216.515 155.293 216.545C155.062 216.572 154.874 216.595 154.73 216.614C154.382 216.659 154.056 216.733 153.753 216.835C153.454 216.934 153.211 217.083 153.026 217.284C152.844 217.481 152.753 217.75 152.753 218.091C152.753 218.557 152.925 218.909 153.27 219.148C153.618 219.383 154.06 219.5 154.594 219.5ZM164.359 223.955C163.712 223.955 163.155 223.871 162.689 223.705C162.223 223.542 161.835 223.326 161.524 223.057C161.217 222.792 160.973 222.508 160.791 222.205L161.859 221.455C161.981 221.614 162.134 221.795 162.32 222C162.505 222.208 162.759 222.388 163.081 222.54C163.407 222.695 163.833 222.773 164.359 222.773C165.064 222.773 165.645 222.602 166.104 222.261C166.562 221.92 166.791 221.386 166.791 220.659V218.886H166.678C166.579 219.045 166.439 219.242 166.257 219.477C166.079 219.708 165.821 219.915 165.484 220.097C165.151 220.275 164.7 220.364 164.132 220.364C163.428 220.364 162.795 220.197 162.234 219.864C161.678 219.53 161.236 219.045 160.911 218.409C160.589 217.773 160.428 217 160.428 216.091C160.428 215.197 160.585 214.419 160.899 213.756C161.214 213.089 161.651 212.574 162.212 212.21C162.772 211.843 163.42 211.659 164.155 211.659C164.723 211.659 165.174 211.754 165.507 211.943C165.844 212.129 166.102 212.341 166.28 212.58C166.462 212.814 166.602 213.008 166.7 213.159H166.837V211.773H168.132V220.75C168.132 221.5 167.962 222.11 167.621 222.58C167.284 223.053 166.829 223.4 166.257 223.619C165.689 223.843 165.056 223.955 164.359 223.955ZM164.314 219.159C164.852 219.159 165.306 219.036 165.678 218.79C166.049 218.544 166.331 218.189 166.524 217.727C166.717 217.265 166.814 216.712 166.814 216.068C166.814 215.439 166.719 214.884 166.53 214.403C166.34 213.922 166.06 213.545 165.689 213.273C165.318 213 164.859 212.864 164.314 212.864C163.746 212.864 163.272 213.008 162.893 213.295C162.518 213.583 162.236 213.97 162.047 214.455C161.861 214.939 161.768 215.477 161.768 216.068C161.768 216.674 161.863 217.21 162.053 217.676C162.246 218.138 162.53 218.502 162.905 218.767C163.284 219.028 163.753 219.159 164.314 219.159ZM174.246 220.682C173.405 220.682 172.679 220.496 172.07 220.125C171.464 219.75 170.996 219.227 170.666 218.557C170.34 217.883 170.178 217.098 170.178 216.205C170.178 215.311 170.34 214.523 170.666 213.841C170.996 213.155 171.454 212.621 172.041 212.239C172.632 211.852 173.321 211.659 174.109 211.659C174.564 211.659 175.013 211.735 175.456 211.886C175.899 212.038 176.303 212.284 176.666 212.625C177.03 212.962 177.32 213.409 177.536 213.966C177.751 214.523 177.859 215.208 177.859 216.023V216.591H171.132V215.432H176.496C176.496 214.939 176.397 214.5 176.2 214.114C176.007 213.727 175.731 213.422 175.371 213.199C175.015 212.975 174.594 212.864 174.109 212.864C173.575 212.864 173.113 212.996 172.723 213.261C172.337 213.523 172.039 213.864 171.831 214.284C171.623 214.705 171.518 215.155 171.518 215.636V216.409C171.518 217.068 171.632 217.627 171.859 218.085C172.09 218.54 172.411 218.886 172.82 219.125C173.229 219.36 173.704 219.477 174.246 219.477C174.598 219.477 174.916 219.428 175.2 219.33C175.488 219.227 175.736 219.076 175.945 218.875C176.153 218.67 176.314 218.417 176.428 218.114L177.723 218.477C177.587 218.917 177.357 219.303 177.036 219.636C176.714 219.966 176.316 220.223 175.842 220.409C175.369 220.591 174.837 220.682 174.246 220.682ZM179.899 220.5V211.773H181.195V213.136H181.308C181.49 212.67 181.784 212.309 182.189 212.051C182.594 211.79 183.081 211.659 183.649 211.659C184.225 211.659 184.704 211.79 185.087 212.051C185.473 212.309 185.774 212.67 185.99 213.136H186.081C186.304 212.686 186.64 212.328 187.087 212.062C187.534 211.794 188.07 211.659 188.695 211.659C189.475 211.659 190.113 211.903 190.609 212.392C191.106 212.877 191.354 213.633 191.354 214.659V220.5H190.013V214.659C190.013 214.015 189.837 213.555 189.484 213.278C189.132 213.002 188.717 212.864 188.24 212.864C187.626 212.864 187.151 213.049 186.814 213.42C186.477 213.788 186.308 214.254 186.308 214.818V220.5H184.945V214.523C184.945 214.027 184.784 213.627 184.462 213.324C184.14 213.017 183.725 212.864 183.217 212.864C182.869 212.864 182.543 212.956 182.24 213.142C181.941 213.328 181.698 213.585 181.513 213.915C181.331 214.241 181.24 214.617 181.24 215.045V220.5H179.899ZM197.464 220.682C196.624 220.682 195.898 220.496 195.288 220.125C194.682 219.75 194.214 219.227 193.885 218.557C193.559 217.883 193.396 217.098 193.396 216.205C193.396 215.311 193.559 214.523 193.885 213.841C194.214 213.155 194.673 212.621 195.26 212.239C195.851 211.852 196.54 211.659 197.328 211.659C197.783 211.659 198.232 211.735 198.675 211.886C199.118 212.038 199.521 212.284 199.885 212.625C200.249 212.962 200.538 213.409 200.754 213.966C200.97 214.523 201.078 215.208 201.078 216.023V216.591H194.351V215.432H199.714C199.714 214.939 199.616 214.5 199.419 214.114C199.226 213.727 198.949 213.422 198.589 213.199C198.233 212.975 197.813 212.864 197.328 212.864C196.794 212.864 196.332 212.996 195.942 213.261C195.555 213.523 195.258 213.864 195.05 214.284C194.841 214.705 194.737 215.155 194.737 215.636V216.409C194.737 217.068 194.851 217.627 195.078 218.085C195.309 218.54 195.629 218.886 196.038 219.125C196.447 219.36 196.923 219.477 197.464 219.477C197.817 219.477 198.135 219.428 198.419 219.33C198.707 219.227 198.955 219.076 199.163 218.875C199.372 218.67 199.533 218.417 199.646 218.114L200.942 218.477C200.805 218.917 200.576 219.303 200.254 219.636C199.932 219.966 199.535 220.223 199.061 220.409C198.588 220.591 198.055 220.682 197.464 220.682ZM204.459 215.25V220.5H203.118V211.773H204.413V213.136H204.527C204.732 212.693 205.042 212.337 205.459 212.068C205.875 211.795 206.413 211.659 207.072 211.659C207.663 211.659 208.18 211.78 208.624 212.023C209.067 212.261 209.411 212.625 209.658 213.114C209.904 213.598 210.027 214.212 210.027 214.955V220.5H208.686V215.045C208.686 214.36 208.508 213.826 208.152 213.443C207.796 213.057 207.307 212.864 206.686 212.864C206.258 212.864 205.875 212.956 205.538 213.142C205.205 213.328 204.942 213.598 204.749 213.955C204.555 214.311 204.459 214.742 204.459 215.25ZM216.273 211.773V212.909H211.75V211.773H216.273ZM213.068 209.682H214.409V218C214.409 218.379 214.464 218.663 214.574 218.852C214.688 219.038 214.831 219.163 215.006 219.227C215.184 219.288 215.371 219.318 215.568 219.318C215.716 219.318 215.837 219.311 215.932 219.295C216.027 219.277 216.102 219.261 216.159 219.25L216.432 220.455C216.341 220.489 216.214 220.523 216.051 220.557C215.888 220.595 215.682 220.614 215.432 220.614C215.053 220.614 214.682 220.532 214.318 220.369C213.958 220.206 213.659 219.958 213.42 219.625C213.186 219.292 213.068 218.871 213.068 218.364V209.682Z" fill="black"/>
<path d="M71.75 277.25H70.2153C70.131 276.312 69.8855 275.397 69.4897 274.543L70.8191 273.775C70.9914 273.675 71.1171 273.511 71.1686 273.319C71.2201 273.127 71.1932 272.922 71.0938 272.75C70.9943 272.578 70.8305 272.452 70.6383 272.4C70.4461 272.349 70.2414 272.376 70.0691 272.475L68.7378 273.244C68.194 272.476 67.5238 271.806 66.7559 271.262L67.5247 269.931C67.6241 269.759 67.6511 269.554 67.5996 269.362C67.548 269.17 67.4223 269.006 67.25 268.906C67.0777 268.807 66.8729 268.78 66.6808 268.831C66.4886 268.883 66.3248 269.009 66.2253 269.181L65.4575 270.51C64.6035 270.114 63.6875 269.869 62.75 269.785V268.25C62.75 268.051 62.671 267.86 62.5303 267.72C62.3897 267.579 62.1989 267.5 62 267.5C61.8011 267.5 61.6103 267.579 61.4697 267.72C61.329 267.86 61.25 268.051 61.25 268.25V269.785C60.3125 269.869 59.3965 270.114 58.5425 270.51L57.7747 269.181C57.7254 269.096 57.6599 269.021 57.5817 268.961C57.5036 268.901 57.4144 268.857 57.3192 268.831C57.2241 268.806 57.1248 268.799 57.0272 268.812C56.9295 268.825 56.8353 268.857 56.75 268.906C56.5777 269.006 56.452 269.17 56.4004 269.362C56.3489 269.554 56.3759 269.759 56.4753 269.931L57.2441 271.262C56.4762 271.806 55.806 272.476 55.2622 273.244L53.9309 272.475C53.7586 272.376 53.5539 272.349 53.3617 272.4C53.1695 272.452 53.0057 272.578 52.9062 272.75C52.8068 272.922 52.7799 273.127 52.8314 273.319C52.8829 273.511 53.0086 273.675 53.1809 273.775L54.5103 274.543C54.1145 275.397 53.869 276.312 53.7847 277.25H52.25C52.0511 277.25 51.8603 277.329 51.7197 277.47C51.579 277.61 51.5 277.801 51.5 278C51.5 278.199 51.579 278.39 51.7197 278.53C51.8603 278.671 52.0511 278.75 52.25 278.75H53.7847C53.869 279.688 54.1145 280.603 54.5103 281.458L53.1809 282.225C53.0379 282.308 52.926 282.435 52.8628 282.588C52.7996 282.74 52.7885 282.91 52.8312 283.069C52.8739 283.229 52.9681 283.37 53.0992 283.47C53.2302 283.571 53.3908 283.625 53.5559 283.625C53.6876 283.625 53.817 283.591 53.9309 283.525L55.2622 282.756C55.806 283.524 56.4762 284.194 57.2441 284.738L56.4753 286.069C56.3759 286.241 56.3489 286.446 56.4004 286.638C56.452 286.83 56.5777 286.994 56.75 287.094C56.9223 287.193 57.1271 287.22 57.3192 287.169C57.5114 287.117 57.6752 286.991 57.7747 286.819L58.5425 285.49C59.3965 285.886 60.3125 286.131 61.25 286.215V287.75C61.25 287.949 61.329 288.14 61.4697 288.28C61.6103 288.421 61.8011 288.5 62 288.5C62.1989 288.5 62.3897 288.421 62.5303 288.28C62.671 288.14 62.75 287.949 62.75 287.75V286.215C63.6875 286.131 64.6035 285.886 65.4575 285.49L66.2253 286.819C66.3248 286.991 66.4886 287.117 66.6808 287.169C66.8729 287.22 67.0777 287.193 67.25 287.094C67.4223 286.994 67.548 286.83 67.5996 286.638C67.6511 286.446 67.6241 286.241 67.5247 286.069L66.7559 284.738C67.5238 284.194 68.194 283.524 68.7378 282.756L70.0691 283.525C70.1544 283.574 70.2486 283.606 70.3462 283.619C70.4439 283.632 70.5432 283.625 70.6383 283.6C70.7335 283.574 70.8227 283.53 70.9008 283.47C70.979 283.41 71.0445 283.335 71.0938 283.25C71.1933 283.078 71.2204 282.873 71.1691 282.681C71.1177 282.489 70.9922 282.325 70.82 282.225L69.4906 281.458C69.8861 280.603 70.1313 279.687 70.2153 278.75H71.75C71.9489 278.75 72.1397 278.671 72.2803 278.53C72.421 278.39 72.5 278.199 72.5 278C72.5 277.801 72.421 277.61 72.2803 277.47C72.1397 277.329 71.9489 277.25 71.75 277.25ZM62 271.25C63.6597 271.252 65.2605 271.865 66.4975 272.971C67.7344 274.078 68.5208 275.601 68.7069 277.25H62.4331L59.2963 271.817C60.1484 271.443 61.0692 271.249 62 271.25ZM55.25 278C55.2506 276.943 55.4995 275.9 55.9768 274.957C56.4541 274.013 57.1464 273.195 57.9978 272.568L61.1337 278L57.9978 283.432C57.1464 282.805 56.4541 281.987 55.9768 281.043C55.4995 280.1 55.2506 279.057 55.25 278ZM62 284.75C61.0695 284.752 60.1488 284.56 59.2963 284.188L62.4331 278.75H68.7069C68.5208 280.399 67.7344 281.922 66.4975 283.029C65.2605 284.135 63.6597 284.748 62 284.75Z" fill="black"/>
<path d="M85.7727 274.773C85.7045 274.197 85.428 273.75 84.9432 273.432C84.4583 273.114 83.8636 272.955 83.1591 272.955C82.6439 272.955 82.1932 273.038 81.8068 273.205C81.4242 273.371 81.125 273.6 80.9091 273.892C80.697 274.184 80.5909 274.515 80.5909 274.886C80.5909 275.197 80.6648 275.464 80.8125 275.688C80.964 275.907 81.1572 276.091 81.392 276.239C81.6269 276.383 81.8731 276.502 82.1307 276.597C82.3883 276.687 82.625 276.761 82.8409 276.818L84.0227 277.136C84.3258 277.216 84.6629 277.326 85.0341 277.466C85.4091 277.606 85.767 277.797 86.108 278.04C86.4527 278.278 86.7367 278.585 86.9602 278.96C87.1837 279.335 87.2955 279.795 87.2955 280.341C87.2955 280.97 87.1307 281.538 86.8011 282.045C86.4754 282.553 85.9981 282.956 85.3693 283.256C84.7443 283.555 83.9848 283.705 83.0909 283.705C82.2576 283.705 81.536 283.57 80.9261 283.301C80.3201 283.032 79.8428 282.657 79.4943 282.176C79.1496 281.695 78.9545 281.136 78.9091 280.5H80.3636C80.4015 280.939 80.5492 281.303 80.8068 281.591C81.0682 281.875 81.3977 282.087 81.7955 282.227C82.197 282.364 82.6288 282.432 83.0909 282.432C83.6288 282.432 84.1117 282.345 84.5398 282.17C84.9678 281.992 85.3068 281.746 85.5568 281.432C85.8068 281.114 85.9318 280.742 85.9318 280.318C85.9318 279.932 85.8239 279.617 85.608 279.375C85.392 279.133 85.108 278.936 84.7557 278.784C84.4034 278.633 84.0227 278.5 83.6136 278.386L82.1818 277.977C81.2727 277.716 80.553 277.343 80.0227 276.858C79.4924 276.373 79.2273 275.739 79.2273 274.955C79.2273 274.303 79.4034 273.735 79.7557 273.25C80.1117 272.761 80.589 272.383 81.1875 272.114C81.7898 271.841 82.4621 271.705 83.2045 271.705C83.9545 271.705 84.6212 271.839 85.2045 272.108C85.7879 272.373 86.25 272.737 86.5909 273.199C86.9356 273.661 87.1174 274.186 87.1364 274.773H85.7727ZM93.0895 283.682C92.2486 283.682 91.5232 283.496 90.9134 283.125C90.3073 282.75 89.8395 282.227 89.5099 281.557C89.1842 280.883 89.0213 280.098 89.0213 279.205C89.0213 278.311 89.1842 277.523 89.5099 276.841C89.8395 276.155 90.2978 275.621 90.8849 275.239C91.4759 274.852 92.1652 274.659 92.9531 274.659C93.4077 274.659 93.8565 274.735 94.2997 274.886C94.7429 275.038 95.1463 275.284 95.5099 275.625C95.8736 275.962 96.1634 276.409 96.3793 276.966C96.5952 277.523 96.7031 278.208 96.7031 279.023V279.591H89.9759V278.432H95.3395C95.3395 277.939 95.241 277.5 95.044 277.114C94.8509 276.727 94.5743 276.422 94.2145 276.199C93.8584 275.975 93.438 275.864 92.9531 275.864C92.419 275.864 91.9569 275.996 91.5668 276.261C91.1804 276.523 90.883 276.864 90.6747 277.284C90.4664 277.705 90.3622 278.155 90.3622 278.636V279.409C90.3622 280.068 90.4759 280.627 90.7031 281.085C90.9342 281.54 91.2543 281.886 91.6634 282.125C92.0724 282.36 92.5478 282.477 93.0895 282.477C93.4418 282.477 93.7599 282.428 94.044 282.33C94.3319 282.227 94.58 282.076 94.7884 281.875C94.9967 281.67 95.1577 281.417 95.2713 281.114L96.5668 281.477C96.4304 281.917 96.2012 282.303 95.8793 282.636C95.5573 282.966 95.1596 283.223 94.6861 283.409C94.2126 283.591 93.6804 283.682 93.0895 283.682ZM102.538 274.773V275.909H98.0156V274.773H102.538ZM99.3338 272.682H100.675V281C100.675 281.379 100.73 281.663 100.839 281.852C100.953 282.038 101.097 282.163 101.271 282.227C101.449 282.288 101.637 282.318 101.834 282.318C101.982 282.318 102.103 282.311 102.197 282.295C102.292 282.277 102.368 282.261 102.425 282.25L102.697 283.455C102.607 283.489 102.48 283.523 102.317 283.557C102.154 283.595 101.947 283.614 101.697 283.614C101.319 283.614 100.947 283.532 100.584 283.369C100.224 283.206 99.9247 282.958 99.6861 282.625C99.4512 282.292 99.3338 281.871 99.3338 281.364V272.682ZM108.351 274.773V275.909H103.828V274.773H108.351ZM105.146 272.682H106.487V281C106.487 281.379 106.542 281.663 106.652 281.852C106.766 282.038 106.91 282.163 107.084 282.227C107.262 282.288 107.449 282.318 107.646 282.318C107.794 282.318 107.915 282.311 108.01 282.295C108.105 282.277 108.18 282.261 108.237 282.25L108.51 283.455C108.419 283.489 108.292 283.523 108.129 283.557C107.966 283.595 107.76 283.614 107.51 283.614C107.131 283.614 106.76 283.532 106.396 283.369C106.036 283.206 105.737 282.958 105.499 282.625C105.264 282.292 105.146 281.871 105.146 281.364V272.682ZM110.368 283.5V274.773H111.709V283.5H110.368ZM111.05 273.318C110.788 273.318 110.563 273.229 110.374 273.051C110.188 272.873 110.095 272.659 110.095 272.409C110.095 272.159 110.188 271.945 110.374 271.767C110.563 271.589 110.788 271.5 111.05 271.5C111.311 271.5 111.535 271.589 111.72 271.767C111.91 271.945 112.004 272.159 112.004 272.409C112.004 272.659 111.91 272.873 111.72 273.051C111.535 273.229 111.311 273.318 111.05 273.318ZM115.506 278.25V283.5H114.165V274.773H115.46V276.136H115.574C115.778 275.693 116.089 275.337 116.506 275.068C116.922 274.795 117.46 274.659 118.119 274.659C118.71 274.659 119.227 274.78 119.67 275.023C120.114 275.261 120.458 275.625 120.705 276.114C120.951 276.598 121.074 277.212 121.074 277.955V283.5H119.733V278.045C119.733 277.36 119.555 276.826 119.199 276.443C118.843 276.057 118.354 275.864 117.733 275.864C117.305 275.864 116.922 275.956 116.585 276.142C116.252 276.328 115.989 276.598 115.795 276.955C115.602 277.311 115.506 277.742 115.506 278.25ZM127.047 286.955C126.399 286.955 125.842 286.871 125.376 286.705C124.911 286.542 124.522 286.326 124.212 286.057C123.905 285.792 123.661 285.508 123.479 285.205L124.547 284.455C124.668 284.614 124.821 284.795 125.007 285C125.193 285.208 125.446 285.388 125.768 285.54C126.094 285.695 126.52 285.773 127.047 285.773C127.751 285.773 128.333 285.602 128.791 285.261C129.25 284.92 129.479 284.386 129.479 283.659V281.886H129.365C129.267 282.045 129.126 282.242 128.945 282.477C128.767 282.708 128.509 282.915 128.172 283.097C127.839 283.275 127.388 283.364 126.82 283.364C126.115 283.364 125.482 283.197 124.922 282.864C124.365 282.53 123.924 282.045 123.598 281.409C123.276 280.773 123.115 280 123.115 279.091C123.115 278.197 123.272 277.419 123.587 276.756C123.901 276.089 124.339 275.574 124.899 275.21C125.46 274.843 126.107 274.659 126.842 274.659C127.411 274.659 127.861 274.754 128.195 274.943C128.532 275.129 128.789 275.341 128.967 275.58C129.149 275.814 129.289 276.008 129.388 276.159H129.524V274.773H130.82V283.75C130.82 284.5 130.649 285.11 130.308 285.58C129.971 286.053 129.517 286.4 128.945 286.619C128.376 286.843 127.744 286.955 127.047 286.955ZM127.001 282.159C127.539 282.159 127.994 282.036 128.365 281.79C128.736 281.544 129.018 281.189 129.212 280.727C129.405 280.265 129.501 279.712 129.501 279.068C129.501 278.439 129.407 277.884 129.217 277.403C129.028 276.922 128.748 276.545 128.376 276.273C128.005 276 127.547 275.864 127.001 275.864C126.433 275.864 125.96 276.008 125.581 276.295C125.206 276.583 124.924 276.97 124.734 277.455C124.549 277.939 124.456 278.477 124.456 279.068C124.456 279.674 124.551 280.21 124.74 280.676C124.933 281.138 125.217 281.502 125.592 281.767C125.971 282.028 126.441 282.159 127.001 282.159Z" fill="black"/>
<path d="M292.5 106H3" stroke="black" stroke-opacity="0.2"/>
<path d="M61 38.5C50.9069 38.5 43 43.1125 43 49V67C43 72.8875 50.9069 77.5 61 77.5C71.0931 77.5 79 72.8875 79 67V49C79 43.1125 71.0931 38.5 61 38.5ZM76 58C76 59.8037 74.5225 61.6431 71.9481 63.0475C69.0494 64.6281 65.1606 65.5 61 65.5C56.8394 65.5 52.9506 64.6281 50.0519 63.0475C47.4775 61.6431 46 59.8037 46 58V54.88C49.1988 57.6925 54.6681 59.5 61 59.5C67.3319 59.5 72.8013 57.685 76 54.88V58ZM50.0519 43.9525C52.9506 42.3719 56.8394 41.5 61 41.5C65.1606 41.5 69.0494 42.3719 71.9481 43.9525C74.5225 45.3569 76 47.1962 76 49C76 50.8038 74.5225 52.6431 71.9481 54.0475C69.0494 55.6281 65.1606 56.5 61 56.5C56.8394 56.5 52.9506 55.6281 50.0519 54.0475C47.4775 52.6431 46 50.8038 46 49C46 47.1962 47.4775 45.3569 50.0519 43.9525ZM71.9481 72.0475C69.0494 73.6281 65.1606 74.5 61 74.5C56.8394 74.5 52.9506 73.6281 50.0519 72.0475C47.4775 70.6431 46 68.8037 46 67V63.88C49.1988 66.6925 54.6681 68.5 61 68.5C67.3319 68.5 72.8013 66.685 76 63.88V67C76 68.8037 74.5225 70.6431 71.9481 72.0475Z" fill="url(#paint0_linear_123_542)"/>
<path d="M96.6761 65H92.4382V51.9091H96.8104C98.093 51.9091 99.1946 52.1712 100.115 52.6953C101.036 53.2152 101.741 53.9631 102.231 54.9389C102.725 55.9105 102.972 57.076 102.972 58.4354C102.972 59.799 102.723 60.9709 102.224 61.951C101.73 62.9311 101.014 63.6854 100.077 64.2138C99.1392 64.7379 98.0057 65 96.6761 65ZM94.4134 63.2741H96.5675C97.5646 63.2741 98.3935 63.0866 99.054 62.7116C99.7145 62.3324 100.209 61.7848 100.537 61.0689C100.865 60.3487 101.029 59.4709 101.029 58.4354C101.029 57.4084 100.865 56.5369 100.537 55.821C100.213 55.1051 99.7294 54.5618 99.0859 54.1911C98.4425 53.8203 97.6435 53.6349 96.6889 53.6349H94.4134V63.2741ZM108.132 65.2173C107.51 65.2173 106.948 65.1023 106.445 64.8722C105.942 64.6378 105.544 64.299 105.249 63.8558C104.96 63.4126 104.815 62.8693 104.815 62.2259C104.815 61.6719 104.921 61.2159 105.134 60.858C105.347 60.5 105.635 60.2166 105.997 60.0078C106.36 59.799 106.764 59.6413 107.212 59.5348C107.659 59.4283 108.115 59.3473 108.58 59.2919C109.168 59.2237 109.645 59.1683 110.012 59.1257C110.378 59.0788 110.644 59.0043 110.811 58.902C110.977 58.7997 111.06 58.6335 111.06 58.4034V58.3587C111.06 57.8004 110.902 57.3679 110.587 57.0611C110.276 56.7543 109.811 56.6009 109.193 56.6009C108.55 56.6009 108.043 56.7436 107.672 57.0291C107.306 57.3104 107.052 57.6236 106.911 57.9688L105.115 57.5597C105.328 56.9631 105.639 56.4815 106.048 56.1151C106.462 55.7443 106.937 55.4759 107.474 55.3097C108.011 55.1392 108.575 55.054 109.168 55.054C109.56 55.054 109.975 55.1009 110.414 55.1946C110.857 55.2841 111.271 55.4503 111.654 55.6932C112.042 55.9361 112.36 56.2834 112.607 56.7351C112.854 57.1825 112.977 57.7642 112.977 58.4801V65H111.111V63.6577H111.034C110.911 63.9048 110.725 64.1477 110.478 64.3864C110.231 64.625 109.914 64.8232 109.526 64.9808C109.138 65.1385 108.673 65.2173 108.132 65.2173ZM108.548 63.6832C109.076 63.6832 109.528 63.5788 109.903 63.37C110.282 63.1612 110.57 62.8885 110.766 62.5518C110.966 62.2109 111.066 61.8466 111.066 61.4588V60.1932C110.998 60.2614 110.866 60.3253 110.67 60.3849C110.478 60.4403 110.259 60.4893 110.012 60.532C109.764 60.5703 109.524 60.6065 109.289 60.6406C109.055 60.6705 108.859 60.696 108.701 60.7173C108.33 60.7642 107.992 60.843 107.685 60.9538C107.382 61.0646 107.139 61.2244 106.956 61.4332C106.777 61.6378 106.688 61.9105 106.688 62.2514C106.688 62.7244 106.862 63.0824 107.212 63.3253C107.561 63.5639 108.007 63.6832 108.548 63.6832ZM120.106 55.1818V56.7159H114.743V55.1818H120.106ZM116.181 52.8295H118.093V62.1172C118.093 62.4879 118.148 62.767 118.259 62.9545C118.37 63.1378 118.512 63.2635 118.687 63.3317C118.866 63.3956 119.06 63.4276 119.269 63.4276C119.422 63.4276 119.556 63.4169 119.672 63.3956C119.787 63.3743 119.876 63.3572 119.94 63.3445L120.285 64.9233C120.174 64.9659 120.017 65.0085 119.812 65.0511C119.608 65.098 119.352 65.1236 119.045 65.1278C118.542 65.1364 118.074 65.0469 117.639 64.8594C117.204 64.6719 116.853 64.3821 116.584 63.9901C116.316 63.598 116.181 63.1058 116.181 62.5135V52.8295ZM125.078 65.2173C124.455 65.2173 123.893 65.1023 123.39 64.8722C122.887 64.6378 122.489 64.299 122.195 63.8558C121.905 63.4126 121.76 62.8693 121.76 62.2259C121.76 61.6719 121.867 61.2159 122.08 60.858C122.293 60.5 122.58 60.2166 122.943 60.0078C123.305 59.799 123.71 59.6413 124.157 59.5348C124.605 59.4283 125.061 59.3473 125.525 59.2919C126.113 59.2237 126.59 59.1683 126.957 59.1257C127.323 59.0788 127.59 59.0043 127.756 58.902C127.922 58.7997 128.005 58.6335 128.005 58.4034V58.3587C128.005 57.8004 127.847 57.3679 127.532 57.0611C127.221 56.7543 126.757 56.6009 126.139 56.6009C125.495 56.6009 124.988 56.7436 124.617 57.0291C124.251 57.3104 123.997 57.6236 123.857 57.9688L122.061 57.5597C122.274 56.9631 122.585 56.4815 122.994 56.1151C123.407 55.7443 123.882 55.4759 124.419 55.3097C124.956 55.1392 125.521 55.054 126.113 55.054C126.505 55.054 126.921 55.1009 127.36 55.1946C127.803 55.2841 128.216 55.4503 128.6 55.6932C128.987 55.9361 129.305 56.2834 129.552 56.7351C129.799 57.1825 129.923 57.7642 129.923 58.4801V65H128.056V63.6577H127.98C127.856 63.9048 127.671 64.1477 127.423 64.3864C127.176 64.625 126.859 64.8232 126.471 64.9808C126.083 65.1385 125.619 65.2173 125.078 65.2173ZM125.493 63.6832C126.021 63.6832 126.473 63.5788 126.848 63.37C127.227 63.1612 127.515 62.8885 127.711 62.5518C127.911 62.2109 128.012 61.8466 128.012 61.4588V60.1932C127.943 60.2614 127.811 60.3253 127.615 60.3849C127.423 60.4403 127.204 60.4893 126.957 60.532C126.71 60.5703 126.469 60.6065 126.235 60.6406C126 60.6705 125.804 60.696 125.646 60.7173C125.276 60.7642 124.937 60.843 124.63 60.9538C124.328 61.0646 124.085 61.2244 123.901 61.4332C123.722 61.6378 123.633 61.9105 123.633 62.2514C123.633 62.7244 123.808 63.0824 124.157 63.3253C124.507 63.5639 124.952 63.6832 125.493 63.6832ZM138.53 51.9091L142.173 62.571H142.32L145.964 51.9091H148.099L143.388 65H141.106L136.395 51.9091H138.53ZM149.836 65V55.1818H151.747V65H149.836ZM150.801 53.6669C150.468 53.6669 150.183 53.5561 149.944 53.3345C149.71 53.1087 149.593 52.8402 149.593 52.5291C149.593 52.2138 149.71 51.9453 149.944 51.7237C150.183 51.4979 150.468 51.3849 150.801 51.3849C151.133 51.3849 151.417 51.4979 151.651 51.7237C151.89 51.9453 152.009 52.2138 152.009 52.5291C152.009 52.8402 151.89 53.1087 151.651 53.3345C151.417 53.5561 151.133 53.6669 150.801 53.6669ZM161.675 57.5788L159.943 57.8857C159.871 57.6641 159.756 57.4531 159.598 57.2528C159.444 57.0526 159.236 56.8885 158.971 56.7607C158.707 56.6328 158.377 56.5689 157.981 56.5689C157.439 56.5689 156.988 56.6903 156.626 56.9332C156.263 57.1719 156.082 57.4808 156.082 57.8601C156.082 58.1882 156.204 58.4524 156.447 58.6527C156.689 58.853 157.081 59.017 157.623 59.1449L159.182 59.5028C160.086 59.7116 160.759 60.0334 161.202 60.468C161.645 60.9027 161.867 61.4673 161.867 62.1619C161.867 62.75 161.697 63.2741 161.356 63.7344C161.019 64.1903 160.548 64.5483 159.943 64.8082C159.342 65.0682 158.645 65.1982 157.853 65.1982C156.753 65.1982 155.856 64.9638 155.162 64.495C154.467 64.022 154.041 63.3509 153.883 62.4815L155.731 62.2003C155.846 62.6818 156.082 63.0462 156.44 63.2933C156.798 63.5362 157.265 63.6577 157.84 63.6577C158.466 63.6577 158.967 63.5277 159.342 63.2678C159.717 63.0036 159.905 62.6818 159.905 62.3026C159.905 61.9957 159.79 61.7379 159.559 61.5291C159.334 61.3203 158.986 61.1626 158.518 61.0561L156.856 60.6918C155.939 60.483 155.262 60.1506 154.823 59.6946C154.388 59.2386 154.171 58.6612 154.171 57.9624C154.171 57.3828 154.333 56.8757 154.657 56.4411C154.981 56.0064 155.428 55.6676 155.999 55.4247C156.57 55.1776 157.224 55.054 157.961 55.054C159.023 55.054 159.858 55.2841 160.467 55.7443C161.077 56.2003 161.479 56.8118 161.675 57.5788ZM170.188 60.9283V55.1818H172.105V65H170.226V63.2997H170.124C169.898 63.8239 169.536 64.2607 169.037 64.6101C168.543 64.9553 167.927 65.1278 167.19 65.1278C166.559 65.1278 166.001 64.9893 165.515 64.7124C165.034 64.4311 164.654 64.0156 164.377 63.4659C164.105 62.9162 163.968 62.2365 163.968 61.4268V55.1818H165.88V61.1967C165.88 61.8658 166.065 62.3984 166.436 62.7947C166.806 63.1911 167.288 63.3892 167.88 63.3892C168.238 63.3892 168.594 63.2997 168.948 63.1207C169.306 62.9418 169.602 62.6712 169.836 62.3089C170.075 61.9467 170.192 61.4865 170.188 60.9283ZM177.531 65.2173C176.909 65.2173 176.346 65.1023 175.843 64.8722C175.34 64.6378 174.942 64.299 174.648 63.8558C174.358 63.4126 174.213 62.8693 174.213 62.2259C174.213 61.6719 174.32 61.2159 174.533 60.858C174.746 60.5 175.034 60.2166 175.396 60.0078C175.758 59.799 176.163 59.6413 176.61 59.5348C177.058 59.4283 177.514 59.3473 177.978 59.2919C178.566 59.2237 179.044 59.1683 179.41 59.1257C179.776 59.0788 180.043 59.0043 180.209 58.902C180.375 58.7997 180.458 58.6335 180.458 58.4034V58.3587C180.458 57.8004 180.301 57.3679 179.985 57.0611C179.674 56.7543 179.21 56.6009 178.592 56.6009C177.948 56.6009 177.441 56.7436 177.07 57.0291C176.704 57.3104 176.45 57.6236 176.31 57.9688L174.514 57.5597C174.727 56.9631 175.038 56.4815 175.447 56.1151C175.86 55.7443 176.335 55.4759 176.872 55.3097C177.409 55.1392 177.974 55.054 178.566 55.054C178.958 55.054 179.374 55.1009 179.813 55.1946C180.256 55.2841 180.669 55.4503 181.053 55.6932C181.441 55.9361 181.758 56.2834 182.005 56.7351C182.252 57.1825 182.376 57.7642 182.376 58.4801V65H180.509V63.6577H180.433C180.309 63.9048 180.124 64.1477 179.877 64.3864C179.629 64.625 179.312 64.8232 178.924 64.9808C178.536 65.1385 178.072 65.2173 177.531 65.2173ZM177.946 63.6832C178.475 63.6832 178.926 63.5788 179.301 63.37C179.681 63.1612 179.968 62.8885 180.164 62.5518C180.365 62.2109 180.465 61.8466 180.465 61.4588V60.1932C180.396 60.2614 180.264 60.3253 180.068 60.3849C179.877 60.4403 179.657 60.4893 179.41 60.532C179.163 60.5703 178.922 60.6065 178.688 60.6406C178.453 60.6705 178.257 60.696 178.1 60.7173C177.729 60.7642 177.39 60.843 177.083 60.9538C176.781 61.0646 176.538 61.2244 176.355 61.4332C176.176 61.6378 176.086 61.9105 176.086 62.2514C176.086 62.7244 176.261 63.0824 176.61 63.3253C176.96 63.5639 177.405 63.6832 177.946 63.6832ZM186.833 51.9091V65H184.922V51.9091H186.833ZM189.404 65V55.1818H191.315V65H189.404ZM190.369 53.6669C190.037 53.6669 189.751 53.5561 189.513 53.3345C189.278 53.1087 189.161 52.8402 189.161 52.5291C189.161 52.2138 189.278 51.9453 189.513 51.7237C189.751 51.4979 190.037 51.3849 190.369 51.3849C190.702 51.3849 190.985 51.4979 191.219 51.7237C191.458 51.9453 191.577 52.2138 191.577 52.5291C191.577 52.8402 191.458 53.1087 191.219 53.3345C190.985 53.5561 190.702 53.6669 190.369 53.6669ZM201.244 57.5788L199.511 57.8857C199.439 57.6641 199.324 57.4531 199.166 57.2528C199.013 57.0526 198.804 56.8885 198.54 56.7607C198.276 56.6328 197.945 56.5689 197.549 56.5689C197.008 56.5689 196.556 56.6903 196.194 56.9332C195.832 57.1719 195.651 57.4808 195.651 57.8601C195.651 58.1882 195.772 58.4524 196.015 58.6527C196.258 58.853 196.65 59.017 197.191 59.1449L198.751 59.5028C199.654 59.7116 200.327 60.0334 200.771 60.468C201.214 60.9027 201.435 61.4673 201.435 62.1619C201.435 62.75 201.265 63.2741 200.924 63.7344C200.587 64.1903 200.116 64.5483 199.511 64.8082C198.911 65.0682 198.214 65.1982 197.421 65.1982C196.322 65.1982 195.425 64.9638 194.73 64.495C194.036 64.022 193.609 63.3509 193.452 62.4815L195.299 62.2003C195.414 62.6818 195.651 63.0462 196.009 63.2933C196.366 63.5362 196.833 63.6577 197.408 63.6577C198.035 63.6577 198.536 63.5277 198.911 63.2678C199.286 63.0036 199.473 62.6818 199.473 62.3026C199.473 61.9957 199.358 61.7379 199.128 61.5291C198.902 61.3203 198.555 61.1626 198.086 61.0561L196.424 60.6918C195.508 60.483 194.83 60.1506 194.391 59.6946C193.957 59.2386 193.739 58.6612 193.739 57.9624C193.739 57.3828 193.901 56.8757 194.225 56.4411C194.549 56.0064 194.996 55.6676 195.567 55.4247C196.138 55.1776 196.793 55.054 197.53 55.054C198.591 55.054 199.426 55.2841 200.036 55.7443C200.645 56.2003 201.048 56.8118 201.244 57.5788ZM206.394 65.2173C205.772 65.2173 205.209 65.1023 204.706 64.8722C204.204 64.6378 203.805 64.299 203.511 63.8558C203.221 63.4126 203.077 62.8693 203.077 62.2259C203.077 61.6719 203.183 61.2159 203.396 60.858C203.609 60.5 203.897 60.2166 204.259 60.0078C204.621 59.799 205.026 59.6413 205.474 59.5348C205.921 59.4283 206.377 59.3473 206.841 59.2919C207.43 59.2237 207.907 59.1683 208.273 59.1257C208.64 59.0788 208.906 59.0043 209.072 58.902C209.238 58.7997 209.322 58.6335 209.322 58.4034V58.3587C209.322 57.8004 209.164 57.3679 208.849 57.0611C208.537 56.7543 208.073 56.6009 207.455 56.6009C206.812 56.6009 206.305 56.7436 205.934 57.0291C205.567 57.3104 205.314 57.6236 205.173 57.9688L203.377 57.5597C203.59 56.9631 203.901 56.4815 204.31 56.1151C204.724 55.7443 205.199 55.4759 205.736 55.3097C206.273 55.1392 206.837 55.054 207.43 55.054C207.822 55.054 208.237 55.1009 208.676 55.1946C209.119 55.2841 209.532 55.4503 209.916 55.6932C210.304 55.9361 210.621 56.2834 210.868 56.7351C211.116 57.1825 211.239 57.7642 211.239 58.4801V65H209.373V63.6577H209.296C209.172 63.9048 208.987 64.1477 208.74 64.3864C208.493 64.625 208.175 64.8232 207.787 64.9808C207.4 65.1385 206.935 65.2173 206.394 65.2173ZM206.809 63.6832C207.338 63.6832 207.79 63.5788 208.165 63.37C208.544 63.1612 208.831 62.8885 209.028 62.5518C209.228 62.2109 209.328 61.8466 209.328 61.4588V60.1932C209.26 60.2614 209.128 60.3253 208.932 60.3849C208.74 60.4403 208.52 60.4893 208.273 60.532C208.026 60.5703 207.785 60.6065 207.551 60.6406C207.317 60.6705 207.121 60.696 206.963 60.7173C206.592 60.7642 206.253 60.843 205.947 60.9538C205.644 61.0646 205.401 61.2244 205.218 61.4332C205.039 61.6378 204.949 61.9105 204.949 62.2514C204.949 62.7244 205.124 63.0824 205.474 63.3253C205.823 63.5639 206.268 63.6832 206.809 63.6832ZM218.368 55.1818V56.7159H213.005V55.1818H218.368ZM214.443 52.8295H216.354V62.1172C216.354 62.4879 216.41 62.767 216.521 62.9545C216.631 63.1378 216.774 63.2635 216.949 63.3317C217.128 63.3956 217.322 63.4276 217.531 63.4276C217.684 63.4276 217.818 63.4169 217.933 63.3956C218.048 63.3743 218.138 63.3572 218.202 63.3445L218.547 64.9233C218.436 64.9659 218.278 65.0085 218.074 65.0511C217.869 65.098 217.614 65.1236 217.307 65.1278C216.804 65.1364 216.335 65.0469 215.901 64.8594C215.466 64.6719 215.114 64.3821 214.846 63.9901C214.577 63.598 214.443 63.1058 214.443 62.5135V52.8295ZM220.482 65V55.1818H222.393V65H220.482ZM221.447 53.6669C221.115 53.6669 220.829 53.5561 220.591 53.3345C220.356 53.1087 220.239 52.8402 220.239 52.5291C220.239 52.2138 220.356 51.9453 220.591 51.7237C220.829 51.4979 221.115 51.3849 221.447 51.3849C221.78 51.3849 222.063 51.4979 222.297 51.7237C222.536 51.9453 222.655 52.2138 222.655 52.5291C222.655 52.8402 222.536 53.1087 222.297 53.3345C222.063 53.5561 221.78 53.6669 221.447 53.6669ZM229.1 65.1982C228.18 65.1982 227.376 64.9872 226.69 64.5653C226.004 64.1435 225.472 63.5533 225.092 62.7947C224.713 62.0362 224.523 61.1499 224.523 60.1357C224.523 59.1172 224.713 58.2266 225.092 57.4638C225.472 56.701 226.004 56.1087 226.69 55.6868C227.376 55.2649 228.18 55.054 229.1 55.054C230.021 55.054 230.824 55.2649 231.51 55.6868C232.196 56.1087 232.729 56.701 233.108 57.4638C233.487 58.2266 233.677 59.1172 233.677 60.1357C233.677 61.1499 233.487 62.0362 233.108 62.7947C232.729 63.5533 232.196 64.1435 231.51 64.5653C230.824 64.9872 230.021 65.1982 229.1 65.1982ZM229.107 63.5938C229.703 63.5938 230.197 63.4361 230.589 63.1207C230.982 62.8054 231.271 62.3857 231.459 61.8615C231.651 61.3374 231.746 60.7599 231.746 60.1293C231.746 59.5028 231.651 58.9276 231.459 58.4034C231.271 57.875 230.982 57.451 230.589 57.1314C230.197 56.8118 229.703 56.652 229.107 56.652C228.506 56.652 228.007 56.8118 227.611 57.1314C227.219 57.451 226.927 57.875 226.735 58.4034C226.548 58.9276 226.454 59.5028 226.454 60.1293C226.454 60.7599 226.548 61.3374 226.735 61.8615C226.927 62.3857 227.219 62.8054 227.611 63.1207C228.007 63.4361 228.506 63.5938 229.107 63.5938ZM237.721 59.1705V65H235.81V55.1818H237.645V56.7798H237.766C237.992 56.2599 238.346 55.8423 238.827 55.527C239.313 55.2116 239.925 55.054 240.662 55.054C241.331 55.054 241.917 55.1946 242.42 55.4759C242.922 55.7528 243.312 56.1662 243.589 56.7159C243.866 57.2656 244.005 57.9453 244.005 58.755V65H242.094V58.9851C242.094 58.2734 241.908 57.7173 241.537 57.3168C241.167 56.9119 240.657 56.7095 240.01 56.7095C239.567 56.7095 239.172 56.8054 238.827 56.9972C238.486 57.1889 238.216 57.4702 238.015 57.8409C237.819 58.2074 237.721 58.6506 237.721 59.1705Z" fill="#333333"/>
<defs>
<linearGradient id="paint0_linear_123_542" x1="61" y1="38.5" x2="61" y2="77.5" gradientUnits="userSpaceOnUse">
<stop stop-color="#7003FF"/>
<stop offset="0.461538" stop-color="#035696"/>
<stop offset="1" stop-color="#99021B"/>
</linearGradient>
</defs>
</svg>
