<svg width="68" height="68" viewBox="0 0 68 68" fill="none" xmlns="http://www.w3.org/2000/svg">
<g clip-path="url(#clip0_200_5434)">
<path d="M19.5666 48.093L34.5961 43.0814L40.3051 48.7904C41.4303 49.9156 42.9565 50.5477 44.5478 50.5477C46.1391 50.5477 47.6652 49.9156 48.7904 48.7904C49.9156 47.6652 50.5478 46.139 50.5478 44.5477C50.5478 42.9564 49.9156 41.4303 48.7904 40.3051L43.0814 34.5961L48.093 19.5665C48.1811 19.3021 48.1937 19.0184 48.1295 18.7473C48.0654 18.4761 47.9269 18.2281 47.7297 18.0312L43.4871 13.7886C43.3301 13.6318 43.1403 13.5118 42.9314 13.4372C42.7224 13.3626 42.4995 13.3352 42.2787 13.3572C42.0579 13.3791 41.8448 13.4498 41.6546 13.564C41.4644 13.6783 41.3019 13.8333 41.1788 14.018L33.7078 25.2225L31.198 22.7127L31.1994 19.0919C31.1992 18.8948 31.1603 18.6998 31.0848 18.5178C31.0093 18.3358 30.8986 18.1704 30.7592 18.0312L26.5165 13.7886C26.343 13.6145 26.1293 13.4856 25.8943 13.4135C25.6593 13.3413 25.4102 13.328 25.1688 13.3748C24.9274 13.4215 24.7013 13.5269 24.5102 13.6816C24.3191 13.8363 24.169 14.0356 24.073 14.2619L21.131 21.131L14.2619 24.073C14.0356 24.169 13.8363 24.3191 13.6816 24.5102C13.5269 24.7012 13.4216 24.9274 13.3748 25.1688C13.3281 25.4101 13.3414 25.6593 13.4135 25.8943C13.4857 26.1293 13.6145 26.343 13.7886 26.5165L18.0313 30.7592C18.1705 30.8986 18.3358 31.0092 18.5178 31.0848C18.6998 31.1603 18.8949 31.1992 19.0919 31.1993L22.7128 31.198L25.2225 33.7078L14.018 41.1788C13.8334 41.3019 13.6783 41.4643 13.5641 41.6545C13.4498 41.8447 13.3792 42.0579 13.3572 42.2787C13.3353 42.4995 13.3626 42.7224 13.4372 42.9313C13.5118 43.1403 13.6318 43.3301 13.7886 43.4871L18.0313 47.7297C18.2282 47.9269 18.4761 48.0653 18.7473 48.1295C19.0185 48.1937 19.3022 48.181 19.5666 48.093ZM17.2039 42.6598L28.4085 35.1887C28.5931 35.0657 28.7482 34.9032 28.8624 34.713C28.9767 34.5228 29.0473 34.3097 29.0693 34.0889C29.0912 33.8681 29.0639 33.6452 28.9893 33.4362C28.9147 33.2273 28.7947 33.0374 28.6379 32.8805L24.3952 28.6378C24.256 28.4984 24.0907 28.3877 23.9087 28.3122C23.7267 28.2367 23.5316 28.1978 23.3346 28.1977L19.7137 28.199L17.4771 25.9623L22.8612 23.6567C23.2151 23.505 23.4971 23.223 23.6488 22.8692L25.9623 17.477L28.199 19.7137L28.1977 23.3345C28.1978 23.5316 28.2367 23.7267 28.3123 23.9086C28.3878 24.0906 28.4984 24.256 28.6379 24.3952L32.8805 28.6378C33.0375 28.7946 33.2273 28.9147 33.4362 28.9893C33.6452 29.0639 33.8681 29.0912 34.0889 29.0692C34.3097 29.0473 34.5229 28.9766 34.7131 28.8624C34.9032 28.7481 35.0657 28.5931 35.1888 28.4085L42.6598 17.2039L44.9535 19.4976L39.9418 34.5271C39.8538 34.7915 39.8412 35.0752 39.9053 35.3464C39.9695 35.6176 40.1079 35.8655 40.3051 36.0625L46.6691 42.4264C47.2317 42.989 47.5478 43.7521 47.5478 44.5477C47.5478 45.3434 47.2317 46.1064 46.6691 46.6691C46.1065 47.2317 45.3434 47.5477 44.5478 47.5477C43.7521 47.5477 42.9891 47.2317 42.4264 46.6691L36.0625 40.3051C35.8656 40.1079 35.6176 39.9695 35.3465 39.9053C35.0753 39.8411 34.7916 39.8538 34.5272 39.9418L19.4976 44.9534L17.2039 42.6598Z" fill="#1976D2"/>
</g>
<defs>
<clipPath id="clip0_200_5434">
<rect width="48" height="48" fill="white" transform="translate(67.8823 33.9411) rotate(135)"/>
</clipPath>
</defs>
</svg>
