<svg width="24" height="24" viewBox="0 0 24 24" fill="none" xmlns="http://www.w3.org/2000/svg">
<path d="M18.75 1.875H5.25C4.75272 1.875 4.27581 2.07254 3.92417 2.42417C3.57254 2.77581 3.375 3.25272 3.375 3.75V20.25C3.375 20.7473 3.57254 21.2242 3.92417 21.5758C4.27581 21.9275 4.75272 22.125 5.25 22.125H18.75C19.2473 22.125 19.7242 21.9275 20.0758 21.5758C20.4275 21.2242 20.625 20.7473 20.625 20.25V3.75C20.625 3.25272 20.4275 2.77581 20.0758 2.42417C19.7242 2.07254 19.2473 1.875 18.75 1.875ZM18.375 19.875H5.625V4.125H18.375V19.875ZM7.5 7.125C7.5 6.82663 7.61853 6.54048 7.8295 6.3295C8.04048 6.11853 8.32663 6 8.625 6H15.375C15.6734 6 15.9595 6.11853 16.1705 6.3295C16.3815 6.54048 16.5 6.82663 16.5 7.125C16.5 7.42337 16.3815 7.70952 16.1705 7.9205C15.9595 8.13147 15.6734 8.25 15.375 8.25H8.625C8.32663 8.25 8.04048 8.13147 7.8295 7.9205C7.61853 7.70952 7.5 7.42337 7.5 7.125ZM11.25 12C11.25 12.2967 11.162 12.5867 10.9972 12.8334C10.8324 13.08 10.5981 13.2723 10.324 13.3858C10.0499 13.4994 9.74834 13.5291 9.45736 13.4712C9.16639 13.4133 8.89912 13.2704 8.68934 13.0607C8.47956 12.8509 8.3367 12.5836 8.27882 12.2926C8.22094 12.0017 8.25065 11.7001 8.36418 11.426C8.47771 11.1519 8.66997 10.9176 8.91665 10.7528C9.16332 10.588 9.45333 10.5 9.75 10.5C10.1478 10.5 10.5294 10.658 10.8107 10.9393C11.092 11.2206 11.25 11.6022 11.25 12ZM15.75 12C15.75 12.2967 15.662 12.5867 15.4972 12.8334C15.3324 13.08 15.0981 13.2723 14.824 13.3858C14.5499 13.4994 14.2483 13.5291 13.9574 13.4712C13.6664 13.4133 13.3991 13.2704 13.1893 13.0607C12.9796 12.8509 12.8367 12.5836 12.7788 12.2926C12.7209 12.0017 12.7506 11.7001 12.8642 11.426C12.9777 11.1519 13.17 10.9176 13.4166 10.7528C13.6633 10.588 13.9533 10.5 14.25 10.5C14.6478 10.5 15.0294 10.658 15.3107 10.9393C15.592 11.2206 15.75 11.6022 15.75 12ZM11.25 16.5C11.25 16.7967 11.162 17.0867 10.9972 17.3334C10.8324 17.58 10.5981 17.7723 10.324 17.8858C10.0499 17.9994 9.74834 18.0291 9.45736 17.9712C9.16639 17.9133 8.89912 17.7704 8.68934 17.5607C8.47956 17.3509 8.3367 17.0836 8.27882 16.7926C8.22094 16.5017 8.25065 16.2001 8.36418 15.926C8.47771 15.6519 8.66997 15.4176 8.91665 15.2528C9.16332 15.088 9.45333 15 9.75 15C10.1478 15 10.5294 15.158 10.8107 15.4393C11.092 15.7206 11.25 16.1022 11.25 16.5ZM15.75 16.5C15.75 16.7967 15.662 17.0867 15.4972 17.3334C15.3324 17.58 15.0981 17.7723 14.824 17.8858C14.5499 17.9994 14.2483 18.0291 13.9574 17.9712C13.6664 17.9133 13.3991 17.7704 13.1893 17.5607C12.9796 17.3509 12.8367 17.0836 12.7788 16.7926C12.7209 16.5017 12.7506 16.2001 12.8642 15.926C12.9777 15.6519 13.17 15.4176 13.4166 15.2528C13.6633 15.088 13.9533 15 14.25 15C14.6478 15 15.0294 15.158 15.3107 15.4393C15.592 15.7206 15.75 16.1022 15.75 16.5Z" fill="black"/>
</svg>
