<svg width="24" height="24" viewBox="0 0 24 24" fill="none" xmlns="http://www.w3.org/2000/svg">
<path d="M9.375 10.9153C9.48904 10.8495 9.58373 10.7548 9.64956 10.6407C9.71539 10.5267 9.75003 10.3973 9.75 10.2656V3.51562C9.74933 3.39605 9.72008 3.27837 9.66469 3.1724C9.6093 3.06643 9.52937 2.97523 9.43158 2.90643C9.33378 2.83762 9.22095 2.7932 9.10249 2.77686C8.98404 2.76052 8.8634 2.77274 8.75063 2.8125C6.56154 3.58726 4.72061 5.11748 3.55877 7.12807C2.39692 9.13865 1.99037 11.4977 2.41219 13.7812C2.43405 13.8993 2.48395 14.0104 2.55769 14.1052C2.63143 14.2 2.72686 14.2757 2.83594 14.3259C2.93424 14.3719 3.04148 14.3956 3.15 14.3953C3.28164 14.3954 3.41097 14.3608 3.525 14.295L9.375 10.9153ZM8.25 4.65188V9.8325L3.76125 12.4228C3.75 12.2812 3.75 12.1388 3.75 12C3.75133 10.4797 4.17215 8.98928 4.96612 7.69279C5.76009 6.3963 6.89642 5.34404 8.25 4.65188ZM12 2.25C11.8011 2.25 11.6103 2.32902 11.4697 2.46967C11.329 2.61032 11.25 2.80109 11.25 3V11.6081L3.86156 15.9122C3.77583 15.9619 3.70079 16.0281 3.64079 16.107C3.58079 16.1858 3.53701 16.2758 3.51199 16.3717C3.48697 16.4676 3.48121 16.5675 3.49502 16.6656C3.50884 16.7638 3.54197 16.8582 3.5925 16.9434C4.45847 18.4156 5.69598 19.6344 7.18112 20.478C8.66626 21.3215 10.3469 21.7601 12.0549 21.7498C13.7628 21.7396 15.4381 21.2809 16.913 20.4196C18.3879 19.5583 19.6107 18.3247 20.4589 16.8422C21.3072 15.3598 21.7511 13.6805 21.7463 11.9726C21.7415 10.2646 21.2881 8.58787 20.4316 7.11022C19.575 5.63257 18.3453 4.40586 16.8655 3.55289C15.3858 2.69993 13.708 2.25064 12 2.25ZM12 20.25C10.6907 20.2465 9.40089 19.9331 8.236 19.3354C7.0711 18.7377 6.06425 17.8727 5.29781 16.8113L12.3778 12.6863C12.4917 12.6205 12.5863 12.5259 12.6521 12.4121C12.718 12.2982 12.7527 12.169 12.7528 12.0375V3.78375C14.8682 3.97567 16.8281 4.9761 18.2244 6.57675C19.6206 8.1774 20.3458 10.2549 20.2488 12.3768C20.1518 14.4987 19.2401 16.5013 17.7036 17.9679C16.167 19.4345 14.1241 20.2519 12 20.25Z" fill="black"/>
</svg>
