<svg width="24" height="24" viewBox="0 0 24 24" fill="none" xmlns="http://www.w3.org/2000/svg">
<path d="M21.375 4.5V19.5C21.375 19.9973 21.1774 20.4742 20.8258 20.8258C20.4742 21.1775 19.9972 21.375 19.5 21.375H13.125C12.8266 21.375 12.5404 21.2565 12.3295 21.0455C12.1185 20.8345 12 20.5484 12 20.25C12 19.9516 12.1185 19.6655 12.3295 19.4545C12.5404 19.2435 12.8266 19.125 13.125 19.125H19.125V4.875H4.87496V13.125C4.87496 13.4234 4.75643 13.7095 4.54545 13.9205C4.33448 14.1315 4.04833 14.25 3.74996 14.25C3.45159 14.25 3.16544 14.1315 2.95446 13.9205C2.74349 13.7095 2.62496 13.4234 2.62496 13.125V4.5C2.62496 4.00272 2.8225 3.52581 3.17413 3.17417C3.52576 2.82254 4.00268 2.625 4.49996 2.625H19.5C19.9972 2.625 20.4742 2.82254 20.8258 3.17417C21.1774 3.52581 21.375 4.00272 21.375 4.5ZM12.0459 14.2041C11.9414 14.0992 11.8172 14.016 11.6804 13.9592C11.5437 13.9024 11.3971 13.8732 11.249 13.8732C11.101 13.8732 10.9543 13.9024 10.8176 13.9592C10.6809 14.016 10.5567 14.0992 10.4521 14.2041L5.99996 18.6563L4.5459 17.2041C4.44125 17.0994 4.31702 17.0164 4.18029 16.9598C4.04356 16.9031 3.89702 16.874 3.74902 16.874C3.60103 16.874 3.45448 16.9031 3.31776 16.9598C3.18103 17.0164 3.05679 17.0994 2.95215 17.2041C2.8475 17.3087 2.76449 17.4329 2.70785 17.5697C2.65122 17.7064 2.62207 17.8529 2.62207 18.0009C2.62207 18.1489 2.65122 18.2955 2.70785 18.4322C2.76449 18.5689 2.8475 18.6932 2.95215 18.7978L5.20215 21.0478C5.30666 21.1527 5.43086 21.2359 5.5676 21.2927C5.70435 21.3495 5.85096 21.3787 5.99902 21.3787C6.14709 21.3787 6.2937 21.3495 6.43044 21.2927C6.56719 21.2359 6.69138 21.1527 6.7959 21.0478L12.0459 15.7978C12.1508 15.6933 12.234 15.5691 12.2908 15.4324C12.3476 15.2956 12.3768 15.149 12.3768 15.0009C12.3768 14.8529 12.3476 14.7063 12.2908 14.5695C12.234 14.4328 12.1508 14.3086 12.0459 14.2041Z" fill="#6F06E2"/>
</svg>
