<svg width="24" height="24" viewBox="0 0 24 24" fill="none" xmlns="http://www.w3.org/2000/svg">
<path d="M19.8751 7.5C19.8751 7.79837 19.7566 8.08452 19.5456 8.2955C19.3346 8.50647 19.0485 8.625 18.7501 8.625H16.1251C16.1234 10.2158 15.4907 11.7409 14.3658 12.8657C13.241 13.9906 11.7159 14.6233 10.1251 14.625H9.65637L15.7501 20.1675C15.8615 20.2663 15.9521 20.3862 16.0168 20.5203C16.0815 20.6544 16.1189 20.8 16.1269 20.9486C16.1349 21.0973 16.1133 21.2461 16.0634 21.3863C16.0135 21.5266 15.9362 21.6555 15.8361 21.7657C15.736 21.8759 15.615 21.9651 15.4801 22.0281C15.3453 22.0912 15.1992 22.1269 15.0505 22.1331C14.9018 22.1393 14.7533 22.1159 14.6136 22.0643C14.474 22.0127 14.346 21.9339 14.237 21.8325L5.98699 14.3325C5.81854 14.1794 5.7005 13.9788 5.64845 13.7572C5.59641 13.5356 5.61281 13.3034 5.69549 13.0914C5.77817 12.8793 5.92323 12.6973 6.11153 12.5694C6.29983 12.4415 6.52249 12.3737 6.75012 12.375H10.1251C11.1197 12.375 12.0735 11.9799 12.7768 11.2766C13.48 10.5734 13.8751 9.61956 13.8751 8.625H6.75012C6.45175 8.625 6.1656 8.50647 5.95462 8.2955C5.74364 8.08452 5.62512 7.79837 5.62512 7.5C5.62512 7.20163 5.74364 6.91548 5.95462 6.7045C6.1656 6.49353 6.45175 6.375 6.75012 6.375H13.1251C12.7758 5.90926 12.3229 5.53125 11.8022 5.2709C11.2815 5.01054 10.7073 4.875 10.1251 4.875H6.75012C6.45175 4.875 6.1656 4.75647 5.95462 4.5455C5.74364 4.33452 5.62512 4.04837 5.62512 3.75C5.62512 3.45163 5.74364 3.16548 5.95462 2.9545C6.1656 2.74353 6.45175 2.625 6.75012 2.625H18.7501C19.0485 2.625 19.3346 2.74353 19.5456 2.9545C19.7566 3.16548 19.8751 3.45163 19.8751 3.75C19.8751 4.04837 19.7566 4.33452 19.5456 4.5455C19.3346 4.75647 19.0485 4.875 18.7501 4.875H14.8042C15.1692 5.32953 15.4661 5.83484 15.6854 6.375H18.7501C19.0485 6.375 19.3346 6.49353 19.5456 6.7045C19.7566 6.91548 19.8751 7.20163 19.8751 7.5Z" fill="#EA5200"/>
</svg>
