<svg width="24" height="24" viewBox="0 0 24 24" fill="none" xmlns="http://www.w3.org/2000/svg">
<path d="M21.0262 13.2185C20.519 11.4306 19.4949 9.83252 18.0825 8.6247H22.5C22.7984 8.6247 23.0845 8.50618 23.2955 8.2952C23.5065 8.08422 23.625 7.79807 23.625 7.4997C23.625 7.20133 23.5065 6.91518 23.2955 6.70421C23.0845 6.49323 22.7984 6.3747 22.5 6.3747H15.1819C14.9492 5.71676 14.5183 5.14713 13.9484 4.74423C13.3786 4.34134 12.6979 4.125 12 4.125C11.3021 4.125 10.6214 4.34134 10.0516 4.74423C9.48174 5.14713 9.05081 5.71676 8.81812 6.3747H1.5C1.20163 6.3747 0.915483 6.49323 0.704505 6.70421C0.493526 6.91518 0.375 7.20133 0.375 7.4997C0.375 7.79807 0.493526 8.08422 0.704505 8.2952C0.915483 8.50618 1.20163 8.6247 1.5 8.6247H5.9175C4.50513 9.83252 3.48103 11.4306 2.97375 13.2185C2.20108 13.4025 1.51809 13.8532 1.04496 14.4912C0.571825 15.1292 0.338873 15.9136 0.387093 16.7065C0.435313 17.4993 0.761614 18.2497 1.30858 18.8257C1.85554 19.4016 2.58812 19.7662 3.3774 19.8553C4.16668 19.9444 4.96209 19.7522 5.62366 19.3126C6.28522 18.873 6.77056 18.2142 6.99426 17.4521C7.21795 16.6899 7.16568 15.8733 6.84663 15.1459C6.52759 14.4185 5.96221 13.827 5.25 13.4753C5.5679 12.542 6.07445 11.6841 6.73813 10.9549C7.40181 10.2258 8.20843 9.64095 9.10781 9.23689C9.40789 9.73581 9.83192 10.1486 10.3387 10.4352C10.8455 10.7218 11.4178 10.8724 12 10.8724C12.5822 10.8724 13.1545 10.7218 13.6613 10.4352C14.1681 10.1486 14.5921 9.73581 14.8922 9.23689C15.7916 9.64095 16.5982 10.2258 17.2619 10.9549C17.9255 11.6841 18.4321 12.542 18.75 13.4753C18.0378 13.827 17.4724 14.4185 17.1534 15.1459C16.8343 15.8733 16.782 16.6899 17.0057 17.4521C17.2294 18.2142 17.7148 18.873 18.3763 19.3126C19.0379 19.7522 19.8333 19.9444 20.6226 19.8553C21.4119 19.7662 22.1445 19.4016 22.6914 18.8257C23.2384 18.2497 23.5647 17.4993 23.6129 16.7065C23.6611 15.9136 23.4282 15.1292 22.955 14.4912C22.4819 13.8532 21.7989 13.4025 21.0262 13.2185ZM3.75 17.6247C3.5275 17.6247 3.30999 17.5587 3.12498 17.4351C2.93998 17.3115 2.79578 17.1358 2.71064 16.9302C2.62549 16.7247 2.60321 16.4985 2.64662 16.2802C2.69003 16.062 2.79717 15.8615 2.9545 15.7042C3.11184 15.5469 3.31229 15.4397 3.53052 15.3963C3.74875 15.3529 3.97495 15.3752 4.18052 15.4603C4.38609 15.5455 4.56179 15.6897 4.6854 15.8747C4.80902 16.0597 4.875 16.2772 4.875 16.4997C4.875 16.7981 4.75647 17.0842 4.5455 17.2952C4.33452 17.5062 4.04837 17.6247 3.75 17.6247ZM12 8.6247C11.7775 8.6247 11.56 8.55872 11.375 8.43511C11.19 8.31149 11.0458 8.13579 10.9606 7.93022C10.8755 7.72465 10.8532 7.49845 10.8966 7.28022C10.94 7.062 11.0472 6.86154 11.2045 6.70421C11.3618 6.54687 11.5623 6.43973 11.7805 6.39632C11.9988 6.35291 12.225 6.37519 12.4305 6.46034C12.6361 6.54549 12.8118 6.68968 12.9354 6.87469C13.059 7.05969 13.125 7.2772 13.125 7.4997C13.125 7.79807 13.0065 8.08422 12.7955 8.2952C12.5845 8.50618 12.2984 8.6247 12 8.6247ZM20.25 17.6247C20.0275 17.6247 19.81 17.5587 19.625 17.4351C19.44 17.3115 19.2958 17.1358 19.2106 16.9302C19.1255 16.7247 19.1032 16.4985 19.1466 16.2802C19.19 16.062 19.2972 15.8615 19.4545 15.7042C19.6118 15.5469 19.8123 15.4397 20.0305 15.3963C20.2488 15.3529 20.475 15.3752 20.6805 15.4603C20.8861 15.5455 21.0618 15.6897 21.1854 15.8747C21.309 16.0597 21.375 16.2772 21.375 16.4997C21.375 16.7981 21.2565 17.0842 21.0455 17.2952C20.8345 17.5062 20.5484 17.6247 20.25 17.6247Z" fill="black"/>
</svg>
