<svg width="24" height="24" viewBox="0 0 24 24" fill="none" xmlns="http://www.w3.org/2000/svg">
<path d="M12 9C11.4067 9 10.8266 9.17595 10.3333 9.50559C9.83994 9.83524 9.45543 10.3038 9.22836 10.8519C9.0013 11.4001 8.94189 12.0033 9.05765 12.5853C9.1734 13.1672 9.45912 13.7018 9.87868 14.1213C10.2982 14.5409 10.8328 14.8266 11.4147 14.9424C11.9967 15.0581 12.5999 14.9987 13.1481 14.7716C13.6962 14.5446 14.1648 14.1601 14.4944 13.6667C14.8241 13.1734 15 12.5933 15 12C15 11.2044 14.6839 10.4413 14.1213 9.87868C13.5587 9.31607 12.7957 9 12 9ZM12 12.75C11.8517 12.75 11.7067 12.706 11.5833 12.6236C11.46 12.5412 11.3639 12.4241 11.3071 12.287C11.2503 12.15 11.2355 11.9992 11.2644 11.8537C11.2934 11.7082 11.3648 11.5746 11.4697 11.4697C11.5746 11.3648 11.7082 11.2933 11.8537 11.2644C11.9992 11.2355 12.15 11.2503 12.287 11.3071C12.4241 11.3639 12.5412 11.46 12.6236 11.5833C12.706 11.7067 12.75 11.8517 12.75 12C12.75 12.1989 12.671 12.3897 12.5303 12.5303C12.3897 12.671 12.1989 12.75 12 12.75ZM19.5 9C18.9067 9 18.3266 9.17595 17.8333 9.50559C17.3399 9.83524 16.9554 10.3038 16.7284 10.8519C16.5013 11.4001 16.4419 12.0033 16.5576 12.5853C16.6734 13.1672 16.9591 13.7018 17.3787 14.1213C17.7982 14.5409 18.3328 14.8266 18.9147 14.9424C19.4967 15.0581 20.0999 14.9987 20.6481 14.7716C21.1962 14.5446 21.6648 14.1601 21.9944 13.6667C22.3241 13.1734 22.5 12.5933 22.5 12C22.5 11.2044 22.1839 10.4413 21.6213 9.87868C21.0587 9.31607 20.2957 9 19.5 9ZM19.5 12.75C19.3517 12.75 19.2067 12.706 19.0833 12.6236C18.96 12.5412 18.8639 12.4241 18.8071 12.287C18.7503 12.15 18.7355 11.9992 18.7644 11.8537C18.7934 11.7082 18.8648 11.5746 18.9697 11.4697C19.0746 11.3648 19.2082 11.2933 19.3537 11.2644C19.4992 11.2355 19.65 11.2503 19.787 11.3071C19.9241 11.3639 20.0412 11.46 20.1236 11.5833C20.206 11.7067 20.25 11.8517 20.25 12C20.25 12.1989 20.171 12.3897 20.0303 12.5303C19.8897 12.671 19.6989 12.75 19.5 12.75ZM4.5 9C3.90666 9 3.32664 9.17595 2.83329 9.50559C2.33994 9.83524 1.95543 10.3038 1.72836 10.8519C1.5013 11.4001 1.44189 12.0033 1.55765 12.5853C1.6734 13.1672 1.95912 13.7018 2.37868 14.1213C2.79824 14.5409 3.33279 14.8266 3.91473 14.9424C4.49667 15.0581 5.09987 14.9987 5.64805 14.7716C6.19623 14.5446 6.66477 14.1601 6.99441 13.6667C7.32405 13.1734 7.5 12.5933 7.5 12C7.5 11.2044 7.18393 10.4413 6.62132 9.87868C6.05871 9.31607 5.29565 9 4.5 9ZM4.5 12.75C4.35167 12.75 4.20666 12.706 4.08332 12.6236C3.95999 12.5412 3.86386 12.4241 3.80709 12.287C3.75033 12.15 3.73547 11.9992 3.76441 11.8537C3.79335 11.7082 3.86478 11.5746 3.96967 11.4697C4.07456 11.3648 4.2082 11.2933 4.35368 11.2644C4.49917 11.2355 4.64997 11.2503 4.78701 11.3071C4.92406 11.3639 5.04119 11.46 5.1236 11.5833C5.20601 11.7067 5.25 11.8517 5.25 12C5.25 12.1989 5.17098 12.3897 5.03033 12.5303C4.88968 12.671 4.69891 12.75 4.5 12.75Z" fill="black"/>
</svg>
