<svg width="163" height="141" viewBox="0 0 163 141" fill="none" xmlns="http://www.w3.org/2000/svg">
<path d="M21.5051 108.941C21.5051 108.941 37.3122 128.956 64.3222 129.771C91.3323 130.586 115.487 113.748 135.416 100.624C155.345 87.4991 161.882 65.5462 151.934 47.4389C141.987 29.3316 123.927 35.5273 102.24 22.7959C80.553 10.0642 76.709 3.38188 51.567 4.52591C26.4254 5.67033 5.61502 32.5294 6.5318 62.6222C7.44859 92.7151 21.5051 108.941 21.5051 108.941Z" fill="#EAEAEA"/>
<path opacity="0.7" d="M21.5051 108.941C21.5051 108.941 37.3122 128.956 64.3222 129.771C91.3323 130.586 115.487 113.748 135.416 100.624C155.345 87.4991 161.882 65.5462 151.934 47.4389C141.987 29.3316 123.927 35.5273 102.24 22.7959C80.553 10.0642 76.709 3.38188 51.567 4.52591C26.4254 5.67033 5.61502 32.5294 6.5318 62.6222C7.44859 92.7151 21.5051 108.941 21.5051 108.941Z" fill="#EAEAEA"/>
<path d="M26.4174 9.90542C26.3951 9.90777 26.69 8.44732 26.719 8.35737C27.0569 7.31581 28.3218 5.50101 29.5479 5.50336C30.4315 5.50492 31.0299 6.30907 30.9427 7.15233C30.8539 8.01357 30.0802 8.74771 29.3805 9.17168C28.5596 9.6688 26.4194 9.90503 26.4174 9.90542Z" fill="white"/>
<path d="M24.0429 0.0820269C25.1971 0.496224 25.7713 2.63213 25.7353 3.72688C25.7322 3.82153 25.5135 5.29528 25.4932 5.2855C25.4932 5.2855 25.4744 5.27611 25.4697 5.27377C25.5628 5.61013 25.659 5.97192 25.756 6.36969C25.9293 7.10499 26.1182 7.93769 26.2629 8.85761C26.41 9.77635 26.5437 10.7792 26.5891 11.8477C26.6364 12.919 26.6314 14.0482 26.4757 15.211C26.4741 15.2243 26.4706 15.2376 26.4687 15.2509C26.6196 14.9251 27.0729 14.0274 27.1156 13.9625C27.7163 13.0469 29.4154 11.6307 30.5977 11.9568C31.4496 12.1919 31.8145 13.1255 31.5075 13.9156C31.1942 14.7229 30.2543 15.2266 29.4678 15.4503C28.5807 15.703 26.6028 15.4046 26.4452 15.3803C26.2868 16.4864 26.0341 17.6085 25.7161 18.7299C25.535 19.3713 25.3328 20.0116 25.1216 20.6511C25.2613 20.3734 25.3884 20.1262 25.4099 20.0937C26.0107 19.1781 27.7097 17.7623 28.892 18.0881C29.7439 18.3231 30.1084 19.2563 29.8022 20.0468C29.4893 20.8541 28.549 21.3578 27.7625 21.5819C26.9642 21.8092 25.2726 21.5886 24.8259 21.5244C24.7422 21.7689 24.6617 22.0141 24.5772 22.2582C24.1724 23.4296 23.7629 24.5971 23.3964 25.7544C23.2669 26.162 23.1547 26.5683 23.0409 26.9747C23.1652 26.7283 23.272 26.5218 23.2916 26.4921C23.8923 25.5765 25.5914 24.1602 26.7737 24.4864C27.6256 24.7211 27.9905 25.6551 27.6835 26.4455C27.3706 27.2524 26.4303 27.7566 25.6438 27.9803C24.8819 28.197 23.319 28.0077 22.7874 27.9337C22.6834 28.353 22.5786 28.7731 22.4964 29.1842C22.4468 29.4662 22.3795 29.7341 22.3455 30.02C22.306 30.3024 22.2665 30.582 22.2277 30.8589C22.1726 31.3952 22.112 31.9478 22.0713 32.4719C22.04 32.8364 22.0173 33.1842 21.9931 33.5346C22.117 33.127 22.3764 32.3346 22.4057 32.2709C22.708 31.6091 23.457 30.6579 24.2827 30.1342C24.3269 30.0364 24.3793 29.9425 24.4411 29.8541C24.9272 29.1599 25.9062 28.944 26.575 29.5213C27.5036 30.3227 27.2712 32.5224 26.8445 33.5307C26.8195 33.5901 26.4737 34.205 26.2496 34.5894C26.4159 34.3833 26.5746 34.1815 26.7487 33.9719C27.0894 33.5545 27.4414 33.1482 27.8188 32.7093C28.0085 32.504 28.2001 32.2963 28.3937 32.0871C28.5811 31.8751 28.806 31.6752 29.0133 31.466C29.5041 30.9919 30.0243 30.5351 30.5586 30.0865C30.1941 29.7873 28.9139 28.7062 28.5459 27.9717C28.1794 27.2403 27.9158 26.2069 28.2995 25.431C28.675 24.671 29.6097 24.3092 30.3583 24.7786C31.3976 25.4298 31.5016 27.6396 31.2321 28.7011C31.2153 28.7672 30.9364 29.5072 30.7757 29.9109C31.0991 29.6437 31.4202 29.3754 31.7562 29.1161C32.7258 28.3667 33.7302 27.6384 34.7291 26.9071C35.0354 26.6833 35.3373 26.4565 35.6412 26.2308C35.5102 26.1256 33.9614 24.8736 33.5491 24.0507C33.1826 23.3197 32.919 22.286 33.3027 21.51C33.6782 20.75 34.613 20.3882 35.3616 20.8576C36.4008 21.5092 36.5044 23.7186 36.2353 24.7801C36.215 24.8599 35.8121 25.9242 35.6968 26.1901C36.3648 25.6926 37.0262 25.1908 37.6582 24.6695C38.5312 23.9514 39.3479 23.1988 40.0851 22.4107C40.0241 22.3618 38.4014 21.0625 37.9789 20.2197C37.6125 19.4883 37.3489 18.4549 37.7325 17.6789C38.108 16.919 39.0428 16.5572 39.7914 17.0266C40.8306 17.6782 40.9343 19.8876 40.6652 20.9491C40.6476 21.0187 40.3413 21.8307 40.1868 22.2128C40.2193 22.2332 40.2134 22.2296 40.2459 22.25C41.0258 21.3965 41.6735 20.4715 42.2371 19.5759C42.5644 19.0576 42.8488 18.5441 43.1136 18.0384C42.7866 17.8276 41.3027 16.8462 40.8388 16.1297C40.3945 15.4429 40.019 14.4448 40.3147 13.6312C40.6045 12.8345 41.494 12.3722 42.2895 12.7567C43.394 13.2902 43.7398 15.4746 43.5888 16.5592C43.5806 16.6182 43.4308 17.2084 43.3158 17.6371C43.432 17.4071 43.5559 17.1717 43.6627 16.9487C44.0664 16.1137 44.3839 15.324 44.6601 14.6223C44.8138 14.2222 44.9448 13.8573 45.0637 13.5147C44.8509 13.14 44.012 11.6201 43.9318 10.7858C43.8536 9.97152 43.9807 8.91275 44.6182 8.32685C45.2425 7.75347 46.2449 7.75308 46.7741 8.46062C47.5082 9.44312 46.8085 11.5411 46.1749 12.4344C46.1201 12.5115 45.1247 13.6203 45.1134 13.6007C45.1134 13.6007 45.1028 13.5823 45.1005 13.578C44.9925 13.9101 44.8732 14.2649 44.7348 14.6501C44.4735 15.3592 44.172 16.1579 43.7851 17.005C43.4007 17.8526 42.9595 18.7627 42.408 19.6791C41.8565 20.5987 41.2292 21.5377 40.4579 22.4217C40.4493 22.4318 40.4387 22.4408 40.4301 22.451C40.736 22.2625 41.6089 21.7642 41.6801 21.7337C42.6865 21.3015 44.8846 21.0578 45.6911 21.9817C46.2719 22.6474 46.0611 23.6275 45.3696 24.1176C44.6632 24.6182 43.6013 24.5196 42.8214 24.2725C41.9422 23.9936 40.4567 22.6536 40.339 22.5464C39.5966 23.3815 38.7671 24.1782 37.8831 24.9382C37.3782 25.3731 36.856 25.7959 36.3276 26.2128C36.5975 26.0583 36.8396 25.9222 36.8756 25.907C37.8819 25.4748 40.0804 25.2311 40.8865 26.1553C41.4674 26.821 41.2565 27.8012 40.565 28.2912C39.8587 28.7919 38.7968 28.6933 38.0169 28.4461C37.2256 28.195 35.9365 27.0784 35.5994 26.778C35.3948 26.936 35.1926 27.0956 34.9873 27.2528C34.0032 28.0065 33.0176 28.7543 32.0738 29.5174C31.741 29.7861 31.423 30.063 31.1038 30.3387C31.3436 30.2019 31.5466 30.0884 31.5794 30.0744C32.5858 29.6422 34.7843 29.3985 35.5904 30.3227C36.1712 30.9884 35.9604 31.9685 35.2685 32.4586C34.5621 32.9589 33.5002 32.8607 32.7203 32.6135C31.9655 32.3741 30.7663 31.3537 30.3638 30.999C30.0458 31.2915 29.7263 31.5837 29.4314 31.8813C29.2347 32.0894 29.0305 32.2756 28.8443 32.4954C28.6554 32.7089 28.4685 32.9205 28.2831 33.1302C27.9412 33.5467 27.5857 33.9746 27.2626 34.3892C27.0354 34.6759 26.8246 34.9532 26.611 35.2324C26.9392 34.961 27.5927 34.4432 27.6522 34.406C28.5811 33.8264 30.7174 33.2522 31.6545 34.0438C32.3296 34.6141 32.2698 35.6146 31.66 36.2036C31.0377 36.8051 29.9731 36.8689 29.1646 36.743C28.2748 36.6037 26.6642 35.5547 26.464 35.4225C26.1123 35.8852 25.7748 36.3385 25.4631 36.7715C24.3793 38.2699 23.5333 39.5586 22.9548 40.4676C22.9341 40.5001 22.9157 40.529 22.8962 40.5603L22.1456 40.1962C22.1843 40.1375 22.2219 40.0804 22.2637 40.0178C22.8692 39.1108 23.7511 37.8283 24.8787 36.3393C25.2339 35.868 25.6227 35.3717 26.0267 34.8656C25.9226 34.7518 25.3348 34.1009 24.8623 33.4239C24.0007 33.7614 22.2066 33.7747 21.9747 33.7751C21.9367 34.3548 21.9054 34.9192 21.8843 35.4523C21.8069 37.2999 21.8124 38.8417 21.8311 39.9189C21.8319 39.9631 21.8327 40.0022 21.8339 40.0448L21.009 39.6447C21.0172 38.5742 21.0497 37.1266 21.1588 35.4147C21.1948 34.8257 21.2452 34.1972 21.3031 33.5522C21.0743 33.4947 19.2087 33.0156 18.5043 32.4528C17.8652 31.9423 17.1928 31.1143 17.2159 30.2488C17.2386 29.4012 17.936 28.6812 18.8121 28.7938C20.0285 28.9499 21.0485 30.9125 21.2488 31.9893C21.2605 32.0526 21.3117 32.7563 21.3368 33.2006C21.3618 32.9374 21.3829 32.6812 21.4122 32.4101C21.4662 31.8743 21.5358 31.3408 21.6086 30.7666C21.6536 30.4905 21.6985 30.212 21.7447 29.9304C21.7842 29.6504 21.8612 29.3594 21.9187 29.0707C22.0666 28.4047 22.2485 27.7366 22.4468 27.0678C21.9774 27.0193 20.3136 26.8237 19.6014 26.4142C18.8923 26.0063 18.1022 25.2898 17.9942 24.4309C17.8882 23.59 18.4683 22.7721 19.3518 22.7506C20.578 22.7209 21.8835 24.5064 22.2445 25.5401C22.2672 25.6046 22.4428 26.3755 22.5312 26.8011C22.6537 26.3998 22.7733 25.9989 22.9106 25.5972C23.3057 24.4375 23.7418 23.2755 24.1716 22.1146C24.3034 21.7591 24.4305 21.4032 24.5592 21.0477C24.3922 21.0324 22.4092 20.8423 21.6117 20.3835C20.9026 19.976 20.1129 19.2591 20.0046 18.4002C19.8986 17.5593 20.4786 16.7414 21.3622 16.7203C22.5883 16.6906 23.8939 18.4761 24.2549 19.5098C24.2819 19.5876 24.5334 20.6972 24.5835 20.9827C24.8662 20.1989 25.1412 19.4155 25.3806 18.6325C25.7126 17.5522 25.9782 16.4735 26.1589 15.4101C26.0811 15.403 24.0108 15.2145 23.1938 14.7444C22.4847 14.3364 21.6946 13.6199 21.5867 12.761C21.4807 11.9201 22.0607 11.1026 22.9443 11.0811C24.1704 11.0514 25.476 12.8369 25.837 13.8706C25.8609 13.9387 26.0529 14.7835 26.135 15.1879C26.1737 15.1867 26.1663 15.1871 26.205 15.1859C26.3846 14.0443 26.4143 12.9155 26.3904 11.8575C26.3779 11.2446 26.3314 10.6595 26.2735 10.0916C25.8843 10.0959 24.1055 10.0963 23.3233 9.75445C22.5739 9.42708 21.7099 8.80167 21.5077 7.95959C21.3098 7.13511 21.7967 6.259 22.6724 6.14049C23.8876 5.97622 25.3813 7.60758 25.8538 8.59555C25.8796 8.64914 26.0803 9.22448 26.2207 9.64532C26.1906 9.38953 26.1644 9.12474 26.1307 8.8799C26.0063 7.96077 25.8362 7.12689 25.6794 6.38963C25.5867 5.97113 25.4948 5.59448 25.4048 5.24287C25.0207 5.04809 23.4824 4.24277 22.9552 3.59116C22.4409 2.9552 21.9626 2.00204 22.1714 1.16152C22.3756 0.336647 23.2114 -0.216789 24.0429 0.0820269Z" fill="white"/>
<path d="M46.2136 18.9861C45.2542 18.9477 43.3385 17.9641 43.337 17.9637C43.317 17.9535 44.3683 16.8979 44.4423 16.8388C45.2988 16.1563 47.3545 15.3408 48.3765 16.019C49.1126 16.5079 49.1682 17.5088 48.6304 18.1639C48.0812 18.8331 47.0307 19.0185 46.2136 18.9861Z" fill="white"/>
<g opacity="0.5">
<path d="M26.4174 9.90542C26.3951 9.90777 26.69 8.44732 26.719 8.35737C27.0569 7.31581 28.3218 5.50101 29.5479 5.50336C30.4315 5.50492 31.0299 6.30907 30.9427 7.15233C30.8539 8.01357 30.0802 8.74771 29.3805 9.17168C28.5596 9.6688 26.4194 9.90503 26.4174 9.90542Z" fill="white"/>
<path d="M24.0429 0.0820269C25.1971 0.496224 25.7713 2.63213 25.7353 3.72688C25.7322 3.82153 25.5135 5.29528 25.4932 5.2855C25.4932 5.2855 25.4744 5.27611 25.4697 5.27377C25.5628 5.61013 25.659 5.97192 25.756 6.36969C25.9293 7.10499 26.1182 7.93769 26.2629 8.85761C26.41 9.77635 26.5437 10.7792 26.5891 11.8477C26.6364 12.919 26.6314 14.0482 26.4757 15.211C26.4741 15.2243 26.4706 15.2376 26.4687 15.2509C26.6196 14.9251 27.0729 14.0274 27.1156 13.9625C27.7163 13.0469 29.4154 11.6307 30.5977 11.9568C31.4496 12.1919 31.8145 13.1255 31.5075 13.9156C31.1942 14.7229 30.2543 15.2266 29.4678 15.4503C28.5807 15.703 26.6028 15.4046 26.4452 15.3803C26.2868 16.4864 26.0341 17.6085 25.7161 18.7299C25.535 19.3713 25.3328 20.0116 25.1216 20.6511C25.2613 20.3734 25.3884 20.1262 25.4099 20.0937C26.0107 19.1781 27.7097 17.7623 28.892 18.0881C29.7439 18.3231 30.1084 19.2563 29.8022 20.0468C29.4893 20.8541 28.549 21.3578 27.7625 21.5819C26.9642 21.8092 25.2726 21.5886 24.8259 21.5244C24.7422 21.7689 24.6617 22.0141 24.5772 22.2582C24.1724 23.4296 23.7629 24.5971 23.3964 25.7544C23.2669 26.162 23.1547 26.5683 23.0409 26.9747C23.1652 26.7283 23.272 26.5218 23.2916 26.4921C23.8923 25.5765 25.5914 24.1602 26.7737 24.4864C27.6256 24.7211 27.9905 25.6551 27.6835 26.4455C27.3706 27.2524 26.4303 27.7566 25.6438 27.9803C24.8819 28.197 23.319 28.0077 22.7874 27.9337C22.6834 28.353 22.5786 28.7731 22.4964 29.1842C22.4468 29.4662 22.3795 29.7341 22.3455 30.02C22.306 30.3024 22.2665 30.582 22.2277 30.8589C22.1726 31.3952 22.112 31.9478 22.0713 32.4719C22.04 32.8364 22.0173 33.1842 21.9931 33.5346C22.117 33.127 22.3764 32.3346 22.4057 32.2709C22.708 31.6091 23.457 30.6579 24.2827 30.1342C24.3269 30.0364 24.3793 29.9425 24.4411 29.8541C24.9272 29.1599 25.9062 28.944 26.575 29.5213C27.5036 30.3227 27.2712 32.5224 26.8445 33.5307C26.8195 33.5901 26.4737 34.205 26.2496 34.5894C26.4159 34.3833 26.5746 34.1815 26.7487 33.9719C27.0894 33.5545 27.4414 33.1482 27.8188 32.7093C28.0085 32.504 28.2001 32.2963 28.3937 32.0871C28.5811 31.8751 28.806 31.6752 29.0133 31.466C29.5041 30.9919 30.0243 30.5351 30.5586 30.0865C30.1941 29.7873 28.9139 28.7062 28.5459 27.9717C28.1794 27.2403 27.9158 26.2069 28.2995 25.431C28.675 24.671 29.6097 24.3092 30.3583 24.7786C31.3976 25.4298 31.5016 27.6396 31.2321 28.7011C31.2153 28.7672 30.9364 29.5072 30.7757 29.9109C31.0991 29.6437 31.4202 29.3754 31.7562 29.1161C32.7258 28.3667 33.7302 27.6384 34.7291 26.9071C35.0354 26.6833 35.3373 26.4565 35.6412 26.2308C35.5102 26.1256 33.9614 24.8736 33.5491 24.0507C33.1826 23.3197 32.919 22.286 33.3027 21.51C33.6782 20.75 34.613 20.3882 35.3616 20.8576C36.4008 21.5092 36.5044 23.7186 36.2353 24.7801C36.215 24.8599 35.8121 25.9242 35.6968 26.1901C36.3648 25.6926 37.0262 25.1908 37.6582 24.6695C38.5312 23.9514 39.3479 23.1988 40.0851 22.4107C40.0241 22.3618 38.4014 21.0625 37.9789 20.2197C37.6125 19.4883 37.3489 18.4549 37.7325 17.6789C38.108 16.919 39.0428 16.5572 39.7914 17.0266C40.8306 17.6782 40.9343 19.8876 40.6652 20.9491C40.6476 21.0187 40.3413 21.8307 40.1868 22.2128C40.2193 22.2332 40.2134 22.2296 40.2459 22.25C41.0258 21.3965 41.6735 20.4715 42.2371 19.5759C42.5644 19.0576 42.8488 18.5441 43.1136 18.0384C42.7866 17.8276 41.3027 16.8462 40.8388 16.1297C40.3945 15.4429 40.019 14.4448 40.3147 13.6312C40.6045 12.8345 41.494 12.3722 42.2895 12.7567C43.394 13.2902 43.7398 15.4746 43.5888 16.5592C43.5806 16.6182 43.4308 17.2084 43.3158 17.6371C43.432 17.4071 43.5559 17.1717 43.6627 16.9487C44.0664 16.1137 44.3839 15.324 44.6601 14.6223C44.8138 14.2222 44.9448 13.8573 45.0637 13.5147C44.8509 13.14 44.012 11.6201 43.9318 10.7858C43.8536 9.97152 43.9807 8.91275 44.6182 8.32685C45.2425 7.75347 46.2449 7.75308 46.7741 8.46062C47.5082 9.44312 46.8085 11.5411 46.1749 12.4344C46.1201 12.5115 45.1247 13.6203 45.1134 13.6007C45.1134 13.6007 45.1028 13.5823 45.1005 13.578C44.9925 13.9101 44.8732 14.2649 44.7348 14.6501C44.4735 15.3592 44.172 16.1579 43.7851 17.005C43.4007 17.8526 42.9595 18.7627 42.408 19.6791C41.8565 20.5987 41.2292 21.5377 40.4579 22.4217C40.4493 22.4318 40.4387 22.4408 40.4301 22.451C40.736 22.2625 41.6089 21.7642 41.6801 21.7337C42.6865 21.3015 44.8846 21.0578 45.6911 21.9817C46.2719 22.6474 46.0611 23.6275 45.3696 24.1176C44.6632 24.6182 43.6013 24.5196 42.8214 24.2725C41.9422 23.9936 40.4567 22.6536 40.339 22.5464C39.5966 23.3815 38.7671 24.1782 37.8831 24.9382C37.3782 25.3731 36.856 25.7959 36.3276 26.2128C36.5975 26.0583 36.8396 25.9222 36.8756 25.907C37.8819 25.4748 40.0804 25.2311 40.8865 26.1553C41.4674 26.821 41.2565 27.8012 40.565 28.2912C39.8587 28.7919 38.7968 28.6933 38.0169 28.4461C37.2256 28.195 35.9365 27.0784 35.5994 26.778C35.3948 26.936 35.1926 27.0956 34.9873 27.2528C34.0032 28.0065 33.0176 28.7543 32.0738 29.5174C31.741 29.7861 31.423 30.063 31.1038 30.3387C31.3436 30.2019 31.5466 30.0884 31.5794 30.0744C32.5858 29.6422 34.7843 29.3985 35.5904 30.3227C36.1712 30.9884 35.9604 31.9685 35.2685 32.4586C34.5621 32.9589 33.5002 32.8607 32.7203 32.6135C31.9655 32.3741 30.7663 31.3537 30.3638 30.999C30.0458 31.2915 29.7263 31.5837 29.4314 31.8813C29.2347 32.0894 29.0305 32.2756 28.8443 32.4954C28.6554 32.7089 28.4685 32.9205 28.2831 33.1302C27.9412 33.5467 27.5857 33.9746 27.2626 34.3892C27.0354 34.6759 26.8246 34.9532 26.611 35.2324C26.9392 34.961 27.5927 34.4432 27.6522 34.406C28.5811 33.8264 30.7174 33.2522 31.6545 34.0438C32.3296 34.6141 32.2698 35.6146 31.66 36.2036C31.0377 36.8051 29.9731 36.8689 29.1646 36.743C28.2748 36.6037 26.6642 35.5547 26.464 35.4225C26.1123 35.8852 25.7748 36.3385 25.4631 36.7715C24.3793 38.2699 23.5333 39.5586 22.9548 40.4676C22.9341 40.5001 22.9157 40.529 22.8962 40.5603L22.1456 40.1962C22.1843 40.1375 22.2219 40.0804 22.2637 40.0178C22.8692 39.1108 23.7511 37.8283 24.8787 36.3393C25.2339 35.868 25.6227 35.3717 26.0267 34.8656C25.9226 34.7518 25.3348 34.1009 24.8623 33.4239C24.0007 33.7614 22.2066 33.7747 21.9747 33.7751C21.9367 34.3548 21.9054 34.9192 21.8843 35.4523C21.8069 37.2999 21.8124 38.8417 21.8311 39.9189C21.8319 39.9631 21.8327 40.0022 21.8339 40.0448L21.009 39.6447C21.0172 38.5742 21.0497 37.1266 21.1588 35.4147C21.1948 34.8257 21.2452 34.1972 21.3031 33.5522C21.0743 33.4947 19.2087 33.0156 18.5043 32.4528C17.8652 31.9423 17.1928 31.1143 17.2159 30.2488C17.2386 29.4012 17.936 28.6812 18.8121 28.7938C20.0285 28.9499 21.0485 30.9125 21.2488 31.9893C21.2605 32.0526 21.3117 32.7563 21.3368 33.2006C21.3618 32.9374 21.3829 32.6812 21.4122 32.4101C21.4662 31.8743 21.5358 31.3408 21.6086 30.7666C21.6536 30.4905 21.6985 30.212 21.7447 29.9304C21.7842 29.6504 21.8612 29.3594 21.9187 29.0707C22.0666 28.4047 22.2485 27.7366 22.4468 27.0678C21.9774 27.0193 20.3136 26.8237 19.6014 26.4142C18.8923 26.0063 18.1022 25.2898 17.9942 24.4309C17.8882 23.59 18.4683 22.7721 19.3518 22.7506C20.578 22.7209 21.8835 24.5064 22.2445 25.5401C22.2672 25.6046 22.4428 26.3755 22.5312 26.8011C22.6537 26.3998 22.7733 25.9989 22.9106 25.5972C23.3057 24.4375 23.7418 23.2755 24.1716 22.1146C24.3034 21.7591 24.4305 21.4032 24.5592 21.0477C24.3922 21.0324 22.4092 20.8423 21.6117 20.3835C20.9026 19.976 20.1129 19.2591 20.0046 18.4002C19.8986 17.5593 20.4786 16.7414 21.3622 16.7203C22.5883 16.6906 23.8939 18.4761 24.2549 19.5098C24.2819 19.5876 24.5334 20.6972 24.5835 20.9827C24.8662 20.1989 25.1412 19.4155 25.3806 18.6325C25.7126 17.5522 25.9782 16.4735 26.1589 15.4101C26.0811 15.403 24.0108 15.2145 23.1938 14.7444C22.4847 14.3364 21.6946 13.6199 21.5867 12.761C21.4807 11.9201 22.0607 11.1026 22.9443 11.0811C24.1704 11.0514 25.476 12.8369 25.837 13.8706C25.8609 13.9387 26.0529 14.7835 26.135 15.1879C26.1737 15.1867 26.1663 15.1871 26.205 15.1859C26.3846 14.0443 26.4143 12.9155 26.3904 11.8575C26.3779 11.2446 26.3314 10.6595 26.2735 10.0916C25.8843 10.0959 24.1055 10.0963 23.3233 9.75445C22.5739 9.42708 21.7099 8.80167 21.5077 7.95959C21.3098 7.13511 21.7967 6.259 22.6724 6.14049C23.8876 5.97622 25.3813 7.60758 25.8538 8.59555C25.8796 8.64914 26.0803 9.22448 26.2207 9.64532C26.1906 9.38953 26.1644 9.12474 26.1307 8.8799C26.0063 7.96077 25.8362 7.12689 25.6794 6.38963C25.5867 5.97113 25.4948 5.59448 25.4048 5.24287C25.0207 5.04809 23.4824 4.24277 22.9552 3.59116C22.4409 2.9552 21.9626 2.00204 22.1714 1.16152C22.3756 0.336647 23.2114 -0.216789 24.0429 0.0820269Z" fill="white"/>
<path d="M46.2136 18.9861C45.2542 18.9477 43.3385 17.9641 43.337 17.9637C43.317 17.9535 44.3683 16.8979 44.4423 16.8388C45.2988 16.1563 47.3545 15.3408 48.3765 16.019C49.1126 16.5079 49.1682 17.5088 48.6304 18.1639C48.0812 18.8331 47.0307 19.0185 46.2136 18.9861Z" fill="white"/>
</g>
<path d="M35.0229 42.984C35.0229 42.984 29.2089 28.9655 25.9528 29.5748C22.6967 30.1842 31.5345 51.9235 31.5345 51.9235C31.5345 51.9235 21.3016 32.6225 14.3244 32.6225C7.34719 32.6225 16.8827 53.9554 25.7201 61.0659C25.7201 61.0659 11.7661 46.0317 3.62646 49.2823C-4.51355 52.5329 19.9061 67.7705 19.9061 67.7705C19.9061 67.7705 5.71974 63.3008 7.34758 66.7548C8.97543 70.2088 13.3943 70.8182 13.3943 70.8182L17.1369 71.6305H37.4752L40.6046 70.4114C40.6046 70.4114 53.6281 63.9102 50.1397 61.2689C46.6513 58.6277 38.9763 64.3166 38.9763 64.3166C38.9763 64.3166 52.2326 49.6886 49.6743 44.2028C47.116 38.7173 35.7203 54.158 35.7203 54.158C35.7203 54.158 45.0231 34.4506 43.1625 30.997C41.3023 27.543 35.0229 42.984 35.0229 42.984Z" fill="white"/>
<path opacity="0.4" d="M35.0229 42.984C35.0229 42.984 29.2089 28.9655 25.9528 29.5748C22.6967 30.1842 31.5345 51.9235 31.5345 51.9235C31.5345 51.9235 21.3016 32.6225 14.3244 32.6225C7.34719 32.6225 16.8827 53.9554 25.7201 61.0659C25.7201 61.0659 11.7661 46.0317 3.62646 49.2823C-4.51355 52.5329 19.9061 67.7705 19.9061 67.7705C19.9061 67.7705 5.71974 63.3008 7.34758 66.7548C8.97543 70.2088 13.3943 70.8182 13.3943 70.8182L19.4837 71.6305H35.9107L40.6046 70.4114C40.6046 70.4114 53.6281 63.9102 50.1397 61.2689C46.6513 58.6277 38.9763 64.3166 38.9763 64.3166C38.9763 64.3166 52.2326 49.6886 49.6743 44.2028C47.116 38.7173 35.7203 54.158 35.7203 54.158C35.7203 54.158 45.0231 34.4506 43.1625 30.997C41.3023 27.543 35.0229 42.984 35.0229 42.984Z" fill="white"/>
<path d="M36.8835 43.7225C31.7672 58.8393 31.7672 69.5376 31.7672 69.5376C31.7672 69.5376 37.8139 69.7699 44.0934 65.1187" stroke="#486F93" stroke-width="0.5" stroke-miterlimit="10" stroke-linecap="round" stroke-linejoin="round"/>
<path d="M34.3252 51.8625C34.3252 51.8625 33.1624 46.2808 30.139 38.6062" stroke="#486F93" stroke-width="0.5" stroke-miterlimit="10" stroke-linecap="round" stroke-linejoin="round"/>
<path d="M19.2083 43.0251L32.2319 62.3281C32.2319 62.3281 41.0696 54.8859 44.0926 50.6997" stroke="#486F93" stroke-width="0.5" stroke-miterlimit="10" stroke-linecap="round" stroke-linejoin="round"/>
<path d="M31.9995 66.9793C31.9995 66.9793 18.2782 60.4676 12.6965 56.7464" stroke="#486F93" stroke-width="0.5" stroke-miterlimit="10" stroke-linecap="round" stroke-linejoin="round"/>
<path d="M73.3027 11.687H70.4768V129.528H73.3027V11.687Z" fill="#486F93" stroke="#486F93" stroke-width="0.5" stroke-miterlimit="10" stroke-linecap="round" stroke-linejoin="round"/>
<path d="M22.4363 11.687H19.6105V129.528H22.4363V11.687Z" fill="#486F93" stroke="#486F93" stroke-width="0.5" stroke-miterlimit="10" stroke-linecap="round" stroke-linejoin="round"/>
<path d="M47.8692 11.687H45.0434V129.528H47.8692V11.687Z" fill="#486F93" stroke="#486F93" stroke-width="0.5" stroke-miterlimit="10" stroke-linecap="round" stroke-linejoin="round"/>
<path d="M98.7357 11.687H95.9099V129.528H98.7357V11.687Z" fill="#486F93" stroke="#486F93" stroke-width="0.5" stroke-miterlimit="10" stroke-linecap="round" stroke-linejoin="round"/>
<path d="M97.8881 15.3607H18.6975V20.73H97.8881V15.3607Z" fill="#486F93" stroke="#486F93" stroke-width="0.5" stroke-miterlimit="10" stroke-linecap="round" stroke-linejoin="round"/>
<path d="M97.8881 15.3607H46.925V20.73H97.8881V15.3607Z" fill="#486F93" stroke="#486F93" stroke-width="0.5" stroke-miterlimit="10" stroke-linecap="round" stroke-linejoin="round"/>
<path d="M97.8881 69.4305H18.6975V74.7998H97.8881V69.4305Z" fill="#486F93" stroke="#486F93" stroke-width="0.5" stroke-miterlimit="10" stroke-linecap="round" stroke-linejoin="round"/>
<path d="M97.8881 69.4305H46.925V74.7998H97.8881V69.4305Z" fill="#486F93" stroke="#486F93" stroke-width="0.5" stroke-miterlimit="10" stroke-linecap="round" stroke-linejoin="round"/>
<path d="M97.8881 123.5H18.6975V128.869H97.8881V123.5Z" fill="#486F93" stroke="#486F93" stroke-width="0.5" stroke-miterlimit="10" stroke-linecap="round" stroke-linejoin="round"/>
<path d="M97.8881 123.5H46.925V128.869H97.8881V123.5Z" fill="#486F93" stroke="#486F93" stroke-width="0.5" stroke-miterlimit="10" stroke-linecap="round" stroke-linejoin="round"/>
<path d="M46.936 94.6712H5.4928V129.484H46.936V94.6712Z" fill="white"/>
<mask id="mask0_2615_1674" style="mask-type:luminance" maskUnits="userSpaceOnUse" x="5" y="94" width="42" height="36">
<path d="M46.936 94.6712H5.4928V129.484H46.936V94.6712Z" fill="white"/>
</mask>
<g mask="url(#mask0_2615_1674)">
<path opacity="0.6" d="M46.936 94.6712H5.4928V129.484H46.936V94.6712Z" fill="white" stroke="#486F93" stroke-width="0.5" stroke-miterlimit="10" stroke-linecap="round" stroke-linejoin="round"/>
</g>
<path d="M46.936 94.6712H5.4928V129.484H46.936V94.6712Z" stroke="#486F93" stroke-width="0.5" stroke-miterlimit="10" stroke-linecap="round" stroke-linejoin="round"/>
<path d="M46.9365 94.6712H33.166V129.484H46.9365V94.6712Z" fill="white"/>
<mask id="mask1_2615_1674" style="mask-type:luminance" maskUnits="userSpaceOnUse" x="33" y="94" width="14" height="36">
<path d="M46.9365 94.6712H33.166V129.484H46.9365V94.6712Z" fill="white"/>
</mask>
<g mask="url(#mask1_2615_1674)">
<path opacity="0.39" d="M46.9365 94.6712H33.166V129.484H46.9365V94.6712Z" fill="white" stroke="#486F93" stroke-width="0.5" stroke-miterlimit="10" stroke-linecap="round" stroke-linejoin="round"/>
</g>
<path d="M46.9365 94.6712H33.166V129.484H46.9365V94.6712Z" stroke="#486F93" stroke-width="0.5" stroke-miterlimit="10" stroke-linecap="round" stroke-linejoin="round"/>
<path d="M40.1943 94.7651V129.528" stroke="#486F93" stroke-width="0.5" stroke-miterlimit="10" stroke-linecap="round" stroke-linejoin="round"/>
<path d="M49.0277 59.9111H7.58453V94.7236H49.0277V59.9111Z" fill="white"/>
<mask id="mask2_2615_1674" style="mask-type:luminance" maskUnits="userSpaceOnUse" x="7" y="59" width="43" height="36">
<path d="M49.0277 59.9111H7.58453V94.7236H49.0277V59.9111Z" fill="white"/>
</mask>
<g mask="url(#mask2_2615_1674)">
<path opacity="0.6" d="M49.0277 59.9111H7.58453V94.7236H49.0277V59.9111Z" fill="white" stroke="#486F93" stroke-width="0.5" stroke-miterlimit="10" stroke-linecap="round" stroke-linejoin="round"/>
</g>
<path d="M49.0277 59.9111H7.58453V94.7236H49.0277V59.9111Z" stroke="#486F93" stroke-width="0.5" stroke-miterlimit="10" stroke-linecap="round" stroke-linejoin="round"/>
<path d="M49.0282 59.9111H35.2576V94.7236H49.0282V59.9111Z" fill="white"/>
<mask id="mask3_2615_1674" style="mask-type:luminance" maskUnits="userSpaceOnUse" x="35" y="59" width="15" height="36">
<path d="M49.0282 59.9111H35.2576V94.7236H49.0282V59.9111Z" fill="white"/>
</mask>
<g mask="url(#mask3_2615_1674)">
<path opacity="0.39" d="M49.0282 59.9111H35.2576V94.7236H49.0282V59.9111Z" fill="white" stroke="#486F93" stroke-width="0.5" stroke-miterlimit="10" stroke-linecap="round" stroke-linejoin="round"/>
</g>
<path d="M49.0282 59.9111H35.2576V94.7236H49.0282V59.9111Z" stroke="#486F93" stroke-width="0.5" stroke-miterlimit="10" stroke-linecap="round" stroke-linejoin="round"/>
<path d="M42.2861 60.0054V94.7679" stroke="#486F93" stroke-width="0.5" stroke-miterlimit="10" stroke-linecap="round" stroke-linejoin="round"/>
<path d="M156.876 94.6711H115.433V129.484H156.876V94.6711Z" fill="white"/>
<mask id="mask4_2615_1674" style="mask-type:luminance" maskUnits="userSpaceOnUse" x="115" y="94" width="42" height="36">
<path d="M156.876 94.6711H115.433V129.484H156.876V94.6711Z" fill="white"/>
</mask>
<g mask="url(#mask4_2615_1674)">
<path opacity="0.6" d="M156.876 94.6711H115.433V129.484H156.876V94.6711Z" fill="white" stroke="#486F93" stroke-width="0.5" stroke-miterlimit="10" stroke-linecap="round" stroke-linejoin="round"/>
</g>
<path d="M156.876 94.6711H115.433V129.484H156.876V94.6711Z" stroke="#486F93" stroke-width="0.5" stroke-miterlimit="10" stroke-linecap="round" stroke-linejoin="round"/>
<path d="M156.876 94.6711H143.106V129.484H156.876V94.6711Z" fill="white"/>
<mask id="mask5_2615_1674" style="mask-type:luminance" maskUnits="userSpaceOnUse" x="143" y="94" width="14" height="36">
<path d="M156.876 94.6711H143.106V129.484H156.876V94.6711Z" fill="white"/>
</mask>
<g mask="url(#mask5_2615_1674)">
<path opacity="0.39" d="M156.876 94.6711H143.106V129.484H156.876V94.6711Z" fill="white" stroke="#486F93" stroke-width="0.5" stroke-miterlimit="10" stroke-linecap="round" stroke-linejoin="round"/>
</g>
<path d="M156.876 94.6711H143.106V129.484H156.876V94.6711Z" stroke="#486F93" stroke-width="0.5" stroke-miterlimit="10" stroke-linecap="round" stroke-linejoin="round"/>
<path d="M150.135 94.765V129.528" stroke="#486F93" stroke-width="0.5" stroke-miterlimit="10" stroke-linecap="round" stroke-linejoin="round"/>
<path d="M156.876 59.8219H115.433V94.6344H156.876V59.8219Z" fill="white"/>
<mask id="mask6_2615_1674" style="mask-type:luminance" maskUnits="userSpaceOnUse" x="115" y="59" width="42" height="36">
<path d="M156.876 59.8219H115.433V94.6344H156.876V59.8219Z" fill="white"/>
</mask>
<g mask="url(#mask6_2615_1674)">
<path opacity="0.6" d="M156.876 59.8219H115.433V94.6344H156.876V59.8219Z" fill="white" stroke="#486F93" stroke-width="0.5" stroke-miterlimit="10" stroke-linecap="round" stroke-linejoin="round"/>
</g>
<path d="M156.876 59.8219H115.433V94.6344H156.876V59.8219Z" stroke="#486F93" stroke-width="0.5" stroke-miterlimit="10" stroke-linecap="round" stroke-linejoin="round"/>
<path d="M156.876 59.8219H143.106V94.6344H156.876V59.8219Z" fill="white"/>
<mask id="mask7_2615_1674" style="mask-type:luminance" maskUnits="userSpaceOnUse" x="143" y="59" width="14" height="36">
<path d="M156.876 59.8219H143.106V94.6344H156.876V59.8219Z" fill="white"/>
</mask>
<g mask="url(#mask7_2615_1674)">
<path opacity="0.39" d="M156.876 59.8219H143.106V94.6344H156.876V59.8219Z" fill="white" stroke="#486F93" stroke-width="0.5" stroke-miterlimit="10" stroke-linecap="round" stroke-linejoin="round"/>
</g>
<path d="M156.876 59.8219H143.106V94.6344H156.876V59.8219Z" stroke="#486F93" stroke-width="0.5" stroke-miterlimit="10" stroke-linecap="round" stroke-linejoin="round"/>
<path d="M150.135 59.9162V94.6787" stroke="#486F93" stroke-width="0.5" stroke-miterlimit="10" stroke-linecap="round" stroke-linejoin="round"/>
<path d="M153.235 30.9963H118.953V59.7929H153.235V30.9963Z" fill="white"/>
<mask id="mask8_2615_1674" style="mask-type:luminance" maskUnits="userSpaceOnUse" x="118" y="30" width="36" height="30">
<path d="M153.235 30.9963H118.953V59.7929H153.235V30.9963Z" fill="white"/>
</mask>
<g mask="url(#mask8_2615_1674)">
<path opacity="0.6" d="M153.235 30.9963H118.953V59.7929H153.235V30.9963Z" fill="white" stroke="#486F93" stroke-width="0.5" stroke-miterlimit="10" stroke-linecap="round" stroke-linejoin="round"/>
</g>
<path d="M153.235 30.9963H118.953V59.7929H153.235V30.9963Z" stroke="#486F93" stroke-width="0.5" stroke-miterlimit="10" stroke-linecap="round" stroke-linejoin="round"/>
<path d="M153.235 30.9963H141.844V59.793H153.235V30.9963Z" fill="white"/>
<mask id="mask9_2615_1674" style="mask-type:luminance" maskUnits="userSpaceOnUse" x="141" y="30" width="13" height="30">
<path d="M153.235 30.9963H141.844V59.793H153.235V30.9963Z" fill="white"/>
</mask>
<g mask="url(#mask9_2615_1674)">
<path opacity="0.39" d="M153.235 30.9963H141.844V59.793H153.235V30.9963Z" fill="white" stroke="#486F93" stroke-width="0.5" stroke-miterlimit="10" stroke-linecap="round" stroke-linejoin="round"/>
</g>
<path d="M153.235 30.9963H141.844V59.793H153.235V30.9963Z" stroke="#486F93" stroke-width="0.5" stroke-miterlimit="10" stroke-linecap="round" stroke-linejoin="round"/>
<path d="M147.658 31.0741V59.8297" stroke="#486F93" stroke-width="0.5" stroke-miterlimit="10" stroke-linecap="round" stroke-linejoin="round"/>
<path d="M148.85 116.398H143.479V119.76H148.85V116.398Z" fill="white" stroke="#486F93" stroke-width="0.5" stroke-miterlimit="10" stroke-linecap="round" stroke-linejoin="round"/>
<path d="M98.3184 129.528C100.111 129.528 101.565 128.074 101.565 126.282C101.565 124.489 100.111 123.035 98.3184 123.035C96.5255 123.035 95.0721 124.489 95.0721 126.282C95.0721 128.074 96.5255 129.528 98.3184 129.528Z" fill="#486F93" stroke="#486F93" stroke-width="0.5" stroke-miterlimit="10" stroke-linecap="round" stroke-linejoin="round"/>
<path d="M151.741 72.5481H149.823V126.354H151.741V72.5481Z" fill="#486F93" stroke="#486F93" stroke-width="0.5" stroke-miterlimit="10" stroke-linecap="round" stroke-linejoin="round"/>
<path d="M150.718 91.3692L146.183 87.765C142.25 84.6388 140.496 79.4689 141.715 74.5948C142.076 73.1512 143.368 72.1425 144.856 72.1425H156.58C158.068 72.1425 159.36 73.1508 159.721 74.5948C160.94 79.4689 159.185 84.6388 155.252 87.765L150.718 91.3692ZM144.856 73.9764C144.211 73.9764 143.651 74.4133 143.495 75.0395C142.45 79.2178 143.953 83.6492 147.325 86.3292L150.718 89.0264L154.111 86.3292C157.483 83.6492 158.987 79.2178 157.942 75.0395C157.786 74.4137 157.226 73.9764 156.581 73.9764H144.856Z" fill="#486F93"/>
<path d="M139.463 118.079H80.1188V124.985H139.463V118.079Z" fill="white"/>
<mask id="mask10_2615_1674" style="mask-type:luminance" maskUnits="userSpaceOnUse" x="80" y="118" width="60" height="7">
<path d="M139.463 118.079H80.1188V124.985H139.463V118.079Z" fill="white"/>
</mask>
<g mask="url(#mask10_2615_1674)">
<path opacity="0.28" d="M139.463 118.079H80.1188V124.985H139.463V118.079Z" fill="#486F93" stroke="#486F93" stroke-width="0.5" stroke-miterlimit="10" stroke-linecap="round" stroke-linejoin="round"/>
</g>
<path d="M139.463 118.079H80.1188V124.985H139.463V118.079Z" stroke="#486F93" stroke-width="0.5" stroke-miterlimit="10" stroke-linecap="round" stroke-linejoin="round"/>
<path d="M86.7694 118.079H80.1188V124.985H86.7694V118.079Z" stroke="#486F93" stroke-width="0.5" stroke-miterlimit="10" stroke-linecap="round" stroke-linejoin="round"/>
<path d="M139.463 118.079H132.812V124.985H139.463V118.079Z" stroke="#486F93" stroke-width="0.5" stroke-miterlimit="10" stroke-linecap="round" stroke-linejoin="round"/>
<path d="M113.116 118.079H106.465V124.985H113.116V118.079Z" stroke="#486F93" stroke-width="0.5" stroke-miterlimit="10" stroke-linecap="round" stroke-linejoin="round"/>
<path d="M139.463 124.985H143.555L148.671 105.545H144.579L139.463 124.985Z" fill="white" stroke="#486F93" stroke-width="0.5" stroke-miterlimit="10" stroke-linecap="round" stroke-linejoin="round"/>
<path d="M153.468 113.73H148.096V122.427H153.468V113.73Z" fill="white" stroke="#486F93" stroke-width="0.5" stroke-miterlimit="10" stroke-linecap="round" stroke-linejoin="round"/>
<path d="M149.466 129.528C148.828 129.528 148.312 129.011 148.312 128.374V124.045C148.312 123.407 148.828 122.891 149.466 122.891C150.103 122.891 150.62 123.407 150.62 124.045V128.374C150.62 129.011 150.103 129.528 149.466 129.528Z" fill="#486F93"/>
<path d="M152.207 129.528C151.569 129.528 151.053 129.011 151.053 128.374V124.045C151.053 123.407 151.569 122.891 152.207 122.891C152.845 122.891 153.361 123.407 153.361 124.045V128.374C153.361 129.011 152.845 129.528 152.207 129.528Z" fill="#486F93"/>
<path d="M0.25 129.528H162.1" stroke="#486F93" stroke-width="0.5" stroke-miterlimit="10" stroke-linecap="round" stroke-linejoin="round"/>
<path d="M56.0876 140.828C71.6918 140.828 84.3414 139.291 84.3414 137.394C84.3414 135.498 71.6918 133.96 56.0876 133.96C40.4835 133.96 27.8339 135.498 27.8339 137.394C27.8339 139.291 40.4835 140.828 56.0876 140.828Z" fill="#EBEBEB"/>
<path opacity="0.5" d="M56.0876 140.828C71.6918 140.828 84.3414 139.291 84.3414 137.394C84.3414 135.498 71.6918 133.96 56.0876 133.96C40.4835 133.96 27.8339 135.498 27.8339 137.394C27.8339 139.291 40.4835 140.828 56.0876 140.828Z" fill="#EAEAEA"/>
<path d="M114.556 137.394C114.556 138.34 108.25 139.106 100.472 139.106C92.693 139.106 86.3873 138.34 86.3873 137.394C86.3873 136.449 92.693 135.682 100.472 135.682C108.25 135.682 114.556 136.449 114.556 137.394Z" fill="#EBEBEB"/>
<path opacity="0.5" d="M114.556 137.394C114.556 138.34 108.25 139.106 100.472 139.106C92.693 139.106 86.3873 138.34 86.3873 137.394C86.3873 136.449 92.693 135.682 100.472 135.682C108.25 135.682 114.556 136.449 114.556 137.394Z" fill="#EBEBEB"/>
<path d="M61.7153 24.2631C61.7153 24.2631 59.5301 22.5461 57.0328 23.4046C54.5355 24.2631 52.6233 28.4383 51.9599 31.8329C51.2966 35.2278 48.6824 37.8029 49.3066 41.7834C49.9308 45.7634 54.4573 46.3876 59.9204 46.9732C65.3832 47.5587 68.3487 46.8953 70.9242 43.3052C73.4998 39.7155 72.407 35.3451 70.8851 31.482C69.3633 27.6189 66.8268 24.0292 64.7199 23.3659C62.6125 22.7025 61.7153 24.2631 61.7153 24.2631Z" fill="#486F93" stroke="#486F93" stroke-width="0.5" stroke-miterlimit="10" stroke-linecap="round" stroke-linejoin="round"/>
<path d="M52.689 44.6933C53.3226 44.9765 53.8338 45.0829 53.8338 45.0829" stroke="white" stroke-miterlimit="10" stroke-linecap="round" stroke-linejoin="round"/>
<path d="M61.1766 27.0444C61.1766 27.0444 60.0592 29.758 57.8243 32.6315C55.5895 35.5047 50.641 38.2187 50.3219 41.2518C50.2206 42.2144 50.5374 42.9516 51.0169 43.5102" stroke="white" stroke-miterlimit="10" stroke-linecap="round" stroke-linejoin="round"/>
<path d="M70.2538 41.4674C70.1005 41.826 69.8979 42.1812 69.6374 42.5285" stroke="white" stroke-miterlimit="10" stroke-linecap="round" stroke-linejoin="round"/>
<path d="M68.3604 33.9086C68.3604 33.9086 70.8784 36.8138 70.634 39.9091" stroke="white" stroke-miterlimit="10" stroke-linecap="round" stroke-linejoin="round"/>
<path d="M60.6979 25.4482C60.6979 25.4482 57.6648 24.9695 55.4299 27.5235C55.3423 27.6236 55.2586 27.7249 55.1792 27.8274" stroke="white" stroke-miterlimit="10" stroke-linecap="round" stroke-linejoin="round"/>
<path d="M46.2707 99.167L45.7838 106.693C45.7838 106.693 43.703 116.787 43.0389 120.948C42.3748 125.11 41.1795 131.44 40.9581 131.44C40.7368 131.44 37.151 133.61 35.9999 135.381C34.8488 137.152 36.3097 137.904 37.9035 137.328C39.4973 136.753 41.6664 135.159 42.3748 133.255C43.0831 131.352 43.4374 130.643 43.4816 130.334C43.5258 130.024 51.0964 109.703 51.8489 107.534C52.6014 105.365 54.1952 98.9895 54.1952 98.9895L57.914 86.3723C57.914 86.3723 61.8983 99.3438 61.9425 99.9192C61.9867 100.495 66.0599 133.654 66.2367 134.893C66.4138 136.133 66.3696 137.018 67.1222 137.284C67.8747 137.549 69.6457 137.549 70.5754 137.549C71.505 137.549 74.7369 138.036 76.3307 137.638C77.9245 137.239 78.1017 136.974 76.9948 136.177C75.888 135.38 69.7395 134.869 69.1587 132.546C69.1145 132.369 69.0703 98.2366 69.0703 98.2366C69.0703 98.2366 68.5392 86.9476 67.6537 83.76H47.2004L46.2707 99.167Z" fill="white" stroke="#486F93" stroke-width="0.5" stroke-miterlimit="10" stroke-linecap="round" stroke-linejoin="round"/>
<path d="M37.9034 137.329C39.4972 136.753 41.6664 135.16 42.3747 133.256C42.4267 133.116 42.476 132.985 42.5241 132.858C41.6214 133.82 40.161 135.159 40.161 135.159C40.161 135.159 40.0284 134.407 39.5856 133.92C39.1429 133.433 38.5675 133.61 38.5675 133.61L40.1152 131.89C38.9278 132.618 36.8302 134.103 35.9998 135.381C34.8488 137.152 36.3096 137.904 37.9034 137.329Z" fill="#486F93" stroke="#486F93" stroke-width="0.5" stroke-miterlimit="10" stroke-linecap="round" stroke-linejoin="round"/>
<path d="M76.9947 136.178C76.2371 135.632 73.1183 135.221 71.0387 134.271C70.9543 134.346 70.8827 134.436 70.8412 134.54C70.664 134.982 70.5315 135.691 70.5315 135.691L66.2205 134.772C66.2276 134.824 66.2334 134.868 66.237 134.894C66.4141 136.133 66.3695 137.019 67.1224 137.284C67.875 137.55 69.646 137.55 70.5757 137.55C71.5053 137.55 74.7372 138.037 76.331 137.638C77.9244 137.24 78.1012 136.975 76.9947 136.178Z" fill="#486F93" stroke="#486F93" stroke-width="0.5" stroke-miterlimit="10" stroke-linecap="round" stroke-linejoin="round"/>
<path d="M52.2329 65.4302C52.2329 65.4302 50.2038 66.3665 47.7456 70.776C45.0602 75.5927 45.5213 78.2679 45.4826 84.0819C45.4435 89.896 45.3265 99.5343 45.3265 99.5343C45.3265 99.5343 52.7406 101.524 58.0865 101.212C63.4323 100.9 70.183 99.6904 70.183 99.6904C70.183 99.6904 68.7394 80.0241 67.3736 74.3661C66.0078 68.7082 65.1884 66.1717 65.1884 66.1717C65.1884 66.1717 61.7548 66.7569 57.2283 66.2887C52.7015 65.8205 52.2329 65.4302 52.2329 65.4302Z" fill="#486F93" stroke="#486F93" stroke-width="0.5" stroke-miterlimit="10" stroke-linecap="round" stroke-linejoin="round"/>
<path d="M60.7809 82.8065C60.9843 83.4764 61.1717 84.1539 61.3367 84.8309" stroke="white" stroke-miterlimit="10" stroke-linecap="round" stroke-linejoin="round"/>
<path d="M56.0687 71.7413C56.0687 71.7413 58.3642 75.8336 60.1145 80.782" stroke="white" stroke-miterlimit="10" stroke-linecap="round" stroke-linejoin="round"/>
<path d="M102.056 61.6764C101.821 61.5204 97.9789 60.9169 97.9789 60.9169L97.2264 60.6071C97.2264 60.6071 101.88 60.9795 101.919 60.7843C101.958 60.5891 102.114 60.3552 101.802 60.3161C101.49 60.277 95.5 59.0579 95.5 59.0579C95.5 59.0579 97.0218 57.6186 97.217 57.3064C97.4122 56.9943 97.6852 56.3701 97.373 56.3701C97.0609 56.3701 96.9827 56.5653 96.5536 56.8383C96.1246 57.1113 94.4467 57.7746 93.9781 58.165C93.5099 58.5553 92.105 59.5699 92.105 59.5699L75.8434 57.3315C75.8434 57.3315 70.1323 50.2925 68.8928 48.7871C67.6533 47.282 65.9707 46.131 65.9707 46.131C64.7755 45.5998 64.8197 46.4853 64.8197 46.4853L67.299 57.5974C67.299 57.5974 73.7626 61.4492 74.1608 61.4492C74.5594 61.4492 92.0268 62.0284 92.0268 62.0284C92.0268 62.0284 93.1974 62.5748 93.939 63.043C94.6806 63.5112 99.3627 64.9939 99.3627 64.9939C99.3627 64.9939 99.6748 64.8379 99.3236 64.5649C98.9723 64.2919 96.7093 63.1991 96.7093 63.1991L101.392 64.2136C101.392 64.2136 101.665 64.0185 101.548 63.8233C101.431 63.6281 97.2557 62.0284 97.2557 62.0284L101.938 62.2627C101.939 62.2619 102.29 61.8325 102.056 61.6764Z" fill="white" stroke="#486F93" stroke-width="0.5" stroke-miterlimit="10" stroke-linecap="round" stroke-linejoin="round"/>
<path d="M74.8629 56.123C73.1748 54.0434 69.8104 49.9007 68.8929 48.7867C67.6534 47.2817 65.9708 46.1306 65.9708 46.1306C64.7755 45.5995 64.8197 46.485 64.8197 46.485L67.299 57.5971C67.299 57.5971 70.2156 59.3349 72.2514 60.4762L74.8629 56.123Z" fill="white" stroke="#486F93" stroke-width="0.5" stroke-miterlimit="10" stroke-linecap="round" stroke-linejoin="round"/>
<path d="M57.5788 45.1783C57.5788 45.1783 54.1839 45.3343 52.1161 47.6365C50.0482 49.9386 50.2821 55.0115 51.1406 58.0552C51.9991 61.0989 53.0915 62.7768 52.8576 63.8304C52.6233 64.8841 51.7652 65.2354 52.2334 66.2108C52.7016 67.1863 55.394 68.2399 60.1548 68.0839C64.9151 67.9278 65.8127 66.9133 65.8518 66.0156C65.8909 65.118 65.5397 64.3768 65.6567 63.8304C65.7736 63.2841 69.2077 60.2407 69.2077 56.8849C69.2077 53.5291 67.7249 52.3585 67.3737 49.9394C67.0225 47.5199 67.1394 47.1691 65.6958 46.1154C64.2514 45.0613 59.491 44.5149 57.5788 45.1783Z" fill="white" stroke="#486F93" stroke-width="0.5" stroke-miterlimit="10" stroke-linecap="round" stroke-linejoin="round"/>
<path d="M56.0385 56.8273C56.0385 56.8273 54.1666 58.4184 52.2951 59.167" stroke="#486F93" stroke-width="0.5" stroke-miterlimit="10" stroke-linecap="round" stroke-linejoin="round"/>
<path d="M56.4133 57.2017C56.4133 57.2017 55.5708 59.9157 53.512 61.4133" stroke="#486F93" stroke-width="0.5" stroke-miterlimit="10" stroke-linecap="round" stroke-linejoin="round"/>
<path d="M64.8367 47.6364L65.2271 51.3826L63.5879 49.4704L64.8367 47.6364Z" fill="white" stroke="#486F93" stroke-width="0.5" stroke-miterlimit="10" stroke-linecap="round" stroke-linejoin="round"/>
<path d="M62.6516 51.6947L64.8367 47.6365L62.8467 45.4904L62.6516 51.6947Z" fill="white" stroke="#486F93" stroke-width="0.5" stroke-miterlimit="10" stroke-linecap="round" stroke-linejoin="round"/>
<path d="M58.4373 38.5449C58.4373 38.5449 59.0228 40.7692 58.9445 42.681C58.8663 44.5928 58.6715 45.3734 58.6715 45.3734L62.6516 51.6947L63.7831 45.8416L64.5247 41.7833C64.5247 41.7833 59.9982 41.5103 58.4373 38.5449Z" fill="white" stroke="#486F93" stroke-width="0.5" stroke-miterlimit="10" stroke-linecap="round" stroke-linejoin="round"/>
<path d="M62.4172 48.2998L62.6515 51.6947L61.4809 49.8608L62.4172 48.2998Z" fill="white" stroke="#486F93" stroke-width="0.5" stroke-miterlimit="10" stroke-linecap="round" stroke-linejoin="round"/>
<path d="M57.3448 45.2174L60.9737 51.7338L62.4173 48.2998L58.5546 42.9931L57.3448 45.2174Z" fill="white" stroke="#486F93" stroke-width="0.5" stroke-miterlimit="10" stroke-linecap="round" stroke-linejoin="round"/>
<path d="M120.933 48.2556H87.9958V75.2832H120.933V48.2556Z" fill="white"/>
<mask id="mask11_2615_1674" style="mask-type:luminance" maskUnits="userSpaceOnUse" x="87" y="48" width="34" height="28">
<path d="M120.933 48.2556H87.9958V75.2832H120.933V48.2556Z" fill="white"/>
</mask>
<g mask="url(#mask11_2615_1674)">
<path opacity="0.2" d="M120.933 48.2556H87.9958V75.2832H120.933V48.2556Z" fill="#486F93"/>
</g>
<path d="M120.933 48.2556H87.9958V75.2832H120.933V48.2556Z" stroke="#486F93" stroke-width="0.5" stroke-miterlimit="10" stroke-linecap="round" stroke-linejoin="round"/>
<path d="M113.961 48.2556H81.0234V75.2832H113.961V48.2556Z" fill="white" stroke="#486F93" stroke-width="0.5" stroke-miterlimit="10" stroke-linecap="round" stroke-linejoin="round"/>
<path d="M126.357 84.3807C125.302 82.706 120.934 75.2833 120.934 75.2833H113.961L117.549 84.3807H126.357Z" fill="white"/>
<mask id="mask12_2615_1674" style="mask-type:luminance" maskUnits="userSpaceOnUse" x="113" y="75" width="14" height="10">
<path d="M126.357 84.3807C125.302 82.706 120.934 75.2833 120.934 75.2833H113.961L117.549 84.3807H126.357Z" fill="white"/>
</mask>
<g mask="url(#mask12_2615_1674)">
<path opacity="0.2" d="M126.357 84.3807C125.302 82.706 120.934 75.2833 120.934 75.2833H113.961L117.549 84.3807H126.357Z" fill="#486F93"/>
</g>
<path d="M126.357 84.3807C125.302 82.706 120.934 75.2833 120.934 75.2833H113.961L117.549 84.3807H126.357Z" stroke="#486F93" stroke-width="0.5" stroke-miterlimit="10" stroke-linecap="round" stroke-linejoin="round"/>
<path d="M75.5782 84.3807C76.6331 82.706 81.0011 75.2833 81.0011 75.2833H87.9736L84.3859 84.3807H75.5782Z" fill="white" stroke="#486F93" stroke-width="0.5" stroke-miterlimit="10" stroke-linecap="round" stroke-linejoin="round"/>
<path d="M81.0012 75.2829L77.9688 84.3808H112.367L113.961 75.2829H81.0012Z" fill="white" stroke="#486F93" stroke-width="0.5" stroke-miterlimit="10" stroke-linecap="round" stroke-linejoin="round"/>
<path d="M125.172 58.0364V67.0846" stroke="#486F93" stroke-width="0.5" stroke-miterlimit="10" stroke-linecap="round" stroke-linejoin="round"/>
<path d="M126.884 61.9492V69.2859" stroke="#486F93" stroke-width="0.5" stroke-miterlimit="10" stroke-linecap="round" stroke-linejoin="round"/>
<path d="M77.4834 67.0847V72.7094" stroke="#486F93" stroke-width="0.5" stroke-miterlimit="10" stroke-linecap="round" stroke-linejoin="round"/>
<path d="M76.0163 70.264V74.6661" stroke="#486F93" stroke-width="0.5" stroke-miterlimit="10" stroke-linecap="round" stroke-linejoin="round"/>
<path d="M51.9209 54.8945C51.9209 54.8945 53.5988 56.8845 55.9401 58.2894C58.2813 59.6944 66.9047 64.5716 67.5681 64.845C68.2314 65.118 88.7954 61.7622 88.7954 61.7622C88.7954 61.7622 89.966 62.3086 90.7076 62.7768C91.4491 63.245 96.1316 64.7277 96.1316 64.7277C96.1316 64.7277 96.4437 64.5716 96.0925 64.2986C95.7413 64.0256 93.4783 62.9328 93.4783 62.9328L98.1608 63.9474C98.1608 63.9474 98.4338 63.7522 98.3168 63.5571C98.1999 63.3619 94.0247 61.7622 94.0247 61.7622L98.7072 61.9961C98.7072 61.9961 99.0584 61.567 98.8241 61.411C98.5898 61.2549 93.7904 60.1621 93.7904 60.1621C93.7904 60.1621 98.9019 59.7331 98.9411 59.5379C98.9802 59.3427 99.1362 59.1085 98.8241 59.0697C98.512 59.0306 92.1125 58.4064 92.1125 58.4064C92.1125 58.4064 93.7904 57.3527 93.9855 57.0406C94.1807 56.7285 94.4537 56.1043 94.1416 56.1043C93.8295 56.1043 93.7513 56.2994 93.3222 56.5724C92.8931 56.8454 91.2152 57.5088 90.7467 57.8991C90.2785 58.2894 88.8736 59.304 88.8736 59.304L70.0658 59.3431L58.3986 50.1342" fill="white"/>
<path d="M51.9209 54.8945C51.9209 54.8945 53.5988 56.8845 55.9401 58.2894C58.2813 59.6944 66.9047 64.5716 67.5681 64.845C68.2314 65.118 88.7954 61.7622 88.7954 61.7622C88.7954 61.7622 89.966 62.3086 90.7076 62.7768C91.4491 63.2449 96.1316 64.7277 96.1316 64.7277C96.1316 64.7277 96.4437 64.5716 96.0925 64.2986C95.7413 64.0256 93.4783 62.9328 93.4783 62.9328L98.1608 63.9474C98.1608 63.9474 98.4338 63.7522 98.3168 63.5571C98.1999 63.3619 94.0247 61.7622 94.0247 61.7622L98.7072 61.9961C98.7072 61.9961 99.0584 61.567 98.8241 61.411C98.5898 61.2549 93.7904 60.1621 93.7904 60.1621C93.7904 60.1621 98.9019 59.7331 98.9411 59.5379C98.9802 59.3427 99.1362 59.1085 98.8241 59.0697C98.512 59.0306 92.1125 58.4064 92.1125 58.4064C92.1125 58.4064 93.7904 57.3527 93.9855 57.0406C94.1807 56.7285 94.4537 56.1043 94.1416 56.1043C93.8295 56.1043 93.7513 56.2994 93.3222 56.5724C92.8931 56.8454 91.2152 57.5088 90.7467 57.8991C90.2785 58.2894 88.8736 59.304 88.8736 59.304L70.0658 59.3431L58.3986 50.1342" stroke="#486F93" stroke-width="0.5" stroke-miterlimit="10" stroke-linecap="round" stroke-linejoin="round"/>
<path d="M98.8237 59.0698C98.5116 59.0306 92.1121 58.4064 92.1121 58.4064C92.1121 58.4064 93.79 57.3527 93.9852 57.0406C94.1804 56.7285 94.4534 56.1043 94.1413 56.1043C93.8291 56.1043 93.7509 56.2994 93.3219 56.5724C92.8928 56.8454 91.2149 57.5088 90.7463 57.8991C90.2781 58.2895 88.8732 59.304 88.8732 59.304L70.0654 59.3431L67.9706 57.6895C67.1727 59.0615 65.7248 61.6359 64.7736 63.333C66.2379 64.1492 67.3471 64.7539 67.5685 64.845C68.2318 65.118 88.7958 61.7622 88.7958 61.7622C88.7958 61.7622 89.9664 62.3086 90.708 62.7768C91.4496 63.245 96.1321 64.7277 96.1321 64.7277C96.1321 64.7277 96.4442 64.5716 96.0929 64.2986C95.7417 64.0256 93.4787 62.9329 93.4787 62.9329L98.1612 63.9474C98.1612 63.9474 98.4342 63.7523 98.3173 63.5571C98.2003 63.3619 94.0251 61.7622 94.0251 61.7622L98.7076 61.9965C98.7076 61.9965 99.0588 61.5671 98.8245 61.411C98.5903 61.2549 93.7908 60.1625 93.7908 60.1625C93.7908 60.1625 98.9024 59.7335 98.9415 59.5383C98.9802 59.3428 99.1363 59.1089 98.8237 59.0698Z" fill="white" stroke="#486F93" stroke-width="0.5" stroke-miterlimit="10" stroke-linecap="round" stroke-linejoin="round"/>
<path d="M67.3342 35.2669C67.3342 35.15 68.1145 34.7596 68.3097 35.5012C68.5048 36.2428 68.1145 37.4912 67.6854 37.9207C67.2564 38.3501 66.866 38.4671 66.866 37.9207C66.866 37.3743 67.3342 35.2669 67.3342 35.2669Z" fill="white" stroke="#486F93" stroke-width="0.5" stroke-miterlimit="10" stroke-linecap="round" stroke-linejoin="round"/>
<path d="M62.5301 28.4289C62.5301 28.4289 62.4534 31.3373 60.2342 33.4802C58.0146 35.6232 56.025 36.6182 56.025 36.6182C56.025 36.6182 56.2546 37.8428 56.7137 38.2253C57.1729 38.6078 58.0913 38.5315 58.0913 38.5315C58.0913 38.5315 58.78 40.6745 60.6167 42.3583C62.4534 44.042 64.5964 43.8891 65.821 41.3633C67.0456 38.8378 67.6577 36.3119 67.5048 34.8577C67.3518 33.4036 67.3518 33.4036 67.3518 33.4036C67.3518 33.4036 63.3718 31.1839 62.5301 28.4289Z" fill="white" stroke="#486F93" stroke-width="0.5" stroke-miterlimit="10" stroke-linecap="round" stroke-linejoin="round"/>
<path d="M62.2989 35.9925C62.4929 35.9925 62.6501 35.713 62.6501 35.3682C62.6501 35.0235 62.4929 34.744 62.2989 34.744C62.1049 34.744 61.9477 35.0235 61.9477 35.3682C61.9477 35.713 62.1049 35.9925 62.2989 35.9925Z" fill="#486F93"/>
<path d="M64.2107 40.9871C64.4047 40.9871 64.562 40.7076 64.562 40.3629C64.562 40.0181 64.4047 39.7386 64.2107 39.7386C64.0168 39.7386 63.8595 40.0181 63.8595 40.3629C63.8595 40.7076 64.0168 40.9871 64.2107 40.9871Z" fill="#486F93"/>
<path d="M65.6935 35.9925C65.8875 35.9925 66.0447 35.713 66.0447 35.3682C66.0447 35.0235 65.8875 34.744 65.6935 34.744C65.4995 34.744 65.3423 35.0235 65.3423 35.3682C65.3423 35.713 65.4995 35.9925 65.6935 35.9925Z" fill="#486F93"/>
<path d="M64.9914 34.7049C64.9914 34.7049 64.7571 35.4852 64.8744 36.1485C64.9914 36.8119 65.5378 37.9434 65.0696 38.1385C64.6014 38.3337 63.9768 38.2555 63.7429 37.9825" stroke="#486F93" stroke-width="0.5" stroke-miterlimit="10" stroke-linecap="round" stroke-linejoin="round"/>
<path d="M61.284 34.2406C61.284 34.2406 61.4686 33.0407 63.0378 33.1791" stroke="#486F93" stroke-width="0.5" stroke-miterlimit="10" stroke-linecap="round" stroke-linejoin="round"/>
<path d="M65.4842 33.5483C65.4842 33.5483 66.9462 32.3703 67.4206 34.5187" stroke="#486F93" stroke-width="0.5" stroke-miterlimit="10" stroke-linecap="round" stroke-linejoin="round"/>
</svg>
