<svg width="129" height="111" viewBox="0 0 129 111" fill="none" xmlns="http://www.w3.org/2000/svg">
<path d="M57.1592 93.6963C56.805 92.8998 55.8671 90.7909 55.4767 89.9131C55.3659 89.664 55.228 89.3893 54.9691 89.3039C54.6181 89.1882 54.2784 89.4791 54.0013 89.7236C53.1396 90.4838 52.705 91.1179 53.6445 92.0733C54.2708 92.7103 56.8971 93.1071 57.1592 93.6963Z" fill="#CCCCCC"/>
<path d="M112.758 31.9339C112.919 32.8016 113.248 33.6385 113.726 34.3804C114.944 36.2717 117.191 37.4746 119.439 37.3649C121.686 37.2552 123.833 35.8022 124.703 33.7275C125.574 31.6529 125.08 29.0599 123.458 27.5007C125.72 31.7722 122.359 36.7713 117.772 36.2972C115.646 36.0774 113.702 34.5299 113.057 32.4914" fill="#CCCCCC"/>
<path d="M118.578 31.4059C118.912 31.4059 119.183 31.1256 119.183 30.7799C119.183 30.4341 118.912 30.1538 118.578 30.1538C118.243 30.1538 117.973 30.4341 117.973 30.7799C117.973 31.1256 118.243 31.4059 118.578 31.4059Z" fill="#486F93"/>
<path d="M118.578 31.7826C118.037 31.7826 117.596 31.3328 117.596 30.7798C117.596 30.2269 118.037 29.7769 118.578 29.7769C119.119 29.7769 119.56 30.2269 119.56 30.7798C119.56 31.3328 119.119 31.7826 118.578 31.7826ZM118.578 30.5306C118.452 30.5306 118.35 30.6425 118.35 30.7798C118.35 30.9172 118.452 31.029 118.578 31.029C118.704 31.029 118.806 30.9172 118.806 30.7798C118.806 30.6424 118.704 30.5306 118.578 30.5306Z" fill="#486F93"/>
<path d="M118.536 30.7392C118.328 30.7392 118.16 30.5706 118.16 30.3624V27.3155C118.16 27.1074 118.328 26.9387 118.536 26.9387C118.744 26.9387 118.913 27.1074 118.913 27.3155V30.3624C118.913 30.5705 118.744 30.7392 118.536 30.7392Z" fill="#486F93"/>
<path d="M120.222 33.2908L118.666 31.7349C118.519 31.5878 118.519 31.3491 118.666 31.202C118.813 31.0548 119.052 31.0548 119.199 31.202L120.755 32.7579C120.902 32.905 120.902 33.1437 120.755 33.2908C120.608 33.438 120.369 33.438 120.222 33.2908Z" fill="#486F93"/>
<path d="M127.363 30.7785C127.157 30.7785 126.989 30.6128 126.986 30.4061C126.949 27.2302 125.019 24.1336 122.185 22.7009C121.999 22.6069 121.924 22.3803 122.018 22.1945C122.112 22.0088 122.339 21.9347 122.525 22.0282C125.603 23.5845 127.699 26.9477 127.74 30.3973C127.742 30.6053 127.575 30.776 127.367 30.7785C127.366 30.7785 127.365 30.7785 127.363 30.7785Z" fill="#486F93"/>
<path d="M128.257 25.5834C127.976 24.44 127.311 23.4114 126.383 22.6872C126.219 22.5591 126.19 22.3222 126.318 22.1582C126.446 21.994 126.682 21.9649 126.847 22.093C127.907 22.921 128.668 24.0968 128.989 25.4038C129.039 25.6058 128.915 25.81 128.713 25.8595C128.513 25.9091 128.307 25.787 128.257 25.5834Z" fill="#486F93"/>
<path d="M70.7356 108.875C70.5416 108.8 70.4452 108.582 70.5205 108.388C70.7312 107.844 70.8267 107.174 70.8046 106.394C70.7651 105.072 70.8612 104.384 70.9368 102.94C70.9476 102.733 71.1235 102.571 71.3328 102.584C71.5405 102.595 71.7003 102.772 71.6895 102.98C71.6151 104.398 71.52 105.1 71.5577 106.372C71.583 107.253 71.4704 108.023 71.2231 108.66C71.1474 108.855 70.9281 108.95 70.7356 108.875Z" fill="#486F93"/>
<path d="M110.749 61.2108C110.958 61.339 111.779 62.4052 112.02 62.3676C112.46 62.2992 112.277 61.4325 112.268 60.9871C112.259 60.5417 112.509 59.5218 112.834 59.2171C112.588 59.4491 109.021 58.3111 108.632 58.2169C107.803 58.016 105.818 57.0893 105.118 57.7658C106.464 58.9845 109.186 60.2485 110.749 61.2108Z" fill="#CCCCCC"/>
<path d="M86.23 57.3677C85.4868 57.7458 84.9775 58.6086 85.1388 59.4268C85.256 60.0215 85.6913 60.536 85.7139 61.1417C85.733 61.6539 85.4523 62.1273 85.3675 62.6328C85.1823 63.7373 85.9893 64.8157 86.9925 65.3135C87.9957 65.8113 89.1541 65.8602 90.2733 65.8996C90.4861 65.627 90.3462 65.2012 90.0748 64.9869C89.5165 64.5464 88.4512 64.7332 87.5737 64.0878C87.1318 63.7628 86.8219 63.2024 86.9419 62.6671C87.0026 62.3964 86.7511 62.0513 86.7722 61.7747C86.8255 61.0779 86.8755 60.5084 86.8519 59.81C86.8318 59.2155 86.969 58.9315 87.5613 58.877C88.3957 58.8002 90.0793 59.9244 89.7221 58.3748C89.4243 57.0829 87.1793 56.8847 86.23 57.3677Z" fill="#CCCCCC"/>
<path d="M70.8155 105.53C70.94 104.355 71.0644 103.18 71.1889 102.004C71.0484 103.331 66.3298 102.517 65.7448 102.947C67.0654 104.25 69.0311 105.093 70.8155 105.53Z" fill="#CCCCCC"/>
<path d="M107.985 68.0021C109.08 68.052 110.293 67.9572 111.071 67.185C111.995 66.2688 111.947 64.788 111.836 63.4919C111.492 64.6937 111.032 66.0374 109.893 66.5537C109.23 66.8547 108.467 66.8027 107.741 66.7352C105.485 66.5253 103.251 66.0641 101.004 65.8546C101.377 67.5492 106.545 67.9365 107.985 68.0021Z" fill="#CCCCCC"/>
<path d="M94.3974 57.0367C94.2038 57.9644 94.0165 58.9375 94.2821 59.8472C93.7981 58.1901 91.4756 55.7622 92.6774 53.9442C94.3875 51.3571 94.6133 56.0024 94.3974 57.0367Z" fill="#CCCCCC"/>
<path d="M89.8105 70.4674C84.6561 68.8738 78.818 67.6616 72.4581 66.8644C72.2714 66.841 72.1304 66.6834 72.1281 66.4951C72.0737 61.9915 72.019 57.4854 71.9621 52.9817C71.9596 52.7652 72.14 52.5848 72.3708 52.6014C78.4913 53.1195 84.8075 53.4336 90.9388 53.9549C91.1375 53.9718 91.2886 54.1403 91.2837 54.3397C91.2457 55.8791 91.1556 57.5512 91.0006 59.6019C90.9918 59.7178 90.93 59.8233 90.833 59.8876C90.7359 59.9518 90.6147 59.9677 90.5046 59.9305C90.149 59.8108 89.0214 59.2892 87.829 59.1876C87.6401 59.1715 87.4023 59.2287 87.2647 59.2986C87.276 59.3766 87.3275 59.5102 87.3916 59.5783C87.5343 59.7298 87.5272 59.9683 87.3756 60.1109C87.224 60.2534 86.9858 60.2467 86.843 60.095C86.6576 59.8981 86.4843 59.5258 86.5121 59.1955C86.5285 59.0012 86.6151 58.8356 86.756 58.7291C87.041 58.5223 87.5076 58.4038 87.8931 58.4367C88.7048 58.506 89.6446 58.7835 90.2865 59.0392C90.4067 57.3815 90.4823 55.975 90.5205 54.6759C84.6459 54.1846 78.6147 53.8764 72.7209 53.3871C72.7747 57.6434 72.8264 61.9017 72.878 66.1579C78.9614 66.9361 84.5684 68.0939 89.5586 69.6022C89.6008 68.1989 89.6864 66.6964 89.8305 64.8128C89.8464 64.6051 90.0314 64.45 90.235 64.4658C90.4425 64.4816 90.5978 64.6628 90.5821 64.8702C90.4219 66.9638 90.3343 68.5818 90.2988 70.1162C90.2958 70.2342 90.2379 70.3442 90.142 70.4132C90.046 70.4823 89.9232 70.5022 89.8105 70.4674Z" fill="#486F93"/>
<path d="M89.5517 70.0871C89.4835 69.8905 89.5877 69.6758 89.7842 69.6077C91.3639 69.0609 92.5799 68.6731 93.9587 68.2132C92.582 68.0504 91.2143 67.9031 90.0506 67.7777C89.8436 67.7555 89.6939 67.5697 89.7163 67.3627C89.7386 67.1558 89.9275 67.0053 90.1311 67.0285C91.7608 67.2039 93.7887 67.4223 95.6876 67.6664C96.0812 67.7171 96.1373 68.2664 95.7629 68.3963C94.6967 68.7655 93.7777 69.0681 92.8891 69.3607C92.0044 69.652 91.0898 69.9533 90.031 70.3199C89.8322 70.3884 89.6192 70.2822 89.5517 70.0871Z" fill="#486F93"/>
<path d="M77.8026 84.0058C77.2399 85.5658 76.652 87.2289 76.1823 88.8819C76.1722 88.8493 76.1672 88.8141 76.1672 88.7789C76.1748 86.8784 76.151 86.9729 76.1847 86.8546C77.5919 82.2525 76.1674 86.909 76.9761 84.2721C77.0238 84.1138 77.172 84.0058 77.3353 84.0058H77.8026Z" fill="#486F93"/>
<path d="M72.7202 108.014C72.5246 107.943 72.4235 107.727 72.4945 107.532L79.3742 88.5708C79.4454 88.3752 79.6613 88.2747 79.857 88.3451C80.0526 88.4161 80.1537 88.6323 80.0827 88.828L73.203 107.789C73.1324 107.983 72.9178 108.086 72.7202 108.014Z" fill="#486F93"/>
<path d="M87.8828 107.666C87.7032 107.666 87.5442 107.538 87.5121 107.355L84.3054 89.0695C84.2696 88.8646 84.4064 88.6692 84.6116 88.6332C84.8154 88.598 85.0119 88.7343 85.0478 88.9393L88.2545 107.224C88.2903 107.429 88.1534 107.625 87.9483 107.661C87.9264 107.665 87.9043 107.666 87.8828 107.666Z" fill="#486F93"/>
<path d="M99.0212 108.1C98.9785 108.1 98.9351 108.092 98.8926 108.077C98.6971 108.006 98.596 107.79 98.6669 107.594C100.963 101.265 102.385 95.973 104.561 88.8996C104.622 88.7005 104.835 88.5891 105.032 88.6502C105.231 88.7113 105.342 88.9221 105.281 89.1211C103.142 96.0783 101.68 101.5 99.3755 107.851C99.3197 108.005 99.1752 108.1 99.0212 108.1Z" fill="#486F93"/>
<path d="M114.105 107.789C113.932 107.789 113.776 107.669 113.738 107.493C112.344 101.145 110.932 95.7986 109.502 89.3976C109.456 89.1944 109.584 88.993 109.787 88.9476C109.992 88.9021 110.191 89.0303 110.237 89.2332C111.665 95.6263 113.078 100.975 114.474 107.331C114.518 107.534 114.39 107.735 114.186 107.78C114.159 107.786 114.132 107.789 114.105 107.789Z" fill="#486F93"/>
<path d="M108.237 67.1812C104.994 66.7892 101.705 66.174 99.4368 65.5352C99.2363 65.4788 99.1198 65.2706 99.1762 65.0703C99.2324 64.87 99.4414 64.7539 99.6409 64.8098C101.874 65.4387 105.121 66.0455 108.327 66.4329C110.117 66.6489 110.521 66.3255 110.955 65.1551C111.597 63.4249 112.08 61.1446 112.216 59.2039C112.23 58.9961 112.418 58.838 112.618 58.8544C112.826 58.8689 112.982 59.049 112.967 59.2566C112.827 61.2638 112.326 63.6244 111.662 65.4171C111.018 67.1548 110.077 67.4037 108.237 67.1812Z" fill="#486F93"/>
<path d="M90.1694 70.2229C89.9932 70.1119 89.9405 69.8792 90.0516 69.703C90.163 69.5268 90.3961 69.4746 90.5712 69.5854C96.4218 73.2745 104.056 74.1236 111.554 71.9279C111.701 69.2906 111.894 63.9907 111.772 62.3394L112.145 62.2822L111.77 62.3119C111.753 62.1074 111.903 61.9221 112.107 61.9017C112.312 61.8819 112.494 62.0226 112.518 62.2265C112.519 62.2331 112.522 62.2599 112.522 62.2665C112.652 64.0248 112.441 69.6879 112.292 72.2357C112.283 72.3934 112.176 72.5286 112.024 72.5743C104.649 74.8025 96.5902 74.2717 90.1694 70.2229Z" fill="#486F93"/>
<path d="M93.7034 59.2085C93.6266 57.6154 93.3057 54.9073 93.229 53.305C93.2189 53.0972 93.3794 52.9206 93.5871 52.9106C93.7971 52.8976 93.9718 53.061 93.9816 53.2689C94.0585 54.862 94.3794 57.5701 94.4561 59.1724C94.4661 59.3802 94.3057 59.5568 94.0979 59.5668C93.8977 59.5788 93.7136 59.4217 93.7034 59.2085Z" fill="#486F93"/>
<path d="M90.5837 46.5544C90.4424 46.4017 90.4515 46.1632 90.6041 46.0218C92.2352 44.5108 94.2773 43.2104 96.6046 42.2681C96.7972 42.19 97.0172 42.2834 97.0952 42.476C97.1732 42.669 97.0803 42.8887 96.8872 42.9668C94.7852 43.8175 92.7794 45.0332 91.1163 46.5747C90.9638 46.7157 90.7258 46.7075 90.5837 46.5544Z" fill="#486F93"/>
<path d="M86.226 54.2641C86.0191 54.241 85.8702 54.0547 85.8931 53.8479C86.0686 52.349 86.0354 52.3921 86.0935 52.2807C87.2389 50.1017 88.4167 48.3634 89.8004 46.8101C89.9383 46.6546 90.1767 46.6406 90.3325 46.7794C90.4878 46.9178 90.5015 47.1559 90.3632 47.3113C89.0163 48.8234 87.9136 50.4471 86.7939 52.5685L86.6422 53.9313C86.6189 54.1398 86.431 54.2871 86.226 54.2641Z" fill="#486F93"/>
<path d="M91.3335 61.525C89.795 61.2111 88.3662 60.7875 87.1396 60.3205C86.9451 60.2466 86.8474 60.0288 86.9213 59.8343C86.9956 59.6397 87.2147 59.5426 87.4075 59.6162C88.586 60.0647 89.9765 60.4791 91.4841 60.7866C91.688 60.8281 91.8198 61.0272 91.7781 61.2311C91.7373 61.4313 91.5417 61.567 91.3335 61.525Z" fill="#486F93"/>
<path d="M96.4117 60.7936C95.5401 60.6883 94.6962 60.3463 93.9705 59.8048C93.4077 59.3842 92.7936 59.0105 91.9779 58.5026C91.8529 58.422 91.6517 58.2949 91.4978 58.2893C91.5469 58.3456 91.4032 58.1971 92.9217 59.7268C93.0402 59.8467 93.0647 60.0307 92.9818 60.1775C92.8989 60.3244 92.7281 60.3984 92.5645 60.3579C91.8898 60.1933 91.201 60.0617 90.557 59.9441C90.3521 59.9066 90.2167 59.7104 90.254 59.5056C90.2913 59.3008 90.489 59.1653 90.6924 59.2027C90.9514 59.25 91.2176 59.2996 91.488 59.3527L91.053 58.9149C90.9237 58.7877 90.5707 58.4403 90.7047 58.0174C90.8337 57.6351 91.2738 57.4933 91.6413 57.5468C92.0311 57.6076 92.2985 57.8157 92.7846 58.1177C93.3589 58.4749 93.9016 58.8123 94.4214 59.2009C95.0416 59.6637 95.7611 59.9558 96.502 60.0453C103.851 60.9301 103.876 60.9939 104.27 60.8609C104.817 60.6754 104.792 59.988 104.771 59.7818C104.706 59.1623 104.814 58.2786 104.797 57.6296C104.791 57.4186 104.96 57.2426 105.174 57.2426C105.377 57.2426 105.545 57.4047 105.55 57.6093C105.558 57.9087 105.543 58.2427 105.527 58.5656C105.508 58.9742 105.489 59.3968 105.521 59.7046C105.613 60.6165 105.226 61.3325 104.512 61.5747C103.914 61.7767 104.047 61.713 96.4117 60.7936Z" fill="#486F93"/>
<path d="M91.6038 63.015C90.1191 62.6856 88.7541 62.2746 87.4315 61.7584C87.1602 61.6527 86.8984 61.5412 86.6779 61.3419C86.3687 61.0625 86.2385 60.6756 86.3383 60.3323C86.3558 60.2724 86.5194 59.7426 86.9001 59.58C87.3135 59.4039 87.7147 59.7538 87.5318 60.1048C87.4612 60.2401 87.3211 60.3146 87.1766 60.3068C87.1371 60.3619 87.0876 60.4546 87.0621 60.5426C87.0476 60.5924 87.0898 60.6984 87.1832 60.7828C87.3091 60.8965 87.4941 60.974 87.7053 61.0563C88.9918 61.5584 90.3203 61.9584 91.7672 62.2793C91.9703 62.3243 92.0984 62.5256 92.0535 62.7287C92.0082 62.9327 91.8061 63.0601 91.6038 63.015Z" fill="#486F93"/>
<path d="M91.0323 63.9977C89.4786 63.7447 88.7193 63.5559 87.2856 62.9367C87.0104 62.818 86.7925 62.5507 86.598 62.2796C86.2851 61.8435 86.4192 61.116 87.0383 60.936C87.2378 60.8784 87.4473 60.9927 87.5054 61.1927C87.5636 61.3925 87.4485 61.6015 87.2488 61.6597C87.2105 61.6707 87.2064 61.6815 87.2022 61.6921C87.1828 61.7405 87.198 61.8187 87.2125 61.8434C87.3781 62.0739 87.504 62.2101 87.5844 62.2449C88.9556 62.8369 89.6447 63.0081 91.1535 63.2538C91.3588 63.2873 91.4982 63.4809 91.4648 63.6863C91.4316 63.8895 91.2403 64.0311 91.0323 63.9977Z" fill="#486F93"/>
<path d="M92.9868 65.4157C90.7362 65.3326 89.0483 65.3275 87.1619 64.0525C86.8798 63.8619 86.6644 63.4114 86.5972 63.0652C86.42 62.1536 87.3731 61.8574 87.5257 62.402C87.5753 62.5793 87.4897 62.7623 87.3307 62.8412C87.3213 62.996 87.4856 63.3575 87.5844 63.4284C89.2023 64.5218 90.7482 64.5786 92.5381 64.6443C93.0366 64.6341 93.3007 64.7702 94.9425 64.5211C95.8098 64.3896 96.6285 64.2652 97.8912 64.6497C98.0901 64.7104 98.2025 64.9209 98.1416 65.12C98.081 65.3194 97.8701 65.431 97.6713 65.3707C96.573 65.0357 95.903 65.1374 95.0556 65.2662C94.3374 65.3751 93.7641 65.4478 92.9868 65.4157Z" fill="#486F93"/>
<path d="M114.19 60.0442C114.152 60.0442 114.113 60.0383 114.076 60.0263C110.353 58.836 106.617 57.9938 102.971 57.5232C102.812 57.5025 102.683 57.3834 102.651 57.2263C102.44 56.2174 102.346 55.1562 102.141 54.1752C102.099 53.9714 102.229 53.7718 102.433 53.7294C102.637 53.6878 102.836 53.8175 102.879 54.0213C103.074 54.9568 103.164 55.8945 103.337 56.8111C106.774 57.2713 110.287 58.0561 113.792 59.1465C113.682 56.9214 113.346 54.6724 112.791 52.4532C112.74 52.2513 112.863 52.0466 113.065 51.9961C113.267 51.9452 113.471 52.0683 113.522 52.2702C114.134 54.7185 114.486 57.2031 114.567 59.6549C114.571 59.7774 114.515 59.8941 114.418 59.968C114.351 60.018 114.271 60.0442 114.19 60.0442Z" fill="#486F93"/>
<path d="M112.263 50.5628C111.918 49.437 111.503 48.2886 111.03 47.1497C110.698 46.3519 110.314 45.5215 109.594 44.9114C108.425 43.9203 106.404 43.5052 104.732 42.8305C104.086 42.5701 103.577 42.3052 103.157 42.009C101.533 43.4029 99.502 44.8537 97.9311 46.2321C97.7048 46.4306 97.3465 46.296 97.3087 45.9959C97.194 45.0818 96.6445 43.0441 96.6377 42.5674C96.632 42.3561 96.8018 42.1807 97.0145 42.1807C97.1974 42.1807 97.3699 42.31 97.3924 42.5462C97.501 43.3728 97.7758 44.342 97.9468 45.2259C99.4967 43.9229 101.42 42.5314 102.892 41.2415C103.03 41.1208 103.234 41.1168 103.377 41.2315C103.783 41.5591 104.303 41.845 105.014 42.1316C105.51 42.3317 106.05 42.5125 106.573 42.6873C109.542 43.681 110.618 44.1977 111.726 46.8603C112.209 48.0217 112.632 49.193 112.984 50.342C113.045 50.541 112.933 50.7517 112.734 50.8127C112.533 50.8742 112.324 50.7602 112.263 50.5628Z" fill="#486F93"/>
<path d="M97.018 42.9926C97.017 42.9926 97.0158 42.9926 97.0145 42.9926C96.8065 42.9908 96.6392 42.8205 96.6411 42.6125L96.66 40.4687C96.662 40.2616 96.8303 40.0952 97.0369 40.0952C97.0378 40.0952 97.039 40.0952 97.0403 40.0952C97.2484 40.097 97.4157 40.2673 97.4137 40.4753L97.3948 42.6191C97.3928 42.8261 97.2245 42.9926 97.018 42.9926Z" fill="#486F93"/>
<path d="M106.282 62.9585L104.87 61.189C104.741 61.0264 104.767 60.7893 104.93 60.6595C105.093 60.5297 105.33 60.5564 105.46 60.719L106.871 62.4884C107.001 62.6511 106.974 62.8882 106.812 63.018C106.649 63.1476 106.412 63.1213 106.282 62.9585Z" fill="#486F93"/>
<path d="M109.904 63.6814C109.759 63.5321 109.763 63.2935 109.912 63.1485C109.975 63.0873 109.978 62.9453 109.917 62.882C109.758 62.7168 109.782 62.4487 109.968 62.3148C110.23 62.1264 110.364 61.7496 110.28 61.4381C110.226 61.2372 110.344 61.0302 110.545 60.976C110.745 60.9214 110.953 61.0404 111.007 61.2413C111.144 61.7482 111.003 62.3052 110.662 62.6956C110.776 63.0336 110.699 63.4346 110.437 63.6895C110.288 63.8341 110.049 63.8311 109.904 63.6814Z" fill="#486F93"/>
<path d="M82.2772 53.7749C81.4785 52.2577 80.5909 50.8691 79.2651 48.0382C79.1767 47.8497 79.258 47.6254 79.4466 47.5372C79.6345 47.4486 79.8592 47.5302 79.9476 47.7186C81.2081 50.4112 82.2164 52.0412 82.944 53.4238C83.0409 53.6079 82.9703 53.8358 82.7863 53.9328C82.6001 54.0307 82.3733 53.9575 82.2772 53.7749Z" fill="#486F93"/>
<path d="M74.8474 53.2457L73.6983 51.0883C73.6006 50.9047 73.6701 50.6764 73.8538 50.5786C74.0371 50.4808 74.2652 50.5502 74.3636 50.734L75.5127 52.8915C75.6104 53.0751 75.5409 53.3034 75.3572 53.4011C75.1722 53.4996 74.9449 53.4284 74.8474 53.2457Z" fill="#486F93"/>
<path d="M75.8758 47.5312C75.734 47.3836 75.736 47.1503 75.879 47.0053C75.9681 46.8694 75.9609 46.3931 75.8719 46.2547C75.6286 46.1859 74.956 46.3482 74.6048 46.3315C73.965 46.3019 73.1492 46.0153 72.952 45.3048C72.8271 44.8497 73.027 44.343 73.4605 44.0125C73.7981 43.7565 74.2095 43.6373 74.5721 43.5322C76.3499 43.0157 77.0312 43.2687 78.2587 44.551C78.6335 44.9381 78.9836 45.557 79.3099 46.1574C79.3445 46.2209 79.4225 46.3637 79.412 46.5097C79.3949 46.9373 78.7442 47.0616 78.6144 46.4564C78.3338 45.9415 78.0138 45.3817 77.7158 45.0738C76.6628 43.9739 76.2517 43.8289 74.7824 44.256C74.4674 44.3473 74.1423 44.4415 73.9166 44.6126C73.7635 44.7294 73.6298 44.927 73.6784 45.1043C73.7569 45.3867 74.2316 45.5598 74.6384 45.5786C74.7421 45.5826 74.9154 45.5603 75.0834 45.5384C75.9385 45.4268 76.5019 45.4243 76.6626 46.2771C76.7278 46.6241 76.7143 47.247 76.4086 47.5412C76.2588 47.6855 76.0205 47.6811 75.8758 47.5312Z" fill="#486F93"/>
<path d="M73.7588 51.1718C72.5858 49.9473 72.1197 49.3966 70.7695 47.8349C70.5146 47.541 70.1966 47.1746 70.0897 46.7164C69.9668 46.1925 70.1993 45.5496 70.8014 45.3814C71.469 45.195 72.0408 45.7279 72.0842 45.7501C72.8421 46.3103 72.9201 46.4169 73.3643 46.9135C73.9912 47.6254 73.6637 48.5144 72.8687 48.5301C72.2186 48.5373 71.9235 47.9082 72.3236 47.6666C72.4944 47.5627 72.7164 47.612 72.8288 47.7751C72.8582 47.7817 72.9171 47.7701 72.9355 47.7518C72.9615 47.7018 72.92 47.5494 72.7959 47.4084L72.6916 47.2894C72.2692 46.8156 72.1064 46.7036 71.5177 46.2685C71.3372 46.1339 71.1353 46.0706 71.004 46.1074C70.845 46.1518 70.7825 46.3694 70.8234 46.5448C70.9032 46.8857 71.2469 47.2355 71.6347 47.6831C72.8069 49.039 73.2453 49.5462 74.3029 50.6505C74.4469 50.8008 74.4418 51.0394 74.2914 51.1834C74.1415 51.3272 73.9024 51.3221 73.7588 51.1718Z" fill="#486F93"/>
<path d="M72.6259 47.2071C72.5016 47.0403 72.5362 46.8041 72.703 46.6799C72.8701 46.5556 73.1058 46.5898 73.2304 46.7569C73.3884 46.9686 73.8418 47.1696 74.0361 46.9605C74.0866 46.8484 73.8899 46.3564 73.6298 46.1348C73.4716 45.9997 73.4527 45.7619 73.5877 45.6035C73.7228 45.4453 73.9601 45.4261 74.119 45.5612C74.6118 45.9816 75.0656 46.9615 74.5871 47.475C74.3782 47.6985 73.0631 47.7935 72.6259 47.2071Z" fill="#486F93"/>
<path d="M70.6932 45.9414C70.4093 45.5646 70.6071 44.9595 70.7471 44.7255C70.8544 44.5468 71.2287 44.1803 71.606 44.0376C71.7969 43.5408 72.3233 43.3013 72.8422 43.194C72.109 42.0732 71.3629 40.9007 70.713 39.7304C70.5911 39.5105 70.4243 39.2096 70.3804 38.874C70.3244 38.4464 70.49 38.0499 70.8124 37.8392C71.2196 37.573 71.7643 37.6713 72.1234 37.8871C72.5921 38.1682 72.4709 38.0988 76.5281 43.3769C76.6549 43.5419 76.624 43.7785 76.4589 43.9054C76.294 44.0323 76.0578 44.0013 75.9304 43.8362C71.9784 38.6949 72.0491 38.7214 71.7358 38.5333C71.5582 38.4269 71.3339 38.399 71.2248 38.4701C71.1374 38.5271 71.1131 38.6649 71.1276 38.7761C71.1509 38.9551 71.2522 39.1487 71.3719 39.3648C72.1207 40.7129 73.0056 42.0737 73.8478 43.3521C74.0444 43.6508 73.7507 44.031 73.4131 43.9166C73.2529 43.8629 72.8106 43.9469 72.5527 44.0803C72.3518 44.1842 72.3062 44.2692 72.2802 44.4206C72.2468 44.6119 72.0758 44.7463 71.8798 44.732C71.7814 44.7514 71.461 45.0017 71.3936 45.113C71.3254 45.2271 71.2839 45.442 71.3062 45.5071C71.4314 45.6733 71.3926 45.9003 71.2262 46.0254C71.0612 46.1498 70.8189 46.1088 70.6932 45.9414Z" fill="#486F93"/>
<path d="M73.6563 46.1612C73.4184 45.9665 71.961 44.7983 71.7368 44.6145C71.5756 44.4827 71.5521 44.2452 71.6841 44.0843C71.8156 43.9233 72.0533 43.8996 72.2142 44.0314C72.4521 44.2261 73.9095 45.3944 74.1337 45.5781C74.2949 45.71 74.3184 45.9474 74.1864 46.1084C74.0544 46.2699 73.8166 46.2926 73.6563 46.1612Z" fill="#486F93"/>
<path d="M102.97 39.7228C102.889 39.0204 102.627 38.2974 102.465 37.127C102.442 36.9626 102.53 36.8025 102.68 36.7331C102.998 36.5865 103.131 36.3348 103.315 35.9862C103.321 35.961 103.748 35.3214 103.301 34.6993C102.868 34.0955 101.727 33.9374 101.563 34.5705C101.539 34.663 101.537 34.7994 101.662 34.9235C101.809 35.0702 101.81 35.3088 101.664 35.4564C101.516 35.6042 101.278 35.605 101.13 35.4581C100.84 35.169 100.731 34.7766 100.834 34.3816C100.945 33.9488 101.294 33.601 101.744 33.4739C102.492 33.2624 103.445 33.6076 103.913 34.2597C104.329 34.8382 104.368 35.6086 104.017 36.2705L103.982 36.3377C103.812 36.6597 103.623 37.0173 103.249 37.2744C103.375 38.0728 103.646 39.0064 103.719 39.6362C103.743 39.8429 103.595 40.0299 103.388 40.0538C103.183 40.0779 102.995 39.9304 102.97 39.7228Z" fill="#486F93"/>
<path d="M94.9091 39.8093C94.3655 39.305 94.1565 38.5796 93.9887 37.9967C93.4514 36.1326 92.896 34.2049 92.6283 32.2315C92.6004 32.0253 92.7449 31.8354 92.9512 31.8074C93.1573 31.7798 93.3474 31.9238 93.3751 32.1302C93.6354 34.0492 94.1832 35.95 94.7129 37.7881C94.8623 38.307 95.0318 38.8951 95.4219 39.2569C95.9952 39.7892 96.9682 39.7083 97.6313 39.3533C98.4059 38.9389 99.0047 38.1777 99.5331 37.5061C99.6617 37.3426 99.8984 37.3141 100.062 37.4429C100.226 37.5716 100.254 37.8085 100.125 37.972C99.5513 38.7018 98.9007 39.5289 97.9871 40.0179C97.0376 40.5256 95.7324 40.5729 94.9091 39.8093Z" fill="#486F93"/>
<path d="M95.5645 37.8862C95.6356 37.6907 95.8517 37.5897 96.0473 37.6605C96.2283 37.7261 96.4805 37.61 96.5485 37.4307C96.6221 37.2362 96.8399 37.1387 97.0342 37.2119C97.229 37.2857 97.3269 37.5033 97.2531 37.6979C96.8727 38.7011 95.3095 38.5893 95.5645 37.8862Z" fill="#486F93"/>
<path d="M95.3083 36.7056C95.151 35.8598 95.1304 35.4732 94.823 34.6962C94.7465 34.5026 94.8412 34.2836 95.0347 34.2071C95.2271 34.1307 95.4469 34.2249 95.5237 34.4187C95.7774 35.0595 95.8571 35.4675 95.9476 35.9913L96.0583 35.9143C96.2295 35.7958 96.464 35.8378 96.5828 36.0088C96.7015 36.1797 96.6593 36.4144 96.4886 36.5333L95.8939 36.9464C95.668 37.1029 95.3579 36.9734 95.3083 36.7056Z" fill="#486F93"/>
<path d="M48.2157 95.5592C46.4587 94.78 43.604 93.1106 42.3175 91.9611C40.3659 90.2176 40.6662 88.5934 41.7079 87.8939C42.6017 87.2922 44.132 87.621 45.1403 87.9738C48.5855 89.1738 49.924 87.5305 50.34 86.7684C50.4394 86.5855 50.6683 86.5184 50.8513 86.618C51.0338 86.7177 51.1013 86.9466 51.0014 87.1292C50.6055 87.8557 48.9942 90.1139 44.892 88.6854C44.2437 88.4586 42.776 88.083 42.1284 88.5193C41.4989 88.9419 41.2479 89.9943 42.8195 91.3991C44.0186 92.4703 46.8188 94.1153 48.5216 94.8705C49.7074 95.3978 50.2754 95.3472 51.3672 93.913C51.9626 93.1266 52.5588 92.3415 53.1571 91.5544C53.283 91.3885 53.5195 91.3564 53.6853 91.4825C53.8509 91.6083 53.883 91.8448 53.7572 92.0104C53.1588 92.7973 52.5632 93.5819 51.9675 94.3686C50.8075 95.8921 49.9252 96.319 48.2157 95.5592Z" fill="#486F93"/>
<path d="M62.9484 110.916C61.945 110.902 60.5707 110.882 59.5575 110.183C58.8485 109.695 58.4832 108.935 58.6272 108.249C58.7943 107.454 59.5376 107.002 59.9657 106.804C61.1492 106.262 64.5486 105.912 64.8718 102.695C64.8927 102.488 65.0769 102.338 65.2845 102.358C65.4915 102.378 65.6424 102.563 65.6215 102.77C65.4236 104.743 64.18 106.146 61.9259 106.941C61.366 107.141 60.7801 107.26 60.281 107.488C59.7719 107.724 59.4373 108.058 59.3647 108.403C59.2722 108.845 59.6097 109.304 59.9851 109.562C61.0812 110.318 62.6406 110.131 66.3075 110.212C67.5284 110.233 68.9597 110.233 69.8397 109.417C69.9923 109.275 70.2305 109.284 70.3723 109.437C70.5139 109.589 70.5051 109.828 70.3525 109.969C70.2399 110.074 70.1238 110.167 70.0078 110.246C68.4856 111.294 66.4444 110.888 62.9484 110.916Z" fill="#486F93"/>
<path d="M114.151 84.0057H106.253V89.1557H114.151C114.36 89.1557 114.528 88.9874 114.528 88.7789V84.3826C114.528 84.174 114.36 84.0057 114.151 84.0057Z" fill="#486F93"/>
<path d="M105.75 84.0058H78.3377C77.7424 85.6513 77.1143 87.4148 76.627 89.1557H105.75L105.75 84.0058Z" fill="#486F93"/>
<path d="M82.6685 60.6119C82.7181 59.88 81.9096 59.2292 80.8627 59.1583C79.8159 59.0874 78.927 59.6232 78.8774 60.3551C78.8278 61.087 79.6363 61.7378 80.6832 61.8087C81.73 61.8797 82.6189 61.3438 82.6685 60.6119Z" fill="#486F93"/>
<path d="M84.505 84.0284C84.8216 84.257 85.1481 84.4831 85.4772 84.6992C85.6506 84.8122 85.8842 84.7645 85.9973 84.5886C86.0701 84.4806 86.0751 84.3474 86.0299 84.2344C89.135 85.302 92.6872 85.4453 96.0158 85.282C98.1009 85.1789 100.236 84.978 102.151 84.1666C102.073 84.2746 102.055 84.4228 102.118 84.5509C102.183 84.684 102.316 84.7594 102.454 84.7594C102.512 84.7594 102.57 84.7469 102.623 84.7192C102.824 84.6187 103.027 84.5082 103.226 84.3876C103.414 84.2746 103.6 84.154 103.783 84.0284L84.505 84.0284ZM74.9688 78.464C71.9341 79.9839 68.8065 82.393 66.0129 85.3423C65.5222 87.5466 63.774 94.9991 62.6692 102.131C62.6382 102.338 62.7802 102.532 62.9908 102.563C66.0342 102.992 69.3683 103.261 72.4039 102.993C72.5747 102.978 72.7129 102.85 72.743 102.681C73.7991 96.5219 77.2942 86.0126 79.0662 79.9788C77.5662 77.6746 76.8491 77.52 74.9688 78.464ZM70.4268 90.0501L68.7587 97.3304C68.7311 97.4459 68.6281 97.5263 68.5126 97.5263C68.495 97.5263 68.4749 97.5238 68.4573 97.5188C68.3216 97.4886 68.2362 97.353 68.2688 97.2173L69.9369 89.9396C69.9671 89.804 70.1027 89.7185 70.2384 89.7512C70.3715 89.7813 70.457 89.9169 70.4268 90.0501ZM75.0869 84.5309C74.8874 84.6127 74.6567 84.6089 74.587 84.674C74.4 84.8409 75.0063 85.6649 74.5217 86.121C74.3466 86.2874 74.0855 86.3123 74.0494 86.3773C74.0468 86.3773 74.0267 86.4251 74.1122 86.5833C74.3035 86.9235 74.4312 87.0934 74.5342 87.3646C74.6799 87.7465 74.6649 88.1283 74.489 88.4097C74.2554 88.7893 73.7085 88.9208 73.3812 88.6433C73.2731 88.5554 73.2605 88.3971 73.3485 88.2891C73.4364 88.1836 73.5947 88.1685 73.7027 88.2564C73.7454 88.2941 73.8032 88.2916 73.8459 88.2866C74.1599 88.2327 74.1787 87.8467 74.0644 87.543C73.8691 87.0382 73.3535 86.5799 73.6122 86.1286C73.7127 85.9478 73.8911 85.8799 74.0192 85.8322C74.2157 85.7565 74.2785 85.7623 74.1398 85.2795C74.0569 84.9831 73.9439 84.5786 74.2503 84.2998C74.4632 84.1093 74.754 84.1264 74.8909 84.0687C75.0467 84.0009 75.117 83.7873 75.1095 83.6115C75.0944 83.3804 74.9789 83.1442 74.8658 82.9181C74.803 82.7925 74.8532 82.6418 74.9789 82.5815C75.1019 82.5187 75.2527 82.5689 75.3155 82.6945C75.4436 82.9533 75.5918 83.2472 75.6094 83.5838C75.6295 83.9354 75.4763 84.365 75.0869 84.5309ZM110.581 72.2463C110.38 72.191 110.174 72.3091 110.119 72.5101C110.104 72.5704 110.084 72.6282 110.066 72.6884C104.805 74.6937 98.9036 73.3461 93.6242 71.5027C93.2448 71.3696 92.8077 71.2942 92.456 71.1234C91.8255 70.8144 91.4211 70.116 90.7 69.9753C90.4111 69.92 90.1172 69.9728 89.8233 69.9904C89.0772 70.0381 88.2506 69.5332 87.5523 69.2894C86.6981 68.988 85.839 68.7016 84.9748 68.4404C83.2489 67.9203 81.4904 67.4983 79.7018 67.2722C78.4809 67.1189 76.6068 66.7722 75.2653 66.9381C75.2803 66.8501 75.2678 66.7547 75.2175 66.6718C75.1095 66.4934 74.8784 66.4382 74.7 66.5462C69.8164 69.5156 57.5821 77.2681 49.4753 85.1287C49.3497 85.2518 49.3246 85.4477 49.4176 85.5984C51.1028 88.3269 52.7043 91.3505 54.3816 94.0619C54.4394 94.1574 54.5374 94.2202 54.6479 94.2378C54.7467 94.2519 54.8632 94.224 54.9519 94.1448C58.3935 91.0724 61.6392 88.3769 64.679 86.0582C67.7439 82.5838 71.3011 79.7401 74.7453 78.0142C77.4259 76.6688 78.2181 77.6736 79.9706 80.4611C81.7709 81.8778 81.555 81.8151 83.8267 83.5259H104.459C107.535 81.065 109.803 76.5398 110.845 72.7085C110.9 72.5076 110.782 72.3016 110.581 72.2463ZM74.2931 71.6409C68.2446 76.7044 67.5759 77.4657 65.1488 78.2479C63.5523 78.7752 63.0888 79.0435 62.0186 81.0842C61.6116 81.8629 61.1017 82.8326 60.2525 83.4205C59.3763 84.022 58.062 84.1073 57.3284 83.2949C57.2355 83.1919 57.243 83.0311 57.346 82.9382C57.449 82.8477 57.6072 82.8552 57.7002 82.9583C58.2554 83.5737 59.308 83.4607 59.9662 83.006C61.4758 81.9624 61.6983 79.6582 63.33 78.5067C64.0413 78.0091 64.9189 77.8249 65.6562 77.542C67.4704 76.8471 68.5663 75.7794 73.9715 71.2565C74.077 71.1686 74.2353 71.1812 74.3232 71.2892C74.4137 71.3947 74.3986 71.5529 74.2931 71.6409ZM80.3424 69.7643C80.2871 69.7643 80.2343 69.7492 80.1866 69.7115C79.7018 69.3347 79.0687 69.1388 78.4557 69.174C78.3125 69.1865 78.197 69.076 78.1894 68.9378C78.1819 68.7996 78.2874 68.6816 78.4256 68.674C79.1591 68.6288 79.9153 68.865 80.4956 69.3172C80.685 69.4635 80.5825 69.7643 80.3424 69.7643ZM100.862 77.8058C96.8388 78.6683 92.4708 78.3111 88.5823 76.7306C88.4516 76.6803 88.3913 76.5321 88.4416 76.404C88.4944 76.2759 88.6426 76.2131 88.7707 76.2658C92.5314 77.7933 96.787 78.165 100.756 77.3134C100.892 77.2858 101.025 77.3712 101.053 77.5069C101.083 77.6425 100.997 77.7756 100.862 77.8058ZM105.899 75.8739L105.296 76.9365C105.251 77.0194 105.165 77.0647 105.077 77.0647C104.885 77.0647 104.765 76.8567 104.859 76.6904L105.462 75.6252C105.529 75.5046 105.683 75.4619 105.803 75.5323C105.924 75.6001 105.966 75.7533 105.899 75.8739ZM107.715 76.8888L107.26 78.1022C107.21 78.2375 107.057 78.2982 106.936 78.2479C106.808 78.2002 106.74 78.0545 106.791 77.9264L107.245 76.7129C107.293 76.5823 107.439 76.517 107.569 76.5647C107.697 76.615 107.763 76.7582 107.715 76.8888Z" fill="#486F93"/>
<path d="M110 51.6605C108.78 50.6866 108.929 48.9153 108.406 47.7894C108.11 47.1514 107.569 46.627 106.923 46.3505C106.731 46.2686 106.643 46.0471 106.724 45.8558C106.806 45.6645 107.027 45.5758 107.219 45.6574C108.035 46.0062 108.716 46.6675 109.09 47.4718C109.66 48.6986 109.511 50.3058 110.47 51.0717C110.633 51.2015 110.659 51.4387 110.529 51.6013C110.399 51.7643 110.162 51.7902 110 51.6605Z" fill="#486F93"/>
<path d="M97.0953 55.6664L97.0433 54.6731C97.0347 54.5115 97.1303 54.3625 97.281 54.303C97.4682 54.2289 97.6173 54.0379 97.6441 53.8386C97.6711 53.636 97.5795 53.4175 97.4157 53.2948C97.2494 53.1699 97.2155 52.9337 97.3404 52.7672C97.4655 52.6007 97.7015 52.5673 97.8681 52.6918C98.5842 53.229 98.5929 54.3396 97.8085 54.8713L97.848 55.6269C97.8588 55.8347 97.6993 56.0121 97.4915 56.023C97.2842 56.0341 97.1062 55.8747 97.0953 55.6664Z" fill="#486F93"/>
<path d="M103.141 71.691C103.031 71.5139 103.086 71.2818 103.264 71.1726C103.526 71.0108 103.745 70.7694 103.882 70.493C103.974 70.3063 104.2 70.2295 104.386 70.3213C104.573 70.4132 104.65 70.639 104.558 70.8257C104.357 71.2335 104.046 71.5754 103.659 71.8141C103.484 71.9222 103.251 71.87 103.141 71.691Z" fill="#486F93"/>
<path d="M105.572 72.2386C105.413 72.1045 105.392 71.8668 105.526 71.7076L106.602 70.4307C106.736 70.2718 106.973 70.2511 107.133 70.3852C107.292 70.5192 107.312 70.7569 107.178 70.9162L106.103 72.1931C105.968 72.3527 105.731 72.3723 105.572 72.2386Z" fill="#486F93"/>
<path d="M45.0036 90.2189C44.9867 90.2189 44.9695 90.2178 44.9523 90.2154L43.2841 89.988C43.0778 89.9599 42.9335 89.7699 42.9615 89.5637C42.9894 89.3575 43.1803 89.2134 43.3856 89.2412L45.0539 89.4687C45.2602 89.4967 45.4045 89.6868 45.3765 89.8929C45.3507 90.0819 45.1891 90.2189 45.0036 90.2189Z" fill="#486F93"/>
<path d="M67.8607 108.591C67.6845 108.48 67.6315 108.248 67.7424 108.071C68.0567 107.572 68.2198 106.972 68.2022 106.383C68.1958 106.175 68.3594 106.001 68.5675 105.995C68.7654 105.99 68.9492 106.152 68.9553 106.36C68.9777 107.098 68.7735 107.848 68.3803 108.473C68.2688 108.65 68.0357 108.701 67.8607 108.591Z" fill="#486F93"/>
<path d="M118.524 74.9073C118.341 74.8086 118.272 74.5801 118.371 74.3968C122.467 66.7998 123.28 57.3767 120.547 49.1901C120.481 48.9927 120.588 48.7791 120.785 48.7133C120.982 48.647 121.196 48.7541 121.262 48.9514C124.06 57.3317 123.227 66.9777 119.035 74.7545C118.936 74.9368 118.708 75.0066 118.524 74.9073Z" fill="#486F93"/>
<path d="M126.228 67.7134C126.037 67.631 125.949 67.4092 126.031 67.2181C127.605 63.573 127.746 59.3365 126.418 55.595C126.348 55.3989 126.451 55.1835 126.647 55.1138C126.843 55.0443 127.058 55.1467 127.128 55.3428C128.519 59.2618 128.372 63.6991 126.723 67.5169C126.641 67.7077 126.419 67.7961 126.228 67.7134Z" fill="#486F93"/>
<path d="M57.8676 110.588H47.3916C47.1835 110.588 47.0148 110.419 47.0148 110.211C47.0148 110.003 47.1835 109.834 47.3916 109.834H57.8676C58.0757 109.834 58.2445 110.003 58.2445 110.211C58.2445 110.419 58.0757 110.588 57.8676 110.588Z" fill="#486F93"/>
<path d="M100.276 110.588H71.9623C71.7542 110.588 71.5854 110.419 71.5854 110.211C71.5854 110.003 71.7542 109.834 71.9623 109.834H100.276C100.484 109.834 100.653 110.003 100.653 110.211C100.653 110.419 100.484 110.588 100.276 110.588Z" fill="#486F93"/>
<path d="M103.433 31.9904C103.387 31.204 103.117 30.502 102.653 29.9603C102.057 29.2647 101.075 28.7523 99.8864 28.5174C98.835 28.3117 97.4536 28.9391 96.8274 28.3777C95.7916 27.4413 94.7447 26.7161 93.3651 26.5035C91.8435 26.268 90.3115 26.7733 89.4648 27.7908C88.5108 28.9353 88.562 30.6461 89.5814 31.6852C90.7104 32.8393 92.6944 32.9707 93.9031 31.7952C94.2073 32.032 94.605 32.2255 94.6972 32.2449C95.6811 32.4111 95.0611 32.3864 96.5362 32.331C97.2654 32.3033 98.0158 32.2747 98.7709 32.1657C99.0749 33.395 100.121 34.6429 101.065 35.4476C101.22 35.5793 101.452 35.5652 101.589 35.4138C101.726 35.2631 101.718 35.0308 101.571 34.8895C101.529 34.8484 101.457 34.7794 101.653 34.5175C101.784 34.3492 102.495 34.1275 102.686 34.1927C102.905 34.3125 103.188 34.1861 103.236 33.9294C103.353 33.3058 103.473 32.6609 103.433 31.9904ZM92.1836 28.6117C91.5725 28.9238 91.1714 29.6204 91.2087 30.3059C91.2165 30.4488 91.1031 30.5707 90.9577 30.5707C90.8252 30.5707 90.7144 30.4671 90.7072 30.3331C90.6594 29.4556 91.1726 28.5637 91.9555 28.1643C92.0794 28.101 92.2302 28.1503 92.2933 28.2738C92.3563 28.3974 92.3073 28.5487 92.1836 28.6117ZM102.236 32.1258C102.106 32.1258 101.997 32.0265 101.985 31.8952C101.946 31.4096 101.575 30.966 101.104 30.8408C100.97 30.8051 100.89 30.6676 100.925 30.5335C100.961 30.3993 101.099 30.3191 101.233 30.3553C101.902 30.5333 102.43 31.1637 102.486 31.854C102.498 32.0003 102.383 32.1258 102.236 32.1258Z" fill="#486F93"/>
<path d="M94.6038 19.6641C94.6991 20.0733 94.7944 20.4826 94.8896 20.8918C96.6375 19.6308 98.9486 19.4397 101.091 19.6795C102.003 19.7817 102.916 19.9539 103.833 19.9042C104.751 19.8544 105.7 19.5497 106.302 18.8557C106.903 18.1617 107.036 17.0233 106.428 16.3353C106.558 17.2692 105.865 18.1706 105.003 18.551C103.236 19.33 101.258 18.3697 99.4136 18.4364C98.5879 18.4663 97.784 18.6927 96.9721 18.8455C96.1602 18.9982 95.3046 19.075 94.5211 18.813C93.7622 18.5677 93.0698 17.9098 92.9809 17.09C93.0546 17.6826 92.7911 18.0655 93.1155 18.6291C93.423 19.1634 93.996 19.5648 94.6038 19.6641Z" fill="#CCCCCC"/>
<path d="M94.9557 18.6674L94.9662 20.9668L97.1506 18.7903" fill="#486F93"/>
<path d="M94.5895 20.9684L94.579 18.6689C94.578 18.4608 94.7461 18.2914 94.9541 18.2904C94.9546 18.2904 94.9553 18.2904 94.9558 18.2904C95.1631 18.2904 95.3316 18.458 95.3326 18.6655L95.339 20.0634L96.8848 18.5234C97.0323 18.3765 97.2707 18.3768 97.4177 18.5243C97.5646 18.6718 97.5642 18.9104 97.4167 19.0572L95.2323 21.2336C94.9962 21.4694 94.5912 21.3023 94.5895 20.9684Z" fill="#486F93"/>
<path d="M106.407 9.28128C105.963 8.84988 105.341 8.62392 104.697 8.66121L94.3184 9.26166C93.2643 9.32298 92.4108 10.2625 92.4154 11.3559L92.4375 16.9631C92.44 18.0519 93.2628 18.9507 94.3113 19.0091L94.9352 19.0434C95.1385 19.0563 95.3203 18.8956 95.3321 18.6883L96.7744 18.7691C96.7629 18.9769 96.9216 19.1547 97.1294 19.1665C102.233 19.4527 104.554 19.5861 104.655 19.5861C105.231 19.5861 105.789 19.3743 106.204 18.9945C106.631 18.6034 106.876 18.0729 106.893 17.5013C106.962 15.3492 106.973 13.0138 107.04 10.8464C107.058 10.2512 106.833 9.6954 106.407 9.28128ZM101.821 15.8247H98.3222C98.1834 15.8247 98.071 15.7122 98.071 15.5735C98.071 15.4347 98.1833 15.3223 98.3222 15.3223H101.821C101.96 15.3223 102.073 15.4347 102.073 15.5735C102.073 15.7122 101.96 15.8247 101.821 15.8247ZM103.202 12.959H96.231C96.0922 12.959 95.9798 12.8465 95.9798 12.7078C95.9798 12.569 96.0922 12.4566 96.231 12.4566H103.202C103.341 12.4566 103.453 12.569 103.453 12.7078C103.453 12.8465 103.341 12.959 103.202 12.959Z" fill="#486F93"/>
<path d="M21.5212 49.9743C21.3353 51.6749 22.889 53.2068 24.6559 53.7513C26.4227 54.2958 28.3466 54.0894 30.196 53.877C40.4881 52.6948 50.7803 51.5126 61.0724 50.3304C61.4322 50.2891 61.8199 50.2358 62.0775 50.0018C62.335 49.7677 62.3416 49.2881 62.0065 49.1612C61.8803 49.1133 61.7379 49.1253 61.6021 49.1381C56.6527 49.6038 51.7033 50.0696 46.754 50.5354C40.686 51.1064 34.0685 51.4932 28.1381 52.8024C26.8024 53.0973 25.2007 52.9535 23.9086 52.5254C21.9 51.8599 21.7492 50.2453 22.0067 48.3012" fill="#CCCCCC"/>
<path d="M21.5212 49.9743C21.3353 51.6749 22.889 53.2068 24.6559 53.7513C26.4227 54.2958 28.3466 54.0894 30.196 53.877C40.4881 52.6948 50.7803 51.5126 61.0724 50.3304C61.4322 50.2891 61.8199 50.2358 62.0775 50.0018C62.335 49.7677 62.3416 49.2881 62.0065 49.1612C61.8803 49.1133 61.7379 49.1253 61.6021 49.1381C56.6527 49.6038 51.7033 50.0696 46.754 50.5354C40.686 51.1064 34.0685 51.4932 28.1381 52.8024C26.8024 53.0973 25.2007 52.9535 23.9086 52.5254C21.9 51.8599 21.7492 50.2453 22.0067 48.3012" fill="#CCCCCC"/>
<path d="M63.0454 48.6181C63.0299 48.4106 63.1857 48.2297 63.3932 48.2143C64.5615 48.1274 65.2838 47.875 65.6012 47.4428C66.5331 46.1747 66.4548 44.8294 66.5231 43.1242C66.5589 42.2391 66.3982 26.9655 66.3978 26.9355C66.3975 26.7275 66.5658 26.5585 66.7739 26.5581C66.7741 26.5581 66.7743 26.5581 66.7746 26.5581C66.9824 26.5581 67.1512 26.7264 67.1514 26.9343C67.1517 26.9682 67.3106 42.022 67.2566 43.7235C67.2081 45.2595 67.1661 46.5862 66.2086 47.8891C65.7464 48.518 64.8696 48.8602 63.4491 48.966C63.2324 48.9799 63.0603 48.8187 63.0454 48.6181Z" fill="#486F93"/>
<path d="M66.7971 24.7809C66.7959 24.7809 66.7949 24.7809 66.7937 24.7809C66.5854 24.779 66.4183 24.6087 66.4203 24.4005L66.5091 14.9312C66.5137 14.2233 65.7697 13.6088 64.7785 13.5029L29.6296 9.73441C29.4228 9.71221 29.273 9.52636 29.2951 9.31957C29.3173 9.11239 29.5038 8.96335 29.71 8.98507L64.8587 12.7536C66.2363 12.9008 67.2698 13.8395 67.2627 14.9373L67.1739 24.4077C67.172 24.6146 67.0037 24.7809 66.7971 24.7809Z" fill="#486F93"/>
<path d="M24.0093 52.9961C23.9956 52.9912 23.9821 52.9854 23.9688 52.9789C23.9649 52.977 23.9608 52.9749 23.9569 52.9728C23.1059 52.57 22.603 51.8626 22.6103 51.0772L22.9231 17.7257C22.9231 17.7235 22.9231 17.7214 22.9231 17.7192L22.9885 10.7432C22.9957 9.96744 23.5022 9.27267 24.3445 8.88126C24.3628 8.87157 24.3812 8.86377 24.399 8.85783C24.9271 8.62488 25.5256 8.53584 26.1317 8.60121L27.5947 8.75907C27.8016 8.78139 27.9512 8.96724 27.9289 9.17418C27.9066 9.381 27.7198 9.53064 27.5138 9.50832L26.051 9.35046C25.574 9.29883 25.0859 9.3729 24.6784 9.55851C24.179 9.78288 23.7472 10.2061 23.7421 10.7503L23.6771 17.6914C23.6781 17.7028 23.6787 17.7144 23.6787 17.7258C23.6787 17.7395 23.6778 17.7531 23.6764 17.7666L23.3639 51.0844C23.3594 51.566 23.6989 52.0149 24.2736 52.2888C24.2821 52.2921 24.2904 52.2957 24.2988 52.2996C24.6928 52.4852 25.1712 52.5638 25.646 52.5212L61.9347 48.6089C62.1405 48.5867 62.3275 48.7362 62.3498 48.9431C62.3721 49.1501 62.2225 49.3358 62.0157 49.3581L25.7201 53.2711C25.143 53.3231 24.549 53.2427 24.0093 52.9961Z" fill="#486F93"/>
<path d="M60.6215 19.1192C60.6117 19.1192 60.6019 19.1189 60.5918 19.1181L26.882 16.5059C26.6744 16.4898 26.5192 16.3085 26.5353 16.1011C26.5514 15.8937 26.7353 15.7387 26.9401 15.7544L60.6502 18.3667C60.8575 18.3828 61.0128 18.564 60.9966 18.7715C60.9814 18.9691 60.8163 19.1192 60.6215 19.1192Z" fill="#486F93"/>
<path d="M43.7745 14.7616C39.142 14.3214 35.1446 14.0877 30.5201 13.6479C30.3128 13.6283 30.1609 13.4443 30.1805 13.2371C30.1999 13.0298 30.3876 12.8773 30.5912 12.8977C35.2237 13.3379 39.2211 13.5716 43.8456 14.0114C44.0529 14.031 44.2048 14.215 44.1851 14.4222C44.1653 14.6325 43.9768 14.7822 43.7745 14.7616Z" fill="#486F93"/>
<path d="M21.3476 13.2439C21.2908 14.3846 21.1898 15.5332 21.1585 16.6814C21.0858 19.3423 21.0132 22.0033 20.9405 24.6642C20.7409 31.9799 20.5411 39.2961 20.5415 46.6139C20.5416 47.9964 20.56 49.4221 21.2785 50.6958C21.9971 51.9695 23.6012 53.0647 25.4338 53.0352C24.5544 53.0484 23.7857 52.5225 23.4403 51.9114C23.095 51.3004 23.084 50.6165 23.0791 49.9531C23.0041 39.7171 23.0998 29.4769 23.3666 19.2359C23.4273 16.9096 22.7983 16.5672 23.3056 11.9022C23.3765 11.2502 23.4604 10.5851 23.812 9.98767C24.1635 9.39025 24.8343 8.86219 25.6868 8.74255C24.2514 8.79424 22.8684 9.37621 22.0582 10.2696C21.1642 11.2553 21.4027 12.1389 21.3476 13.2439Z" fill="#486F93"/>
<path d="M16.9704 13.2317C16.7707 13.1731 16.6564 12.9635 16.7151 12.764C18.1354 7.93183 20.9953 3.43249 24.7676 0.0946584C24.9235 -0.0431016 25.1614 -0.0287302 25.2996 0.12718C25.4374 0.28309 25.4228 0.521169 25.2671 0.659169C21.5995 3.90427 18.8191 8.2786 17.4381 12.9764C17.3797 13.1754 17.1708 13.2906 16.9704 13.2317Z" fill="#486F93"/>
<path d="M12.1832 11.1567C11.9782 11.121 11.8409 10.926 11.8765 10.7208C12.504 7.11008 14.2738 3.69155 16.8597 1.09463C17.0065 0.947297 17.2451 0.946697 17.3927 1.09352C17.5401 1.24034 17.5406 1.47893 17.3938 1.6265C14.916 4.11464 13.2203 7.39025 12.6191 10.8499C12.5834 11.055 12.3883 11.1924 12.1832 11.1567Z" fill="#486F93"/>
<path d="M33.8654 31.6391C30.9332 31.2118 28.8812 28.5763 29.291 25.7642C29.4887 24.4073 30.2331 23.2082 31.3868 22.3877C32.5355 21.5712 33.9417 21.2343 35.3523 21.4395C35.4512 21.454 35.5403 21.5071 35.5999 21.5872C35.6597 21.6673 35.6852 21.7679 35.6708 21.8667L35.0496 26.1288L39.5538 25.7952C39.7496 25.7814 39.9375 25.9312 39.9566 26.1358C40.1207 27.8795 39.3641 29.6007 37.8309 30.691C36.7129 31.486 35.312 31.8495 33.8654 31.6391ZM30.0368 25.8729C29.6869 28.2737 31.4531 30.5259 33.9743 30.8933C36.7085 31.2926 39.2406 29.2786 39.2249 26.5754L34.6367 26.9152C34.5266 26.9227 34.4113 26.88 34.3333 26.7962C34.2555 26.7125 34.2197 26.5981 34.2361 26.485L34.8686 22.1455C32.5502 21.9871 30.373 23.5665 30.0368 25.8729Z" fill="#486F93"/>
<path d="M36.237 25.1472L40.6834 24.7565C40.7393 24.7516 40.7818 24.7023 40.7773 24.6464C40.7057 23.7525 40.4054 22.893 39.9072 22.159C39.3887 21.3952 38.6192 20.8937 37.7914 20.5378C37.7369 20.5144 37.6737 20.5429 37.6544 20.599L36.1318 25.0124C36.1077 25.0822 36.1635 25.1536 36.237 25.1472Z" fill="#486F93"/>
<path d="M26.8874 34.1773C26.6812 34.1497 26.5363 33.9601 26.5639 33.7537L26.9178 31.1103C26.9318 31.0057 26.9892 30.9117 27.0758 30.8512L30.0139 28.8022C30.1847 28.6835 30.4192 28.7248 30.5387 28.8958C30.6577 29.0665 30.6157 29.3014 30.4452 29.4205L27.6428 31.3746L27.3109 33.8538C27.2837 34.0566 27.0981 34.2046 26.8874 34.1773Z" fill="#486F93"/>
<path d="M27.664 34.6635C27.7163 34.2727 27.4252 33.9113 27.0139 33.8562C26.6025 33.8011 26.2266 34.0733 26.1743 34.464C26.122 34.8548 26.4131 35.2162 26.8244 35.2713C27.2358 35.3264 27.6117 35.0542 27.664 34.6635Z" fill="#486F93"/>
<path d="M26.7711 35.6441C26.1546 35.5615 25.7177 35.0094 25.7975 34.4133V34.4132C25.8775 33.8171 26.4421 33.4002 27.0606 33.4819C27.6771 33.5645 28.1139 34.1166 28.0342 34.7126C27.9545 35.3072 27.3896 35.7266 26.7711 35.6441ZM26.5445 34.5132C26.52 34.6975 26.6664 34.8697 26.8712 34.8971C27.0743 34.9253 27.2625 34.7969 27.2871 34.6126C27.3118 34.4285 27.1652 34.2563 26.9605 34.2289C26.7539 34.1997 26.5692 34.329 26.5445 34.5132Z" fill="#486F93"/>
<path d="M66.7971 24.7809C66.7959 24.7809 66.7949 24.7809 66.7937 24.7809C66.5854 24.779 66.4183 24.6087 66.4203 24.4005L66.5091 14.9312C66.5137 14.2233 65.7697 13.6088 64.7785 13.5029L29.6296 9.73441C29.4228 9.71221 29.273 9.52636 29.2951 9.31957C29.3173 9.11239 29.5038 8.96335 29.71 8.98507L64.8587 12.7536C66.2363 12.9008 67.2698 13.8395 67.2627 14.9373L67.1739 24.4077C67.172 24.6146 67.0037 24.7809 66.7971 24.7809Z" fill="#486F93"/>
<path d="M60.6215 19.1192C60.6117 19.1192 60.6019 19.1189 60.5918 19.1181L26.882 16.5059C26.6744 16.4898 26.5192 16.3085 26.5353 16.1011C26.5514 15.8937 26.7353 15.7387 26.9401 15.7544L60.6502 18.3667C60.8575 18.3828 61.0128 18.564 60.9966 18.7715C60.9814 18.9691 60.8163 19.1192 60.6215 19.1192Z" fill="#486F93"/>
<path d="M43.7745 14.7616C39.142 14.3214 35.1446 14.0877 30.5201 13.6479C30.3128 13.6283 30.1609 13.4443 30.1805 13.2371C30.1999 13.0298 30.3876 12.8773 30.5912 12.8977C35.2237 13.3379 39.2211 13.5716 43.8456 14.0114C44.0529 14.031 44.2048 14.215 44.1851 14.4222C44.1653 14.6325 43.9768 14.7822 43.7745 14.7616Z" fill="#486F93"/>
<path d="M21.3476 13.2439C21.2908 14.3846 21.1898 15.5332 21.1585 16.6814C21.0858 19.3423 21.0132 22.0033 20.9405 24.6642C20.7409 31.9799 20.5411 39.2961 20.5415 46.6139C20.5416 47.9964 20.56 49.4221 21.2785 50.6958C21.9971 51.9695 23.6012 53.0647 25.4338 53.0352C24.5544 53.0484 23.7857 52.5225 23.4403 51.9114C23.095 51.3004 23.084 50.6165 23.0791 49.9531C23.0041 39.7171 23.0998 29.4769 23.3666 19.2359C23.4273 16.9096 22.7983 16.5672 23.3056 11.9022C23.3765 11.2502 23.4604 10.5851 23.812 9.98767C24.1635 9.39025 24.8343 8.86219 25.6868 8.74255C24.2514 8.79424 22.8684 9.37621 22.0582 10.2696C21.1642 11.2553 21.4027 12.1389 21.3476 13.2439Z" fill="#486F93"/>
<path d="M63.7347 16.4955C63.8792 15.9097 63.5647 15.3283 63.0322 15.1969C62.4996 15.0655 61.9507 15.4338 61.8062 16.0196C61.6616 16.6053 61.9761 17.1867 62.5087 17.3181C63.0412 17.4495 63.5901 17.0812 63.7347 16.4955Z" fill="#486F93"/>
<path d="M59.8318 16.0841C59.9764 15.4983 59.6619 14.9169 59.1293 14.7855C58.5968 14.6541 58.0479 15.0224 57.9033 15.6082C57.7588 16.1939 58.0733 16.7753 58.6059 16.9067C59.1384 17.0381 59.6873 16.6698 59.8318 16.0841Z" fill="#486F93"/>
<path d="M56.054 15.5875C56.1986 15.0017 55.884 14.4203 55.3515 14.2889C54.819 14.1575 54.2701 14.5258 54.1255 15.1116C53.981 15.6973 54.2955 16.2787 54.828 16.4101C55.3606 16.5415 55.9094 16.1732 56.054 15.5875Z" fill="#486F93"/>
<path d="M16.9704 13.2317C16.7707 13.1731 16.6564 12.9635 16.7151 12.764C18.1354 7.93183 20.9953 3.43249 24.7676 0.0946584C24.9235 -0.0431016 25.1614 -0.0287302 25.2996 0.12718C25.4374 0.28309 25.4228 0.521169 25.2671 0.659169C21.5995 3.90427 18.8191 8.2786 17.4381 12.9764C17.3797 13.1754 17.1708 13.2906 16.9704 13.2317Z" fill="#486F93"/>
<path d="M12.1832 11.1567C11.9782 11.121 11.8409 10.926 11.8765 10.7208C12.504 7.11008 14.2738 3.69155 16.8597 1.09463C17.0065 0.947297 17.2451 0.946697 17.3927 1.09352C17.5401 1.24034 17.5406 1.47893 17.3938 1.6265C14.916 4.11464 13.2203 7.39025 12.6191 10.8499C12.5834 11.055 12.3883 11.1924 12.1832 11.1567Z" fill="#486F93"/>
<path d="M43.6464 38.0303C43.5473 38.0303 43.4521 37.9913 43.3814 37.9214C43.3083 37.8491 43.2681 37.7503 43.2696 37.6476L43.3898 29.9299C43.3915 29.8298 43.4327 29.7345 43.5046 29.665C44.5831 28.6217 45.8347 28.0241 47.0288 27.9821C47.9519 27.9488 48.7777 28.3872 49.5753 28.8105L49.7909 28.9244C50.5642 29.3303 51.3819 29.6744 52.1203 29.4487C52.8418 29.2282 53.4414 28.4679 53.9637 27.8438C54.6298 27.0509 55.3781 26.3043 56.3358 26.21C57.1665 26.1267 57.8959 26.5519 58.6022 26.9618C59.2835 27.3573 59.9282 27.73 60.5405 27.5648C61.1531 27.3995 61.6295 26.7267 62.09 26.0761C62.679 25.241 63.3006 24.3774 64.3436 24.398C64.5605 24.4018 64.729 24.5871 64.7131 24.8032C64.471 28.0071 64.339 33.1214 64.0956 36.3439C64.0814 36.53 63.9331 36.6778 63.7469 36.6913C61.8424 36.8294 59.9183 36.9815 58.0575 37.1286C52.9525 37.5321 48.1303 37.9132 43.6562 38.0302C43.653 38.0303 43.6496 38.0303 43.6464 38.0303ZM44.141 30.1005L44.0294 37.2658C48.3734 37.138 53.0523 36.7682 57.9982 36.3773C59.7545 36.2384 61.5672 36.0952 63.3677 35.9633C63.5834 32.9074 63.7127 28.3557 63.9263 25.2354C63.4234 25.4561 63.022 26.0815 62.7053 26.5114C62.1926 27.2356 61.6116 28.0563 60.7368 28.2925C59.8197 28.5397 59.0082 28.069 58.2239 27.6136C56.6362 26.6923 56.0151 26.5736 54.541 28.3283C53.9251 29.0641 53.2585 29.8889 52.3409 30.1693C51.3385 30.4761 50.3125 30.0495 49.4406 29.5917C48.6869 29.1902 47.8554 28.71 47.0553 28.7353C46.1021 28.7688 45.0472 29.2643 44.141 30.1005Z" fill="#486F93"/>
<path d="M49.5837 27.4478L48.359 25.3707L46.6922 27.0317C46.5447 27.1785 46.3063 27.1783 46.1593 27.0307C46.0124 26.8834 46.0129 26.6448 46.1603 26.4979L48.1711 24.4941C48.3451 24.3201 48.6369 24.3581 48.7615 24.5697L49.9666 26.6133C51.3959 24.9865 52.9579 23.5081 54.6153 22.2136C54.7674 22.0941 54.9856 22.1101 55.1193 22.2499L57.1432 24.3619L59.7027 22.3979C59.8678 22.2711 60.1043 22.3022 60.2309 22.4674C60.3577 22.6326 60.3266 22.8691 60.1615 22.9958L57.3341 25.1653C57.1812 25.2825 56.9656 25.2657 56.8326 25.1272L54.8121 23.0185C53.1601 24.3372 51.6081 25.8438 50.195 27.5009C50.0271 27.6981 49.7146 27.6702 49.5837 27.4478Z" fill="#486F93"/>
<path d="M49.9133 34.5291C49.9003 34.5291 49.8871 34.5285 49.8738 34.527C49.6667 34.5055 49.5164 34.3202 49.538 34.1132L49.9977 29.6979C50.019 29.491 50.204 29.3401 50.4116 29.3621C50.6186 29.3837 50.769 29.5689 50.7474 29.776L50.2877 34.1913C50.2673 34.3851 50.1039 34.5291 49.9133 34.5291Z" fill="#486F93"/>
<path d="M57.9319 33.6306C57.9261 33.6306 57.9199 33.6304 57.914 33.6302C57.7062 33.6204 57.5455 33.444 57.5554 33.2361L57.8368 27.2505C57.8463 27.0429 58.0249 26.8846 58.2307 26.8919C58.4388 26.9017 58.5992 27.0782 58.5894 27.2861L58.308 33.2714C58.2987 33.4733 58.1319 33.6306 57.9319 33.6306Z" fill="#486F93"/>
<path d="M60.0252 24.1648C60.0273 24.2264 60.0227 24.1126 60.0248 24.1741C59.6099 23.4113 59.1951 22.6484 58.7802 21.8855C59.5515 21.8776 60.2023 21.9097 60.9737 21.9018C60.6032 22.6953 60.3956 23.3713 60.0252 24.1648Z" fill="#486F93"/>
<path d="M59.7275 24.4055C59.6989 24.3693 59.5614 24.1078 58.4491 22.0657C58.3135 21.8168 58.4923 21.5116 58.7761 21.5088C59.5673 21.5013 60.2059 21.5326 60.9698 21.525C61.2618 21.53 61.4281 21.8191 61.3153 22.0612C60.9583 22.8257 60.7462 23.5058 60.3791 24.2971C60.3285 24.4413 60.1983 24.5538 60.0413 24.5603C59.9115 24.5635 59.8002 24.5027 59.7275 24.4055ZM59.4144 22.2635L59.9838 23.3103C60.1181 22.9789 60.2498 22.6299 60.3965 22.2781C60.2189 22.2764 60.0447 22.2734 59.8705 22.2705C59.7194 22.2679 59.568 22.2653 59.4144 22.2635Z" fill="#486F93"/>
<path d="M49.9133 34.5291C49.9003 34.5291 49.8871 34.5285 49.8738 34.527C49.6667 34.5055 49.5164 34.3202 49.538 34.1132L49.9977 29.6979C50.019 29.491 50.204 29.3401 50.4116 29.3621C50.6186 29.3837 50.769 29.5689 50.7474 29.776L50.2877 34.1913C50.2673 34.3851 50.1039 34.5291 49.9133 34.5291Z" fill="#486F93"/>
<path d="M57.9319 33.6306C57.9261 33.6306 57.9199 33.6304 57.914 33.6302C57.7062 33.6204 57.5455 33.444 57.5554 33.2361L57.8368 27.2505C57.8463 27.0429 58.0249 26.8846 58.2307 26.8919C58.4388 26.9017 58.5992 27.0782 58.5894 27.2861L58.308 33.2714C58.2987 33.4733 58.1319 33.6306 57.9319 33.6306Z" fill="#486F93"/>
<path d="M21.5792 72.0313C21.4098 72.4964 20.8994 72.8116 20.4077 72.7548C19.916 72.6979 19.491 72.2746 19.4323 71.7831C19.3688 71.2518 19.71 70.5363 20.1764 71.074C20.5842 71.5445 20.9053 71.9537 21.5792 72.0313Z" fill="#486F93"/>
<path d="M20.5233 73.1382C20.4705 73.1382 20.4174 73.1353 20.3643 73.1292C19.699 73.0521 19.1375 72.4927 19.058 71.8278C19.0007 71.3478 19.1873 70.7427 19.5987 70.5607C19.7359 70.5001 20.0944 70.4046 20.4609 70.8272C20.8376 71.2635 21.09 71.5957 21.622 71.6569C21.8641 71.6849 22.0161 71.9314 21.9331 72.1601C21.7224 72.7392 21.1343 73.1382 20.5233 73.1382ZM19.8755 71.3033C19.5547 71.9528 20.2933 72.6979 20.9498 72.2457C20.5206 72.0494 20.2329 71.7162 19.952 71.3909L19.8915 71.3208C19.8859 71.3144 19.8806 71.3086 19.8755 71.3033Z" fill="#486F93"/>
<path d="M35.5076 64.9679C37.8703 64.5 40.1788 63.3743 41.6523 61.469C43.1258 59.5637 43.6089 56.8083 42.4717 54.685C42.2132 57.5883 40.4827 60.3224 37.9694 61.7987C35.4561 63.2749 32.2255 63.4548 29.5638 62.2668C30.7484 62.7956 29.4702 64.142 28.6555 64.1684C30.156 65.6013 33.6471 65.3365 35.5076 64.9679Z" fill="#CCCCCC"/>
<path d="M25.698 60.5561C25.7554 60.3563 25.9629 60.2402 26.1643 60.2979C26.3642 60.3553 26.4799 60.5641 26.4225 60.7642C26.1648 61.6619 26.5268 62.5637 27.3908 63.1761C28.1874 63.7406 29.5046 63.9745 30.3303 63.3886C30.5001 63.2685 30.7349 63.308 30.8558 63.478C30.9763 63.6477 30.9363 63.8829 30.7665 64.0034C28.7114 65.4611 24.8667 63.4533 25.698 60.5561Z" fill="#486F93"/>
<path d="M20.6015 73.3825C20.2729 73.3825 19.936 73.2825 19.6577 73.1179C19.2951 72.9035 19.0103 72.5092 18.8558 72.0077C18.7305 71.6009 18.8211 71.1563 19.0984 70.8188L26.0615 62.3767C26.194 62.2163 26.431 62.1933 26.5921 62.3258C26.7526 62.4583 26.7753 62.6958 26.643 62.8563L19.6803 71.2976C19.5646 71.4386 19.5255 71.6213 19.5761 71.786C19.6738 72.1031 19.8434 72.3521 20.0414 72.4692C20.3552 72.6548 20.8002 72.7076 21.0019 72.4746C23.2787 69.849 24.6524 68.185 26.7734 65.2665C26.8955 65.0981 27.1314 65.0609 27.2997 65.1832C27.468 65.3055 27.5053 65.5412 27.383 65.7095C25.2457 68.6505 23.8628 70.3258 21.5713 72.9685C21.3181 73.2603 20.9648 73.3825 20.6015 73.3825Z" fill="#486F93"/>
<path d="M40.0867 37.7608H28.8203C28.6121 37.7608 28.4435 37.5921 28.4435 37.384C28.4435 37.1758 28.6121 37.0071 28.8203 37.0071H40.0867C40.2947 37.0071 40.4635 37.1758 40.4635 37.384C40.4635 37.5921 40.2947 37.7608 40.0867 37.7608Z" fill="#486F93"/>
<path d="M40.5678 43.0174H28.3583C28.1501 43.0174 27.9814 42.8487 27.9814 42.6405C27.9814 42.4324 28.1501 42.2637 28.3583 42.2637H40.5678C40.7759 42.2637 40.9447 42.4324 40.9447 42.6405C40.9447 42.8487 40.7759 43.0174 40.5678 43.0174Z" fill="#486F93"/>
<path d="M64.2149 43.7838L45.1163 44.7452L44.9983 41.1658L64.1188 40.867L64.2149 43.7838Z" fill="#486F93"/>
<path d="M0 27.9039C0.48384 27.1684 0.96768 26.433 1.45152 25.6976C4.92822 26.0184 8.44368 25.9173 11.8964 25.3971C12.8797 25.2489 15.2704 25.5367 13.7373 26.7045C12.9102 27.3346 10.3424 27.1167 9.30315 27.2134C7.75494 27.3575 6.20541 27.4871 4.65477 27.6021C4.03284 27.6483 0.27228 27.49 0 27.9039Z" fill="#CCCCCC"/>
<path d="M21.9548 27.0134C21.8523 27.0134 21.7502 26.9719 21.6759 26.89L19.5377 24.5378L15.3219 24.0154C15.1153 23.9898 14.9687 23.8016 14.9942 23.5951C15.0199 23.3885 15.2069 23.2411 15.4146 23.2674L19.7691 23.807C19.8585 23.8182 19.9409 23.8609 20.0015 23.9276L22.2335 26.3832C22.3734 26.5372 22.3622 26.7755 22.2081 26.9155C22.136 26.981 22.0452 27.0134 21.9548 27.0134Z" fill="#486F93"/>
<path d="M14.5221 20.8861L1.0094 19.3509C0.905754 19.3381 0.802104 19.3708 0.722604 19.4383C0.643254 19.5059 0.595404 19.6032 0.590364 19.7074L0.267144 26.485C0.262224 26.589 0.300624 26.6906 0.373254 26.7654C0.444264 26.8385 0.541794 26.8797 0.643614 26.8797C0.645834 26.8797 0.648144 26.8797 0.650364 26.8797L14.248 26.6371C14.4465 26.6335 14.6081 26.4765 14.6177 26.2782L14.8561 21.2784C14.8654 21.0801 14.7194 20.9084 14.5221 20.8861ZM4.6145 23.9339C4.60985 24.0696 4.49834 24.1765 4.36352 24.1765C4.23539 24.1765 4.80908 24.1919 2.80397 24.1228C2.66588 24.118 2.55671 24.002 2.56157 23.863L2.61518 22.3123C2.61983 22.1736 2.73674 22.0605 2.87498 22.0699C4.43594 22.1486 4.47581 22.0694 4.60061 22.2033C4.64612 22.252 4.67042 22.3168 4.66808 22.3834L4.6145 23.9339ZM8.52224 24.069C8.51759 24.2046 8.40608 24.3115 8.27126 24.3115C8.14313 24.3115 8.71682 24.327 6.71171 24.2578C6.57311 24.253 6.46454 24.1367 6.46934 23.998L6.52295 22.4472C6.5276 22.3086 6.6455 22.1982 6.78275 22.2048L8.33348 22.2584C8.47208 22.2632 8.58066 22.3795 8.57589 22.5182L8.52224 24.069ZM12.1818 24.1953C12.1771 24.331 12.0656 24.4378 11.9308 24.4378C11.8027 24.4378 12.3763 24.4533 10.3714 24.3842C10.2328 24.3795 10.1242 24.2632 10.129 24.1244L10.1825 22.5737C10.1871 22.442 10.2967 22.326 10.4423 22.3313L11.993 22.3849C12.1319 22.3898 12.2402 22.5066 12.2354 22.6447L12.1818 24.1953Z" fill="#486F93"/>
<path d="M118.578 24.9371C115.351 24.9371 112.734 27.552 112.734 30.7794C112.734 34.0067 115.351 36.6232 118.578 36.6232C121.806 36.6232 124.421 34.0067 124.421 30.7794C124.421 27.552 121.806 24.9371 118.578 24.9371ZM118.578 35.4668C115.989 35.4668 113.891 33.3685 113.891 30.7794C113.891 28.1902 115.989 26.0919 118.578 26.0919C121.167 26.0919 123.266 28.1902 123.266 30.7794C123.266 33.3685 121.167 35.4668 118.578 35.4668Z" fill="#486F93"/>
<path d="M118.578 37.0001C115.148 37.0001 112.358 34.2095 112.358 30.7794C112.358 27.3502 115.148 24.5603 118.578 24.5603C122.008 24.5603 124.798 27.3502 124.798 30.7794C124.798 34.2095 122.008 37.0001 118.578 37.0001ZM118.578 25.314C115.564 25.314 113.111 27.7658 113.111 30.7794C113.111 33.7939 115.564 36.2464 118.578 36.2464C121.592 36.2464 124.044 33.7939 124.044 30.7794C124.044 27.7658 121.592 25.314 118.578 25.314ZM118.578 35.8437C115.786 35.8437 113.514 33.5719 113.514 30.7794C113.514 27.9869 115.786 25.7151 118.578 25.7151C121.371 25.7151 123.643 27.9869 123.643 30.7794C123.643 33.5719 121.371 35.8437 118.578 35.8437ZM118.578 26.4687C116.201 26.4687 114.268 28.4025 114.268 30.7794C114.268 33.1563 116.201 35.0901 118.578 35.0901C120.955 35.0901 122.889 33.1563 122.889 30.7794C122.889 28.4025 120.955 26.4687 118.578 26.4687Z" fill="#486F93"/>
<path d="M33.4501 45.2355C28.2189 45.3934 24.1081 49.7625 24.266 54.9914C24.4239 60.2226 28.7908 64.3335 34.022 64.1756C39.2509 64.0177 43.364 59.6507 43.2061 54.4196C43.0482 49.1906 38.6791 45.0776 33.4501 45.2355ZM33.9623 62.1997C29.8214 62.3247 26.3668 59.0706 26.2419 54.9318C26.1169 50.793 29.3688 47.3363 33.5098 47.2113C37.6486 47.0864 41.1053 50.3405 41.2303 54.4793C41.3552 58.618 38.1011 62.0747 33.9623 62.1997Z" fill="#486F93"/>
<path d="M33.7284 64.5568C28.4855 64.5571 24.0526 60.4024 23.8894 55.0028C23.7255 49.5733 28.0094 45.0227 33.4388 44.8587C38.8669 44.6984 43.419 48.9788 43.5826 54.4081C43.7501 59.9512 39.3155 64.5568 33.7284 64.5568ZM33.4616 45.6121C28.4475 45.7635 24.4914 49.966 24.6429 54.98C24.7161 57.4095 25.7308 59.6646 27.5 61.33C29.2692 62.9955 31.5831 63.8765 34.0109 63.7989C39.0355 63.6473 42.9813 59.4577 42.8295 54.431C42.6783 49.4169 38.4736 45.457 33.4616 45.6121ZM33.7297 62.5801C31.716 62.5801 29.8098 61.825 28.3379 60.4391C26.8069 58.9975 25.9287 57.0457 25.8652 54.9432C25.7342 50.6032 29.1585 46.9657 33.4985 46.8346C37.8426 46.7069 41.4757 50.1278 41.607 54.4678C41.7384 58.8177 38.3243 62.4449 33.9738 62.5764C33.8924 62.5788 33.8108 62.5801 33.7297 62.5801ZM33.7389 47.5847C33.6666 47.5847 33.594 47.5858 33.5213 47.588C29.5965 47.7065 26.5 50.9959 26.6186 54.9204C26.676 56.8218 27.47 58.5867 28.8544 59.8903C30.2392 61.1941 32.0517 61.8837 33.951 61.823C37.8755 61.7046 40.9721 58.4153 40.8538 54.4906C40.7373 50.6389 37.5666 47.5847 33.7389 47.5847Z" fill="#486F93"/>
</svg>
