<svg width="22" height="24" viewBox="0 0 22 24" fill="none" xmlns="http://www.w3.org/2000/svg">
<path d="M17.143 13.7143C17.5316 13.7143 17.9087 13.76 18.2859 13.8171V10.2857C18.2859 9.6795 18.0451 9.09812 17.6164 8.66947C17.1878 8.24082 16.6064 8 16.0002 8H14.8573V5.71429C14.8573 2.56 12.2973 0 9.14295 0C5.98863 0 3.4286 2.56 3.4286 5.71429V8H2.28574C1.67952 8 1.09814 8.24082 0.669477 8.66947C0.240818 9.09812 0 9.6795 0 10.2857V21.7143C0 22.9829 1.01715 24 2.28574 24H11.2115C10.6287 22.9943 10.2858 21.8286 10.2858 20.5714C10.2858 16.7886 13.3601 13.7143 17.143 13.7143ZM5.71434 5.71429C5.71434 3.81714 7.24578 2.28571 9.14295 2.28571C11.0401 2.28571 12.5715 3.81714 12.5715 5.71429V8H5.71434V5.71429ZM9.14295 18.2857C8.69087 18.2857 8.24895 18.1517 7.87306 17.9005C7.49717 17.6493 7.2042 17.2924 7.0312 16.8747C6.8582 16.457 6.81293 15.9975 6.90113 15.5541C6.98932 15.1107 7.20702 14.7034 7.52669 14.3838C7.84635 14.0641 8.25363 13.8464 8.69702 13.7582C9.14041 13.67 9.59999 13.7153 10.0177 13.8883C10.4353 14.0613 10.7923 14.3542 11.0435 14.7301C11.2946 15.106 11.4287 15.5479 11.4287 16C11.4287 17.2686 10.4115 18.2857 9.14295 18.2857Z" fill="black"/>
<path d="M11.8962 22.8571V21.9047H21.247V22.8571H11.8962ZM12.4339 19.9762L11.8261 19.619L12.2235 18.9047H11.4287V18.1904H12.2235L11.8261 17.5L12.4339 17.1428L12.8313 17.8333L13.2287 17.1428L13.8365 17.5L13.4391 18.1904H14.2339V18.9047H13.4391L13.8365 19.619L13.2287 19.9762L12.8313 19.2619L12.4339 19.9762ZM16.1742 19.9762L15.5664 19.619L15.9638 18.9047H15.169V18.1904H15.9638L15.5664 17.5L16.1742 17.1428L16.5716 17.8333L16.969 17.1428L17.5768 17.5L17.1794 18.1904H17.9742V18.9047H17.1794L17.5768 19.619L16.969 19.9762L16.5716 19.2619L16.1742 19.9762ZM19.9145 19.9762L19.3067 19.619L19.7041 18.9047H18.9093V18.1904H19.7041L19.3067 17.5L19.9145 17.1428L20.3119 17.8333L20.7093 17.1428L21.3171 17.5L20.9197 18.1904H21.7145V18.9047H20.9197L21.3171 19.619L20.7093 19.9762L20.3119 19.2619L19.9145 19.9762Z" fill="black"/>
</svg>
