<svg width="16" height="16" viewBox="0 0 16 16" fill="none" xmlns="http://www.w3.org/2000/svg">
<path d="M14.5 12.5C14.5 12.6326 14.4473 12.7598 14.3535 12.8536C14.2598 12.9473 14.1326 13 14 13C13.8674 13 13.7402 12.9473 13.6464 12.8536C13.5527 12.7598 13.5 12.6326 13.5 12.5C13.4983 11.0418 12.9183 9.64383 11.8873 8.61274C10.8562 7.58165 9.45818 7.00165 8 7H3.20687L5.35375 9.14625C5.44757 9.24007 5.50027 9.36732 5.50027 9.5C5.50027 9.63268 5.44757 9.75993 5.35375 9.85375C5.25993 9.94757 5.13268 10.0003 5 10.0003C4.86731 10.0003 4.74007 9.94757 4.64625 9.85375L1.64625 6.85375C1.59976 6.80731 1.56288 6.75217 1.53772 6.69147C1.51255 6.63077 1.4996 6.56571 1.4996 6.5C1.4996 6.43429 1.51255 6.36923 1.53772 6.30853C1.56288 6.24783 1.59976 6.19269 1.64625 6.14625L4.64625 3.14625C4.74007 3.05243 4.86731 2.99972 5 2.99972C5.13268 2.99972 5.25993 3.05243 5.35375 3.14625C5.44757 3.24007 5.50027 3.36732 5.50027 3.5C5.50027 3.63268 5.44757 3.75993 5.35375 3.85375L3.20687 6H8C9.72334 6.00182 11.3756 6.68722 12.5942 7.90582C13.8128 9.12441 14.4982 10.7767 14.5 12.5Z" fill="black"/>
</svg>
