<svg width="24" height="24" viewBox="0 0 24 24" fill="none" xmlns="http://www.w3.org/2000/svg">
<path d="M20.986 4.41751C20.9638 4.05182 20.8085 3.7069 20.5494 3.44784C20.2904 3.18878 19.9454 3.03348 19.5797 3.01126C18.4004 2.94095 15.3863 3.04876 12.8851 5.54907L12.4397 6.00001H6.9713C6.77356 5.9989 6.57758 6.03711 6.39474 6.11243C6.21191 6.18776 6.04588 6.29868 5.9063 6.43876L2.69068 9.65626C2.49347 9.85333 2.35509 10.1015 2.29107 10.3728C2.22704 10.6441 2.23991 10.928 2.32821 11.1924C2.41652 11.4568 2.57678 11.6914 2.79101 11.8699C3.00523 12.0483 3.26494 12.1635 3.54099 12.2025L7.14755 12.7059L11.2922 16.8506L11.7957 20.4591C11.8344 20.7351 11.9496 20.9949 12.1281 21.2089C12.3067 21.423 12.5416 21.5828 12.8063 21.6703C12.9605 21.7218 13.1219 21.7481 13.2844 21.7481C13.4812 21.7485 13.6761 21.7099 13.858 21.6346C14.0398 21.5593 14.2049 21.4488 14.3438 21.3094L17.5613 18.0938C17.7014 17.9542 17.8123 17.7882 17.8876 17.6053C17.963 17.4225 18.0012 17.2265 18.0001 17.0288V11.5603L18.4472 11.1131C20.9485 8.61188 21.0563 5.59782 20.986 4.41751ZM6.9713 7.50001H10.9397L7.2338 11.205L3.75005 10.7194L6.9713 7.50001ZM13.9472 6.61407C14.6679 5.88895 15.535 5.32595 16.4907 4.96268C17.4463 4.59941 18.4684 4.44423 19.4888 4.50751C19.5545 5.52843 19.401 6.55159 19.0384 7.50823C18.6759 8.46487 18.1128 9.33282 17.3869 10.0538L12.0001 15.4388L8.5613 12L13.9472 6.61407ZM16.5001 17.0288L13.2816 20.25L12.7951 16.7653L16.5001 13.0603V17.0288ZM9.54755 17.9194C9.12568 18.8438 7.71474 21 3.75005 21C3.55114 21 3.36037 20.921 3.21972 20.7803C3.07907 20.6397 3.00005 20.4489 3.00005 20.25C3.00005 16.2853 5.1563 14.8744 6.08068 14.4516C6.17031 14.4107 6.26711 14.3879 6.36555 14.3844C6.464 14.381 6.56216 14.3969 6.65444 14.4314C6.74672 14.4659 6.8313 14.5182 6.90337 14.5853C6.97543 14.6525 7.03355 14.7332 7.07443 14.8228C7.1153 14.9124 7.13812 15.0093 7.14159 15.1077C7.14505 15.2061 7.12909 15.3043 7.09461 15.3966C7.06014 15.4889 7.00783 15.5734 6.94067 15.6455C6.8735 15.7176 6.79281 15.7757 6.70318 15.8166C6.10037 16.0913 4.77005 16.9753 4.53568 19.4644C7.02474 19.23 7.91068 17.8997 8.18349 17.2969C8.22436 17.2073 8.28249 17.1266 8.35455 17.0594C8.42661 16.9922 8.5112 16.9399 8.60348 16.9054C8.69576 16.871 8.79392 16.855 8.89237 16.8585C8.99081 16.8619 9.08761 16.8848 9.17724 16.9256C9.26687 16.9665 9.34757 17.0246 9.41473 17.0967C9.48189 17.1688 9.5342 17.2533 9.56868 17.3456C9.60315 17.4379 9.61911 17.5361 9.61565 17.6345C9.61219 17.733 9.58936 17.8298 9.54849 17.9194H9.54755Z" fill="black"/>
</svg>
