<svg width="24" height="24" viewBox="0 0 24 24" fill="none" xmlns="http://www.w3.org/2000/svg">
<path d="M21.6066 6.32755C21.5384 6.15888 21.4302 6.00928 21.2915 5.89158C21.1527 5.77388 20.9875 5.69159 20.8099 5.65176C20.6324 5.61194 20.4479 5.61578 20.2721 5.66294C20.0964 5.7101 19.9347 5.79918 19.801 5.92255L16.1653 9.28067L14.9766 9.02567L14.7188 7.83411L18.0741 4.19848C18.1975 4.06474 18.2865 3.90307 18.3337 3.72734C18.3809 3.5516 18.3847 3.36705 18.3449 3.18951C18.3051 3.01197 18.2228 2.84674 18.1051 2.70799C17.9874 2.56924 17.8378 2.4611 17.6691 2.39286C16.3946 1.8798 14.999 1.74582 13.6501 2.00703C12.3013 2.26823 11.0566 2.9135 10.0657 3.86525C9.07488 4.81699 8.38003 6.03469 8.06474 7.37194C7.74945 8.70918 7.82714 10.109 8.28848 11.4032L2.89879 16.3288C2.88592 16.34 2.87371 16.3518 2.86223 16.3644C2.2378 16.9991 1.88947 17.8548 1.89309 18.7451C1.89672 19.6355 2.25201 20.4883 2.88158 21.1179C3.51115 21.7474 4.36399 22.1027 5.25432 22.1064C6.14466 22.11 7.00036 21.7617 7.63504 21.1372L7.67066 21.1007L12.5963 15.711C13.8908 16.1736 15.2914 16.2521 16.6295 15.9371C17.9676 15.622 19.1861 14.9268 20.1382 13.9353C21.0904 12.9437 21.7355 11.6981 21.996 10.3483C22.2566 8.99852 22.1213 7.60222 21.6066 6.32755ZM15 13.8744C14.2398 13.8767 13.4897 13.6994 12.811 13.3569C12.5918 13.2465 12.3426 13.2107 12.1012 13.255C11.8599 13.2994 11.6396 13.4214 11.4741 13.6025L6.0291 19.5613C5.81776 19.7726 5.53111 19.8914 5.23223 19.8914C4.93334 19.8914 4.6467 19.7726 4.43535 19.5613C4.22401 19.35 4.10527 19.0633 4.10527 18.7644C4.10527 18.4655 4.22401 18.1789 4.43535 17.9675L10.3932 12.5235C10.5743 12.3579 10.6964 12.1377 10.7407 11.8963C10.785 11.655 10.7493 11.4057 10.6388 11.1866C10.2979 10.5081 10.1219 9.75874 10.125 8.99942C10.1265 7.70695 10.6406 6.46784 11.5545 5.55392C12.4685 4.64 13.7076 4.12591 15 4.12442H15.0835L12.6722 6.73723C12.5501 6.86966 12.4616 7.02947 12.4142 7.20322C12.3667 7.37696 12.3616 7.55956 12.3994 7.73567L12.93 10.206C12.9756 10.4178 13.0813 10.6119 13.2344 10.765C13.3876 10.9182 13.5817 11.0239 13.7935 11.0694L16.2638 11.6C16.4399 11.6378 16.6225 11.6328 16.7962 11.5853C16.97 11.5378 17.1298 11.4493 17.2622 11.3272L19.875 8.91692C19.875 8.94505 19.875 8.97223 19.875 9.00036C19.8733 10.2927 19.3591 11.5315 18.4452 12.4453C17.5313 13.359 16.2923 13.8729 15 13.8744Z" fill="black"/>
</svg>
