<svg width="32" height="32" viewBox="0 0 32 32" fill="none" xmlns="http://www.w3.org/2000/svg">
<path d="M14.2926 19.2925L26.2926 7.29248C26.3855 7.19957 26.4958 7.12587 26.6172 7.07559C26.7386 7.02531 26.8687 6.99943 27.0001 6.99943C27.1315 6.99943 27.2616 7.02531 27.383 7.07559C27.5044 7.12587 27.6147 7.19957 27.7076 7.29248C27.8005 7.38539 27.8742 7.49569 27.9245 7.61709C27.9747 7.73848 28.0006 7.86859 28.0006 7.99998C28.0006 8.13138 27.9747 8.26149 27.9245 8.38288C27.8742 8.50427 27.8005 8.61457 27.7076 8.70748L15.7076 20.7075C15.6147 20.8004 15.5044 20.8741 15.383 20.9244C15.2616 20.9747 15.1315 21.0005 15.0001 21.0005C14.8687 21.0005 14.7386 20.9747 14.6172 20.9244C14.4958 20.8741 14.3855 20.8004 14.2926 20.7075C14.1997 20.6146 14.126 20.5043 14.0757 20.3829C14.0254 20.2615 13.9995 20.1314 13.9995 20C13.9995 19.8686 14.0254 19.7385 14.0757 19.6171C14.126 19.4957 14.1997 19.3854 14.2926 19.2925ZM16.0001 11C16.8687 10.9989 17.7317 11.1395 18.5551 11.4162C18.6801 11.4606 18.8127 11.4796 18.9451 11.4722C19.0775 11.4647 19.2071 11.4311 19.3264 11.3731C19.4457 11.3151 19.5523 11.234 19.6399 11.1344C19.7275 11.0348 19.7945 10.9188 19.8368 10.7931C19.8792 10.6674 19.8961 10.5346 19.8867 10.4023C19.8772 10.27 19.8415 10.1409 19.7817 10.0225C19.7218 9.90417 19.639 9.79889 19.5381 9.71283C19.4372 9.62676 19.3202 9.56163 19.1938 9.52123C17.6002 8.98399 15.8969 8.85732 14.2413 9.15295C12.5858 9.44857 11.0316 10.1569 9.7224 11.2125C8.41323 12.2681 7.39142 13.6368 6.75149 15.192C6.11156 16.7472 5.87419 18.4387 6.06132 20.11C6.08837 20.3544 6.20454 20.5803 6.38764 20.7445C6.57073 20.9087 6.8079 20.9996 7.05382 21C7.09007 21 7.12757 21 7.16507 20.9937C7.42861 20.9645 7.66975 20.8318 7.83548 20.6248C8.00121 20.4179 8.07795 20.1535 8.04882 19.89C8.01628 19.5944 8 19.2973 8.00007 19C8.00239 16.879 8.84599 14.8455 10.3458 13.3457C11.8456 11.8459 13.879 11.0023 16.0001 11ZM28.4676 12.625C28.4077 12.5081 28.3253 12.4042 28.2252 12.3191C28.1251 12.2341 28.0093 12.1696 27.8843 12.1293C27.7593 12.089 27.6275 12.0738 27.4966 12.0844C27.3657 12.095 27.2382 12.1313 27.1213 12.1912C27.0044 12.2511 26.9005 12.3335 26.8155 12.4336C26.7304 12.5337 26.6659 12.6495 26.6256 12.7745C26.5854 12.8995 26.5701 13.0313 26.5807 13.1622C26.5913 13.2931 26.6277 13.4206 26.6876 13.5375C27.4274 14.9903 27.8643 16.5784 27.9717 18.2052C28.0792 19.832 27.8549 21.4637 27.3126 23.0012L4.67507 22.9925C4.04348 21.182 3.8538 19.2468 4.12186 17.3482C4.38992 15.4495 5.10795 13.6425 6.21608 12.0776C7.32421 10.5128 8.79035 9.23549 10.4923 8.35224C12.1942 7.46898 14.0826 7.00535 16.0001 6.99998H16.1101C17.9725 7.0117 19.806 7.4613 21.4626 8.31248C21.5798 8.37698 21.7087 8.41731 21.8418 8.43109C21.9748 8.44486 22.1093 8.4318 22.2372 8.39267C22.3652 8.35354 22.4839 8.28914 22.5865 8.20329C22.6891 8.11743 22.7734 8.01187 22.8345 7.89285C22.8955 7.77382 22.9321 7.64375 22.942 7.51035C22.9519 7.37694 22.9349 7.24291 22.8921 7.11618C22.8492 6.98945 22.7814 6.8726 22.6926 6.77256C22.6038 6.67251 22.4958 6.5913 22.3751 6.53373C19.8813 5.25639 17.0616 4.75671 14.2807 5.09934C11.4998 5.44197 8.88573 6.61114 6.77657 8.45562C4.6674 10.3001 3.16021 12.735 2.44995 15.4454C1.73969 18.1558 1.85905 21.0169 2.79257 23.6587C2.93047 24.0501 3.18621 24.3892 3.52464 24.6294C3.86307 24.8696 4.26758 24.999 4.68257 25H27.3163C27.7311 25.0002 28.1357 24.8715 28.4741 24.6317C28.8125 24.3918 29.0679 24.0527 29.2051 23.6612C29.8358 21.8674 30.0956 19.9641 29.9689 18.0668C29.8421 16.1695 29.3313 14.3177 28.4676 12.6237V12.625Z" fill="black"/>
</svg>
