<svg width="24" height="24" viewBox="0 0 24 24" fill="none" xmlns="http://www.w3.org/2000/svg">
<path d="M13.125 3V6C13.125 6.29837 13.0065 6.58452 12.7955 6.7955C12.5845 7.00647 12.2984 7.125 12 7.125C11.7016 7.125 11.4155 7.00647 11.2045 6.7955C10.9935 6.58452 10.875 6.29837 10.875 6V3C10.875 2.70163 10.9935 2.41548 11.2045 2.2045C11.4155 1.99353 11.7016 1.875 12 1.875C12.2984 1.875 12.5845 1.99353 12.7955 2.2045C13.0065 2.41548 13.125 2.70163 13.125 3ZM21 10.875H18C17.7016 10.875 17.4155 10.9935 17.2045 11.2045C16.9935 11.4155 16.875 11.7016 16.875 12C16.875 12.2984 16.9935 12.5845 17.2045 12.7955C17.4155 13.0065 17.7016 13.125 18 13.125H21C21.2984 13.125 21.5845 13.0065 21.7955 12.7955C22.0065 12.5845 22.125 12.2984 22.125 12C22.125 11.7016 22.0065 11.4155 21.7955 11.2045C21.5845 10.9935 21.2984 10.875 21 10.875ZM17.0381 15.4472C16.9335 15.3425 16.8092 15.2595 16.6725 15.2029C16.5358 15.1463 16.3892 15.1171 16.2413 15.1171C16.0933 15.1171 15.9467 15.1463 15.81 15.2029C15.6733 15.2595 15.549 15.3425 15.4444 15.4472C15.3397 15.5518 15.2567 15.6761 15.2001 15.8128C15.1434 15.9495 15.1143 16.0961 15.1143 16.2441C15.1143 16.3921 15.1434 16.5386 15.2001 16.6753C15.2567 16.8121 15.3397 16.9363 15.4444 17.0409L17.5659 19.1625C17.7773 19.3738 18.0639 19.4926 18.3628 19.4926C18.6617 19.4926 18.9483 19.3738 19.1597 19.1625C19.371 18.9512 19.4898 18.6645 19.4898 18.3656C19.4898 18.0667 19.371 17.7801 19.1597 17.5687L17.0381 15.4472ZM12 16.875C11.7016 16.875 11.4155 16.9935 11.2045 17.2045C10.9935 17.4155 10.875 17.7016 10.875 18V21C10.875 21.2984 10.9935 21.5845 11.2045 21.7955C11.4155 22.0065 11.7016 22.125 12 22.125C12.2984 22.125 12.5845 22.0065 12.7955 21.7955C13.0065 21.5845 13.125 21.2984 13.125 21V18C13.125 17.7016 13.0065 17.4155 12.7955 17.2045C12.5845 16.9935 12.2984 16.875 12 16.875ZM6.96187 15.4472L4.84031 17.5687C4.62897 17.7801 4.51024 18.0667 4.51024 18.3656C4.51024 18.6645 4.62897 18.9512 4.84031 19.1625C5.05166 19.3738 5.3383 19.4926 5.63719 19.4926C5.93607 19.4926 6.22272 19.3738 6.43406 19.1625L8.55562 17.0409C8.76697 16.8296 8.8857 16.5429 8.8857 16.2441C8.8857 15.9452 8.76697 15.6585 8.55562 15.4472C8.34428 15.2358 8.05764 15.1171 7.75875 15.1171C7.45986 15.1171 7.17322 15.2358 6.96187 15.4472ZM7.125 12C7.125 11.7016 7.00647 11.4155 6.7955 11.2045C6.58452 10.9935 6.29837 10.875 6 10.875H3C2.70163 10.875 2.41548 10.9935 2.2045 11.2045C1.99353 11.4155 1.875 11.7016 1.875 12C1.875 12.2984 1.99353 12.5845 2.2045 12.7955C2.41548 13.0065 2.70163 13.125 3 13.125H6C6.29837 13.125 6.58452 13.0065 6.7955 12.7955C7.00647 12.5845 7.125 12.2984 7.125 12ZM6.43125 4.84031C6.21991 4.62897 5.93326 4.51024 5.63437 4.51024C5.33549 4.51024 5.04884 4.62897 4.8375 4.84031C4.62616 5.05166 4.50742 5.3383 4.50742 5.63719C4.50742 5.93607 4.62616 6.22272 4.8375 6.43406L6.96187 8.55281C7.17322 8.76416 7.45986 8.88289 7.75875 8.88289C8.05764 8.88289 8.34428 8.76416 8.55562 8.55281C8.76697 8.34147 8.8857 8.05482 8.8857 7.75594C8.8857 7.45705 8.76697 7.17041 8.55562 6.95906L6.43125 4.84031Z" fill="#00AB3B"/>
</svg>
