<svg width="24" height="24" viewBox="0 0 24 24" fill="none" xmlns="http://www.w3.org/2000/svg">
<path d="M22.7811 8.99968C22.6649 8.64091 22.4448 8.32469 22.1487 8.09105C21.8527 7.85741 21.494 7.71686 21.118 7.68718L15.8127 7.25874L13.7652 2.3078C13.6213 1.95789 13.3767 1.65863 13.0624 1.44804C12.748 1.23744 12.3782 1.125 11.9999 1.125C11.6215 1.125 11.2517 1.23744 10.9374 1.44804C10.6231 1.65863 10.3785 1.95789 10.2346 2.3078L8.18895 7.25968L2.88363 7.68718C2.50697 7.71824 2.14788 7.85994 1.85151 8.09448C1.55514 8.32901 1.33469 8.64591 1.21789 9.00535C1.10108 9.36479 1.09311 9.75074 1.195 10.1147C1.29688 10.4786 1.50406 10.8044 1.79051 11.0509L5.83863 14.5422L4.60113 19.7641C4.51088 20.1322 4.53223 20.5189 4.66247 20.8749C4.79271 21.2309 5.02595 21.5401 5.33249 21.7631C5.63903 21.9861 6.005 22.1128 6.3838 22.1271C6.76259 22.1414 7.13708 22.0427 7.45957 21.8434L11.9999 19.0487L16.5402 21.8434C16.8626 22.0413 17.2365 22.1391 17.6145 22.1244C17.9925 22.1097 18.3576 21.9832 18.6637 21.7608C18.9697 21.5385 19.2029 21.2303 19.3338 20.8754C19.4646 20.5204 19.4872 20.1347 19.3986 19.7669L18.1611 14.545L22.2093 11.0537C22.4974 10.8066 22.7056 10.4794 22.8074 10.1136C22.9093 9.74792 22.9001 9.36019 22.7811 8.99968ZM16.1746 13.2841C16.0185 13.4186 15.9023 13.5935 15.8389 13.7896C15.7754 13.9857 15.767 14.1954 15.8146 14.3959L17.023 19.4997L12.5896 16.7734C12.4122 16.6643 12.2081 16.6065 11.9999 16.6065C11.7917 16.6065 11.5875 16.6643 11.4102 16.7734L6.97676 19.4997L8.1852 14.3997C8.23279 14.1992 8.22439 13.9894 8.16091 13.7933C8.09742 13.5972 7.98129 13.4224 7.8252 13.2878L3.86238 9.86593L9.05613 9.44687C9.26282 9.43026 9.46089 9.35686 9.62848 9.23476C9.79607 9.11267 9.92666 8.94663 10.0058 8.75499L11.9999 3.92687L13.9939 8.75499C14.0731 8.94663 14.2037 9.11267 14.3713 9.23476C14.5389 9.35686 14.7369 9.43026 14.9436 9.44687L20.1374 9.86593L16.1746 13.2841Z" fill="#016630"/>
</svg>
