<svg width="24" height="24" viewBox="0 0 24 24" fill="none" xmlns="http://www.w3.org/2000/svg">
<g clip-path="url(#clip0_1856_5204)">
<path d="M17.25 7.5H21.2419C21.3913 7.49993 21.5374 7.54451 21.6613 7.62803C21.7853 7.71155 21.8815 7.8302 21.9375 7.96875L23.25 11.25" stroke="black" stroke-width="1.5" stroke-linecap="round" stroke-linejoin="round"/>
<path d="M2.25 13.5H17.25" stroke="black" stroke-width="1.5" stroke-linecap="round" stroke-linejoin="round"/>
<path d="M18 20.25C19.2426 20.25 20.25 19.2426 20.25 18C20.25 16.7574 19.2426 15.75 18 15.75C16.7574 15.75 15.75 16.7574 15.75 18C15.75 19.2426 16.7574 20.25 18 20.25Z" stroke="black" stroke-width="1.5" stroke-linecap="round" stroke-linejoin="round"/>
<path d="M7.5 20.25C8.74264 20.25 9.75 19.2426 9.75 18C9.75 16.7574 8.74264 15.75 7.5 15.75C6.25736 15.75 5.25 16.7574 5.25 18C5.25 19.2426 6.25736 20.25 7.5 20.25Z" stroke="black" stroke-width="1.5" stroke-linecap="round" stroke-linejoin="round"/>
<path d="M15.75 18H9.75" stroke="black" stroke-width="1.5" stroke-linecap="round" stroke-linejoin="round"/>
<path d="M17.25 11.25H23.25V17.25C23.25 17.4489 23.171 17.6397 23.0303 17.7803C22.8897 17.921 22.6989 18 22.5 18H20.25" stroke="black" stroke-width="1.5" stroke-linecap="round" stroke-linejoin="round"/>
<path d="M5.25 18H3C2.80109 18 2.61032 17.921 2.46967 17.7803C2.32902 17.6397 2.25 17.4489 2.25 17.25V6.75C2.25 6.55109 2.32902 6.36032 2.46967 6.21967C2.61032 6.07902 2.80109 6 3 6H17.25V15.8784" stroke="black" stroke-width="1.5" stroke-linecap="round" stroke-linejoin="round"/>
</g>
<defs>
<clipPath id="clip0_1856_5204">
<rect width="24" height="24" fill="white"/>
</clipPath>
</defs>
</svg>
