<svg width="32" height="32" viewBox="0 0 32 32" fill="none" xmlns="http://www.w3.org/2000/svg">
<path d="M28 17.9998V25.9998C28 26.265 27.8946 26.5194 27.7071 26.7069C27.5196 26.8945 27.2652 26.9998 27 26.9998H5C4.73478 26.9998 4.48043 26.8945 4.29289 26.7069C4.10536 26.5194 4 26.265 4 25.9998V17.9998C4 17.7346 4.10536 17.4802 4.29289 17.2927C4.48043 17.1052 4.73478 16.9998 5 16.9998C5.26522 16.9998 5.51957 17.1052 5.70711 17.2927C5.89464 17.4802 6 17.7346 6 17.9998V24.9998H26V17.9998C26 17.7346 26.1054 17.4802 26.2929 17.2927C26.4804 17.1052 26.7348 16.9998 27 16.9998C27.2652 16.9998 27.5196 17.1052 27.7071 17.2927C27.8946 17.4802 28 17.7346 28 17.9998ZM11.7075 9.70731L15 6.41356V17.9998C15 18.265 15.1054 18.5194 15.2929 18.7069C15.4804 18.8945 15.7348 18.9998 16 18.9998C16.2652 18.9998 16.5196 18.8945 16.7071 18.7069C16.8946 18.5194 17 18.265 17 17.9998V6.41356L20.2925 9.70731C20.4801 9.89495 20.7346 10.0004 21 10.0004C21.2654 10.0004 21.5199 9.89495 21.7075 9.70731C21.8951 9.51967 22.0006 9.26517 22.0006 8.99981C22.0006 8.73445 21.8951 8.47995 21.7075 8.29231L16.7075 3.29231C16.6146 3.19933 16.5043 3.12557 16.3829 3.07525C16.2615 3.02493 16.1314 2.99902 16 2.99902C15.8686 2.99902 15.7385 3.02493 15.6171 3.07525C15.4957 3.12557 15.3854 3.19933 15.2925 3.29231L10.2925 8.29231C10.1049 8.47995 9.99944 8.73445 9.99944 8.99981C9.99944 9.26517 10.1049 9.51967 10.2925 9.70731C10.4801 9.89495 10.7346 10.0004 11 10.0004C11.2654 10.0004 11.5199 9.89495 11.7075 9.70731Z" fill="black"/>
</svg>
