<svg width="25" height="25" viewBox="0 0 25 25" fill="none" xmlns="http://www.w3.org/2000/svg">
<g clip-path="url(#clip0_2360_10909)">
<path d="M10.1562 3.90625H5.46875C5.03728 3.90625 4.6875 4.25603 4.6875 4.6875V20.3125C4.6875 20.744 5.03728 21.0938 5.46875 21.0938H10.1562C10.5877 21.0938 10.9375 20.744 10.9375 20.3125V4.6875C10.9375 4.25603 10.5877 3.90625 10.1562 3.90625Z" stroke="white" stroke-width="1.5" stroke-linecap="round" stroke-linejoin="round"/>
<path d="M21.2567 20.0952L16.6854 21.0718C16.5847 21.0932 16.4807 21.0945 16.3794 21.0756C16.2782 21.0567 16.1816 21.0179 16.0954 20.9616C16.0092 20.9052 15.935 20.8323 15.877 20.7472C15.819 20.662 15.7785 20.5662 15.7577 20.4653L12.5175 5.05909C12.4739 4.85558 12.5126 4.64308 12.6251 4.46799C12.7376 4.2929 12.9148 4.16943 13.1181 4.12452L17.6894 3.14796C17.7901 3.12652 17.8941 3.12523 17.9954 3.14414C18.0966 3.16306 18.1932 3.20181 18.2794 3.25818C18.3656 3.31454 18.4398 3.3874 18.4978 3.47257C18.5558 3.55773 18.5963 3.65351 18.6171 3.75441L21.8573 19.1607C21.9009 19.3642 21.8622 19.5767 21.7497 19.7518C21.6372 19.9269 21.46 20.0503 21.2567 20.0952Z" stroke="white" stroke-width="1.5" stroke-linecap="round" stroke-linejoin="round"/>
<path d="M4.6875 7.03125H10.9375" stroke="white" stroke-width="1.5" stroke-linecap="round" stroke-linejoin="round"/>
<path d="M4.6875 17.9688H10.9375" stroke="white" stroke-width="1.5" stroke-linecap="round" stroke-linejoin="round"/>
<path d="M13.0039 7.37109L19.1025 6.06055" stroke="white" stroke-width="1.5" stroke-linecap="round" stroke-linejoin="round"/>
<path d="M13.6514 10.4531L19.751 9.14258" stroke="white" stroke-width="1.5" stroke-linecap="round" stroke-linejoin="round"/>
<path d="M15.2725 18.1582L21.3711 16.8477" stroke="white" stroke-width="1.5" stroke-linecap="round" stroke-linejoin="round"/>
</g>
<defs>
<clipPath id="clip0_2360_10909">
<rect width="25" height="25" fill="white"/>
</clipPath>
</defs>
</svg>
