<svg width="24" height="24" viewBox="0 0 24 24" fill="none" xmlns="http://www.w3.org/2000/svg">
<g clip-path="url(#clip0_653_1919)">
<path d="M15.4107 16.9788C16.1028 16.3011 16.5773 15.4327 16.7737 14.4843C16.9702 13.5359 16.8797 12.5504 16.5138 11.6537C16.1478 10.7569 15.5231 9.98944 14.7192 9.44922C13.9152 8.90899 12.9686 8.62048 12.0001 8.62048C11.0315 8.62048 10.0849 8.90899 9.28101 9.44922C8.4771 9.98944 7.85233 10.7569 7.4864 11.6537C7.12047 12.5504 7.02996 13.5359 7.22642 14.4843C7.42288 15.4327 7.8974 16.3011 8.58946 16.9788C7.41772 17.6016 6.44353 18.5398 5.77696 19.6872C5.6342 19.9452 5.59841 20.2488 5.67728 20.5329C5.75615 20.817 5.94338 21.0587 6.19869 21.2062C6.45399 21.3536 6.75696 21.3949 7.04242 21.3212C7.32788 21.2476 7.57302 21.0648 7.72508 20.8122C8.16468 20.0695 8.79018 19.454 9.53995 19.0265C10.2897 18.599 11.1379 18.3742 12.001 18.3742C12.8641 18.3742 13.7123 18.599 14.4621 19.0265C15.2119 19.454 15.8374 20.0695 16.277 20.8122C16.3493 20.943 16.447 21.058 16.5644 21.1506C16.6817 21.2432 16.8163 21.3115 16.9603 21.3515C17.1043 21.3914 17.2549 21.4023 17.4031 21.3835C17.5514 21.3646 17.6944 21.3164 17.8239 21.2417C17.9533 21.1669 18.0665 21.0672 18.157 20.9482C18.2474 20.8292 18.3132 20.6933 18.3506 20.5486C18.3879 20.4039 18.3961 20.2532 18.3745 20.1053C18.353 19.9574 18.3022 19.8152 18.2251 19.6872C17.558 18.5395 16.5831 17.6013 15.4107 16.9788ZM9.37508 13.5006C9.37508 12.9815 9.52903 12.4739 9.81747 12.0423C10.1059 11.6106 10.5159 11.2741 10.9955 11.0755C11.4752 10.8768 12.003 10.8248 12.5122 10.9261C13.0214 11.0274 13.4891 11.2774 13.8562 11.6445C14.2233 12.0116 14.4734 12.4793 14.5746 12.9885C14.6759 13.4977 14.6239 14.0255 14.4253 14.5052C14.2266 14.9848 13.8901 15.3948 13.4585 15.6832C13.0268 15.9717 12.5193 16.1256 12.0001 16.1256C11.3039 16.1256 10.6362 15.8491 10.1439 15.3568C9.65164 14.8645 9.37508 14.1968 9.37508 13.5006ZM23.176 14.3997C23.0579 14.4885 22.9233 14.5532 22.7802 14.59C22.637 14.6269 22.488 14.6351 22.3416 14.6143C22.1953 14.5935 22.0544 14.544 21.9272 14.4688C21.8 14.3935 21.6888 14.2939 21.6001 14.1756C20.8191 13.136 19.7391 12.3391 18.8504 12.1469C18.6141 12.0958 18.4005 11.9699 18.2413 11.7879C18.0822 11.6059 17.9859 11.3774 17.9667 11.1364C17.9476 10.8954 18.0066 10.6546 18.135 10.4497C18.2635 10.2449 18.4545 10.0869 18.6798 9.99908C18.9603 9.88959 19.2103 9.71415 19.4086 9.48762C19.607 9.26109 19.7478 8.99012 19.8193 8.69763C19.8908 8.40514 19.8908 8.09973 19.8193 7.80724C19.7478 7.51475 19.607 7.24378 19.4086 7.01724C19.2103 6.79071 18.9603 6.61528 18.6798 6.50579C18.3993 6.3963 18.0965 6.35597 17.7972 6.38821C17.4978 6.42046 17.2106 6.52432 16.9599 6.69103C16.7091 6.85774 16.5022 7.08238 16.3566 7.34595C16.2876 7.47952 16.1925 7.5979 16.0769 7.69408C15.9614 7.79027 15.8277 7.86232 15.6838 7.90597C15.54 7.94962 15.3888 7.96398 15.2393 7.94822C15.0897 7.93245 14.9449 7.88687 14.8133 7.81417C14.6817 7.74147 14.566 7.64313 14.473 7.52495C14.3801 7.40678 14.3117 7.27117 14.2721 7.12614C14.2324 6.98111 14.2222 6.8296 14.2421 6.68057C14.262 6.53153 14.3116 6.388 14.3879 6.25845C14.6663 5.76621 15.0429 5.33647 15.4944 4.99592C15.9458 4.65537 16.4625 4.41128 17.0122 4.27882C17.562 4.14636 18.1331 4.12835 18.6902 4.22592C19.2472 4.32349 19.7782 4.53454 20.2502 4.84598C20.7222 5.15741 21.1252 5.56258 21.434 6.0363C21.7428 6.51002 21.951 7.04219 22.0455 7.59974C22.14 8.15728 22.1188 8.72831 21.9833 9.27734C21.8478 9.82637 21.6009 10.3417 21.2579 10.7913C22.0834 11.3411 22.808 12.029 23.4001 12.8247C23.5792 13.0633 23.6562 13.3632 23.6142 13.6586C23.5722 13.954 23.4146 14.2205 23.176 14.3997ZM5.14977 12.1497C4.26102 12.3419 3.18102 13.1388 2.40008 14.1794C2.22044 14.418 1.95338 14.5754 1.65766 14.6171C1.36194 14.6587 1.06178 14.5812 0.823206 14.4016C0.584635 14.2219 0.427199 13.9549 0.385531 13.6592C0.343862 13.3634 0.421376 13.0633 0.601018 12.8247C1.19337 12.0292 1.91797 11.3414 2.74321 10.7913C2.40018 10.3417 2.15325 9.82637 2.01777 9.27734C1.88228 8.72831 1.86113 8.15728 1.95563 7.59974C2.05013 7.04219 2.25827 6.51002 2.5671 6.0363C2.87593 5.56258 3.27887 5.15741 3.75089 4.84598C4.22291 4.53454 4.75392 4.32349 5.31094 4.22592C5.86796 4.12835 6.43909 4.14636 6.98886 4.27882C7.53863 4.41128 8.05529 4.65537 8.50675 4.99592C8.95821 5.33647 9.33483 5.76621 9.61321 6.25845C9.68952 6.388 9.73908 6.53153 9.75897 6.68057C9.77887 6.8296 9.76869 6.98111 9.72903 7.12614C9.68937 7.27117 9.62105 7.40678 9.52809 7.52495C9.43513 7.64313 9.31943 7.74147 9.18782 7.81417C9.05621 7.88687 8.91137 7.93245 8.76184 7.94822C8.61232 7.96398 8.46115 7.94962 8.31727 7.90597C8.17339 7.86232 8.03972 7.79027 7.92416 7.69408C7.8086 7.5979 7.71349 7.47952 7.64446 7.34595C7.49889 7.08238 7.29198 6.85774 7.04124 6.69103C6.7905 6.52432 6.50329 6.42046 6.20392 6.38821C5.90455 6.35597 5.60182 6.3963 5.32133 6.50579C5.04084 6.61528 4.79085 6.79071 4.59249 7.01724C4.39414 7.24378 4.25325 7.51475 4.18176 7.80724C4.11027 8.09973 4.11027 8.40514 4.18176 8.69763C4.25325 8.99012 4.39413 9.26109 4.59249 9.48762C4.79085 9.71415 5.04084 9.88959 5.32133 9.99908C5.54662 10.0869 5.73763 10.2449 5.86606 10.4497C5.99449 10.6546 6.0535 10.8954 6.03436 11.1364C6.01521 11.3774 5.91892 11.6059 5.75976 11.7879C5.60059 11.9699 5.38703 12.0958 5.15071 12.1469L5.14977 12.1497Z" fill="#016630"/>
</g>
<defs>
<clipPath id="clip0_653_1919">
<rect width="24" height="24" fill="white"/>
</clipPath>
</defs>
</svg>
