<svg width="32" height="32" viewBox="0 0 32 32" fill="none" xmlns="http://www.w3.org/2000/svg">
<path d="M31.9999 17C31.9999 17.2652 31.8946 17.5196 31.707 17.7071C31.5195 17.8946 31.2651 18 30.9999 18H28.9999V20C28.9999 20.2652 28.8946 20.5196 28.707 20.7071C28.5195 20.8946 28.2651 21 27.9999 21C27.7347 21 27.4803 20.8946 27.2928 20.7071C27.1053 20.5196 26.9999 20.2652 26.9999 20V18H24.9999C24.7347 18 24.4803 17.8946 24.2928 17.7071C24.1053 17.5196 23.9999 17.2652 23.9999 17C23.9999 16.7348 24.1053 16.4804 24.2928 16.2929C24.4803 16.1054 24.7347 16 24.9999 16H26.9999V14C26.9999 13.7348 27.1053 13.4804 27.2928 13.2929C27.4803 13.1054 27.7347 13 27.9999 13C28.2651 13 28.5195 13.1054 28.707 13.2929C28.8946 13.4804 28.9999 13.7348 28.9999 14V16H30.9999C31.2651 16 31.5195 16.1054 31.707 16.2929C31.8946 16.4804 31.9999 16.7348 31.9999 17ZM24.7662 24.3562C24.9369 24.5595 25.0199 24.8222 24.9969 25.0866C24.974 25.351 24.8469 25.5955 24.6437 25.7662C24.4404 25.937 24.1777 26.02 23.9133 25.997C23.6489 25.974 23.4044 25.847 23.2337 25.6437C20.7187 22.6487 17.2612 21 13.4999 21C9.73867 21 6.28117 22.6487 3.76617 25.6437C3.59544 25.8468 3.35103 25.9737 3.08672 25.9966C2.82241 26.0194 2.55985 25.9364 2.35679 25.7656C2.15374 25.5949 2.02682 25.3505 2.00397 25.0862C1.98111 24.8219 2.06419 24.5593 2.23492 24.3562C4.10242 22.1337 6.42492 20.555 9.00617 19.71C7.43855 18.7336 6.23157 17.2733 5.56784 15.5498C4.9041 13.8264 4.81973 11.9337 5.32748 10.1581C5.83523 8.38242 6.90748 6.82045 8.38201 5.70847C9.85653 4.59649 11.6531 3.995 13.4999 3.995C15.3467 3.995 17.1433 4.59649 18.6178 5.70847C20.0924 6.82045 21.1646 8.38242 21.6724 10.1581C22.1801 11.9337 22.0957 13.8264 21.432 15.5498C20.7683 17.2733 19.5613 18.7336 17.9937 19.71C20.5749 20.555 22.8974 22.1337 24.7662 24.3562ZM13.4999 19C14.7855 19 16.0422 18.6188 17.1111 17.9045C18.18 17.1903 19.0132 16.1752 19.5051 14.9874C19.9971 13.7997 20.1258 12.4928 19.875 11.2319C19.6242 9.97103 19.0052 8.81284 18.0961 7.9038C17.1871 6.99476 16.0289 6.37569 14.768 6.12489C13.5071 5.87409 12.2002 6.00281 11.0125 6.49478C9.82476 6.98675 8.8096 7.81987 8.09537 8.88879C7.38114 9.95771 6.99992 11.2144 6.99992 12.5C7.0019 14.2233 7.68736 15.8754 8.90592 17.094C10.1245 18.3126 11.7766 18.998 13.4999 19Z" fill="black"/>
</svg>
