<svg width="24" height="24" viewBox="0 0 24 24" fill="none" xmlns="http://www.w3.org/2000/svg">
<path d="M21 20.9999H17.1506L16.56 16.8637L16.8638 17.0428C17.0335 17.1428 17.2213 17.2083 17.4164 17.2358C17.6115 17.2632 17.8102 17.2519 18.0009 17.2025C18.1916 17.1531 18.3708 17.0667 18.5281 16.9481C18.6855 16.8294 18.8179 16.681 18.9178 16.5112L20.0428 14.6043C20.1428 14.4346 20.2084 14.2468 20.2358 14.0516C20.2632 13.8565 20.2519 13.6579 20.2026 13.4672C20.1532 13.2764 20.0667 13.0973 19.9481 12.9399C19.8295 12.7826 19.6811 12.6502 19.5112 12.5503L16.23 10.6181L20.0447 4.13713C20.1447 3.96737 20.2103 3.77956 20.2377 3.58445C20.2651 3.38933 20.2538 3.19073 20.2044 2.99998C20.1551 2.80923 20.0686 2.63008 19.95 2.47275C19.8314 2.31543 19.6829 2.18301 19.5131 2.08307L17.6063 0.958071C17.4365 0.858064 17.2487 0.792483 17.0536 0.765073C16.8585 0.737664 16.6598 0.748963 16.4691 0.798326C16.2784 0.847689 16.0992 0.934148 15.9419 1.05276C15.7845 1.17138 15.6521 1.31983 15.5522 1.48963L13.62 4.77088L7.13625 0.958071C6.96649 0.858064 6.77868 0.792483 6.58357 0.765073C6.38845 0.737664 6.18985 0.748963 5.9991 0.798326C5.80835 0.847689 5.6292 0.934148 5.47187 1.05276C5.31454 1.17138 5.18213 1.31983 5.08219 1.48963L3.95719 3.39557C3.85703 3.56537 3.79134 3.75325 3.76385 3.94847C3.73636 4.14368 3.74762 4.3424 3.79699 4.53326C3.84636 4.72412 3.93287 4.90337 4.05156 5.06077C4.17026 5.21817 4.31882 5.35063 4.48875 5.45057L7.77 7.38276L3.95719 13.8637C3.85718 14.0335 3.7916 14.2213 3.76419 14.4164C3.73678 14.6115 3.74808 14.8101 3.79744 15.0008C3.84681 15.1916 3.93326 15.3707 4.05188 15.5281C4.1705 15.6854 4.31895 15.8178 4.48875 15.9178L6.39563 17.0428C6.69343 17.2212 7.0451 17.2877 7.3875 17.2303L6.84937 20.9999H3C2.80109 20.9999 2.61032 21.079 2.46967 21.2196C2.32902 21.3603 2.25 21.551 2.25 21.7499C2.25 21.9489 2.32902 22.1396 2.46967 22.2803C2.61032 22.4209 2.80109 22.4999 3 22.4999H21C21.1989 22.4999 21.3897 22.4209 21.5303 22.2803C21.671 22.1396 21.75 21.9489 21.75 21.7499C21.75 21.551 21.671 21.3603 21.5303 21.2196C21.3897 21.079 21.1989 20.9999 21 20.9999ZM18.75 13.8431L17.625 15.7499L11.1441 11.9353L12.2691 10.0274L18.75 13.8431ZM16.8431 2.24995L18.75 3.37495L14.9353 9.85682L13.0312 8.73463L16.8431 2.24995ZM5.25 4.15776L6.375 2.24995L12.8569 6.06557L11.7319 7.97338L5.25 4.15776ZM7.15687 15.7499L5.25 14.6249L9.06469 8.14307L10.9734 9.26807L7.15687 15.7499ZM8.36438 20.9999L9.1875 15.2624L10.3847 13.2281L14.9062 15.8906L15.6366 20.9999H8.36438Z" fill="black"/>
</svg>
